M48
; DRILL file {KiCad 8.0.4} date 2024-08-15T14:36:34+0200
; FORMAT={-:-/ absolute / inch / decimal}
; #@! TF.CreationDate,2024-08-15T14:36:34+02:00
; #@! TF.GenerationSoftware,Kicad,Pcbnew,8.0.4
; #@! TF.FileFunction,NonPlated,1,2,NPTH
FMAT,2
INCH
; #@! TA.AperFunction,NonPlated,NPTH,ComponentDrill
T1C0.0689
; #@! TA.AperFunction,NonPlated,NPTH,ComponentDrill
T2C0.1570
%
G90
G05
T1
X1.3Y-1.7812
X1.3Y-2.5312
X1.3Y-3.2812
X1.3Y-4.0312
X1.7Y-1.7812
X1.7Y-2.5312
X1.7Y-3.2812
X1.7Y-4.0312
X2.05Y-1.7812
X2.05Y-2.5312
X2.05Y-3.2812
X2.05Y-4.0312
X2.45Y-1.7812
X2.45Y-2.5312
X2.45Y-3.2812
X2.45Y-4.0312
X2.8Y-1.5938
X2.8Y-2.3438
X2.8Y-3.0938
X2.8Y-3.8438
X2.8Y-4.5938
X3.2Y-1.5938
X3.2Y-2.3438
X3.2Y-3.0938
X3.2Y-3.8438
X3.2Y-4.5938
X3.55Y-1.5
X3.55Y-2.25
X3.55Y-3.0
X3.55Y-3.75
X3.55Y-4.5
X3.95Y-1.5
X3.95Y-2.25
X3.95Y-3.0
X3.95Y-3.75
X3.95Y-4.5
X4.3Y-1.5938
X4.3Y-2.3438
X4.3Y-3.0938
X4.3Y-3.8438
X4.3Y-4.5938
X4.7Y-1.5938
X4.7Y-2.3438
X4.7Y-3.0938
X4.7Y-3.8438
X4.7Y-4.5938
X5.05Y-1.6875
X5.05Y-2.4375
X5.05Y-3.1875
X5.05Y-3.9375
X5.1909Y-4.738
X5.45Y-1.6875
X5.45Y-2.4375
X5.45Y-3.1875
X5.45Y-3.9375
X5.5773Y-4.8415
X6.0977Y-4.862
X6.4441Y-5.062
T2
X1.5Y-1.7812
X1.5Y-2.5312
X1.5Y-3.2812
X1.5Y-4.0312
X2.25Y-1.7812
X2.25Y-2.5312
X2.25Y-3.2812
X2.25Y-4.0312
X3.0Y-1.5938
X3.0Y-2.3438
X3.0Y-3.0938
X3.0Y-3.8438
X3.0Y-4.5938
X3.75Y-1.5
X3.75Y-2.25
X3.75Y-3.0
X3.75Y-3.75
X3.75Y-4.5
X4.5Y-1.5938
X4.5Y-2.3438
X4.5Y-3.0938
X4.5Y-3.8438
X4.5Y-4.5938
X5.25Y-1.6875
X5.25Y-2.4375
X5.25Y-3.1875
X5.25Y-3.9375
X5.3841Y-4.7897
X6.2709Y-4.962
M30
