%TF.GenerationSoftware,KiCad,Pcbnew,7.0.10*%
%TF.CreationDate,2024-04-22T22:33:16+02:00*%
%TF.ProjectId,pcb-left,7063622d-6c65-4667-942e-6b696361645f,rev?*%
%TF.SameCoordinates,Original*%
%TF.FileFunction,Legend,Top*%
%TF.FilePolarity,Positive*%
%FSLAX46Y46*%
G04 Gerber Fmt 4.6, Leading zero omitted, Abs format (unit mm)*
G04 Created by KiCad (PCBNEW 7.0.10) date 2024-04-22 22:33:16*
%MOMM*%
%LPD*%
G01*
G04 APERTURE LIST*
%ADD10C,0.150000*%
%ADD11C,0.120000*%
G04 APERTURE END LIST*
D10*
X166524819Y-53113333D02*
X167239104Y-53113333D01*
X167239104Y-53113333D02*
X167381961Y-53160952D01*
X167381961Y-53160952D02*
X167477200Y-53256190D01*
X167477200Y-53256190D02*
X167524819Y-53399047D01*
X167524819Y-53399047D02*
X167524819Y-53494285D01*
X166620057Y-52684761D02*
X166572438Y-52637142D01*
X166572438Y-52637142D02*
X166524819Y-52541904D01*
X166524819Y-52541904D02*
X166524819Y-52303809D01*
X166524819Y-52303809D02*
X166572438Y-52208571D01*
X166572438Y-52208571D02*
X166620057Y-52160952D01*
X166620057Y-52160952D02*
X166715295Y-52113333D01*
X166715295Y-52113333D02*
X166810533Y-52113333D01*
X166810533Y-52113333D02*
X166953390Y-52160952D01*
X166953390Y-52160952D02*
X167524819Y-52732380D01*
X167524819Y-52732380D02*
X167524819Y-52113333D01*
X156362142Y-60609580D02*
X156314523Y-60657200D01*
X156314523Y-60657200D02*
X156171666Y-60704819D01*
X156171666Y-60704819D02*
X156076428Y-60704819D01*
X156076428Y-60704819D02*
X155933571Y-60657200D01*
X155933571Y-60657200D02*
X155838333Y-60561961D01*
X155838333Y-60561961D02*
X155790714Y-60466723D01*
X155790714Y-60466723D02*
X155743095Y-60276247D01*
X155743095Y-60276247D02*
X155743095Y-60133390D01*
X155743095Y-60133390D02*
X155790714Y-59942914D01*
X155790714Y-59942914D02*
X155838333Y-59847676D01*
X155838333Y-59847676D02*
X155933571Y-59752438D01*
X155933571Y-59752438D02*
X156076428Y-59704819D01*
X156076428Y-59704819D02*
X156171666Y-59704819D01*
X156171666Y-59704819D02*
X156314523Y-59752438D01*
X156314523Y-59752438D02*
X156362142Y-59800057D01*
X157314523Y-60704819D02*
X156743095Y-60704819D01*
X157028809Y-60704819D02*
X157028809Y-59704819D01*
X157028809Y-59704819D02*
X156933571Y-59847676D01*
X156933571Y-59847676D02*
X156838333Y-59942914D01*
X156838333Y-59942914D02*
X156743095Y-59990533D01*
X157933571Y-59704819D02*
X158028809Y-59704819D01*
X158028809Y-59704819D02*
X158124047Y-59752438D01*
X158124047Y-59752438D02*
X158171666Y-59800057D01*
X158171666Y-59800057D02*
X158219285Y-59895295D01*
X158219285Y-59895295D02*
X158266904Y-60085771D01*
X158266904Y-60085771D02*
X158266904Y-60323866D01*
X158266904Y-60323866D02*
X158219285Y-60514342D01*
X158219285Y-60514342D02*
X158171666Y-60609580D01*
X158171666Y-60609580D02*
X158124047Y-60657200D01*
X158124047Y-60657200D02*
X158028809Y-60704819D01*
X158028809Y-60704819D02*
X157933571Y-60704819D01*
X157933571Y-60704819D02*
X157838333Y-60657200D01*
X157838333Y-60657200D02*
X157790714Y-60609580D01*
X157790714Y-60609580D02*
X157743095Y-60514342D01*
X157743095Y-60514342D02*
X157695476Y-60323866D01*
X157695476Y-60323866D02*
X157695476Y-60085771D01*
X157695476Y-60085771D02*
X157743095Y-59895295D01*
X157743095Y-59895295D02*
X157790714Y-59800057D01*
X157790714Y-59800057D02*
X157838333Y-59752438D01*
X157838333Y-59752438D02*
X157933571Y-59704819D01*
X152537200Y-54153332D02*
X152584819Y-54010475D01*
X152584819Y-54010475D02*
X152584819Y-53772380D01*
X152584819Y-53772380D02*
X152537200Y-53677142D01*
X152537200Y-53677142D02*
X152489580Y-53629523D01*
X152489580Y-53629523D02*
X152394342Y-53581904D01*
X152394342Y-53581904D02*
X152299104Y-53581904D01*
X152299104Y-53581904D02*
X152203866Y-53629523D01*
X152203866Y-53629523D02*
X152156247Y-53677142D01*
X152156247Y-53677142D02*
X152108628Y-53772380D01*
X152108628Y-53772380D02*
X152061009Y-53962856D01*
X152061009Y-53962856D02*
X152013390Y-54058094D01*
X152013390Y-54058094D02*
X151965771Y-54105713D01*
X151965771Y-54105713D02*
X151870533Y-54153332D01*
X151870533Y-54153332D02*
X151775295Y-54153332D01*
X151775295Y-54153332D02*
X151680057Y-54105713D01*
X151680057Y-54105713D02*
X151632438Y-54058094D01*
X151632438Y-54058094D02*
X151584819Y-53962856D01*
X151584819Y-53962856D02*
X151584819Y-53724761D01*
X151584819Y-53724761D02*
X151632438Y-53581904D01*
X151584819Y-53248570D02*
X152584819Y-53010475D01*
X152584819Y-53010475D02*
X151870533Y-52819999D01*
X151870533Y-52819999D02*
X152584819Y-52629523D01*
X152584819Y-52629523D02*
X151584819Y-52391428D01*
X152584819Y-51486666D02*
X152584819Y-52058094D01*
X152584819Y-51772380D02*
X151584819Y-51772380D01*
X151584819Y-51772380D02*
X151727676Y-51867618D01*
X151727676Y-51867618D02*
X151822914Y-51962856D01*
X151822914Y-51962856D02*
X151870533Y-52058094D01*
X155904819Y-44053333D02*
X156619104Y-44053333D01*
X156619104Y-44053333D02*
X156761961Y-44100952D01*
X156761961Y-44100952D02*
X156857200Y-44196190D01*
X156857200Y-44196190D02*
X156904819Y-44339047D01*
X156904819Y-44339047D02*
X156904819Y-44434285D01*
X155904819Y-43672380D02*
X155904819Y-43053333D01*
X155904819Y-43053333D02*
X156285771Y-43386666D01*
X156285771Y-43386666D02*
X156285771Y-43243809D01*
X156285771Y-43243809D02*
X156333390Y-43148571D01*
X156333390Y-43148571D02*
X156381009Y-43100952D01*
X156381009Y-43100952D02*
X156476247Y-43053333D01*
X156476247Y-43053333D02*
X156714342Y-43053333D01*
X156714342Y-43053333D02*
X156809580Y-43100952D01*
X156809580Y-43100952D02*
X156857200Y-43148571D01*
X156857200Y-43148571D02*
X156904819Y-43243809D01*
X156904819Y-43243809D02*
X156904819Y-43529523D01*
X156904819Y-43529523D02*
X156857200Y-43624761D01*
X156857200Y-43624761D02*
X156809580Y-43672380D01*
X166646667Y-103917200D02*
X166789524Y-103964819D01*
X166789524Y-103964819D02*
X167027619Y-103964819D01*
X167027619Y-103964819D02*
X167122857Y-103917200D01*
X167122857Y-103917200D02*
X167170476Y-103869580D01*
X167170476Y-103869580D02*
X167218095Y-103774342D01*
X167218095Y-103774342D02*
X167218095Y-103679104D01*
X167218095Y-103679104D02*
X167170476Y-103583866D01*
X167170476Y-103583866D02*
X167122857Y-103536247D01*
X167122857Y-103536247D02*
X167027619Y-103488628D01*
X167027619Y-103488628D02*
X166837143Y-103441009D01*
X166837143Y-103441009D02*
X166741905Y-103393390D01*
X166741905Y-103393390D02*
X166694286Y-103345771D01*
X166694286Y-103345771D02*
X166646667Y-103250533D01*
X166646667Y-103250533D02*
X166646667Y-103155295D01*
X166646667Y-103155295D02*
X166694286Y-103060057D01*
X166694286Y-103060057D02*
X166741905Y-103012438D01*
X166741905Y-103012438D02*
X166837143Y-102964819D01*
X166837143Y-102964819D02*
X167075238Y-102964819D01*
X167075238Y-102964819D02*
X167218095Y-103012438D01*
X167551429Y-102964819D02*
X167789524Y-103964819D01*
X167789524Y-103964819D02*
X167980000Y-103250533D01*
X167980000Y-103250533D02*
X168170476Y-103964819D01*
X168170476Y-103964819D02*
X168408572Y-102964819D01*
X168741905Y-103060057D02*
X168789524Y-103012438D01*
X168789524Y-103012438D02*
X168884762Y-102964819D01*
X168884762Y-102964819D02*
X169122857Y-102964819D01*
X169122857Y-102964819D02*
X169218095Y-103012438D01*
X169218095Y-103012438D02*
X169265714Y-103060057D01*
X169265714Y-103060057D02*
X169313333Y-103155295D01*
X169313333Y-103155295D02*
X169313333Y-103250533D01*
X169313333Y-103250533D02*
X169265714Y-103393390D01*
X169265714Y-103393390D02*
X168694286Y-103964819D01*
X168694286Y-103964819D02*
X169313333Y-103964819D01*
X176446666Y-79944819D02*
X176446666Y-80659104D01*
X176446666Y-80659104D02*
X176399047Y-80801961D01*
X176399047Y-80801961D02*
X176303809Y-80897200D01*
X176303809Y-80897200D02*
X176160952Y-80944819D01*
X176160952Y-80944819D02*
X176065714Y-80944819D01*
X177446666Y-80944819D02*
X176875238Y-80944819D01*
X177160952Y-80944819D02*
X177160952Y-79944819D01*
X177160952Y-79944819D02*
X177065714Y-80087676D01*
X177065714Y-80087676D02*
X176970476Y-80182914D01*
X176970476Y-80182914D02*
X176875238Y-80230533D01*
D11*
%TO.C,J2*%
X169160000Y-57290000D02*
X169160000Y-55840000D01*
X170910000Y-57290000D02*
X169160000Y-57290000D01*
X173130000Y-57290000D02*
X173680000Y-57290000D01*
X173680000Y-57290000D02*
X173680000Y-48270000D01*
X169160000Y-55840000D02*
X168270000Y-55840000D01*
X169160000Y-48270000D02*
X169160000Y-49720000D01*
X170910000Y-48270000D02*
X169160000Y-48270000D01*
X173680000Y-48270000D02*
X173130000Y-48270000D01*
%TO.C,R3*%
X163297500Y-61207742D02*
X163297500Y-61682258D01*
X162252500Y-61207742D02*
X162252500Y-61682258D01*
%TO.C,R1*%
X166802500Y-61192742D02*
X166802500Y-61667258D01*
X165757500Y-61192742D02*
X165757500Y-61667258D01*
%TO.C,C10*%
X157145580Y-59330000D02*
X156864420Y-59330000D01*
X157145580Y-58310000D02*
X156864420Y-58310000D01*
%TO.C,R2*%
X168602500Y-61192742D02*
X168602500Y-61667258D01*
X167557500Y-61192742D02*
X167557500Y-61667258D01*
%TO.C,SW1*%
X154880000Y-55570000D02*
X156880000Y-55570000D01*
X153580000Y-54520000D02*
X153130000Y-54070000D01*
X158180000Y-54520000D02*
X158630000Y-54070000D01*
X153130000Y-54070000D02*
X153130000Y-51570000D01*
X158630000Y-54070000D02*
X158630000Y-51570000D01*
X153580000Y-51120000D02*
X153130000Y-51570000D01*
X158180000Y-51120000D02*
X158630000Y-51570000D01*
X154880000Y-50070000D02*
X156880000Y-50070000D01*
%TO.C,J3*%
X157450000Y-45050000D02*
X157450000Y-43720000D01*
X158780000Y-45050000D02*
X157450000Y-45050000D01*
X160050000Y-45050000D02*
X167730000Y-45050000D01*
X160050000Y-45050000D02*
X160050000Y-42390000D01*
X167730000Y-45050000D02*
X167730000Y-42390000D01*
X160050000Y-42390000D02*
X167730000Y-42390000D01*
%TO.C,SW2*%
X170290000Y-102570000D02*
X165680000Y-102570000D01*
X170290000Y-99810000D02*
X170290000Y-102570000D01*
X170290000Y-97710000D02*
X170290000Y-97110000D01*
X170290000Y-95410000D02*
X170290000Y-94610000D01*
X170290000Y-92910000D02*
X170290000Y-89950000D01*
X165680000Y-89950000D02*
X170290000Y-89950000D01*
X161280000Y-102560000D02*
X156670000Y-102560000D01*
X156670000Y-102560000D02*
X156670000Y-99860000D01*
X156670000Y-97660000D02*
X156670000Y-94860000D01*
X156670000Y-92660000D02*
X156670000Y-89950000D01*
X156670000Y-89950000D02*
X161280000Y-89950000D01*
%TO.C,R5*%
X165097500Y-61197742D02*
X165097500Y-61672258D01*
X164052500Y-61197742D02*
X164052500Y-61672258D01*
%TO.C,J1*%
X175450000Y-81490000D02*
X176780000Y-81490000D01*
X175450000Y-82820000D02*
X175450000Y-81490000D01*
X175450000Y-84090000D02*
X175450000Y-86690000D01*
X175450000Y-84090000D02*
X178110000Y-84090000D01*
X175450000Y-86690000D02*
X178110000Y-86690000D01*
X178110000Y-84090000D02*
X178110000Y-86690000D01*
%TD*%
M02*
