M48
; DRILL file {KiCad 7.0.10} date Mo 22 Apr 2024 22:33:24 CEST
; FORMAT={-:-/ absolute / inch / decimal}
; #@! TF.CreationDate,2024-04-22T22:33:24+02:00
; #@! TF.GenerationSoftware,Kicad,Pcbnew,7.0.10
; #@! TF.FileFunction,Plated,1,2,PTH
FMAT,2
INCH
; #@! TA.AperFunction,Plated,PTH,ViaDrill
T1C0.0118
; #@! TA.AperFunction,Plated,PTH,ViaDrill
T2C0.0157
; #@! TA.AperFunction,Plated,PTH,ComponentDrill
T3C0.0394
; #@! TA.AperFunction,Plated,PTH,ComponentDrill
T4C0.0787
; #@! TA.AperFunction,Plated,PTH,ComponentDrill
T5C0.1181
%
G90
G05
T1
X1.5197Y-1.7352
X1.5197Y-2.2854
X1.5197Y-2.4862
X1.5197Y-2.8079
X1.5197Y-3.0354
X1.5197Y-3.2352
X1.5197Y-3.7854
X2.2697Y-1.7352
X2.2697Y-2.2854
X2.2697Y-2.4852
X2.2697Y-2.7173
X2.2697Y-3.0354
X2.2697Y-3.2352
X2.2697Y-3.7864
X2.2697Y-3.9852
X2.5904Y-4.3542
X3.0189Y-2.6937
X3.0197Y-1.5482
X3.0197Y-2.0984
X3.0197Y-2.2972
X3.0197Y-2.8474
X3.0197Y-3.0482
X3.0197Y-3.5984
X3.0197Y-3.7982
X3.252Y-4.1437
X3.7697Y-3.5039
X3.7697Y-1.4547
X3.7697Y-2.0039
X3.7697Y-2.2037
X3.7697Y-2.5902
X3.7697Y-2.7549
X3.7697Y-2.9547
X3.7697Y-3.7037
X4.1083Y-4.0915
X4.5189Y-2.5677
X4.5197Y-1.5482
X4.5197Y-2.0984
X4.5197Y-2.2982
X4.5197Y-2.8484
X4.5197Y-3.0482
X4.5197Y-3.5974
X4.5207Y-3.7982
X4.6083Y-4.0423
X5.2697Y-1.6417
X5.2697Y-2.1919
X5.2697Y-2.3917
X5.2697Y-2.5441
X5.2697Y-2.9429
X5.2697Y-3.1417
X5.2697Y-3.6929
X5.8417Y-2.6701
X5.8417Y-2.7094
X5.8417Y-2.7488
X5.8417Y-2.7882
X5.8417Y-2.8276
X5.8427Y-2.6307
X5.9636Y-3.1624
X5.9636Y-3.8858
X6.001Y-3.1624
X6.0635Y-4.9218
X6.064Y-4.2126
X6.2157Y-3.1465
X6.4087Y-2.5047
X6.448Y-2.3354
X6.4795Y-2.5047
X6.5091Y-2.2744
X6.5465Y-2.5039
X6.5858Y-2.6661
X6.6173Y-2.5039
X6.6213Y-2.6976
X6.8456Y-2.863
X6.8457Y-2.7567
X6.8693Y-2.7291
X6.8693Y-2.7862
X6.8693Y-2.8354
X6.8693Y-2.8906
T2
X1.4677Y-2.5382
X1.4697Y-1.7902
X1.4697Y-2.2094
X1.4697Y-2.9713
X1.4697Y-3.2803
X1.4697Y-3.7232
X1.4894Y-1.4831
X1.5622Y-4.2114
X1.5917Y-2.6189
X1.637Y-2.8217
X1.6783Y-3.3551
X1.6882Y-1.8531
X1.7138Y-3.7055
X1.7315Y-2.2409
X1.7413Y-1.4831
X1.7512Y-3.0008
X1.9421Y-4.0402
X2.0287Y-2.8689
X2.137Y-4.3354
X2.1449Y-3.5205
X2.1469Y-1.6327
X2.1528Y-2.3866
X2.1626Y-2.0539
X2.1862Y-2.6681
X2.4441Y-1.7764
X2.4461Y-2.9988
X2.45Y-2.1839
X2.4579Y-1.4181
X2.4618Y-3.7547
X2.5228Y-4.1642
X2.6685Y-3.487
X2.6843Y-1.7705
X2.6843Y-2.5283
X2.6921Y-3.2744
X2.7669Y-4.4988
X2.7709Y-2.6524
X2.8909Y-1.9614
X2.8949Y-2.8965
X2.9126Y-4.2291
X2.9283Y-1.2803
X2.9343Y-2.3768
X2.9362Y-1.6366
X2.9441Y-3.1346
X2.9913Y-4.0106
X3.1311Y-3.2173
X3.1567Y-2.4811
X3.1646Y-3.9063
X3.1705Y-1.7587
X3.2236Y-3.5579
X3.2295Y-2.0579
X3.2453Y-2.8354
X3.2571Y-1.3197
X3.4382Y-4.2488
X3.45Y-2.4122
X3.45Y-3.928
X3.4559Y-1.6701
X3.4815Y-3.1425
X3.5228Y-2.6366
X3.5602Y-4.0854
X3.6311Y-3.365
X3.6469Y-1.7646
X3.6665Y-1.4594
X3.6665Y-2.1957
X3.6665Y-2.9417
X3.6724Y-3.6858
X3.6941Y-1.2035
X3.6961Y-2.4535
X3.7413Y-4.7469
X3.7453Y-3.8925
X3.8555Y-1.6602
X3.9106Y-2.4358
X3.9185Y-3.1996
X3.9421Y-1.4969
X3.9697Y-2.7331
X3.9717Y-4.0835
X3.9795Y-4.2291
X3.9972Y-1.9732
X4.0031Y-3.4909
X4.0209Y-1.2272
X4.0287Y-3.8689
X4.1843Y-1.4969
X4.1862Y-2.2528
X4.1902Y-3.0106
X4.2Y-4.0264
X4.2079Y-4.5402
X4.3358Y-3.8965
X4.3634Y-3.2488
X4.3988Y-2.489
X4.4106Y-1.7665
X4.4146Y-2.1012
X4.4205Y-4.3374
X4.4283Y-3.5972
X4.4303Y-2.7291
X4.4441Y-3.0598
X4.4461Y-1.5657
X4.4598Y-1.2154
X4.4657Y-4.0264
X4.5031Y-4.798
X4.5051Y-4.5677
X4.5228Y-4.178
X4.6055Y-2.7272
X4.6291Y-1.7587
X4.635Y-2.489
X4.6567Y-3.2882
X4.6803Y-2.3472
X4.6803Y-3.9693
X4.6823Y-3.1031
X4.6882Y-1.5894
X4.7217Y-2.0638
X4.7492Y-3.5953
X4.7492Y-4.3236
X4.7689Y-1.3098
X4.9343Y-2.3433
X4.9362Y-1.5894
X4.9382Y-4.5894
X4.9421Y-3.1012
X4.9539Y-4.2134
X5.0701Y-2.4929
X5.0976Y-3.987
X5.1094Y-3.3846
X5.1213Y-2.7272
X5.1409Y-2.9417
X5.1508Y-4.8689
X5.1606Y-1.8512
X5.1626Y-4.1386
X5.1685Y-2.1917
X5.1744Y-3.7035
X5.1941Y-4.4339
X5.2098Y-1.6701
X5.2197Y-1.363
X5.2689Y-3.9319
X5.3555Y-2.7232
X5.3575Y-2.8256
X5.3673Y-4.7409
X5.3949Y-3.422
X5.4264Y-1.8591
X5.4362Y-3.1839
X5.4382Y-2.4319
X5.4402Y-1.6917
X5.452Y-4.4319
X5.4756Y-2.1524
X5.4913Y-5.0028
X5.5012Y-3.678
X5.5366Y-4.1406
X5.637Y-2.7252
X5.6862Y-3.9339
X5.6902Y-2.4417
X5.6902Y-3.1878
X5.6921Y-1.6917
X5.7413Y-4.0854
X5.7492Y-2.8217
X5.8004Y-1.3177
X5.8181Y-4.8551
X5.8299Y-4.4398
X5.8594Y-3.422
X5.8614Y-1.8906
X5.8811Y-3.0224
X5.8929Y-2.2882
X5.8949Y-3.7843
X5.9323Y-4.0835
X6.0031Y-4.3472
X6.011Y-1.548
X6.0169Y-2.5539
X6.0602Y-2.9575
X6.0602Y-3.5146
X6.0681Y-4.0815
X6.072Y-3.1327
X6.078Y-3.798
X6.0858Y-2.678
X6.1114Y-1.8256
X6.1311Y-2.0795
X6.1508Y-4.7469
X6.1587Y-2.422
X6.2472Y-3.0539
X6.263Y-4.2882
X6.2709Y-5.2469
X6.2748Y-3.3236
X6.2807Y-5.0146
X6.2866Y-3.9516
X6.3339Y-3.2173
X6.3555Y-1.4181
X6.3555Y-2.7035
X6.3654Y-2.9417
X6.4244Y-2.7055
X6.4264Y-3.3866
X6.4283Y-3.7921
X6.4461Y-1.8374
X6.4756Y-5.2232
X6.511Y-2.0756
X6.572Y-4.4437
X6.5799Y-3.5047
X6.5898Y-3.1858
X6.6118Y-1.913
X6.6232Y-4.8354
X6.637Y-2.9417
X6.6567Y-5.2252
X6.6646Y-5.3709
X6.6921Y-2.4693
X6.7059Y-2.3236
X6.7118Y-2.0795
X6.7205Y-1.9921
X6.7433Y-4.0776
X6.8043Y-1.4122
X6.8043Y-1.7508
X6.8043Y-2.1622
X6.8319Y-3.0028
X6.8417Y-3.4614
X6.8634Y-2.4949
X6.8634Y-2.6406
X6.9244Y-2.4772
X6.9244Y-3.0992
X6.9657Y-5.3453
X6.9717Y-4.4614
X6.9874Y-4.0756
X6.9953Y-4.922
X7.015Y-2.3807
X7.0169Y-2.8354
X7.0327Y-3.5303
X7.0406Y-3.1543
T3
X6.1606Y-3.6913
X6.1606Y-3.8882
X6.2512Y-1.7213
X6.3512Y-1.7213
X6.4512Y-1.7213
X6.5512Y-1.7213
X6.7315Y-3.6913
X6.7315Y-3.7898
X6.7315Y-3.8882
X6.9598Y-3.2606
X6.9598Y-3.3606
T5
X1.6594Y-1.6354
X1.6594Y-2.3854
X1.6594Y-3.1354
X1.6594Y-3.8854
X1.9094Y-1.5354
X1.9094Y-2.2854
X1.9094Y-3.0354
X1.9094Y-3.7854
X2.4094Y-1.6354
X2.4094Y-2.3854
X2.4094Y-3.1354
X2.4094Y-3.8854
X2.6594Y-1.5354
X2.6594Y-2.2854
X2.6594Y-3.0354
X2.6594Y-3.7854
X3.1594Y-1.4479
X3.1594Y-2.1979
X3.1594Y-2.9479
X3.1594Y-3.6979
X3.4094Y-1.3479
X3.4094Y-2.0979
X3.4094Y-2.8479
X3.4094Y-3.5979
X3.9094Y-1.3542
X3.9094Y-2.1042
X3.9094Y-2.8542
X3.9094Y-3.6042
X3.9094Y-4.3542
X4.1594Y-1.2542
X4.1594Y-2.0042
X4.1594Y-2.7542
X4.1594Y-3.5042
X4.1594Y-4.2542
X4.6594Y-1.4479
X4.6594Y-2.1979
X4.6594Y-2.9479
X4.6594Y-3.6979
X4.6594Y-4.4479
X4.9094Y-1.3479
X4.9094Y-2.0979
X4.9094Y-2.8479
X4.9094Y-3.5979
X4.9094Y-4.3479
X5.4094Y-1.5417
X5.4094Y-2.2917
X5.4094Y-3.0417
X5.4094Y-3.7917
X5.5746Y-4.6085
X5.6594Y-1.4417
X5.6594Y-2.1917
X5.6594Y-2.9417
X5.6594Y-3.6917
X5.8419Y-4.5766
X6.4879Y-4.9639
X6.7544Y-5.0023
T4
G00X6.4579Y-3.5693
M15
G01X6.4146Y-3.5693
M16
G05
G00X6.4579Y-4.0102
M15
G01X6.4146Y-4.0102
M16
G05
M30
