%TF.GenerationSoftware,KiCad,Pcbnew,7.0.10*%
%TF.CreationDate,2024-04-22T22:33:16+02:00*%
%TF.ProjectId,pcb-left,7063622d-6c65-4667-942e-6b696361645f,rev?*%
%TF.SameCoordinates,Original*%
%TF.FileFunction,Soldermask,Top*%
%TF.FilePolarity,Negative*%
%FSLAX46Y46*%
G04 Gerber Fmt 4.6, Leading zero omitted, Abs format (unit mm)*
G04 Created by KiCad (PCBNEW 7.0.10) date 2024-04-22 22:33:16*
%MOMM*%
%LPD*%
G01*
G04 APERTURE LIST*
G04 Aperture macros list*
%AMRoundRect*
0 Rectangle with rounded corners*
0 $1 Rounding radius*
0 $2 $3 $4 $5 $6 $7 $8 $9 X,Y pos of 4 corners*
0 Add a 4 corners polygon primitive as box body*
4,1,4,$2,$3,$4,$5,$6,$7,$8,$9,$2,$3,0*
0 Add four circle primitives for the rounded corners*
1,1,$1+$1,$2,$3*
1,1,$1+$1,$4,$5*
1,1,$1+$1,$6,$7*
1,1,$1+$1,$8,$9*
0 Add four rect primitives between the rounded corners*
20,1,$1+$1,$2,$3,$4,$5,0*
20,1,$1+$1,$4,$5,$6,$7,0*
20,1,$1+$1,$6,$7,$8,$9,0*
20,1,$1+$1,$8,$9,$2,$3,0*%
G04 Aperture macros list end*
%ADD10RoundRect,0.150000X0.475000X-0.150000X0.475000X0.150000X-0.475000X0.150000X-0.475000X-0.150000X0*%
%ADD11RoundRect,0.225000X0.625000X-0.225000X0.625000X0.225000X-0.625000X0.225000X-0.625000X-0.225000X0*%
%ADD12RoundRect,0.200000X-0.275000X0.200000X-0.275000X-0.200000X0.275000X-0.200000X0.275000X0.200000X0*%
%ADD13RoundRect,0.225000X0.225000X0.250000X-0.225000X0.250000X-0.225000X-0.250000X0.225000X-0.250000X0*%
%ADD14R,1.000000X1.700000*%
%ADD15R,1.700000X1.700000*%
%ADD16O,1.700000X1.700000*%
%ADD17RoundRect,0.250000X0.550000X0.550000X-0.550000X0.550000X-0.550000X-0.550000X0.550000X-0.550000X0*%
%ADD18C,1.600000*%
%ADD19O,4.100000X3.000000*%
%ADD20C,1.750000*%
%ADD21C,3.987800*%
%ADD22C,3.300000*%
G04 APERTURE END LIST*
D10*
%TO.C,J2*%
X168895000Y-55280000D03*
X168895000Y-54280000D03*
X168895000Y-53280000D03*
X168895000Y-52280000D03*
X168895000Y-51280000D03*
X168895000Y-50280000D03*
D11*
X172020000Y-56730000D03*
X172020000Y-48830000D03*
%TD*%
D12*
%TO.C,R3*%
X162775000Y-60620000D03*
X162775000Y-62270000D03*
%TD*%
%TO.C,R1*%
X166280000Y-60605000D03*
X166280000Y-62255000D03*
%TD*%
D13*
%TO.C,C10*%
X157780000Y-58820000D03*
X156230000Y-58820000D03*
%TD*%
D12*
%TO.C,R2*%
X168080000Y-60605000D03*
X168080000Y-62255000D03*
%TD*%
D14*
%TO.C,SW1*%
X153980000Y-55970000D03*
X153980000Y-49670000D03*
X157780000Y-55970000D03*
X157780000Y-49670000D03*
%TD*%
D15*
%TO.C,J3*%
X158780000Y-43720000D03*
D16*
X161320000Y-43720000D03*
X163860000Y-43720000D03*
X166400000Y-43720000D03*
%TD*%
D17*
%TO.C,SW2*%
X170980000Y-98760000D03*
D18*
X170980000Y-93760000D03*
X170980000Y-96260000D03*
X156480000Y-98760000D03*
X156480000Y-93760000D03*
D19*
X163480000Y-101860000D03*
X163480000Y-90660000D03*
%TD*%
D12*
%TO.C,R5*%
X164575000Y-60610000D03*
X164575000Y-62260000D03*
%TD*%
D15*
%TO.C,J1*%
X176780000Y-82820000D03*
D16*
X176780000Y-85360000D03*
%TD*%
D20*
%TO.C,MX7*%
X51039998Y-63130000D03*
D21*
X45959998Y-63130000D03*
D20*
X40879998Y-63130000D03*
D22*
X42149998Y-60590000D03*
X48499998Y-58050000D03*
%TD*%
D20*
%TO.C,MX3*%
X89139998Y-39317500D03*
D21*
X84059998Y-39317500D03*
D20*
X78979998Y-39317500D03*
D22*
X80249998Y-36777500D03*
X86599998Y-34237500D03*
%TD*%
D20*
%TO.C,MX11*%
X127239998Y-58367500D03*
D21*
X122159998Y-58367500D03*
D20*
X117079998Y-58367500D03*
D22*
X118349998Y-55827500D03*
X124699998Y-53287500D03*
%TD*%
D20*
%TO.C,MX1*%
X51039998Y-44080000D03*
D21*
X45959998Y-44080000D03*
D20*
X40879998Y-44080000D03*
D22*
X42149998Y-41540000D03*
X48499998Y-39000000D03*
%TD*%
D20*
%TO.C,MX16*%
X108189998Y-75036250D03*
D21*
X103109998Y-75036250D03*
D20*
X98029998Y-75036250D03*
D22*
X99299998Y-72496250D03*
X105649998Y-69956250D03*
%TD*%
D20*
%TO.C,MX14*%
X70089998Y-82180000D03*
D21*
X65009998Y-82180000D03*
D20*
X59929998Y-82180000D03*
D22*
X61199998Y-79640000D03*
X67549998Y-77100000D03*
%TD*%
D20*
%TO.C,MX9*%
X89139998Y-58367500D03*
D21*
X84059998Y-58367500D03*
D20*
X78979998Y-58367500D03*
D22*
X80249998Y-55827500D03*
X86599998Y-53287500D03*
%TD*%
D20*
%TO.C,MX24*%
X146289998Y-98848750D03*
D21*
X141209998Y-98848750D03*
D20*
X136129998Y-98848750D03*
D22*
X137399998Y-96308750D03*
X143749998Y-93768750D03*
%TD*%
D20*
%TO.C,MX22*%
X108189998Y-94086250D03*
D21*
X103109998Y-94086250D03*
D20*
X98029998Y-94086250D03*
D22*
X99299998Y-91546250D03*
X105649998Y-89006250D03*
%TD*%
D20*
%TO.C,MX21*%
X89139998Y-96467500D03*
D21*
X84059998Y-96467500D03*
D20*
X78979998Y-96467500D03*
D22*
X80249998Y-93927500D03*
X86599998Y-91387500D03*
%TD*%
D20*
%TO.C,MX13*%
X51039998Y-82180000D03*
D21*
X45959998Y-82180000D03*
D20*
X40879998Y-82180000D03*
D22*
X42149998Y-79640000D03*
X48499998Y-77100000D03*
%TD*%
D20*
%TO.C,MX15*%
X89139998Y-77417500D03*
D21*
X84059998Y-77417500D03*
D20*
X78979998Y-77417500D03*
D22*
X80249998Y-74877500D03*
X86599998Y-72337500D03*
%TD*%
D20*
%TO.C,MX19*%
X51039998Y-101230000D03*
D21*
X45959998Y-101230000D03*
D20*
X40879998Y-101230000D03*
D22*
X42149998Y-98690000D03*
X48499998Y-96150000D03*
%TD*%
D20*
%TO.C,MX17*%
X127239998Y-77417500D03*
D21*
X122159998Y-77417500D03*
D20*
X117079998Y-77417500D03*
D22*
X118349998Y-74877500D03*
X124699998Y-72337500D03*
%TD*%
D20*
%TO.C,MX4*%
X108189998Y-36936250D03*
D21*
X103109998Y-36936250D03*
D20*
X98029998Y-36936250D03*
D22*
X99299998Y-34396250D03*
X105649998Y-31856250D03*
%TD*%
D20*
%TO.C,MX20*%
X70089998Y-101230000D03*
D21*
X65009998Y-101230000D03*
D20*
X59929998Y-101230000D03*
D22*
X61199998Y-98690000D03*
X67549998Y-96150000D03*
%TD*%
D20*
%TO.C,MX27*%
X149523754Y-121809828D03*
D21*
X144616851Y-120495027D03*
D20*
X139709948Y-119180226D03*
D22*
X141594074Y-117055475D03*
X148385103Y-116245524D03*
%TD*%
D20*
%TO.C,MX10*%
X108189998Y-55986250D03*
D21*
X103109998Y-55986250D03*
D20*
X98029998Y-55986250D03*
D22*
X99299998Y-53446250D03*
X105649998Y-50906250D03*
%TD*%
D20*
%TO.C,MX26*%
X127239998Y-115517500D03*
D21*
X122159998Y-115517500D03*
D20*
X117079998Y-115517500D03*
D22*
X118349998Y-112977500D03*
X124699998Y-110437500D03*
%TD*%
D20*
%TO.C,MX18*%
X146289998Y-79798750D03*
D21*
X141209998Y-79798750D03*
D20*
X136129998Y-79798750D03*
D22*
X137399998Y-77258750D03*
X143749998Y-74718750D03*
%TD*%
D20*
%TO.C,MX12*%
X146289998Y-60748750D03*
D21*
X141209998Y-60748750D03*
D20*
X136129998Y-60748750D03*
D22*
X137399998Y-58208750D03*
X143749998Y-55668750D03*
%TD*%
D20*
%TO.C,MX28*%
X171221544Y-132726605D03*
D21*
X166822135Y-130186605D03*
D20*
X162422726Y-127646605D03*
D22*
X164792578Y-126081900D03*
X171561840Y-127057196D03*
%TD*%
D20*
%TO.C,MX25*%
X108189998Y-113136250D03*
D21*
X103109998Y-113136250D03*
D20*
X98029998Y-113136250D03*
D22*
X99299998Y-110596250D03*
X105649998Y-108056250D03*
%TD*%
D20*
%TO.C,MX6*%
X146289998Y-41698750D03*
D21*
X141209998Y-41698750D03*
D20*
X136129998Y-41698750D03*
D22*
X137399998Y-39158750D03*
X143749998Y-36618750D03*
%TD*%
D20*
%TO.C,MX23*%
X127239998Y-96467500D03*
D21*
X122159998Y-96467500D03*
D20*
X117079998Y-96467500D03*
D22*
X118349998Y-93927500D03*
X124699998Y-91387500D03*
%TD*%
D20*
%TO.C,MX8*%
X70089998Y-63130000D03*
D21*
X65009998Y-63130000D03*
D20*
X59929998Y-63130000D03*
D22*
X61199998Y-60590000D03*
X67549998Y-58050000D03*
%TD*%
D20*
%TO.C,MX2*%
X70089998Y-44080000D03*
D21*
X65009998Y-44080000D03*
D20*
X59929998Y-44080000D03*
D22*
X61199998Y-41540000D03*
X67549998Y-39000000D03*
%TD*%
D20*
%TO.C,MX5*%
X127239998Y-39317500D03*
D21*
X122159998Y-39317500D03*
D20*
X117079998Y-39317500D03*
D22*
X118349998Y-36777500D03*
X124699998Y-34237500D03*
%TD*%
M02*
