%TF.GenerationSoftware,KiCad,Pcbnew,8.0.4*%
%TF.CreationDate,2024-08-15T14:36:39+02:00*%
%TF.ProjectId,pcb-left,7063622d-6c65-4667-942e-6b696361645f,rev?*%
%TF.SameCoordinates,Original*%
%TF.FileFunction,Soldermask,Bot*%
%TF.FilePolarity,Negative*%
%FSLAX46Y46*%
G04 Gerber Fmt 4.6, Leading zero omitted, Abs format (unit mm)*
G04 Created by KiCad (PCBNEW 8.0.4) date 2024-08-15 14:36:39*
%MOMM*%
%LPD*%
G01*
G04 APERTURE LIST*
G04 Aperture macros list*
%AMRoundRect*
0 Rectangle with rounded corners*
0 $1 Rounding radius*
0 $2 $3 $4 $5 $6 $7 $8 $9 X,Y pos of 4 corners*
0 Add a 4 corners polygon primitive as box body*
4,1,4,$2,$3,$4,$5,$6,$7,$8,$9,$2,$3,0*
0 Add four circle primitives for the rounded corners*
1,1,$1+$1,$2,$3*
1,1,$1+$1,$4,$5*
1,1,$1+$1,$6,$7*
1,1,$1+$1,$8,$9*
0 Add four rect primitives between the rounded corners*
20,1,$1+$1,$2,$3,$4,$5,0*
20,1,$1+$1,$4,$5,$6,$7,0*
20,1,$1+$1,$6,$7,$8,$9,0*
20,1,$1+$1,$8,$9,$2,$3,0*%
G04 Aperture macros list end*
%ADD10RoundRect,0.250000X-0.550000X0.550000X-0.550000X-0.550000X0.550000X-0.550000X0.550000X0.550000X0*%
%ADD11C,1.600000*%
%ADD12O,3.000000X4.100000*%
%ADD13R,1.700000X0.820000*%
%ADD14RoundRect,0.225000X0.375000X-0.225000X0.375000X0.225000X-0.375000X0.225000X-0.375000X-0.225000X0*%
%ADD15C,1.750000*%
%ADD16C,3.987800*%
%ADD17C,3.300000*%
%ADD18RoundRect,0.250000X1.025000X1.000000X-1.025000X1.000000X-1.025000X-1.000000X1.025000X-1.000000X0*%
%ADD19R,1.200000X1.400000*%
%ADD20RoundRect,0.225000X-0.250000X0.225000X-0.250000X-0.225000X0.250000X-0.225000X0.250000X0.225000X0*%
%ADD21RoundRect,0.200000X0.275000X-0.200000X0.275000X0.200000X-0.275000X0.200000X-0.275000X-0.200000X0*%
%ADD22RoundRect,0.075000X-0.075000X0.700000X-0.075000X-0.700000X0.075000X-0.700000X0.075000X0.700000X0*%
%ADD23RoundRect,0.075000X-0.700000X0.075000X-0.700000X-0.075000X0.700000X-0.075000X0.700000X0.075000X0*%
%ADD24RoundRect,0.225000X0.225000X0.250000X-0.225000X0.250000X-0.225000X-0.250000X0.225000X-0.250000X0*%
%ADD25R,1.700000X1.700000*%
%ADD26O,1.700000X1.700000*%
%ADD27RoundRect,0.200000X-0.275000X0.200000X-0.275000X-0.200000X0.275000X-0.200000X0.275000X0.200000X0*%
%ADD28RoundRect,0.225000X-0.225000X-0.250000X0.225000X-0.250000X0.225000X0.250000X-0.225000X0.250000X0*%
%ADD29R,1.000000X1.700000*%
%ADD30RoundRect,0.225000X0.212260X-0.382356X0.437260X0.007356X-0.212260X0.382356X-0.437260X-0.007356X0*%
%ADD31RoundRect,0.225000X0.250000X-0.225000X0.250000X0.225000X-0.250000X0.225000X-0.250000X-0.225000X0*%
%ADD32RoundRect,0.250000X1.248893X0.700636X-0.731255X1.231215X-1.248893X-0.700636X0.731255X-1.231215X0*%
%ADD33RoundRect,0.225000X-0.225000X-0.375000X0.225000X-0.375000X0.225000X0.375000X-0.225000X0.375000X0*%
%ADD34RoundRect,0.200000X0.200000X0.275000X-0.200000X0.275000X-0.200000X-0.275000X0.200000X-0.275000X0*%
%ADD35RoundRect,0.225000X0.303988X-0.314390X0.420456X0.120276X-0.303988X0.314390X-0.420456X-0.120276X0*%
%ADD36RoundRect,0.150000X-0.150000X0.512500X-0.150000X-0.512500X0.150000X-0.512500X0.150000X0.512500X0*%
%ADD37RoundRect,0.250000X1.387676X0.353525X-0.387676X1.378525X-1.387676X-0.353525X0.387676X-1.378525X0*%
%ADD38RoundRect,0.150000X-0.150000X-0.625000X0.150000X-0.625000X0.150000X0.625000X-0.150000X0.625000X0*%
%ADD39RoundRect,0.250000X-0.350000X-0.650000X0.350000X-0.650000X0.350000X0.650000X-0.350000X0.650000X0*%
G04 APERTURE END LIST*
D10*
%TO.C,SW2*%
X161875000Y-86868750D03*
D11*
X156875000Y-86868750D03*
X159375000Y-86868750D03*
X161875000Y-101368750D03*
X156875000Y-101368750D03*
D12*
X164975000Y-94368750D03*
X153775000Y-94368750D03*
%TD*%
D13*
%TO.C,D31*%
X159800000Y-42750000D03*
X159800000Y-41250000D03*
X154200000Y-41250000D03*
X154200000Y-42750000D03*
%TD*%
D14*
%TO.C,D17*%
X117474999Y-83206250D03*
X117474999Y-79906250D03*
%TD*%
D15*
%TO.C,MX7*%
X43180000Y-64293750D03*
D16*
X38100000Y-64293750D03*
D15*
X33020000Y-64293750D03*
D17*
X34290000Y-61753750D03*
D18*
X30740000Y-61753750D03*
X44190000Y-59213750D03*
D17*
X40640000Y-59213750D03*
%TD*%
D19*
%TO.C,Y1*%
X154425000Y-46818750D03*
X154425000Y-49018750D03*
X152725000Y-49018750D03*
X152725000Y-46818750D03*
%TD*%
D14*
%TO.C,D1*%
X41274999Y-49868750D03*
X41274999Y-46568750D03*
%TD*%
D20*
%TO.C,C3*%
X162475000Y-50443750D03*
X162475000Y-51993750D03*
%TD*%
D15*
%TO.C,MX3*%
X81280000Y-40481250D03*
D16*
X76200000Y-40481250D03*
D15*
X71120000Y-40481250D03*
D17*
X72390000Y-37941250D03*
D18*
X68840000Y-37941250D03*
X82290000Y-35401250D03*
D17*
X78740000Y-35401250D03*
%TD*%
D15*
%TO.C,MX11*%
X119380000Y-59531250D03*
D16*
X114300000Y-59531250D03*
D15*
X109220000Y-59531250D03*
D17*
X110490000Y-56991250D03*
D18*
X106940000Y-56991250D03*
X120390000Y-54451250D03*
D17*
X116840000Y-54451250D03*
%TD*%
D21*
%TO.C,R8*%
X162875000Y-78243750D03*
X162875000Y-76593750D03*
%TD*%
D15*
%TO.C,MX1*%
X43180000Y-45243750D03*
D16*
X38100000Y-45243750D03*
D15*
X33020000Y-45243750D03*
D17*
X34290000Y-42703750D03*
D18*
X30740000Y-42703750D03*
X44190000Y-40163750D03*
D17*
X40640000Y-40163750D03*
%TD*%
D14*
%TO.C,D27*%
X117474999Y-121306250D03*
X117474999Y-118006250D03*
%TD*%
D15*
%TO.C,MX16*%
X100330000Y-76200000D03*
D16*
X95250000Y-76200000D03*
D15*
X90170000Y-76200000D03*
D17*
X91440000Y-73660000D03*
D18*
X87890000Y-73660000D03*
X101340000Y-71120000D03*
D17*
X97790000Y-71120000D03*
%TD*%
D14*
%TO.C,D3*%
X79374999Y-45106250D03*
X79374999Y-41806250D03*
%TD*%
%TO.C,D15*%
X79374999Y-83206250D03*
X79374999Y-79906250D03*
%TD*%
D22*
%TO.C,U2*%
X152825000Y-53743750D03*
X153325000Y-53743750D03*
X153825000Y-53743750D03*
X154325000Y-53743750D03*
X154825000Y-53743750D03*
X155325000Y-53743750D03*
X155825000Y-53743750D03*
X156325000Y-53743750D03*
X156825000Y-53743750D03*
X157325000Y-53743750D03*
X157825000Y-53743750D03*
X158325000Y-53743750D03*
X158825000Y-53743750D03*
X159325000Y-53743750D03*
X159825000Y-53743750D03*
X160325000Y-53743750D03*
D23*
X162250000Y-55668750D03*
X162250000Y-56168750D03*
X162250000Y-56668750D03*
X162250000Y-57168750D03*
X162250000Y-57668750D03*
X162250000Y-58168750D03*
X162250000Y-58668750D03*
X162250000Y-59168750D03*
X162250000Y-59668750D03*
X162250000Y-60168750D03*
X162250000Y-60668750D03*
X162250000Y-61168750D03*
X162250000Y-61668750D03*
X162250000Y-62168750D03*
X162250000Y-62668750D03*
X162250000Y-63168750D03*
D22*
X160325000Y-65093750D03*
X159825000Y-65093750D03*
X159325000Y-65093750D03*
X158825000Y-65093750D03*
X158325000Y-65093750D03*
X157825000Y-65093750D03*
X157325000Y-65093750D03*
X156825000Y-65093750D03*
X156325000Y-65093750D03*
X155825000Y-65093750D03*
X155325000Y-65093750D03*
X154825000Y-65093750D03*
X154325000Y-65093750D03*
X153825000Y-65093750D03*
X153325000Y-65093750D03*
X152825000Y-65093750D03*
D23*
X150900000Y-63168750D03*
X150900000Y-62668750D03*
X150900000Y-62168750D03*
X150900000Y-61668750D03*
X150900000Y-61168750D03*
X150900000Y-60668750D03*
X150900000Y-60168750D03*
X150900000Y-59668750D03*
X150900000Y-59168750D03*
X150900000Y-58668750D03*
X150900000Y-58168750D03*
X150900000Y-57668750D03*
X150900000Y-57168750D03*
X150900000Y-56668750D03*
X150900000Y-56168750D03*
X150900000Y-55668750D03*
%TD*%
D24*
%TO.C,C8*%
X169450000Y-104518750D03*
X167900000Y-104518750D03*
%TD*%
D15*
%TO.C,MX14*%
X62230000Y-83343750D03*
D16*
X57150000Y-83343750D03*
D15*
X52070000Y-83343750D03*
D17*
X53340000Y-80803750D03*
D18*
X49790000Y-80803750D03*
X63240000Y-78263750D03*
D17*
X59690000Y-78263750D03*
%TD*%
D21*
%TO.C,R3*%
X158275000Y-78243750D03*
X158275000Y-76593750D03*
%TD*%
D14*
%TO.C,D10*%
X98424999Y-61775000D03*
X98424999Y-58475000D03*
%TD*%
D15*
%TO.C,MX9*%
X81280000Y-59531250D03*
D16*
X76200000Y-59531250D03*
D15*
X71120000Y-59531250D03*
D17*
X72390000Y-56991250D03*
D18*
X68840000Y-56991250D03*
X82290000Y-54451250D03*
D17*
X78740000Y-54451250D03*
%TD*%
D14*
%TO.C,D22*%
X98424999Y-99875000D03*
X98424999Y-96575000D03*
%TD*%
D25*
%TO.C,J2*%
X147075000Y-86918750D03*
D26*
X147075000Y-89458750D03*
X147075000Y-91998750D03*
X147075000Y-94538750D03*
%TD*%
D21*
%TO.C,R10*%
X162475000Y-47943750D03*
X162475000Y-46293750D03*
%TD*%
D15*
%TO.C,MX24*%
X138430000Y-100012500D03*
D16*
X133350000Y-100012500D03*
D15*
X128270000Y-100012500D03*
D17*
X129540000Y-97472500D03*
D18*
X125990000Y-97472500D03*
X139440000Y-94932500D03*
D17*
X135890000Y-94932500D03*
%TD*%
D27*
%TO.C,R2*%
X168675000Y-61793750D03*
X168675000Y-63443750D03*
%TD*%
D14*
%TO.C,D14*%
X60324999Y-87968750D03*
X60324999Y-84668750D03*
%TD*%
%TO.C,D20*%
X60324999Y-107018750D03*
X60324999Y-103718750D03*
%TD*%
D15*
%TO.C,MX22*%
X100330000Y-95250000D03*
D16*
X95250000Y-95250000D03*
D15*
X90170000Y-95250000D03*
D17*
X91440000Y-92710000D03*
D18*
X87890000Y-92710000D03*
X101340000Y-90170000D03*
D17*
X97790000Y-90170000D03*
%TD*%
D15*
%TO.C,MX21*%
X81280000Y-97631250D03*
D16*
X76200000Y-97631250D03*
D15*
X71120000Y-97631250D03*
D17*
X72390000Y-95091250D03*
D18*
X68840000Y-95091250D03*
X82290000Y-92551250D03*
D17*
X78740000Y-92551250D03*
%TD*%
D14*
%TO.C,D11*%
X117474999Y-64156250D03*
X117474999Y-60856250D03*
%TD*%
D28*
%TO.C,C7*%
X167175000Y-57618750D03*
X168725000Y-57618750D03*
%TD*%
D15*
%TO.C,MX13*%
X43180000Y-83343750D03*
D16*
X38100000Y-83343750D03*
D15*
X33020000Y-83343750D03*
D17*
X34290000Y-80803750D03*
D18*
X30740000Y-80803750D03*
X44190000Y-78263750D03*
D17*
X40640000Y-78263750D03*
%TD*%
D14*
%TO.C,D5*%
X117474999Y-45106250D03*
X117474999Y-41806250D03*
%TD*%
D15*
%TO.C,MX15*%
X81280000Y-78581250D03*
D16*
X76200000Y-78581250D03*
D15*
X71120000Y-78581250D03*
D17*
X72390000Y-76041250D03*
D18*
X68840000Y-76041250D03*
X82290000Y-73501250D03*
D17*
X78740000Y-73501250D03*
%TD*%
D14*
%TO.C,D12*%
X136524999Y-66537500D03*
X136524999Y-63237500D03*
%TD*%
D15*
%TO.C,MX19*%
X43180000Y-102393750D03*
D16*
X38100000Y-102393750D03*
D15*
X33020000Y-102393750D03*
D17*
X34290000Y-99853750D03*
D18*
X30740000Y-99853750D03*
X44190000Y-97313750D03*
D17*
X40640000Y-97313750D03*
%TD*%
D14*
%TO.C,D9*%
X79374999Y-64156250D03*
X79374999Y-60856250D03*
%TD*%
D15*
%TO.C,MX17*%
X119380000Y-78581250D03*
D16*
X114300000Y-78581250D03*
D15*
X109220000Y-78581250D03*
D17*
X110490000Y-76041250D03*
D18*
X106940000Y-76041250D03*
X120390000Y-73501250D03*
D17*
X116840000Y-73501250D03*
%TD*%
D25*
%TO.C,J1*%
X145275000Y-43818750D03*
D26*
X145275000Y-46358750D03*
%TD*%
D21*
%TO.C,R5*%
X155875000Y-78243750D03*
X155875000Y-76593750D03*
%TD*%
D20*
%TO.C,C12*%
X150475000Y-47143750D03*
X150475000Y-48693750D03*
%TD*%
D14*
%TO.C,D18*%
X136524999Y-85587500D03*
X136524999Y-82287500D03*
%TD*%
D24*
%TO.C,C6*%
X151350000Y-67718750D03*
X149800000Y-67718750D03*
%TD*%
D29*
%TO.C,SW1*%
X165675000Y-107218750D03*
X165675000Y-113518750D03*
X169475000Y-107218750D03*
X169475000Y-113518750D03*
%TD*%
D15*
%TO.C,MX4*%
X100330000Y-38100000D03*
D16*
X95250000Y-38100000D03*
D15*
X90170000Y-38100000D03*
D17*
X91440000Y-35560000D03*
D18*
X87890000Y-35560000D03*
X101340000Y-33020000D03*
D17*
X97790000Y-33020000D03*
%TD*%
D14*
%TO.C,D7*%
X41274999Y-68918750D03*
X41274999Y-65618750D03*
%TD*%
D30*
%TO.C,D29*%
X159718294Y-131628151D03*
X161368294Y-128770267D03*
%TD*%
D24*
%TO.C,C2*%
X167150000Y-65718750D03*
X165600000Y-65718750D03*
%TD*%
D15*
%TO.C,MX20*%
X62230000Y-102393750D03*
D16*
X57150000Y-102393750D03*
D15*
X52070000Y-102393750D03*
D17*
X53340000Y-99853750D03*
D18*
X49790000Y-99853750D03*
X63240000Y-97313750D03*
D17*
X59690000Y-97313750D03*
%TD*%
D14*
%TO.C,D25*%
X79374999Y-121306250D03*
X79374999Y-118006250D03*
%TD*%
D15*
%TO.C,MX27*%
X119380000Y-116681250D03*
D16*
X114300000Y-116681250D03*
D15*
X109220000Y-116681250D03*
D17*
X110490000Y-114141250D03*
D18*
X106940000Y-114141250D03*
X120390000Y-111601250D03*
D17*
X116840000Y-111601250D03*
%TD*%
D15*
%TO.C,MX10*%
X100330000Y-57150000D03*
D16*
X95250000Y-57150000D03*
D15*
X90170000Y-57150000D03*
D17*
X91440000Y-54610000D03*
D18*
X87890000Y-54610000D03*
X101340000Y-52070000D03*
D17*
X97790000Y-52070000D03*
%TD*%
D31*
%TO.C,C11*%
X165975000Y-62093750D03*
X165975000Y-60543750D03*
%TD*%
D14*
%TO.C,D16*%
X98424999Y-80825000D03*
X98424999Y-77525000D03*
%TD*%
D15*
%TO.C,MX26*%
X100330000Y-114300000D03*
D16*
X95250000Y-114300000D03*
D15*
X90170000Y-114300000D03*
D17*
X91440000Y-111760000D03*
D18*
X87890000Y-111760000D03*
X101340000Y-109220000D03*
D17*
X97790000Y-109220000D03*
%TD*%
D14*
%TO.C,D4*%
X98424999Y-42725000D03*
X98424999Y-39425000D03*
%TD*%
D15*
%TO.C,MX18*%
X138430000Y-80962500D03*
D16*
X133350000Y-80962500D03*
D15*
X128270000Y-80962500D03*
D17*
X129540000Y-78422500D03*
D18*
X125990000Y-78422500D03*
X139440000Y-75882500D03*
D17*
X135890000Y-75882500D03*
%TD*%
D15*
%TO.C,MX12*%
X138430000Y-61912500D03*
D16*
X133350000Y-61912500D03*
D15*
X128270000Y-61912500D03*
D17*
X129540000Y-59372500D03*
D18*
X125990000Y-59372500D03*
X139440000Y-56832500D03*
D17*
X135890000Y-56832500D03*
%TD*%
D20*
%TO.C,C4*%
X150475000Y-51043750D03*
X150475000Y-52593750D03*
%TD*%
D24*
%TO.C,C1*%
X167150000Y-68218750D03*
X165600000Y-68218750D03*
%TD*%
%TO.C,C5*%
X148350000Y-53818750D03*
X146800000Y-53818750D03*
%TD*%
D15*
%TO.C,MX28*%
X141663756Y-122973578D03*
D16*
X136756853Y-121658777D03*
D15*
X131849950Y-120343976D03*
D17*
X133734076Y-118219225D03*
D32*
X130305039Y-117300417D03*
X143954142Y-118328082D03*
D17*
X140525105Y-117409274D03*
%TD*%
D31*
%TO.C,C13*%
X162575000Y-42793750D03*
X162575000Y-41243750D03*
%TD*%
D33*
%TO.C,D30*%
X158525000Y-107418750D03*
X161825000Y-107418750D03*
%TD*%
D24*
%TO.C,C10*%
X167150000Y-70668750D03*
X165600000Y-70668750D03*
%TD*%
D14*
%TO.C,D26*%
X98424999Y-118925000D03*
X98424999Y-115625000D03*
%TD*%
D15*
%TO.C,MX25*%
X81280000Y-116681250D03*
D16*
X76200000Y-116681250D03*
D15*
X71120000Y-116681250D03*
D17*
X72390000Y-114141250D03*
D18*
X68840000Y-114141250D03*
X82290000Y-111601250D03*
D17*
X78740000Y-111601250D03*
%TD*%
D34*
%TO.C,R1*%
X146100000Y-49518750D03*
X144450000Y-49518750D03*
%TD*%
D14*
%TO.C,D21*%
X79374999Y-102256250D03*
X79374999Y-98956250D03*
%TD*%
D15*
%TO.C,MX6*%
X138430000Y-42862500D03*
D16*
X133350000Y-42862500D03*
D15*
X128270000Y-42862500D03*
D17*
X129540000Y-40322500D03*
D18*
X125990000Y-40322500D03*
X139440000Y-37782500D03*
D17*
X135890000Y-37782500D03*
%TD*%
D14*
%TO.C,D23*%
X117474999Y-102256250D03*
X117474999Y-98956250D03*
%TD*%
%TO.C,D8*%
X60324999Y-68918750D03*
X60324999Y-65618750D03*
%TD*%
D15*
%TO.C,MX23*%
X119380000Y-97631250D03*
D16*
X114300000Y-97631250D03*
D15*
X109220000Y-97631250D03*
D17*
X110490000Y-95091250D03*
D18*
X106940000Y-95091250D03*
X120390000Y-92551250D03*
D17*
X116840000Y-92551250D03*
%TD*%
D35*
%TO.C,D28*%
X138626630Y-126947934D03*
X139480730Y-123760378D03*
%TD*%
D36*
%TO.C,U1*%
X165575000Y-72918750D03*
X167475000Y-72918750D03*
X166525000Y-75193750D03*
%TD*%
D15*
%TO.C,MX8*%
X62230000Y-64293750D03*
D16*
X57150000Y-64293750D03*
D15*
X52070000Y-64293750D03*
D17*
X53340000Y-61753750D03*
D18*
X49790000Y-61753750D03*
X63240000Y-59213750D03*
D17*
X59690000Y-59213750D03*
%TD*%
D27*
%TO.C,R7*%
X164875000Y-46293750D03*
X164875000Y-47943750D03*
%TD*%
D14*
%TO.C,D19*%
X41274999Y-107018750D03*
X41274999Y-103718750D03*
%TD*%
D15*
%TO.C,MX29*%
X163680573Y-128575284D03*
D16*
X159281164Y-126035284D03*
D15*
X154881755Y-123495284D03*
D17*
X157251607Y-121930579D03*
D37*
X154177217Y-120155579D03*
X167095259Y-124680875D03*
D17*
X164020869Y-122905875D03*
%TD*%
D38*
%TO.C,J3*%
X146175000Y-80218750D03*
X147175000Y-80218750D03*
X148175000Y-80218750D03*
X149175000Y-80218750D03*
X150175000Y-80218750D03*
X151175000Y-80218750D03*
D39*
X144875000Y-76343750D03*
X152475000Y-76343750D03*
%TD*%
D14*
%TO.C,D13*%
X41274999Y-87968750D03*
X41274999Y-84668750D03*
%TD*%
D31*
%TO.C,C14*%
X156775000Y-48693750D03*
X156775000Y-47143750D03*
%TD*%
D15*
%TO.C,MX2*%
X62230000Y-45243750D03*
D16*
X57150000Y-45243750D03*
D15*
X52070000Y-45243750D03*
D17*
X53340000Y-42703750D03*
D18*
X49790000Y-42703750D03*
X63240000Y-40163750D03*
D17*
X59690000Y-40163750D03*
%TD*%
D14*
%TO.C,D2*%
X60324999Y-49868750D03*
X60324999Y-46568750D03*
%TD*%
D28*
%TO.C,C9*%
X166525000Y-78518750D03*
X168075000Y-78518750D03*
%TD*%
D14*
%TO.C,D6*%
X136524999Y-47487500D03*
X136524999Y-44187500D03*
%TD*%
D15*
%TO.C,MX5*%
X119380000Y-40481250D03*
D16*
X114300000Y-40481250D03*
D15*
X109220000Y-40481250D03*
D17*
X110490000Y-37941250D03*
D18*
X106940000Y-37941250D03*
X120390000Y-35401250D03*
D17*
X116840000Y-35401250D03*
%TD*%
D14*
%TO.C,D24*%
X136524999Y-104637500D03*
X136524999Y-101337500D03*
%TD*%
D27*
%TO.C,R9*%
X160575000Y-76593750D03*
X160575000Y-78243750D03*
%TD*%
M02*
