%TF.GenerationSoftware,KiCad,Pcbnew,7.0.10*%
%TF.CreationDate,2024-04-22T22:33:16+02:00*%
%TF.ProjectId,pcb-left,7063622d-6c65-4667-942e-6b696361645f,rev?*%
%TF.SameCoordinates,Original*%
%TF.FileFunction,Soldermask,Bot*%
%TF.FilePolarity,Negative*%
%FSLAX46Y46*%
G04 Gerber Fmt 4.6, Leading zero omitted, Abs format (unit mm)*
G04 Created by KiCad (PCBNEW 7.0.10) date 2024-04-22 22:33:16*
%MOMM*%
%LPD*%
G01*
G04 APERTURE LIST*
G04 Aperture macros list*
%AMRoundRect*
0 Rectangle with rounded corners*
0 $1 Rounding radius*
0 $2 $3 $4 $5 $6 $7 $8 $9 X,Y pos of 4 corners*
0 Add a 4 corners polygon primitive as box body*
4,1,4,$2,$3,$4,$5,$6,$7,$8,$9,$2,$3,0*
0 Add four circle primitives for the rounded corners*
1,1,$1+$1,$2,$3*
1,1,$1+$1,$4,$5*
1,1,$1+$1,$6,$7*
1,1,$1+$1,$8,$9*
0 Add four rect primitives between the rounded corners*
20,1,$1+$1,$2,$3,$4,$5,0*
20,1,$1+$1,$4,$5,$6,$7,0*
20,1,$1+$1,$6,$7,$8,$9,0*
20,1,$1+$1,$8,$9,$2,$3,0*%
G04 Aperture macros list end*
%ADD10R,1.700000X1.700000*%
%ADD11O,1.700000X1.700000*%
%ADD12RoundRect,0.250000X0.550000X0.550000X-0.550000X0.550000X-0.550000X-0.550000X0.550000X-0.550000X0*%
%ADD13C,1.600000*%
%ADD14O,4.100000X3.000000*%
%ADD15RoundRect,0.225000X0.375000X-0.225000X0.375000X0.225000X-0.375000X0.225000X-0.375000X-0.225000X0*%
%ADD16C,1.750000*%
%ADD17C,3.987800*%
%ADD18C,3.300000*%
%ADD19RoundRect,0.250000X1.025000X1.000000X-1.025000X1.000000X-1.025000X-1.000000X1.025000X-1.000000X0*%
%ADD20RoundRect,0.225000X-0.225000X-0.250000X0.225000X-0.250000X0.225000X0.250000X-0.225000X0.250000X0*%
%ADD21RoundRect,0.225000X-0.250000X0.225000X-0.250000X-0.225000X0.250000X-0.225000X0.250000X0.225000X0*%
%ADD22RoundRect,0.225000X0.250000X-0.225000X0.250000X0.225000X-0.250000X0.225000X-0.250000X-0.225000X0*%
%ADD23RoundRect,0.200000X0.200000X0.275000X-0.200000X0.275000X-0.200000X-0.275000X0.200000X-0.275000X0*%
%ADD24RoundRect,0.225000X0.225000X0.250000X-0.225000X0.250000X-0.225000X-0.250000X0.225000X-0.250000X0*%
%ADD25RoundRect,0.225000X0.303988X-0.314390X0.420456X0.120276X-0.303988X0.314390X-0.420456X-0.120276X0*%
%ADD26R,1.200000X1.400000*%
%ADD27RoundRect,0.200000X-0.200000X-0.275000X0.200000X-0.275000X0.200000X0.275000X-0.200000X0.275000X0*%
%ADD28RoundRect,0.200000X0.275000X-0.200000X0.275000X0.200000X-0.275000X0.200000X-0.275000X-0.200000X0*%
%ADD29RoundRect,0.250000X1.248893X0.700636X-0.731255X1.231215X-1.248893X-0.700636X0.731255X-1.231215X0*%
%ADD30RoundRect,0.075000X0.075000X-0.700000X0.075000X0.700000X-0.075000X0.700000X-0.075000X-0.700000X0*%
%ADD31RoundRect,0.075000X0.700000X-0.075000X0.700000X0.075000X-0.700000X0.075000X-0.700000X-0.075000X0*%
%ADD32RoundRect,0.250000X1.387676X0.353525X-0.387676X1.378525X-1.387676X-0.353525X0.387676X-1.378525X0*%
%ADD33RoundRect,0.150000X0.150000X-0.512500X0.150000X0.512500X-0.150000X0.512500X-0.150000X-0.512500X0*%
%ADD34RoundRect,0.225000X0.212260X-0.382356X0.437260X0.007356X-0.212260X0.382356X-0.437260X-0.007356X0*%
%ADD35RoundRect,0.200000X-0.275000X0.200000X-0.275000X-0.200000X0.275000X-0.200000X0.275000X0.200000X0*%
G04 APERTURE END LIST*
D10*
%TO.C,J3*%
X158780000Y-43720000D03*
D11*
X161320000Y-43720000D03*
X163860000Y-43720000D03*
X166400000Y-43720000D03*
%TD*%
D12*
%TO.C,SW2*%
X170980000Y-98760000D03*
D13*
X170980000Y-93760000D03*
X170980000Y-96260000D03*
X156480000Y-98760000D03*
X156480000Y-93760000D03*
D14*
X163480000Y-101860000D03*
X163480000Y-90660000D03*
%TD*%
D10*
%TO.C,J1*%
X176780000Y-82820000D03*
D11*
X176780000Y-85360000D03*
%TD*%
D15*
%TO.C,D17*%
X129649998Y-80087500D03*
X129649998Y-76787500D03*
%TD*%
D16*
%TO.C,MX7*%
X51039998Y-63130000D03*
D17*
X45959998Y-63130000D03*
D16*
X40879998Y-63130000D03*
D18*
X42149998Y-60590000D03*
D19*
X38599998Y-60590000D03*
X52049998Y-58050000D03*
D18*
X48499998Y-58050000D03*
%TD*%
D20*
%TO.C,C2*%
X171205000Y-64620000D03*
X172755000Y-64620000D03*
%TD*%
D21*
%TO.C,C6*%
X156990000Y-74245000D03*
X156990000Y-75795000D03*
%TD*%
D15*
%TO.C,D1*%
X53449998Y-46750000D03*
X53449998Y-43450000D03*
%TD*%
D22*
%TO.C,C12*%
X172810000Y-84525000D03*
X172810000Y-82975000D03*
%TD*%
D16*
%TO.C,MX3*%
X89139998Y-39317500D03*
D17*
X84059998Y-39317500D03*
D16*
X78979998Y-39317500D03*
D18*
X80249998Y-36777500D03*
D19*
X76699998Y-36777500D03*
X90149998Y-34237500D03*
D18*
X86599998Y-34237500D03*
%TD*%
D16*
%TO.C,MX11*%
X127239998Y-58367500D03*
D17*
X122159998Y-58367500D03*
D16*
X117079998Y-58367500D03*
D18*
X118349998Y-55827500D03*
D19*
X114799998Y-55827500D03*
X128249998Y-53287500D03*
D18*
X124699998Y-53287500D03*
%TD*%
D23*
%TO.C,R8*%
X164105000Y-98220000D03*
X162455000Y-98220000D03*
%TD*%
D22*
%TO.C,C11*%
X156950000Y-69525000D03*
X156950000Y-67975000D03*
%TD*%
D24*
%TO.C,C13*%
X170380000Y-87350000D03*
X168830000Y-87350000D03*
%TD*%
D16*
%TO.C,MX1*%
X51039998Y-44080000D03*
D17*
X45959998Y-44080000D03*
D16*
X40879998Y-44080000D03*
D18*
X42149998Y-41540000D03*
D19*
X38599998Y-41540000D03*
X52049998Y-39000000D03*
D18*
X48499998Y-39000000D03*
%TD*%
D25*
%TO.C,D27*%
X151160589Y-125012604D03*
X152014691Y-121825048D03*
%TD*%
D16*
%TO.C,MX16*%
X108189998Y-75036250D03*
D17*
X103109998Y-75036250D03*
D16*
X98029998Y-75036250D03*
D18*
X99299998Y-72496250D03*
D19*
X95749998Y-72496250D03*
X109199998Y-69956250D03*
D18*
X105649998Y-69956250D03*
%TD*%
D15*
%TO.C,D3*%
X91549998Y-41987500D03*
X91549998Y-38687500D03*
%TD*%
%TO.C,D15*%
X91549998Y-80087500D03*
X91549998Y-76787500D03*
%TD*%
D16*
%TO.C,MX14*%
X70089998Y-82180000D03*
D17*
X65009998Y-82180000D03*
D16*
X59929998Y-82180000D03*
D18*
X61199998Y-79640000D03*
D19*
X57649998Y-79640000D03*
X71099998Y-77100000D03*
D18*
X67549998Y-77100000D03*
%TD*%
D21*
%TO.C,C3*%
X171280000Y-78170000D03*
X171280000Y-79720000D03*
%TD*%
D15*
%TO.C,D10*%
X110599998Y-58656250D03*
X110599998Y-55356250D03*
%TD*%
D16*
%TO.C,MX9*%
X89139998Y-58367500D03*
D17*
X84059998Y-58367500D03*
D16*
X78979998Y-58367500D03*
D18*
X80249998Y-55827500D03*
D19*
X76699998Y-55827500D03*
X90149998Y-53287500D03*
D18*
X86599998Y-53287500D03*
%TD*%
D15*
%TO.C,D22*%
X110599998Y-96756250D03*
X110599998Y-93456250D03*
%TD*%
D16*
%TO.C,MX24*%
X146289998Y-98848750D03*
D17*
X141209998Y-98848750D03*
D16*
X136129998Y-98848750D03*
D18*
X137399998Y-96308750D03*
D19*
X133849998Y-96308750D03*
X147299998Y-93768750D03*
D18*
X143749998Y-93768750D03*
%TD*%
D26*
%TO.C,Y1*%
X168730000Y-84820000D03*
X168730000Y-82620000D03*
X170430000Y-82620000D03*
X170430000Y-84820000D03*
%TD*%
D15*
%TO.C,D14*%
X72499998Y-84850000D03*
X72499998Y-81550000D03*
%TD*%
%TO.C,D20*%
X72499998Y-103900000D03*
X72499998Y-100600000D03*
%TD*%
D16*
%TO.C,MX22*%
X108189998Y-94086250D03*
D17*
X103109998Y-94086250D03*
D16*
X98029998Y-94086250D03*
D18*
X99299998Y-91546250D03*
D19*
X95749998Y-91546250D03*
X109199998Y-89006250D03*
D18*
X105649998Y-89006250D03*
%TD*%
D21*
%TO.C,C4*%
X173780000Y-78170000D03*
X173780000Y-79720000D03*
%TD*%
D16*
%TO.C,MX21*%
X89139998Y-96467500D03*
D17*
X84059998Y-96467500D03*
D16*
X78979998Y-96467500D03*
D18*
X80249998Y-93927500D03*
D19*
X76699998Y-93927500D03*
X90149998Y-91387500D03*
D18*
X86599998Y-91387500D03*
%TD*%
D27*
%TO.C,R10*%
X162455000Y-94320000D03*
X164105000Y-94320000D03*
%TD*%
D15*
%TO.C,D11*%
X129649998Y-61037500D03*
X129649998Y-57737500D03*
%TD*%
D16*
%TO.C,MX13*%
X51039998Y-82180000D03*
D17*
X45959998Y-82180000D03*
D16*
X40879998Y-82180000D03*
D18*
X42149998Y-79640000D03*
D19*
X38599998Y-79640000D03*
X52049998Y-77100000D03*
D18*
X48499998Y-77100000D03*
%TD*%
D15*
%TO.C,D5*%
X129649998Y-41987500D03*
X129649998Y-38687500D03*
%TD*%
D16*
%TO.C,MX15*%
X89139998Y-77417500D03*
D17*
X84059998Y-77417500D03*
D16*
X78979998Y-77417500D03*
D18*
X80249998Y-74877500D03*
D19*
X76699998Y-74877500D03*
X90149998Y-72337500D03*
D18*
X86599998Y-72337500D03*
%TD*%
D15*
%TO.C,D12*%
X148699998Y-63418750D03*
X148699998Y-60118750D03*
%TD*%
D16*
%TO.C,MX19*%
X51039998Y-101230000D03*
D17*
X45959998Y-101230000D03*
D16*
X40879998Y-101230000D03*
D18*
X42149998Y-98690000D03*
D19*
X38599998Y-98690000D03*
X52049998Y-96150000D03*
D18*
X48499998Y-96150000D03*
%TD*%
D15*
%TO.C,D9*%
X91549998Y-61037500D03*
X91549998Y-57737500D03*
%TD*%
D16*
%TO.C,MX17*%
X127239998Y-77417500D03*
D17*
X122159998Y-77417500D03*
D16*
X117079998Y-77417500D03*
D18*
X118349998Y-74877500D03*
D19*
X114799998Y-74877500D03*
X128249998Y-72337500D03*
D18*
X124699998Y-72337500D03*
%TD*%
D20*
%TO.C,C9*%
X161580000Y-57520000D03*
X163130000Y-57520000D03*
%TD*%
D22*
%TO.C,C8*%
X165680000Y-50570000D03*
X165680000Y-49020000D03*
%TD*%
D28*
%TO.C,R12*%
X166310000Y-84555000D03*
X166310000Y-82905000D03*
%TD*%
D15*
%TO.C,D18*%
X148699998Y-82468750D03*
X148699998Y-79168750D03*
%TD*%
D16*
%TO.C,MX4*%
X108189998Y-36936250D03*
D17*
X103109998Y-36936250D03*
D16*
X98029998Y-36936250D03*
D18*
X99299998Y-34396250D03*
D19*
X95749998Y-34396250D03*
X109199998Y-31856250D03*
D18*
X105649998Y-31856250D03*
%TD*%
D15*
%TO.C,D29*%
X156500000Y-105675000D03*
X156500000Y-102375000D03*
%TD*%
%TO.C,D7*%
X53449998Y-65800000D03*
X53449998Y-62500000D03*
%TD*%
D16*
%TO.C,MX20*%
X70089998Y-101230000D03*
D17*
X65009998Y-101230000D03*
D16*
X59929998Y-101230000D03*
D18*
X61199998Y-98690000D03*
D19*
X57649998Y-98690000D03*
X71099998Y-96150000D03*
D18*
X67549998Y-96150000D03*
%TD*%
D15*
%TO.C,D25*%
X110599998Y-115806250D03*
X110599998Y-112506250D03*
%TD*%
D16*
%TO.C,MX27*%
X149523754Y-121809828D03*
D17*
X144616851Y-120495027D03*
D16*
X139709948Y-119180226D03*
D18*
X141594074Y-117055475D03*
D29*
X138165037Y-116136667D03*
X151814140Y-117164332D03*
D18*
X148385103Y-116245524D03*
%TD*%
D16*
%TO.C,MX10*%
X108189998Y-55986250D03*
D17*
X103109998Y-55986250D03*
D16*
X98029998Y-55986250D03*
D18*
X99299998Y-53446250D03*
D19*
X95749998Y-53446250D03*
X109199998Y-50906250D03*
D18*
X105649998Y-50906250D03*
%TD*%
D15*
%TO.C,D16*%
X110599998Y-77706250D03*
X110599998Y-74406250D03*
%TD*%
D30*
%TO.C,U2*%
X168930000Y-77195000D03*
X168430000Y-77195000D03*
X167930000Y-77195000D03*
X167430000Y-77195000D03*
X166930000Y-77195000D03*
X166430000Y-77195000D03*
X165930000Y-77195000D03*
X165430000Y-77195000D03*
X164930000Y-77195000D03*
X164430000Y-77195000D03*
X163930000Y-77195000D03*
X163430000Y-77195000D03*
X162930000Y-77195000D03*
X162430000Y-77195000D03*
X161930000Y-77195000D03*
X161430000Y-77195000D03*
D31*
X159505000Y-75270000D03*
X159505000Y-74770000D03*
X159505000Y-74270000D03*
X159505000Y-73770000D03*
X159505000Y-73270000D03*
X159505000Y-72770000D03*
X159505000Y-72270000D03*
X159505000Y-71770000D03*
X159505000Y-71270000D03*
X159505000Y-70770000D03*
X159505000Y-70270000D03*
X159505000Y-69770000D03*
X159505000Y-69270000D03*
X159505000Y-68770000D03*
X159505000Y-68270000D03*
X159505000Y-67770000D03*
D30*
X161430000Y-65845000D03*
X161930000Y-65845000D03*
X162430000Y-65845000D03*
X162930000Y-65845000D03*
X163430000Y-65845000D03*
X163930000Y-65845000D03*
X164430000Y-65845000D03*
X164930000Y-65845000D03*
X165430000Y-65845000D03*
X165930000Y-65845000D03*
X166430000Y-65845000D03*
X166930000Y-65845000D03*
X167430000Y-65845000D03*
X167930000Y-65845000D03*
X168430000Y-65845000D03*
X168930000Y-65845000D03*
D31*
X170855000Y-67770000D03*
X170855000Y-68270000D03*
X170855000Y-68770000D03*
X170855000Y-69270000D03*
X170855000Y-69770000D03*
X170855000Y-70270000D03*
X170855000Y-70770000D03*
X170855000Y-71270000D03*
X170855000Y-71770000D03*
X170855000Y-72270000D03*
X170855000Y-72770000D03*
X170855000Y-73270000D03*
X170855000Y-73770000D03*
X170855000Y-74270000D03*
X170855000Y-74770000D03*
X170855000Y-75270000D03*
%TD*%
D16*
%TO.C,MX26*%
X127239998Y-115517500D03*
D17*
X122159998Y-115517500D03*
D16*
X117079998Y-115517500D03*
D18*
X118349998Y-112977500D03*
D19*
X114799998Y-112977500D03*
X128249998Y-110437500D03*
D18*
X124699998Y-110437500D03*
%TD*%
D15*
%TO.C,D4*%
X110599998Y-39606250D03*
X110599998Y-36306250D03*
%TD*%
D27*
%TO.C,R11*%
X166355000Y-94320000D03*
X168005000Y-94320000D03*
%TD*%
D16*
%TO.C,MX18*%
X146289998Y-79798750D03*
D17*
X141209998Y-79798750D03*
D16*
X136129998Y-79798750D03*
D18*
X137399998Y-77258750D03*
D19*
X133849998Y-77258750D03*
X147299998Y-74718750D03*
D18*
X143749998Y-74718750D03*
%TD*%
D23*
%TO.C,R9*%
X168005000Y-98220000D03*
X166355000Y-98220000D03*
%TD*%
D16*
%TO.C,MX12*%
X146289998Y-60748750D03*
D17*
X141209998Y-60748750D03*
D16*
X136129998Y-60748750D03*
D18*
X137399998Y-58208750D03*
D19*
X133849998Y-58208750D03*
X147299998Y-55668750D03*
D18*
X143749998Y-55668750D03*
%TD*%
D20*
%TO.C,C1*%
X161580000Y-55420000D03*
X163130000Y-55420000D03*
%TD*%
%TO.C,C7*%
X161105000Y-79920000D03*
X162655000Y-79920000D03*
%TD*%
D16*
%TO.C,MX28*%
X171221544Y-132726605D03*
D17*
X166822135Y-130186605D03*
D16*
X162422726Y-127646605D03*
D18*
X164792578Y-126081900D03*
D32*
X161718188Y-124306900D03*
X174636230Y-128832196D03*
D18*
X171561840Y-127057196D03*
%TD*%
D24*
%TO.C,C5*%
X158555000Y-65620000D03*
X157005000Y-65620000D03*
%TD*%
D15*
%TO.C,D26*%
X129649998Y-118187500D03*
X129649998Y-114887500D03*
%TD*%
D16*
%TO.C,MX25*%
X108189998Y-113136250D03*
D17*
X103109998Y-113136250D03*
D16*
X98029998Y-113136250D03*
D18*
X99299998Y-110596250D03*
D19*
X95749998Y-110596250D03*
X109199998Y-108056250D03*
D18*
X105649998Y-108056250D03*
%TD*%
D15*
%TO.C,D21*%
X91549998Y-99137500D03*
X91549998Y-95837500D03*
%TD*%
D16*
%TO.C,MX6*%
X146289998Y-41698750D03*
D17*
X141209998Y-41698750D03*
D16*
X136129998Y-41698750D03*
D18*
X137399998Y-39158750D03*
D19*
X133849998Y-39158750D03*
X147299998Y-36618750D03*
D18*
X143749998Y-36618750D03*
%TD*%
D33*
%TO.C,U1*%
X163430000Y-52877500D03*
X161530000Y-52877500D03*
X162480000Y-50602500D03*
%TD*%
D15*
%TO.C,D23*%
X129649998Y-99137500D03*
X129649998Y-95837500D03*
%TD*%
%TO.C,D8*%
X72499998Y-65800000D03*
X72499998Y-62500000D03*
%TD*%
D16*
%TO.C,MX23*%
X127239998Y-96467500D03*
D17*
X122159998Y-96467500D03*
D16*
X117079998Y-96467500D03*
D18*
X118349998Y-93927500D03*
D19*
X114799998Y-93927500D03*
X128249998Y-91387500D03*
D18*
X124699998Y-91387500D03*
%TD*%
D34*
%TO.C,D28*%
X171973665Y-136243893D03*
X173623665Y-133386009D03*
%TD*%
D16*
%TO.C,MX8*%
X70089998Y-63130000D03*
D17*
X65009998Y-63130000D03*
D16*
X59929998Y-63130000D03*
D18*
X61199998Y-60590000D03*
D19*
X57649998Y-60590000D03*
X71099998Y-58050000D03*
D18*
X67549998Y-58050000D03*
%TD*%
D35*
%TO.C,R7*%
X157880000Y-81295000D03*
X157880000Y-82945000D03*
%TD*%
D15*
%TO.C,D19*%
X53449998Y-103900000D03*
X53449998Y-100600000D03*
%TD*%
%TO.C,D13*%
X53449998Y-84850000D03*
X53449998Y-81550000D03*
%TD*%
D16*
%TO.C,MX2*%
X70089998Y-44080000D03*
D17*
X65009998Y-44080000D03*
D16*
X59929998Y-44080000D03*
D18*
X61199998Y-41540000D03*
D19*
X57649998Y-41540000D03*
X71099998Y-39000000D03*
D18*
X67549998Y-39000000D03*
%TD*%
D15*
%TO.C,D2*%
X72499998Y-46750000D03*
X72499998Y-43450000D03*
%TD*%
%TO.C,D6*%
X148699998Y-44368750D03*
X148699998Y-41068750D03*
%TD*%
D16*
%TO.C,MX5*%
X127239998Y-39317500D03*
D17*
X122159998Y-39317500D03*
D16*
X117079998Y-39317500D03*
D18*
X118349998Y-36777500D03*
D19*
X114799998Y-36777500D03*
X128249998Y-34237500D03*
D18*
X124699998Y-34237500D03*
%TD*%
D15*
%TO.C,D24*%
X148699998Y-101518750D03*
X148699998Y-98218750D03*
%TD*%
D28*
%TO.C,R13*%
X155580000Y-82945000D03*
X155580000Y-81295000D03*
%TD*%
M02*
