M48
; DRILL file {KiCad 8.0.4} date 2024-08-15T14:36:34+0200
; FORMAT={-:-/ absolute / inch / decimal}
; #@! TF.CreationDate,2024-08-15T14:36:34+02:00
; #@! TF.GenerationSoftware,Kicad,Pcbnew,8.0.4
; #@! TF.FileFunction,Plated,1,2,PTH
FMAT,2
INCH
; #@! TA.AperFunction,Plated,PTH,ViaDrill
T1C0.0118
; #@! TA.AperFunction,Plated,PTH,ViaDrill
T2C0.0157
; #@! TA.AperFunction,Plated,PTH,ComponentDrill
T3C0.0394
; #@! TA.AperFunction,Plated,PTH,ComponentDrill
T4C0.0787
; #@! TA.AperFunction,Plated,PTH,ComponentDrill
T5C0.1181
%
G90
G05
T1
X1.9596Y-1.8314
X1.9596Y-2.3236
X1.9596Y-2.5834
X1.9596Y-3.0755
X1.9596Y-3.3314
X1.9596Y-3.8196
X1.9596Y-4.0795
X2.0423Y-4.2606
X2.7116Y-1.6464
X2.7116Y-2.1346
X2.7116Y-2.3984
X2.7116Y-2.8866
X2.7116Y-3.1464
X2.7116Y-3.6385
X2.7116Y-3.8944
X3.0817Y-4.1425
X3.4596Y-2.7803
X3.4596Y-3.0519
X3.4596Y-3.5362
X3.4596Y-3.8
X3.4596Y-3.9614
X3.4602Y-2.3039
X3.4636Y-1.5519
X3.4636Y-2.0283
X4.2102Y-1.6385
X4.2102Y-2.1188
X4.2102Y-2.3787
X4.2102Y-2.8694
X4.2116Y-3.1464
X4.2116Y-3.6188
X4.2116Y-3.8944
X4.2116Y-4.0559
X4.9596Y-1.6897
X4.9596Y-2.2291
X4.9602Y-2.4574
X4.9602Y-2.9692
X4.9602Y-3.2291
X4.9602Y-3.733
X5.0581Y-4.0559
X5.7466Y-2.6184
X5.8918Y-2.7951
X5.9242Y-4.5086
X5.9242Y-4.6543
X6.0069Y-2.2488
X6.1348Y-2.1858
X6.3219Y-3.1937
X6.4124Y-3.1937
X6.4636Y-2.4082
X6.6407Y-2.3629
X6.6713Y-4.0312
T2
X1.1722Y-2.0519
X1.1722Y-2.7173
X1.1722Y-3.5165
X1.188Y-1.4968
X1.2313Y-4.3157
X1.3494Y-2.0952
X1.3612Y-3.8
X1.3691Y-2.8157
X1.6604Y-4.3393
X1.7904Y-2.548
X1.81Y-1.8314
X1.8219Y-4.0716
X1.8258Y-2.1149
X1.8258Y-3.2212
X1.9321Y-4.5874
X2.0502Y-2.6307
X2.0778Y-3.6031
X2.0856Y-3.3826
X2.188Y-2.8669
X2.5187Y-1.3472
X2.5463Y-2.1188
X2.562Y-2.5716
X2.5856Y-4.0559
X2.8376Y-4.8196
X2.8691Y-3.3
X2.8888Y-1.7921
X2.9006Y-2.1188
X2.9045Y-4.3629
X2.936Y-2.5086
X3.1289Y-1.9023
X3.2077Y-3.4968
X3.2313Y-4.2055
X3.2352Y-4.0677
X3.3061Y-2.7803
X3.3219Y-2.0204
X3.3297Y-3.8275
X3.3376Y-1.2566
X3.4321Y-4.5834
X3.562Y-3.9889
X3.6053Y-2.359
X3.6093Y-3.0913
X3.6171Y-1.6031
X3.7037Y-3.3157
X3.7313Y-1.8118
X3.7707Y-4.0952
X3.7904Y-2.548
X3.8219Y-3.9889
X4.0659Y-2.4023
X4.0659Y-3.8472
X4.1289Y-4.6582
X4.1841Y-1.2842
X4.3376Y-4.0952
X4.3494Y-3.1897
X4.3691Y-1.6897
X4.4124Y-3.3944
X4.4321Y-2.0244
X4.4321Y-4.2488
X4.4675Y-1.8551
X4.4872Y-2.5874
X4.6014Y-4.0952
X4.6093Y-4.9299
X4.81Y-3.9614
X4.8179Y-2.4574
X4.8297Y-4.5047
X4.8494Y-2.7724
X4.94Y-1.359
X5.1171Y-3.2803
X5.125Y-1.8
X5.1289Y-3.985
X5.1762Y-2.8629
X5.2156Y-4.8944
X5.2431Y-4.3314
X5.2864Y-3.5165
X5.3455Y-2.0637
X5.44Y-5.111
X5.562Y-1.7566
X5.562Y-3.0992
X5.5974Y-3.9889
X5.6132Y-2.3866
X5.6604Y-4.1464
X5.6959Y-2.7291
X5.7037Y-2.9102
X5.7234Y-2.044
X5.7628Y-2.7803
X5.7785Y-3.9535
X5.7943Y-4.8275
X5.8376Y-1.4929
X5.8415Y-2.0352
X5.8445Y-2.7694
X5.8455Y-3.3196
X5.8455Y-4.3472
X5.8888Y-2.5519
X5.9163Y-2.733
X5.9242Y-1.7645
X5.94Y-3.0637
X6.003Y-2.9102
X6.0108Y-4.9023
X6.0659Y-2.2409
X6.0659Y-2.4574
X6.0778Y-1.9929
X6.0974Y-4.1464
X6.1211Y-4.3708
X6.1565Y-2.6503
X6.1722Y-1.9929
X6.188Y-3.2173
X6.2628Y-2.2409
X6.2746Y-2.9614
X6.2825Y-1.9102
X6.2864Y-2.4023
X6.2943Y-5.3118
X6.3022Y-2.6464
X6.3219Y-2.0401
X6.3652Y-3.1385
X6.377Y-2.7212
X6.3888Y-1.4929
X6.3967Y-1.7566
X6.4518Y-2.5401
X6.4872Y-3.0755
X6.499Y-2.3039
X6.5069Y-2.1582
X6.5266Y-3.359
X6.5384Y-1.9456
X6.5896Y-4.3511
X6.6329Y-1.7881
X6.6368Y-4.6543
X6.6841Y-2.6425
X6.6841Y-3.3551
X6.6841Y-3.9417
T3
X5.7195Y-1.7251
X5.7195Y-1.8251
X5.7904Y-3.422
X5.7904Y-3.522
X5.7904Y-3.622
X5.7904Y-3.722
X6.1762Y-3.42
X6.1762Y-3.9909
X6.2746Y-3.42
X6.373Y-3.42
X6.373Y-3.9909
T5
X1.35Y-1.6812
X1.35Y-2.4312
X1.35Y-3.1812
X1.35Y-3.9312
X1.6Y-1.5813
X1.6Y-2.3312
X1.6Y-3.0812
X1.6Y-3.8312
X2.1Y-1.6812
X2.1Y-2.4312
X2.1Y-3.1812
X2.1Y-3.9312
X2.35Y-1.5813
X2.35Y-2.3312
X2.35Y-3.0812
X2.35Y-3.8312
X2.85Y-1.4937
X2.85Y-2.2437
X2.85Y-2.9937
X2.85Y-3.7437
X2.85Y-4.4937
X3.1Y-1.3938
X3.1Y-2.1437
X3.1Y-2.8937
X3.1Y-3.6437
X3.1Y-4.3937
X3.6Y-1.4
X3.6Y-2.15
X3.6Y-2.9
X3.6Y-3.65
X3.6Y-4.4
X3.85Y-1.3
X3.85Y-2.05
X3.85Y-2.8
X3.85Y-3.55
X3.85Y-4.3
X4.35Y-1.4937
X4.35Y-2.2437
X4.35Y-2.9937
X4.35Y-3.7437
X4.35Y-4.4937
X4.6Y-1.3938
X4.6Y-2.1437
X4.6Y-2.8937
X4.6Y-3.6437
X4.6Y-4.3937
X5.1Y-1.5875
X5.1Y-2.3375
X5.1Y-3.0875
X5.1Y-3.8375
X5.2651Y-4.6543
X5.35Y-1.4875
X5.35Y-2.2375
X5.35Y-2.9875
X5.35Y-3.7375
X5.5325Y-4.6224
X6.191Y-4.8004
X6.4575Y-4.8388
T4
G00X6.0541Y-3.6937
M15
G01X6.0541Y-3.737
M16
G05
G00X6.4951Y-3.6937
M15
G01X6.4951Y-3.737
M16
G05
M30
