%TF.GenerationSoftware,KiCad,Pcbnew,8.0.4*%
%TF.CreationDate,2024-08-15T14:36:39+02:00*%
%TF.ProjectId,pcb-left,7063622d-6c65-4667-942e-6b696361645f,rev?*%
%TF.SameCoordinates,Original*%
%TF.FileFunction,Legend,Top*%
%TF.FilePolarity,Positive*%
%FSLAX46Y46*%
G04 Gerber Fmt 4.6, Leading zero omitted, Abs format (unit mm)*
G04 Created by KiCad (PCBNEW 8.0.4) date 2024-08-15 14:36:39*
%MOMM*%
%LPD*%
G01*
G04 APERTURE LIST*
%ADD10C,0.150000*%
%ADD11C,0.100000*%
%ADD12C,0.120000*%
G04 APERTURE END LIST*
D10*
X167032200Y-91202082D02*
X167079819Y-91059225D01*
X167079819Y-91059225D02*
X167079819Y-90821130D01*
X167079819Y-90821130D02*
X167032200Y-90725892D01*
X167032200Y-90725892D02*
X166984580Y-90678273D01*
X166984580Y-90678273D02*
X166889342Y-90630654D01*
X166889342Y-90630654D02*
X166794104Y-90630654D01*
X166794104Y-90630654D02*
X166698866Y-90678273D01*
X166698866Y-90678273D02*
X166651247Y-90725892D01*
X166651247Y-90725892D02*
X166603628Y-90821130D01*
X166603628Y-90821130D02*
X166556009Y-91011606D01*
X166556009Y-91011606D02*
X166508390Y-91106844D01*
X166508390Y-91106844D02*
X166460771Y-91154463D01*
X166460771Y-91154463D02*
X166365533Y-91202082D01*
X166365533Y-91202082D02*
X166270295Y-91202082D01*
X166270295Y-91202082D02*
X166175057Y-91154463D01*
X166175057Y-91154463D02*
X166127438Y-91106844D01*
X166127438Y-91106844D02*
X166079819Y-91011606D01*
X166079819Y-91011606D02*
X166079819Y-90773511D01*
X166079819Y-90773511D02*
X166127438Y-90630654D01*
X166079819Y-90297320D02*
X167079819Y-90059225D01*
X167079819Y-90059225D02*
X166365533Y-89868749D01*
X166365533Y-89868749D02*
X167079819Y-89678273D01*
X167079819Y-89678273D02*
X166079819Y-89440178D01*
X166175057Y-89106844D02*
X166127438Y-89059225D01*
X166127438Y-89059225D02*
X166079819Y-88963987D01*
X166079819Y-88963987D02*
X166079819Y-88725892D01*
X166079819Y-88725892D02*
X166127438Y-88630654D01*
X166127438Y-88630654D02*
X166175057Y-88583035D01*
X166175057Y-88583035D02*
X166270295Y-88535416D01*
X166270295Y-88535416D02*
X166365533Y-88535416D01*
X166365533Y-88535416D02*
X166508390Y-88583035D01*
X166508390Y-88583035D02*
X167079819Y-89154463D01*
X167079819Y-89154463D02*
X167079819Y-88535416D01*
D11*
X157764285Y-43792580D02*
X157764285Y-44792580D01*
X157764285Y-44792580D02*
X157526190Y-44792580D01*
X157526190Y-44792580D02*
X157383333Y-44744961D01*
X157383333Y-44744961D02*
X157288095Y-44649723D01*
X157288095Y-44649723D02*
X157240476Y-44554485D01*
X157240476Y-44554485D02*
X157192857Y-44364009D01*
X157192857Y-44364009D02*
X157192857Y-44221152D01*
X157192857Y-44221152D02*
X157240476Y-44030676D01*
X157240476Y-44030676D02*
X157288095Y-43935438D01*
X157288095Y-43935438D02*
X157383333Y-43840200D01*
X157383333Y-43840200D02*
X157526190Y-43792580D01*
X157526190Y-43792580D02*
X157764285Y-43792580D01*
X156859523Y-44792580D02*
X156240476Y-44792580D01*
X156240476Y-44792580D02*
X156573809Y-44411628D01*
X156573809Y-44411628D02*
X156430952Y-44411628D01*
X156430952Y-44411628D02*
X156335714Y-44364009D01*
X156335714Y-44364009D02*
X156288095Y-44316390D01*
X156288095Y-44316390D02*
X156240476Y-44221152D01*
X156240476Y-44221152D02*
X156240476Y-43983057D01*
X156240476Y-43983057D02*
X156288095Y-43887819D01*
X156288095Y-43887819D02*
X156335714Y-43840200D01*
X156335714Y-43840200D02*
X156430952Y-43792580D01*
X156430952Y-43792580D02*
X156716666Y-43792580D01*
X156716666Y-43792580D02*
X156811904Y-43840200D01*
X156811904Y-43840200D02*
X156859523Y-43887819D01*
X155288095Y-43792580D02*
X155859523Y-43792580D01*
X155573809Y-43792580D02*
X155573809Y-44792580D01*
X155573809Y-44792580D02*
X155669047Y-44649723D01*
X155669047Y-44649723D02*
X155764285Y-44554485D01*
X155764285Y-44554485D02*
X155859523Y-44506866D01*
D12*
%TO.C,SW2*%
X153065000Y-92168750D02*
X153065000Y-87558750D01*
X153065000Y-101178750D02*
X153065000Y-96568750D01*
X155775000Y-101178750D02*
X153065000Y-101178750D01*
X156025000Y-87558750D02*
X153065000Y-87558750D01*
X158525000Y-87558750D02*
X157725000Y-87558750D01*
X160775000Y-101178750D02*
X157975000Y-101178750D01*
X160825000Y-87558750D02*
X160225000Y-87558750D01*
X162925000Y-87558750D02*
X165685000Y-87558750D01*
X165675000Y-96568750D02*
X165675000Y-101178750D01*
X165675000Y-101178750D02*
X162975000Y-101178750D01*
X165685000Y-87558750D02*
X165685000Y-92168750D01*
%TD*%
M02*
