M48
; DRILL file {KiCad 7.0.10} date Mo 22 Apr 2024 22:33:24 CEST
; FORMAT={-:-/ absolute / inch / decimal}
; #@! TF.CreationDate,2024-04-22T22:33:24+02:00
; #@! TF.GenerationSoftware,Kicad,Pcbnew,7.0.10
; #@! TF.FileFunction,NonPlated,1,2,NPTH
FMAT,2
INCH
; #@! TA.AperFunction,NonPlated,NPTH,ComponentDrill
T1C0.0689
; #@! TA.AperFunction,NonPlated,NPTH,ComponentDrill
T2C0.1570
%
G90
G05
T1
X1.6094Y-1.7354
X1.6094Y-2.4854
X1.6094Y-3.2354
X1.6094Y-3.9854
X2.0094Y-1.7354
X2.0094Y-2.4854
X2.0094Y-3.2354
X2.0094Y-3.9854
X2.3594Y-1.7354
X2.3594Y-2.4854
X2.3594Y-3.2354
X2.3594Y-3.9854
X2.7594Y-1.7354
X2.7594Y-2.4854
X2.7594Y-3.2354
X2.7594Y-3.9854
X3.1094Y-1.5479
X3.1094Y-2.2979
X3.1094Y-3.0479
X3.1094Y-3.7979
X3.5094Y-1.5479
X3.5094Y-2.2979
X3.5094Y-3.0479
X3.5094Y-3.7979
X3.8594Y-1.4542
X3.8594Y-2.2042
X3.8594Y-2.9542
X3.8594Y-3.7042
X3.8594Y-4.4542
X4.2594Y-1.4542
X4.2594Y-2.2042
X4.2594Y-2.9542
X4.2594Y-3.7042
X4.2594Y-4.4542
X4.6094Y-1.5479
X4.6094Y-2.2979
X4.6094Y-3.0479
X4.6094Y-3.7979
X4.6094Y-4.5479
X5.0094Y-1.5479
X5.0094Y-2.2979
X5.0094Y-3.0479
X5.0094Y-3.7979
X5.0094Y-4.5479
X5.3594Y-1.6417
X5.3594Y-2.3917
X5.3594Y-3.1417
X5.3594Y-3.8917
X5.5004Y-4.6921
X5.7594Y-1.6417
X5.7594Y-2.3917
X5.7594Y-3.1417
X5.7594Y-3.8917
X5.8868Y-4.7957
X6.3946Y-5.0255
X6.741Y-5.2255
T2
X1.8094Y-1.7354
X1.8094Y-2.4854
X1.8094Y-3.2354
X1.8094Y-3.9854
X2.5594Y-1.7354
X2.5594Y-2.4854
X2.5594Y-3.2354
X2.5594Y-3.9854
X3.3094Y-1.5479
X3.3094Y-2.2979
X3.3094Y-3.0479
X3.3094Y-3.7979
X4.0594Y-1.4542
X4.0594Y-2.2042
X4.0594Y-2.9542
X4.0594Y-3.7042
X4.0594Y-4.4542
X4.8094Y-1.5479
X4.8094Y-2.2979
X4.8094Y-3.0479
X4.8094Y-3.7979
X4.8094Y-4.5479
X5.5594Y-1.6417
X5.5594Y-2.3917
X5.5594Y-3.1417
X5.5594Y-3.8917
X5.6936Y-4.7439
X6.5678Y-5.1255
M30
