%TF.GenerationSoftware,KiCad,Pcbnew,7.0.10*%
%TF.CreationDate,2024-04-22T22:33:16+02:00*%
%TF.ProjectId,pcb-left,7063622d-6c65-4667-942e-6b696361645f,rev?*%
%TF.SameCoordinates,Original*%
%TF.FileFunction,Legend,Bot*%
%TF.FilePolarity,Positive*%
%FSLAX46Y46*%
G04 Gerber Fmt 4.6, Leading zero omitted, Abs format (unit mm)*
G04 Created by KiCad (PCBNEW 7.0.10) date 2024-04-22 22:33:16*
%MOMM*%
%LPD*%
G01*
G04 APERTURE LIST*
%ADD10C,0.150000*%
%ADD11C,0.120000*%
G04 APERTURE END LIST*
D10*
X132104817Y-77223214D02*
X131104817Y-77223214D01*
X131104817Y-77223214D02*
X131104817Y-77461309D01*
X131104817Y-77461309D02*
X131152436Y-77604166D01*
X131152436Y-77604166D02*
X131247674Y-77699404D01*
X131247674Y-77699404D02*
X131342912Y-77747023D01*
X131342912Y-77747023D02*
X131533388Y-77794642D01*
X131533388Y-77794642D02*
X131676245Y-77794642D01*
X131676245Y-77794642D02*
X131866721Y-77747023D01*
X131866721Y-77747023D02*
X131961959Y-77699404D01*
X131961959Y-77699404D02*
X132057198Y-77604166D01*
X132057198Y-77604166D02*
X132104817Y-77461309D01*
X132104817Y-77461309D02*
X132104817Y-77223214D01*
X132104817Y-78747023D02*
X132104817Y-78175595D01*
X132104817Y-78461309D02*
X131104817Y-78461309D01*
X131104817Y-78461309D02*
X131247674Y-78366071D01*
X131247674Y-78366071D02*
X131342912Y-78270833D01*
X131342912Y-78270833D02*
X131390531Y-78175595D01*
X131104817Y-79080357D02*
X131104817Y-79747023D01*
X131104817Y-79747023D02*
X132104817Y-79318452D01*
X51495711Y-61834819D02*
X51495711Y-60834819D01*
X51495711Y-60834819D02*
X51162378Y-61549104D01*
X51162378Y-61549104D02*
X50829045Y-60834819D01*
X50829045Y-60834819D02*
X50829045Y-61834819D01*
X50448092Y-60834819D02*
X49781426Y-61834819D01*
X49781426Y-60834819D02*
X50448092Y-61834819D01*
X49495711Y-60834819D02*
X48829045Y-60834819D01*
X48829045Y-60834819D02*
X49257616Y-61834819D01*
X172146666Y-66409580D02*
X172194285Y-66457200D01*
X172194285Y-66457200D02*
X172337142Y-66504819D01*
X172337142Y-66504819D02*
X172432380Y-66504819D01*
X172432380Y-66504819D02*
X172575237Y-66457200D01*
X172575237Y-66457200D02*
X172670475Y-66361961D01*
X172670475Y-66361961D02*
X172718094Y-66266723D01*
X172718094Y-66266723D02*
X172765713Y-66076247D01*
X172765713Y-66076247D02*
X172765713Y-65933390D01*
X172765713Y-65933390D02*
X172718094Y-65742914D01*
X172718094Y-65742914D02*
X172670475Y-65647676D01*
X172670475Y-65647676D02*
X172575237Y-65552438D01*
X172575237Y-65552438D02*
X172432380Y-65504819D01*
X172432380Y-65504819D02*
X172337142Y-65504819D01*
X172337142Y-65504819D02*
X172194285Y-65552438D01*
X172194285Y-65552438D02*
X172146666Y-65600057D01*
X171765713Y-65600057D02*
X171718094Y-65552438D01*
X171718094Y-65552438D02*
X171622856Y-65504819D01*
X171622856Y-65504819D02*
X171384761Y-65504819D01*
X171384761Y-65504819D02*
X171289523Y-65552438D01*
X171289523Y-65552438D02*
X171241904Y-65600057D01*
X171241904Y-65600057D02*
X171194285Y-65695295D01*
X171194285Y-65695295D02*
X171194285Y-65790533D01*
X171194285Y-65790533D02*
X171241904Y-65933390D01*
X171241904Y-65933390D02*
X171813332Y-66504819D01*
X171813332Y-66504819D02*
X171194285Y-66504819D01*
X155919580Y-74853333D02*
X155967200Y-74805714D01*
X155967200Y-74805714D02*
X156014819Y-74662857D01*
X156014819Y-74662857D02*
X156014819Y-74567619D01*
X156014819Y-74567619D02*
X155967200Y-74424762D01*
X155967200Y-74424762D02*
X155871961Y-74329524D01*
X155871961Y-74329524D02*
X155776723Y-74281905D01*
X155776723Y-74281905D02*
X155586247Y-74234286D01*
X155586247Y-74234286D02*
X155443390Y-74234286D01*
X155443390Y-74234286D02*
X155252914Y-74281905D01*
X155252914Y-74281905D02*
X155157676Y-74329524D01*
X155157676Y-74329524D02*
X155062438Y-74424762D01*
X155062438Y-74424762D02*
X155014819Y-74567619D01*
X155014819Y-74567619D02*
X155014819Y-74662857D01*
X155014819Y-74662857D02*
X155062438Y-74805714D01*
X155062438Y-74805714D02*
X155110057Y-74853333D01*
X155014819Y-75710476D02*
X155014819Y-75520000D01*
X155014819Y-75520000D02*
X155062438Y-75424762D01*
X155062438Y-75424762D02*
X155110057Y-75377143D01*
X155110057Y-75377143D02*
X155252914Y-75281905D01*
X155252914Y-75281905D02*
X155443390Y-75234286D01*
X155443390Y-75234286D02*
X155824342Y-75234286D01*
X155824342Y-75234286D02*
X155919580Y-75281905D01*
X155919580Y-75281905D02*
X155967200Y-75329524D01*
X155967200Y-75329524D02*
X156014819Y-75424762D01*
X156014819Y-75424762D02*
X156014819Y-75615238D01*
X156014819Y-75615238D02*
X155967200Y-75710476D01*
X155967200Y-75710476D02*
X155919580Y-75758095D01*
X155919580Y-75758095D02*
X155824342Y-75805714D01*
X155824342Y-75805714D02*
X155586247Y-75805714D01*
X155586247Y-75805714D02*
X155491009Y-75758095D01*
X155491009Y-75758095D02*
X155443390Y-75710476D01*
X155443390Y-75710476D02*
X155395771Y-75615238D01*
X155395771Y-75615238D02*
X155395771Y-75424762D01*
X155395771Y-75424762D02*
X155443390Y-75329524D01*
X155443390Y-75329524D02*
X155491009Y-75281905D01*
X155491009Y-75281905D02*
X155586247Y-75234286D01*
X55904817Y-44361905D02*
X54904817Y-44361905D01*
X54904817Y-44361905D02*
X54904817Y-44600000D01*
X54904817Y-44600000D02*
X54952436Y-44742857D01*
X54952436Y-44742857D02*
X55047674Y-44838095D01*
X55047674Y-44838095D02*
X55142912Y-44885714D01*
X55142912Y-44885714D02*
X55333388Y-44933333D01*
X55333388Y-44933333D02*
X55476245Y-44933333D01*
X55476245Y-44933333D02*
X55666721Y-44885714D01*
X55666721Y-44885714D02*
X55761959Y-44838095D01*
X55761959Y-44838095D02*
X55857198Y-44742857D01*
X55857198Y-44742857D02*
X55904817Y-44600000D01*
X55904817Y-44600000D02*
X55904817Y-44361905D01*
X55904817Y-45885714D02*
X55904817Y-45314286D01*
X55904817Y-45600000D02*
X54904817Y-45600000D01*
X54904817Y-45600000D02*
X55047674Y-45504762D01*
X55047674Y-45504762D02*
X55142912Y-45409524D01*
X55142912Y-45409524D02*
X55190531Y-45314286D01*
X174599580Y-83107142D02*
X174647200Y-83059523D01*
X174647200Y-83059523D02*
X174694819Y-82916666D01*
X174694819Y-82916666D02*
X174694819Y-82821428D01*
X174694819Y-82821428D02*
X174647200Y-82678571D01*
X174647200Y-82678571D02*
X174551961Y-82583333D01*
X174551961Y-82583333D02*
X174456723Y-82535714D01*
X174456723Y-82535714D02*
X174266247Y-82488095D01*
X174266247Y-82488095D02*
X174123390Y-82488095D01*
X174123390Y-82488095D02*
X173932914Y-82535714D01*
X173932914Y-82535714D02*
X173837676Y-82583333D01*
X173837676Y-82583333D02*
X173742438Y-82678571D01*
X173742438Y-82678571D02*
X173694819Y-82821428D01*
X173694819Y-82821428D02*
X173694819Y-82916666D01*
X173694819Y-82916666D02*
X173742438Y-83059523D01*
X173742438Y-83059523D02*
X173790057Y-83107142D01*
X174694819Y-84059523D02*
X174694819Y-83488095D01*
X174694819Y-83773809D02*
X173694819Y-83773809D01*
X173694819Y-83773809D02*
X173837676Y-83678571D01*
X173837676Y-83678571D02*
X173932914Y-83583333D01*
X173932914Y-83583333D02*
X173980533Y-83488095D01*
X173790057Y-84440476D02*
X173742438Y-84488095D01*
X173742438Y-84488095D02*
X173694819Y-84583333D01*
X173694819Y-84583333D02*
X173694819Y-84821428D01*
X173694819Y-84821428D02*
X173742438Y-84916666D01*
X173742438Y-84916666D02*
X173790057Y-84964285D01*
X173790057Y-84964285D02*
X173885295Y-85011904D01*
X173885295Y-85011904D02*
X173980533Y-85011904D01*
X173980533Y-85011904D02*
X174123390Y-84964285D01*
X174123390Y-84964285D02*
X174694819Y-84392857D01*
X174694819Y-84392857D02*
X174694819Y-85011904D01*
X89595711Y-38022319D02*
X89595711Y-37022319D01*
X89595711Y-37022319D02*
X89262378Y-37736604D01*
X89262378Y-37736604D02*
X88929045Y-37022319D01*
X88929045Y-37022319D02*
X88929045Y-38022319D01*
X88548092Y-37022319D02*
X87881426Y-38022319D01*
X87881426Y-37022319D02*
X88548092Y-38022319D01*
X87595711Y-37022319D02*
X86976664Y-37022319D01*
X86976664Y-37022319D02*
X87309997Y-37403271D01*
X87309997Y-37403271D02*
X87167140Y-37403271D01*
X87167140Y-37403271D02*
X87071902Y-37450890D01*
X87071902Y-37450890D02*
X87024283Y-37498509D01*
X87024283Y-37498509D02*
X86976664Y-37593747D01*
X86976664Y-37593747D02*
X86976664Y-37831842D01*
X86976664Y-37831842D02*
X87024283Y-37927080D01*
X87024283Y-37927080D02*
X87071902Y-37974700D01*
X87071902Y-37974700D02*
X87167140Y-38022319D01*
X87167140Y-38022319D02*
X87452854Y-38022319D01*
X87452854Y-38022319D02*
X87548092Y-37974700D01*
X87548092Y-37974700D02*
X87595711Y-37927080D01*
X128171902Y-57072319D02*
X128171902Y-56072319D01*
X128171902Y-56072319D02*
X127838569Y-56786604D01*
X127838569Y-56786604D02*
X127505236Y-56072319D01*
X127505236Y-56072319D02*
X127505236Y-57072319D01*
X127124283Y-56072319D02*
X126457617Y-57072319D01*
X126457617Y-56072319D02*
X127124283Y-57072319D01*
X125552855Y-57072319D02*
X126124283Y-57072319D01*
X125838569Y-57072319D02*
X125838569Y-56072319D01*
X125838569Y-56072319D02*
X125933807Y-56215176D01*
X125933807Y-56215176D02*
X126029045Y-56310414D01*
X126029045Y-56310414D02*
X126124283Y-56358033D01*
X124600474Y-57072319D02*
X125171902Y-57072319D01*
X124886188Y-57072319D02*
X124886188Y-56072319D01*
X124886188Y-56072319D02*
X124981426Y-56215176D01*
X124981426Y-56215176D02*
X125076664Y-56310414D01*
X125076664Y-56310414D02*
X125171902Y-56358033D01*
X160646666Y-100124819D02*
X160979999Y-99648628D01*
X161218094Y-100124819D02*
X161218094Y-99124819D01*
X161218094Y-99124819D02*
X160837142Y-99124819D01*
X160837142Y-99124819D02*
X160741904Y-99172438D01*
X160741904Y-99172438D02*
X160694285Y-99220057D01*
X160694285Y-99220057D02*
X160646666Y-99315295D01*
X160646666Y-99315295D02*
X160646666Y-99458152D01*
X160646666Y-99458152D02*
X160694285Y-99553390D01*
X160694285Y-99553390D02*
X160741904Y-99601009D01*
X160741904Y-99601009D02*
X160837142Y-99648628D01*
X160837142Y-99648628D02*
X161218094Y-99648628D01*
X160075237Y-99553390D02*
X160170475Y-99505771D01*
X160170475Y-99505771D02*
X160218094Y-99458152D01*
X160218094Y-99458152D02*
X160265713Y-99362914D01*
X160265713Y-99362914D02*
X160265713Y-99315295D01*
X160265713Y-99315295D02*
X160218094Y-99220057D01*
X160218094Y-99220057D02*
X160170475Y-99172438D01*
X160170475Y-99172438D02*
X160075237Y-99124819D01*
X160075237Y-99124819D02*
X159884761Y-99124819D01*
X159884761Y-99124819D02*
X159789523Y-99172438D01*
X159789523Y-99172438D02*
X159741904Y-99220057D01*
X159741904Y-99220057D02*
X159694285Y-99315295D01*
X159694285Y-99315295D02*
X159694285Y-99362914D01*
X159694285Y-99362914D02*
X159741904Y-99458152D01*
X159741904Y-99458152D02*
X159789523Y-99505771D01*
X159789523Y-99505771D02*
X159884761Y-99553390D01*
X159884761Y-99553390D02*
X160075237Y-99553390D01*
X160075237Y-99553390D02*
X160170475Y-99601009D01*
X160170475Y-99601009D02*
X160218094Y-99648628D01*
X160218094Y-99648628D02*
X160265713Y-99743866D01*
X160265713Y-99743866D02*
X160265713Y-99934342D01*
X160265713Y-99934342D02*
X160218094Y-100029580D01*
X160218094Y-100029580D02*
X160170475Y-100077200D01*
X160170475Y-100077200D02*
X160075237Y-100124819D01*
X160075237Y-100124819D02*
X159884761Y-100124819D01*
X159884761Y-100124819D02*
X159789523Y-100077200D01*
X159789523Y-100077200D02*
X159741904Y-100029580D01*
X159741904Y-100029580D02*
X159694285Y-99934342D01*
X159694285Y-99934342D02*
X159694285Y-99743866D01*
X159694285Y-99743866D02*
X159741904Y-99648628D01*
X159741904Y-99648628D02*
X159789523Y-99601009D01*
X159789523Y-99601009D02*
X159884761Y-99553390D01*
X155939580Y-67977142D02*
X155987200Y-67929523D01*
X155987200Y-67929523D02*
X156034819Y-67786666D01*
X156034819Y-67786666D02*
X156034819Y-67691428D01*
X156034819Y-67691428D02*
X155987200Y-67548571D01*
X155987200Y-67548571D02*
X155891961Y-67453333D01*
X155891961Y-67453333D02*
X155796723Y-67405714D01*
X155796723Y-67405714D02*
X155606247Y-67358095D01*
X155606247Y-67358095D02*
X155463390Y-67358095D01*
X155463390Y-67358095D02*
X155272914Y-67405714D01*
X155272914Y-67405714D02*
X155177676Y-67453333D01*
X155177676Y-67453333D02*
X155082438Y-67548571D01*
X155082438Y-67548571D02*
X155034819Y-67691428D01*
X155034819Y-67691428D02*
X155034819Y-67786666D01*
X155034819Y-67786666D02*
X155082438Y-67929523D01*
X155082438Y-67929523D02*
X155130057Y-67977142D01*
X156034819Y-68929523D02*
X156034819Y-68358095D01*
X156034819Y-68643809D02*
X155034819Y-68643809D01*
X155034819Y-68643809D02*
X155177676Y-68548571D01*
X155177676Y-68548571D02*
X155272914Y-68453333D01*
X155272914Y-68453333D02*
X155320533Y-68358095D01*
X156034819Y-69881904D02*
X156034819Y-69310476D01*
X156034819Y-69596190D02*
X155034819Y-69596190D01*
X155034819Y-69596190D02*
X155177676Y-69500952D01*
X155177676Y-69500952D02*
X155272914Y-69405714D01*
X155272914Y-69405714D02*
X155320533Y-69310476D01*
X170422857Y-89279580D02*
X170470476Y-89327200D01*
X170470476Y-89327200D02*
X170613333Y-89374819D01*
X170613333Y-89374819D02*
X170708571Y-89374819D01*
X170708571Y-89374819D02*
X170851428Y-89327200D01*
X170851428Y-89327200D02*
X170946666Y-89231961D01*
X170946666Y-89231961D02*
X170994285Y-89136723D01*
X170994285Y-89136723D02*
X171041904Y-88946247D01*
X171041904Y-88946247D02*
X171041904Y-88803390D01*
X171041904Y-88803390D02*
X170994285Y-88612914D01*
X170994285Y-88612914D02*
X170946666Y-88517676D01*
X170946666Y-88517676D02*
X170851428Y-88422438D01*
X170851428Y-88422438D02*
X170708571Y-88374819D01*
X170708571Y-88374819D02*
X170613333Y-88374819D01*
X170613333Y-88374819D02*
X170470476Y-88422438D01*
X170470476Y-88422438D02*
X170422857Y-88470057D01*
X169470476Y-89374819D02*
X170041904Y-89374819D01*
X169756190Y-89374819D02*
X169756190Y-88374819D01*
X169756190Y-88374819D02*
X169851428Y-88517676D01*
X169851428Y-88517676D02*
X169946666Y-88612914D01*
X169946666Y-88612914D02*
X170041904Y-88660533D01*
X169137142Y-88374819D02*
X168518095Y-88374819D01*
X168518095Y-88374819D02*
X168851428Y-88755771D01*
X168851428Y-88755771D02*
X168708571Y-88755771D01*
X168708571Y-88755771D02*
X168613333Y-88803390D01*
X168613333Y-88803390D02*
X168565714Y-88851009D01*
X168565714Y-88851009D02*
X168518095Y-88946247D01*
X168518095Y-88946247D02*
X168518095Y-89184342D01*
X168518095Y-89184342D02*
X168565714Y-89279580D01*
X168565714Y-89279580D02*
X168613333Y-89327200D01*
X168613333Y-89327200D02*
X168708571Y-89374819D01*
X168708571Y-89374819D02*
X168994285Y-89374819D01*
X168994285Y-89374819D02*
X169089523Y-89327200D01*
X169089523Y-89327200D02*
X169137142Y-89279580D01*
X51495711Y-42784819D02*
X51495711Y-41784819D01*
X51495711Y-41784819D02*
X51162378Y-42499104D01*
X51162378Y-42499104D02*
X50829045Y-41784819D01*
X50829045Y-41784819D02*
X50829045Y-42784819D01*
X50448092Y-41784819D02*
X49781426Y-42784819D01*
X49781426Y-41784819D02*
X50448092Y-42784819D01*
X48876664Y-42784819D02*
X49448092Y-42784819D01*
X49162378Y-42784819D02*
X49162378Y-41784819D01*
X49162378Y-41784819D02*
X49257616Y-41927676D01*
X49257616Y-41927676D02*
X49352854Y-42022914D01*
X49352854Y-42022914D02*
X49448092Y-42070533D01*
X154883601Y-121614805D02*
X153917675Y-121355986D01*
X153917675Y-121355986D02*
X153856052Y-121585969D01*
X153856052Y-121585969D02*
X153865074Y-121736283D01*
X153865074Y-121736283D02*
X153932418Y-121852925D01*
X153932418Y-121852925D02*
X154012086Y-121923571D01*
X154012086Y-121923571D02*
X154183747Y-122018866D01*
X154183747Y-122018866D02*
X154321736Y-122055841D01*
X154321736Y-122055841D02*
X154518047Y-122059143D01*
X154518047Y-122059143D02*
X154622365Y-122037796D01*
X154622365Y-122037796D02*
X154739007Y-121970452D01*
X154739007Y-121970452D02*
X154821978Y-121844788D01*
X154821978Y-121844788D02*
X154883601Y-121614805D01*
X153763174Y-122300565D02*
X153704853Y-122334237D01*
X153704853Y-122334237D02*
X153634207Y-122413905D01*
X153634207Y-122413905D02*
X153572583Y-122643887D01*
X153572583Y-122643887D02*
X153593930Y-122748205D01*
X153593930Y-122748205D02*
X153627602Y-122806526D01*
X153627602Y-122806526D02*
X153707270Y-122877172D01*
X153707270Y-122877172D02*
X153799263Y-122901822D01*
X153799263Y-122901822D02*
X153949577Y-122892799D01*
X153949577Y-122892799D02*
X154649432Y-122488738D01*
X154649432Y-122488738D02*
X154489210Y-123086692D01*
X153437011Y-123149849D02*
X153264465Y-123793799D01*
X153264465Y-123793799D02*
X154341314Y-123638650D01*
X109121902Y-73741069D02*
X109121902Y-72741069D01*
X109121902Y-72741069D02*
X108788569Y-73455354D01*
X108788569Y-73455354D02*
X108455236Y-72741069D01*
X108455236Y-72741069D02*
X108455236Y-73741069D01*
X108074283Y-72741069D02*
X107407617Y-73741069D01*
X107407617Y-72741069D02*
X108074283Y-73741069D01*
X106502855Y-73741069D02*
X107074283Y-73741069D01*
X106788569Y-73741069D02*
X106788569Y-72741069D01*
X106788569Y-72741069D02*
X106883807Y-72883926D01*
X106883807Y-72883926D02*
X106979045Y-72979164D01*
X106979045Y-72979164D02*
X107074283Y-73026783D01*
X105645712Y-72741069D02*
X105836188Y-72741069D01*
X105836188Y-72741069D02*
X105931426Y-72788688D01*
X105931426Y-72788688D02*
X105979045Y-72836307D01*
X105979045Y-72836307D02*
X106074283Y-72979164D01*
X106074283Y-72979164D02*
X106121902Y-73169640D01*
X106121902Y-73169640D02*
X106121902Y-73550592D01*
X106121902Y-73550592D02*
X106074283Y-73645830D01*
X106074283Y-73645830D02*
X106026664Y-73693450D01*
X106026664Y-73693450D02*
X105931426Y-73741069D01*
X105931426Y-73741069D02*
X105740950Y-73741069D01*
X105740950Y-73741069D02*
X105645712Y-73693450D01*
X105645712Y-73693450D02*
X105598093Y-73645830D01*
X105598093Y-73645830D02*
X105550474Y-73550592D01*
X105550474Y-73550592D02*
X105550474Y-73312497D01*
X105550474Y-73312497D02*
X105598093Y-73217259D01*
X105598093Y-73217259D02*
X105645712Y-73169640D01*
X105645712Y-73169640D02*
X105740950Y-73122021D01*
X105740950Y-73122021D02*
X105931426Y-73122021D01*
X105931426Y-73122021D02*
X106026664Y-73169640D01*
X106026664Y-73169640D02*
X106074283Y-73217259D01*
X106074283Y-73217259D02*
X106121902Y-73312497D01*
X94004817Y-39599405D02*
X93004817Y-39599405D01*
X93004817Y-39599405D02*
X93004817Y-39837500D01*
X93004817Y-39837500D02*
X93052436Y-39980357D01*
X93052436Y-39980357D02*
X93147674Y-40075595D01*
X93147674Y-40075595D02*
X93242912Y-40123214D01*
X93242912Y-40123214D02*
X93433388Y-40170833D01*
X93433388Y-40170833D02*
X93576245Y-40170833D01*
X93576245Y-40170833D02*
X93766721Y-40123214D01*
X93766721Y-40123214D02*
X93861959Y-40075595D01*
X93861959Y-40075595D02*
X93957198Y-39980357D01*
X93957198Y-39980357D02*
X94004817Y-39837500D01*
X94004817Y-39837500D02*
X94004817Y-39599405D01*
X93004817Y-40504167D02*
X93004817Y-41123214D01*
X93004817Y-41123214D02*
X93385769Y-40789881D01*
X93385769Y-40789881D02*
X93385769Y-40932738D01*
X93385769Y-40932738D02*
X93433388Y-41027976D01*
X93433388Y-41027976D02*
X93481007Y-41075595D01*
X93481007Y-41075595D02*
X93576245Y-41123214D01*
X93576245Y-41123214D02*
X93814340Y-41123214D01*
X93814340Y-41123214D02*
X93909578Y-41075595D01*
X93909578Y-41075595D02*
X93957198Y-41027976D01*
X93957198Y-41027976D02*
X94004817Y-40932738D01*
X94004817Y-40932738D02*
X94004817Y-40647024D01*
X94004817Y-40647024D02*
X93957198Y-40551786D01*
X93957198Y-40551786D02*
X93909578Y-40504167D01*
X94004817Y-77223214D02*
X93004817Y-77223214D01*
X93004817Y-77223214D02*
X93004817Y-77461309D01*
X93004817Y-77461309D02*
X93052436Y-77604166D01*
X93052436Y-77604166D02*
X93147674Y-77699404D01*
X93147674Y-77699404D02*
X93242912Y-77747023D01*
X93242912Y-77747023D02*
X93433388Y-77794642D01*
X93433388Y-77794642D02*
X93576245Y-77794642D01*
X93576245Y-77794642D02*
X93766721Y-77747023D01*
X93766721Y-77747023D02*
X93861959Y-77699404D01*
X93861959Y-77699404D02*
X93957198Y-77604166D01*
X93957198Y-77604166D02*
X94004817Y-77461309D01*
X94004817Y-77461309D02*
X94004817Y-77223214D01*
X94004817Y-78747023D02*
X94004817Y-78175595D01*
X94004817Y-78461309D02*
X93004817Y-78461309D01*
X93004817Y-78461309D02*
X93147674Y-78366071D01*
X93147674Y-78366071D02*
X93242912Y-78270833D01*
X93242912Y-78270833D02*
X93290531Y-78175595D01*
X93004817Y-79651785D02*
X93004817Y-79175595D01*
X93004817Y-79175595D02*
X93481007Y-79127976D01*
X93481007Y-79127976D02*
X93433388Y-79175595D01*
X93433388Y-79175595D02*
X93385769Y-79270833D01*
X93385769Y-79270833D02*
X93385769Y-79508928D01*
X93385769Y-79508928D02*
X93433388Y-79604166D01*
X93433388Y-79604166D02*
X93481007Y-79651785D01*
X93481007Y-79651785D02*
X93576245Y-79699404D01*
X93576245Y-79699404D02*
X93814340Y-79699404D01*
X93814340Y-79699404D02*
X93909578Y-79651785D01*
X93909578Y-79651785D02*
X93957198Y-79604166D01*
X93957198Y-79604166D02*
X94004817Y-79508928D01*
X94004817Y-79508928D02*
X94004817Y-79270833D01*
X94004817Y-79270833D02*
X93957198Y-79175595D01*
X93957198Y-79175595D02*
X93909578Y-79127976D01*
X71021902Y-80884819D02*
X71021902Y-79884819D01*
X71021902Y-79884819D02*
X70688569Y-80599104D01*
X70688569Y-80599104D02*
X70355236Y-79884819D01*
X70355236Y-79884819D02*
X70355236Y-80884819D01*
X69974283Y-79884819D02*
X69307617Y-80884819D01*
X69307617Y-79884819D02*
X69974283Y-80884819D01*
X68402855Y-80884819D02*
X68974283Y-80884819D01*
X68688569Y-80884819D02*
X68688569Y-79884819D01*
X68688569Y-79884819D02*
X68783807Y-80027676D01*
X68783807Y-80027676D02*
X68879045Y-80122914D01*
X68879045Y-80122914D02*
X68974283Y-80170533D01*
X67545712Y-80218152D02*
X67545712Y-80884819D01*
X67783807Y-79837200D02*
X68021902Y-80551485D01*
X68021902Y-80551485D02*
X67402855Y-80551485D01*
X173039580Y-76453333D02*
X173087200Y-76405714D01*
X173087200Y-76405714D02*
X173134819Y-76262857D01*
X173134819Y-76262857D02*
X173134819Y-76167619D01*
X173134819Y-76167619D02*
X173087200Y-76024762D01*
X173087200Y-76024762D02*
X172991961Y-75929524D01*
X172991961Y-75929524D02*
X172896723Y-75881905D01*
X172896723Y-75881905D02*
X172706247Y-75834286D01*
X172706247Y-75834286D02*
X172563390Y-75834286D01*
X172563390Y-75834286D02*
X172372914Y-75881905D01*
X172372914Y-75881905D02*
X172277676Y-75929524D01*
X172277676Y-75929524D02*
X172182438Y-76024762D01*
X172182438Y-76024762D02*
X172134819Y-76167619D01*
X172134819Y-76167619D02*
X172134819Y-76262857D01*
X172134819Y-76262857D02*
X172182438Y-76405714D01*
X172182438Y-76405714D02*
X172230057Y-76453333D01*
X172134819Y-76786667D02*
X172134819Y-77405714D01*
X172134819Y-77405714D02*
X172515771Y-77072381D01*
X172515771Y-77072381D02*
X172515771Y-77215238D01*
X172515771Y-77215238D02*
X172563390Y-77310476D01*
X172563390Y-77310476D02*
X172611009Y-77358095D01*
X172611009Y-77358095D02*
X172706247Y-77405714D01*
X172706247Y-77405714D02*
X172944342Y-77405714D01*
X172944342Y-77405714D02*
X173039580Y-77358095D01*
X173039580Y-77358095D02*
X173087200Y-77310476D01*
X173087200Y-77310476D02*
X173134819Y-77215238D01*
X173134819Y-77215238D02*
X173134819Y-76929524D01*
X173134819Y-76929524D02*
X173087200Y-76834286D01*
X173087200Y-76834286D02*
X173039580Y-76786667D01*
X113054817Y-55791964D02*
X112054817Y-55791964D01*
X112054817Y-55791964D02*
X112054817Y-56030059D01*
X112054817Y-56030059D02*
X112102436Y-56172916D01*
X112102436Y-56172916D02*
X112197674Y-56268154D01*
X112197674Y-56268154D02*
X112292912Y-56315773D01*
X112292912Y-56315773D02*
X112483388Y-56363392D01*
X112483388Y-56363392D02*
X112626245Y-56363392D01*
X112626245Y-56363392D02*
X112816721Y-56315773D01*
X112816721Y-56315773D02*
X112911959Y-56268154D01*
X112911959Y-56268154D02*
X113007198Y-56172916D01*
X113007198Y-56172916D02*
X113054817Y-56030059D01*
X113054817Y-56030059D02*
X113054817Y-55791964D01*
X113054817Y-57315773D02*
X113054817Y-56744345D01*
X113054817Y-57030059D02*
X112054817Y-57030059D01*
X112054817Y-57030059D02*
X112197674Y-56934821D01*
X112197674Y-56934821D02*
X112292912Y-56839583D01*
X112292912Y-56839583D02*
X112340531Y-56744345D01*
X112054817Y-57934821D02*
X112054817Y-58030059D01*
X112054817Y-58030059D02*
X112102436Y-58125297D01*
X112102436Y-58125297D02*
X112150055Y-58172916D01*
X112150055Y-58172916D02*
X112245293Y-58220535D01*
X112245293Y-58220535D02*
X112435769Y-58268154D01*
X112435769Y-58268154D02*
X112673864Y-58268154D01*
X112673864Y-58268154D02*
X112864340Y-58220535D01*
X112864340Y-58220535D02*
X112959578Y-58172916D01*
X112959578Y-58172916D02*
X113007198Y-58125297D01*
X113007198Y-58125297D02*
X113054817Y-58030059D01*
X113054817Y-58030059D02*
X113054817Y-57934821D01*
X113054817Y-57934821D02*
X113007198Y-57839583D01*
X113007198Y-57839583D02*
X112959578Y-57791964D01*
X112959578Y-57791964D02*
X112864340Y-57744345D01*
X112864340Y-57744345D02*
X112673864Y-57696726D01*
X112673864Y-57696726D02*
X112435769Y-57696726D01*
X112435769Y-57696726D02*
X112245293Y-57744345D01*
X112245293Y-57744345D02*
X112150055Y-57791964D01*
X112150055Y-57791964D02*
X112102436Y-57839583D01*
X112102436Y-57839583D02*
X112054817Y-57934821D01*
X89595711Y-57072319D02*
X89595711Y-56072319D01*
X89595711Y-56072319D02*
X89262378Y-56786604D01*
X89262378Y-56786604D02*
X88929045Y-56072319D01*
X88929045Y-56072319D02*
X88929045Y-57072319D01*
X88548092Y-56072319D02*
X87881426Y-57072319D01*
X87881426Y-56072319D02*
X88548092Y-57072319D01*
X87452854Y-57072319D02*
X87262378Y-57072319D01*
X87262378Y-57072319D02*
X87167140Y-57024700D01*
X87167140Y-57024700D02*
X87119521Y-56977080D01*
X87119521Y-56977080D02*
X87024283Y-56834223D01*
X87024283Y-56834223D02*
X86976664Y-56643747D01*
X86976664Y-56643747D02*
X86976664Y-56262795D01*
X86976664Y-56262795D02*
X87024283Y-56167557D01*
X87024283Y-56167557D02*
X87071902Y-56119938D01*
X87071902Y-56119938D02*
X87167140Y-56072319D01*
X87167140Y-56072319D02*
X87357616Y-56072319D01*
X87357616Y-56072319D02*
X87452854Y-56119938D01*
X87452854Y-56119938D02*
X87500473Y-56167557D01*
X87500473Y-56167557D02*
X87548092Y-56262795D01*
X87548092Y-56262795D02*
X87548092Y-56500890D01*
X87548092Y-56500890D02*
X87500473Y-56596128D01*
X87500473Y-56596128D02*
X87452854Y-56643747D01*
X87452854Y-56643747D02*
X87357616Y-56691366D01*
X87357616Y-56691366D02*
X87167140Y-56691366D01*
X87167140Y-56691366D02*
X87071902Y-56643747D01*
X87071902Y-56643747D02*
X87024283Y-56596128D01*
X87024283Y-56596128D02*
X86976664Y-56500890D01*
X113054817Y-93891964D02*
X112054817Y-93891964D01*
X112054817Y-93891964D02*
X112054817Y-94130059D01*
X112054817Y-94130059D02*
X112102436Y-94272916D01*
X112102436Y-94272916D02*
X112197674Y-94368154D01*
X112197674Y-94368154D02*
X112292912Y-94415773D01*
X112292912Y-94415773D02*
X112483388Y-94463392D01*
X112483388Y-94463392D02*
X112626245Y-94463392D01*
X112626245Y-94463392D02*
X112816721Y-94415773D01*
X112816721Y-94415773D02*
X112911959Y-94368154D01*
X112911959Y-94368154D02*
X113007198Y-94272916D01*
X113007198Y-94272916D02*
X113054817Y-94130059D01*
X113054817Y-94130059D02*
X113054817Y-93891964D01*
X112150055Y-94844345D02*
X112102436Y-94891964D01*
X112102436Y-94891964D02*
X112054817Y-94987202D01*
X112054817Y-94987202D02*
X112054817Y-95225297D01*
X112054817Y-95225297D02*
X112102436Y-95320535D01*
X112102436Y-95320535D02*
X112150055Y-95368154D01*
X112150055Y-95368154D02*
X112245293Y-95415773D01*
X112245293Y-95415773D02*
X112340531Y-95415773D01*
X112340531Y-95415773D02*
X112483388Y-95368154D01*
X112483388Y-95368154D02*
X113054817Y-94796726D01*
X113054817Y-94796726D02*
X113054817Y-95415773D01*
X112150055Y-95796726D02*
X112102436Y-95844345D01*
X112102436Y-95844345D02*
X112054817Y-95939583D01*
X112054817Y-95939583D02*
X112054817Y-96177678D01*
X112054817Y-96177678D02*
X112102436Y-96272916D01*
X112102436Y-96272916D02*
X112150055Y-96320535D01*
X112150055Y-96320535D02*
X112245293Y-96368154D01*
X112245293Y-96368154D02*
X112340531Y-96368154D01*
X112340531Y-96368154D02*
X112483388Y-96320535D01*
X112483388Y-96320535D02*
X113054817Y-95749107D01*
X113054817Y-95749107D02*
X113054817Y-96368154D01*
X147221902Y-97553569D02*
X147221902Y-96553569D01*
X147221902Y-96553569D02*
X146888569Y-97267854D01*
X146888569Y-97267854D02*
X146555236Y-96553569D01*
X146555236Y-96553569D02*
X146555236Y-97553569D01*
X146174283Y-96553569D02*
X145507617Y-97553569D01*
X145507617Y-96553569D02*
X146174283Y-97553569D01*
X145174283Y-96648807D02*
X145126664Y-96601188D01*
X145126664Y-96601188D02*
X145031426Y-96553569D01*
X145031426Y-96553569D02*
X144793331Y-96553569D01*
X144793331Y-96553569D02*
X144698093Y-96601188D01*
X144698093Y-96601188D02*
X144650474Y-96648807D01*
X144650474Y-96648807D02*
X144602855Y-96744045D01*
X144602855Y-96744045D02*
X144602855Y-96839283D01*
X144602855Y-96839283D02*
X144650474Y-96982140D01*
X144650474Y-96982140D02*
X145221902Y-97553569D01*
X145221902Y-97553569D02*
X144602855Y-97553569D01*
X143745712Y-96886902D02*
X143745712Y-97553569D01*
X143983807Y-96505950D02*
X144221902Y-97220235D01*
X144221902Y-97220235D02*
X143602855Y-97220235D01*
X172158628Y-85943809D02*
X172634819Y-85943809D01*
X171634819Y-85610476D02*
X172158628Y-85943809D01*
X172158628Y-85943809D02*
X171634819Y-86277142D01*
X172634819Y-87134285D02*
X172634819Y-86562857D01*
X172634819Y-86848571D02*
X171634819Y-86848571D01*
X171634819Y-86848571D02*
X171777676Y-86753333D01*
X171777676Y-86753333D02*
X171872914Y-86658095D01*
X171872914Y-86658095D02*
X171920533Y-86562857D01*
X74954817Y-81985714D02*
X73954817Y-81985714D01*
X73954817Y-81985714D02*
X73954817Y-82223809D01*
X73954817Y-82223809D02*
X74002436Y-82366666D01*
X74002436Y-82366666D02*
X74097674Y-82461904D01*
X74097674Y-82461904D02*
X74192912Y-82509523D01*
X74192912Y-82509523D02*
X74383388Y-82557142D01*
X74383388Y-82557142D02*
X74526245Y-82557142D01*
X74526245Y-82557142D02*
X74716721Y-82509523D01*
X74716721Y-82509523D02*
X74811959Y-82461904D01*
X74811959Y-82461904D02*
X74907198Y-82366666D01*
X74907198Y-82366666D02*
X74954817Y-82223809D01*
X74954817Y-82223809D02*
X74954817Y-81985714D01*
X74954817Y-83509523D02*
X74954817Y-82938095D01*
X74954817Y-83223809D02*
X73954817Y-83223809D01*
X73954817Y-83223809D02*
X74097674Y-83128571D01*
X74097674Y-83128571D02*
X74192912Y-83033333D01*
X74192912Y-83033333D02*
X74240531Y-82938095D01*
X74288150Y-84366666D02*
X74954817Y-84366666D01*
X73907198Y-84128571D02*
X74621483Y-83890476D01*
X74621483Y-83890476D02*
X74621483Y-84509523D01*
X74954817Y-101035714D02*
X73954817Y-101035714D01*
X73954817Y-101035714D02*
X73954817Y-101273809D01*
X73954817Y-101273809D02*
X74002436Y-101416666D01*
X74002436Y-101416666D02*
X74097674Y-101511904D01*
X74097674Y-101511904D02*
X74192912Y-101559523D01*
X74192912Y-101559523D02*
X74383388Y-101607142D01*
X74383388Y-101607142D02*
X74526245Y-101607142D01*
X74526245Y-101607142D02*
X74716721Y-101559523D01*
X74716721Y-101559523D02*
X74811959Y-101511904D01*
X74811959Y-101511904D02*
X74907198Y-101416666D01*
X74907198Y-101416666D02*
X74954817Y-101273809D01*
X74954817Y-101273809D02*
X74954817Y-101035714D01*
X74050055Y-101988095D02*
X74002436Y-102035714D01*
X74002436Y-102035714D02*
X73954817Y-102130952D01*
X73954817Y-102130952D02*
X73954817Y-102369047D01*
X73954817Y-102369047D02*
X74002436Y-102464285D01*
X74002436Y-102464285D02*
X74050055Y-102511904D01*
X74050055Y-102511904D02*
X74145293Y-102559523D01*
X74145293Y-102559523D02*
X74240531Y-102559523D01*
X74240531Y-102559523D02*
X74383388Y-102511904D01*
X74383388Y-102511904D02*
X74954817Y-101940476D01*
X74954817Y-101940476D02*
X74954817Y-102559523D01*
X73954817Y-103178571D02*
X73954817Y-103273809D01*
X73954817Y-103273809D02*
X74002436Y-103369047D01*
X74002436Y-103369047D02*
X74050055Y-103416666D01*
X74050055Y-103416666D02*
X74145293Y-103464285D01*
X74145293Y-103464285D02*
X74335769Y-103511904D01*
X74335769Y-103511904D02*
X74573864Y-103511904D01*
X74573864Y-103511904D02*
X74764340Y-103464285D01*
X74764340Y-103464285D02*
X74859578Y-103416666D01*
X74859578Y-103416666D02*
X74907198Y-103369047D01*
X74907198Y-103369047D02*
X74954817Y-103273809D01*
X74954817Y-103273809D02*
X74954817Y-103178571D01*
X74954817Y-103178571D02*
X74907198Y-103083333D01*
X74907198Y-103083333D02*
X74859578Y-103035714D01*
X74859578Y-103035714D02*
X74764340Y-102988095D01*
X74764340Y-102988095D02*
X74573864Y-102940476D01*
X74573864Y-102940476D02*
X74335769Y-102940476D01*
X74335769Y-102940476D02*
X74145293Y-102988095D01*
X74145293Y-102988095D02*
X74050055Y-103035714D01*
X74050055Y-103035714D02*
X74002436Y-103083333D01*
X74002436Y-103083333D02*
X73954817Y-103178571D01*
X109121902Y-92791069D02*
X109121902Y-91791069D01*
X109121902Y-91791069D02*
X108788569Y-92505354D01*
X108788569Y-92505354D02*
X108455236Y-91791069D01*
X108455236Y-91791069D02*
X108455236Y-92791069D01*
X108074283Y-91791069D02*
X107407617Y-92791069D01*
X107407617Y-91791069D02*
X108074283Y-92791069D01*
X107074283Y-91886307D02*
X107026664Y-91838688D01*
X107026664Y-91838688D02*
X106931426Y-91791069D01*
X106931426Y-91791069D02*
X106693331Y-91791069D01*
X106693331Y-91791069D02*
X106598093Y-91838688D01*
X106598093Y-91838688D02*
X106550474Y-91886307D01*
X106550474Y-91886307D02*
X106502855Y-91981545D01*
X106502855Y-91981545D02*
X106502855Y-92076783D01*
X106502855Y-92076783D02*
X106550474Y-92219640D01*
X106550474Y-92219640D02*
X107121902Y-92791069D01*
X107121902Y-92791069D02*
X106502855Y-92791069D01*
X106121902Y-91886307D02*
X106074283Y-91838688D01*
X106074283Y-91838688D02*
X105979045Y-91791069D01*
X105979045Y-91791069D02*
X105740950Y-91791069D01*
X105740950Y-91791069D02*
X105645712Y-91838688D01*
X105645712Y-91838688D02*
X105598093Y-91886307D01*
X105598093Y-91886307D02*
X105550474Y-91981545D01*
X105550474Y-91981545D02*
X105550474Y-92076783D01*
X105550474Y-92076783D02*
X105598093Y-92219640D01*
X105598093Y-92219640D02*
X106169521Y-92791069D01*
X106169521Y-92791069D02*
X105550474Y-92791069D01*
X175539580Y-76553333D02*
X175587200Y-76505714D01*
X175587200Y-76505714D02*
X175634819Y-76362857D01*
X175634819Y-76362857D02*
X175634819Y-76267619D01*
X175634819Y-76267619D02*
X175587200Y-76124762D01*
X175587200Y-76124762D02*
X175491961Y-76029524D01*
X175491961Y-76029524D02*
X175396723Y-75981905D01*
X175396723Y-75981905D02*
X175206247Y-75934286D01*
X175206247Y-75934286D02*
X175063390Y-75934286D01*
X175063390Y-75934286D02*
X174872914Y-75981905D01*
X174872914Y-75981905D02*
X174777676Y-76029524D01*
X174777676Y-76029524D02*
X174682438Y-76124762D01*
X174682438Y-76124762D02*
X174634819Y-76267619D01*
X174634819Y-76267619D02*
X174634819Y-76362857D01*
X174634819Y-76362857D02*
X174682438Y-76505714D01*
X174682438Y-76505714D02*
X174730057Y-76553333D01*
X174968152Y-77410476D02*
X175634819Y-77410476D01*
X174587200Y-77172381D02*
X175301485Y-76934286D01*
X175301485Y-76934286D02*
X175301485Y-77553333D01*
X90071902Y-95172319D02*
X90071902Y-94172319D01*
X90071902Y-94172319D02*
X89738569Y-94886604D01*
X89738569Y-94886604D02*
X89405236Y-94172319D01*
X89405236Y-94172319D02*
X89405236Y-95172319D01*
X89024283Y-94172319D02*
X88357617Y-95172319D01*
X88357617Y-94172319D02*
X89024283Y-95172319D01*
X88024283Y-94267557D02*
X87976664Y-94219938D01*
X87976664Y-94219938D02*
X87881426Y-94172319D01*
X87881426Y-94172319D02*
X87643331Y-94172319D01*
X87643331Y-94172319D02*
X87548093Y-94219938D01*
X87548093Y-94219938D02*
X87500474Y-94267557D01*
X87500474Y-94267557D02*
X87452855Y-94362795D01*
X87452855Y-94362795D02*
X87452855Y-94458033D01*
X87452855Y-94458033D02*
X87500474Y-94600890D01*
X87500474Y-94600890D02*
X88071902Y-95172319D01*
X88071902Y-95172319D02*
X87452855Y-95172319D01*
X86500474Y-95172319D02*
X87071902Y-95172319D01*
X86786188Y-95172319D02*
X86786188Y-94172319D01*
X86786188Y-94172319D02*
X86881426Y-94315176D01*
X86881426Y-94315176D02*
X86976664Y-94410414D01*
X86976664Y-94410414D02*
X87071902Y-94458033D01*
X160872857Y-93374819D02*
X161206190Y-92898628D01*
X161444285Y-93374819D02*
X161444285Y-92374819D01*
X161444285Y-92374819D02*
X161063333Y-92374819D01*
X161063333Y-92374819D02*
X160968095Y-92422438D01*
X160968095Y-92422438D02*
X160920476Y-92470057D01*
X160920476Y-92470057D02*
X160872857Y-92565295D01*
X160872857Y-92565295D02*
X160872857Y-92708152D01*
X160872857Y-92708152D02*
X160920476Y-92803390D01*
X160920476Y-92803390D02*
X160968095Y-92851009D01*
X160968095Y-92851009D02*
X161063333Y-92898628D01*
X161063333Y-92898628D02*
X161444285Y-92898628D01*
X159920476Y-93374819D02*
X160491904Y-93374819D01*
X160206190Y-93374819D02*
X160206190Y-92374819D01*
X160206190Y-92374819D02*
X160301428Y-92517676D01*
X160301428Y-92517676D02*
X160396666Y-92612914D01*
X160396666Y-92612914D02*
X160491904Y-92660533D01*
X159301428Y-92374819D02*
X159206190Y-92374819D01*
X159206190Y-92374819D02*
X159110952Y-92422438D01*
X159110952Y-92422438D02*
X159063333Y-92470057D01*
X159063333Y-92470057D02*
X159015714Y-92565295D01*
X159015714Y-92565295D02*
X158968095Y-92755771D01*
X158968095Y-92755771D02*
X158968095Y-92993866D01*
X158968095Y-92993866D02*
X159015714Y-93184342D01*
X159015714Y-93184342D02*
X159063333Y-93279580D01*
X159063333Y-93279580D02*
X159110952Y-93327200D01*
X159110952Y-93327200D02*
X159206190Y-93374819D01*
X159206190Y-93374819D02*
X159301428Y-93374819D01*
X159301428Y-93374819D02*
X159396666Y-93327200D01*
X159396666Y-93327200D02*
X159444285Y-93279580D01*
X159444285Y-93279580D02*
X159491904Y-93184342D01*
X159491904Y-93184342D02*
X159539523Y-92993866D01*
X159539523Y-92993866D02*
X159539523Y-92755771D01*
X159539523Y-92755771D02*
X159491904Y-92565295D01*
X159491904Y-92565295D02*
X159444285Y-92470057D01*
X159444285Y-92470057D02*
X159396666Y-92422438D01*
X159396666Y-92422438D02*
X159301428Y-92374819D01*
X132104817Y-58173214D02*
X131104817Y-58173214D01*
X131104817Y-58173214D02*
X131104817Y-58411309D01*
X131104817Y-58411309D02*
X131152436Y-58554166D01*
X131152436Y-58554166D02*
X131247674Y-58649404D01*
X131247674Y-58649404D02*
X131342912Y-58697023D01*
X131342912Y-58697023D02*
X131533388Y-58744642D01*
X131533388Y-58744642D02*
X131676245Y-58744642D01*
X131676245Y-58744642D02*
X131866721Y-58697023D01*
X131866721Y-58697023D02*
X131961959Y-58649404D01*
X131961959Y-58649404D02*
X132057198Y-58554166D01*
X132057198Y-58554166D02*
X132104817Y-58411309D01*
X132104817Y-58411309D02*
X132104817Y-58173214D01*
X132104817Y-59697023D02*
X132104817Y-59125595D01*
X132104817Y-59411309D02*
X131104817Y-59411309D01*
X131104817Y-59411309D02*
X131247674Y-59316071D01*
X131247674Y-59316071D02*
X131342912Y-59220833D01*
X131342912Y-59220833D02*
X131390531Y-59125595D01*
X132104817Y-60649404D02*
X132104817Y-60077976D01*
X132104817Y-60363690D02*
X131104817Y-60363690D01*
X131104817Y-60363690D02*
X131247674Y-60268452D01*
X131247674Y-60268452D02*
X131342912Y-60173214D01*
X131342912Y-60173214D02*
X131390531Y-60077976D01*
X51971902Y-80884819D02*
X51971902Y-79884819D01*
X51971902Y-79884819D02*
X51638569Y-80599104D01*
X51638569Y-80599104D02*
X51305236Y-79884819D01*
X51305236Y-79884819D02*
X51305236Y-80884819D01*
X50924283Y-79884819D02*
X50257617Y-80884819D01*
X50257617Y-79884819D02*
X50924283Y-80884819D01*
X49352855Y-80884819D02*
X49924283Y-80884819D01*
X49638569Y-80884819D02*
X49638569Y-79884819D01*
X49638569Y-79884819D02*
X49733807Y-80027676D01*
X49733807Y-80027676D02*
X49829045Y-80122914D01*
X49829045Y-80122914D02*
X49924283Y-80170533D01*
X49019521Y-79884819D02*
X48400474Y-79884819D01*
X48400474Y-79884819D02*
X48733807Y-80265771D01*
X48733807Y-80265771D02*
X48590950Y-80265771D01*
X48590950Y-80265771D02*
X48495712Y-80313390D01*
X48495712Y-80313390D02*
X48448093Y-80361009D01*
X48448093Y-80361009D02*
X48400474Y-80456247D01*
X48400474Y-80456247D02*
X48400474Y-80694342D01*
X48400474Y-80694342D02*
X48448093Y-80789580D01*
X48448093Y-80789580D02*
X48495712Y-80837200D01*
X48495712Y-80837200D02*
X48590950Y-80884819D01*
X48590950Y-80884819D02*
X48876664Y-80884819D01*
X48876664Y-80884819D02*
X48971902Y-80837200D01*
X48971902Y-80837200D02*
X49019521Y-80789580D01*
X132104817Y-39599405D02*
X131104817Y-39599405D01*
X131104817Y-39599405D02*
X131104817Y-39837500D01*
X131104817Y-39837500D02*
X131152436Y-39980357D01*
X131152436Y-39980357D02*
X131247674Y-40075595D01*
X131247674Y-40075595D02*
X131342912Y-40123214D01*
X131342912Y-40123214D02*
X131533388Y-40170833D01*
X131533388Y-40170833D02*
X131676245Y-40170833D01*
X131676245Y-40170833D02*
X131866721Y-40123214D01*
X131866721Y-40123214D02*
X131961959Y-40075595D01*
X131961959Y-40075595D02*
X132057198Y-39980357D01*
X132057198Y-39980357D02*
X132104817Y-39837500D01*
X132104817Y-39837500D02*
X132104817Y-39599405D01*
X131104817Y-41075595D02*
X131104817Y-40599405D01*
X131104817Y-40599405D02*
X131581007Y-40551786D01*
X131581007Y-40551786D02*
X131533388Y-40599405D01*
X131533388Y-40599405D02*
X131485769Y-40694643D01*
X131485769Y-40694643D02*
X131485769Y-40932738D01*
X131485769Y-40932738D02*
X131533388Y-41027976D01*
X131533388Y-41027976D02*
X131581007Y-41075595D01*
X131581007Y-41075595D02*
X131676245Y-41123214D01*
X131676245Y-41123214D02*
X131914340Y-41123214D01*
X131914340Y-41123214D02*
X132009578Y-41075595D01*
X132009578Y-41075595D02*
X132057198Y-41027976D01*
X132057198Y-41027976D02*
X132104817Y-40932738D01*
X132104817Y-40932738D02*
X132104817Y-40694643D01*
X132104817Y-40694643D02*
X132057198Y-40599405D01*
X132057198Y-40599405D02*
X132009578Y-40551786D01*
X90071902Y-76122319D02*
X90071902Y-75122319D01*
X90071902Y-75122319D02*
X89738569Y-75836604D01*
X89738569Y-75836604D02*
X89405236Y-75122319D01*
X89405236Y-75122319D02*
X89405236Y-76122319D01*
X89024283Y-75122319D02*
X88357617Y-76122319D01*
X88357617Y-75122319D02*
X89024283Y-76122319D01*
X87452855Y-76122319D02*
X88024283Y-76122319D01*
X87738569Y-76122319D02*
X87738569Y-75122319D01*
X87738569Y-75122319D02*
X87833807Y-75265176D01*
X87833807Y-75265176D02*
X87929045Y-75360414D01*
X87929045Y-75360414D02*
X88024283Y-75408033D01*
X86548093Y-75122319D02*
X87024283Y-75122319D01*
X87024283Y-75122319D02*
X87071902Y-75598509D01*
X87071902Y-75598509D02*
X87024283Y-75550890D01*
X87024283Y-75550890D02*
X86929045Y-75503271D01*
X86929045Y-75503271D02*
X86690950Y-75503271D01*
X86690950Y-75503271D02*
X86595712Y-75550890D01*
X86595712Y-75550890D02*
X86548093Y-75598509D01*
X86548093Y-75598509D02*
X86500474Y-75693747D01*
X86500474Y-75693747D02*
X86500474Y-75931842D01*
X86500474Y-75931842D02*
X86548093Y-76027080D01*
X86548093Y-76027080D02*
X86595712Y-76074700D01*
X86595712Y-76074700D02*
X86690950Y-76122319D01*
X86690950Y-76122319D02*
X86929045Y-76122319D01*
X86929045Y-76122319D02*
X87024283Y-76074700D01*
X87024283Y-76074700D02*
X87071902Y-76027080D01*
X151154817Y-60554464D02*
X150154817Y-60554464D01*
X150154817Y-60554464D02*
X150154817Y-60792559D01*
X150154817Y-60792559D02*
X150202436Y-60935416D01*
X150202436Y-60935416D02*
X150297674Y-61030654D01*
X150297674Y-61030654D02*
X150392912Y-61078273D01*
X150392912Y-61078273D02*
X150583388Y-61125892D01*
X150583388Y-61125892D02*
X150726245Y-61125892D01*
X150726245Y-61125892D02*
X150916721Y-61078273D01*
X150916721Y-61078273D02*
X151011959Y-61030654D01*
X151011959Y-61030654D02*
X151107198Y-60935416D01*
X151107198Y-60935416D02*
X151154817Y-60792559D01*
X151154817Y-60792559D02*
X151154817Y-60554464D01*
X151154817Y-62078273D02*
X151154817Y-61506845D01*
X151154817Y-61792559D02*
X150154817Y-61792559D01*
X150154817Y-61792559D02*
X150297674Y-61697321D01*
X150297674Y-61697321D02*
X150392912Y-61602083D01*
X150392912Y-61602083D02*
X150440531Y-61506845D01*
X150250055Y-62459226D02*
X150202436Y-62506845D01*
X150202436Y-62506845D02*
X150154817Y-62602083D01*
X150154817Y-62602083D02*
X150154817Y-62840178D01*
X150154817Y-62840178D02*
X150202436Y-62935416D01*
X150202436Y-62935416D02*
X150250055Y-62983035D01*
X150250055Y-62983035D02*
X150345293Y-63030654D01*
X150345293Y-63030654D02*
X150440531Y-63030654D01*
X150440531Y-63030654D02*
X150583388Y-62983035D01*
X150583388Y-62983035D02*
X151154817Y-62411607D01*
X151154817Y-62411607D02*
X151154817Y-63030654D01*
X51971902Y-99934819D02*
X51971902Y-98934819D01*
X51971902Y-98934819D02*
X51638569Y-99649104D01*
X51638569Y-99649104D02*
X51305236Y-98934819D01*
X51305236Y-98934819D02*
X51305236Y-99934819D01*
X50924283Y-98934819D02*
X50257617Y-99934819D01*
X50257617Y-98934819D02*
X50924283Y-99934819D01*
X49352855Y-99934819D02*
X49924283Y-99934819D01*
X49638569Y-99934819D02*
X49638569Y-98934819D01*
X49638569Y-98934819D02*
X49733807Y-99077676D01*
X49733807Y-99077676D02*
X49829045Y-99172914D01*
X49829045Y-99172914D02*
X49924283Y-99220533D01*
X48876664Y-99934819D02*
X48686188Y-99934819D01*
X48686188Y-99934819D02*
X48590950Y-99887200D01*
X48590950Y-99887200D02*
X48543331Y-99839580D01*
X48543331Y-99839580D02*
X48448093Y-99696723D01*
X48448093Y-99696723D02*
X48400474Y-99506247D01*
X48400474Y-99506247D02*
X48400474Y-99125295D01*
X48400474Y-99125295D02*
X48448093Y-99030057D01*
X48448093Y-99030057D02*
X48495712Y-98982438D01*
X48495712Y-98982438D02*
X48590950Y-98934819D01*
X48590950Y-98934819D02*
X48781426Y-98934819D01*
X48781426Y-98934819D02*
X48876664Y-98982438D01*
X48876664Y-98982438D02*
X48924283Y-99030057D01*
X48924283Y-99030057D02*
X48971902Y-99125295D01*
X48971902Y-99125295D02*
X48971902Y-99363390D01*
X48971902Y-99363390D02*
X48924283Y-99458628D01*
X48924283Y-99458628D02*
X48876664Y-99506247D01*
X48876664Y-99506247D02*
X48781426Y-99553866D01*
X48781426Y-99553866D02*
X48590950Y-99553866D01*
X48590950Y-99553866D02*
X48495712Y-99506247D01*
X48495712Y-99506247D02*
X48448093Y-99458628D01*
X48448093Y-99458628D02*
X48400474Y-99363390D01*
X94004817Y-58649405D02*
X93004817Y-58649405D01*
X93004817Y-58649405D02*
X93004817Y-58887500D01*
X93004817Y-58887500D02*
X93052436Y-59030357D01*
X93052436Y-59030357D02*
X93147674Y-59125595D01*
X93147674Y-59125595D02*
X93242912Y-59173214D01*
X93242912Y-59173214D02*
X93433388Y-59220833D01*
X93433388Y-59220833D02*
X93576245Y-59220833D01*
X93576245Y-59220833D02*
X93766721Y-59173214D01*
X93766721Y-59173214D02*
X93861959Y-59125595D01*
X93861959Y-59125595D02*
X93957198Y-59030357D01*
X93957198Y-59030357D02*
X94004817Y-58887500D01*
X94004817Y-58887500D02*
X94004817Y-58649405D01*
X94004817Y-59697024D02*
X94004817Y-59887500D01*
X94004817Y-59887500D02*
X93957198Y-59982738D01*
X93957198Y-59982738D02*
X93909578Y-60030357D01*
X93909578Y-60030357D02*
X93766721Y-60125595D01*
X93766721Y-60125595D02*
X93576245Y-60173214D01*
X93576245Y-60173214D02*
X93195293Y-60173214D01*
X93195293Y-60173214D02*
X93100055Y-60125595D01*
X93100055Y-60125595D02*
X93052436Y-60077976D01*
X93052436Y-60077976D02*
X93004817Y-59982738D01*
X93004817Y-59982738D02*
X93004817Y-59792262D01*
X93004817Y-59792262D02*
X93052436Y-59697024D01*
X93052436Y-59697024D02*
X93100055Y-59649405D01*
X93100055Y-59649405D02*
X93195293Y-59601786D01*
X93195293Y-59601786D02*
X93433388Y-59601786D01*
X93433388Y-59601786D02*
X93528626Y-59649405D01*
X93528626Y-59649405D02*
X93576245Y-59697024D01*
X93576245Y-59697024D02*
X93623864Y-59792262D01*
X93623864Y-59792262D02*
X93623864Y-59982738D01*
X93623864Y-59982738D02*
X93576245Y-60077976D01*
X93576245Y-60077976D02*
X93528626Y-60125595D01*
X93528626Y-60125595D02*
X93433388Y-60173214D01*
X128171902Y-76122319D02*
X128171902Y-75122319D01*
X128171902Y-75122319D02*
X127838569Y-75836604D01*
X127838569Y-75836604D02*
X127505236Y-75122319D01*
X127505236Y-75122319D02*
X127505236Y-76122319D01*
X127124283Y-75122319D02*
X126457617Y-76122319D01*
X126457617Y-75122319D02*
X127124283Y-76122319D01*
X125552855Y-76122319D02*
X126124283Y-76122319D01*
X125838569Y-76122319D02*
X125838569Y-75122319D01*
X125838569Y-75122319D02*
X125933807Y-75265176D01*
X125933807Y-75265176D02*
X126029045Y-75360414D01*
X126029045Y-75360414D02*
X126124283Y-75408033D01*
X125219521Y-75122319D02*
X124552855Y-75122319D01*
X124552855Y-75122319D02*
X124981426Y-76122319D01*
X165096666Y-57179580D02*
X165144285Y-57227200D01*
X165144285Y-57227200D02*
X165287142Y-57274819D01*
X165287142Y-57274819D02*
X165382380Y-57274819D01*
X165382380Y-57274819D02*
X165525237Y-57227200D01*
X165525237Y-57227200D02*
X165620475Y-57131961D01*
X165620475Y-57131961D02*
X165668094Y-57036723D01*
X165668094Y-57036723D02*
X165715713Y-56846247D01*
X165715713Y-56846247D02*
X165715713Y-56703390D01*
X165715713Y-56703390D02*
X165668094Y-56512914D01*
X165668094Y-56512914D02*
X165620475Y-56417676D01*
X165620475Y-56417676D02*
X165525237Y-56322438D01*
X165525237Y-56322438D02*
X165382380Y-56274819D01*
X165382380Y-56274819D02*
X165287142Y-56274819D01*
X165287142Y-56274819D02*
X165144285Y-56322438D01*
X165144285Y-56322438D02*
X165096666Y-56370057D01*
X164620475Y-57274819D02*
X164429999Y-57274819D01*
X164429999Y-57274819D02*
X164334761Y-57227200D01*
X164334761Y-57227200D02*
X164287142Y-57179580D01*
X164287142Y-57179580D02*
X164191904Y-57036723D01*
X164191904Y-57036723D02*
X164144285Y-56846247D01*
X164144285Y-56846247D02*
X164144285Y-56465295D01*
X164144285Y-56465295D02*
X164191904Y-56370057D01*
X164191904Y-56370057D02*
X164239523Y-56322438D01*
X164239523Y-56322438D02*
X164334761Y-56274819D01*
X164334761Y-56274819D02*
X164525237Y-56274819D01*
X164525237Y-56274819D02*
X164620475Y-56322438D01*
X164620475Y-56322438D02*
X164668094Y-56370057D01*
X164668094Y-56370057D02*
X164715713Y-56465295D01*
X164715713Y-56465295D02*
X164715713Y-56703390D01*
X164715713Y-56703390D02*
X164668094Y-56798628D01*
X164668094Y-56798628D02*
X164620475Y-56846247D01*
X164620475Y-56846247D02*
X164525237Y-56893866D01*
X164525237Y-56893866D02*
X164334761Y-56893866D01*
X164334761Y-56893866D02*
X164239523Y-56846247D01*
X164239523Y-56846247D02*
X164191904Y-56798628D01*
X164191904Y-56798628D02*
X164144285Y-56703390D01*
X166139580Y-46953333D02*
X166187200Y-46905714D01*
X166187200Y-46905714D02*
X166234819Y-46762857D01*
X166234819Y-46762857D02*
X166234819Y-46667619D01*
X166234819Y-46667619D02*
X166187200Y-46524762D01*
X166187200Y-46524762D02*
X166091961Y-46429524D01*
X166091961Y-46429524D02*
X165996723Y-46381905D01*
X165996723Y-46381905D02*
X165806247Y-46334286D01*
X165806247Y-46334286D02*
X165663390Y-46334286D01*
X165663390Y-46334286D02*
X165472914Y-46381905D01*
X165472914Y-46381905D02*
X165377676Y-46429524D01*
X165377676Y-46429524D02*
X165282438Y-46524762D01*
X165282438Y-46524762D02*
X165234819Y-46667619D01*
X165234819Y-46667619D02*
X165234819Y-46762857D01*
X165234819Y-46762857D02*
X165282438Y-46905714D01*
X165282438Y-46905714D02*
X165330057Y-46953333D01*
X165663390Y-47524762D02*
X165615771Y-47429524D01*
X165615771Y-47429524D02*
X165568152Y-47381905D01*
X165568152Y-47381905D02*
X165472914Y-47334286D01*
X165472914Y-47334286D02*
X165425295Y-47334286D01*
X165425295Y-47334286D02*
X165330057Y-47381905D01*
X165330057Y-47381905D02*
X165282438Y-47429524D01*
X165282438Y-47429524D02*
X165234819Y-47524762D01*
X165234819Y-47524762D02*
X165234819Y-47715238D01*
X165234819Y-47715238D02*
X165282438Y-47810476D01*
X165282438Y-47810476D02*
X165330057Y-47858095D01*
X165330057Y-47858095D02*
X165425295Y-47905714D01*
X165425295Y-47905714D02*
X165472914Y-47905714D01*
X165472914Y-47905714D02*
X165568152Y-47858095D01*
X165568152Y-47858095D02*
X165615771Y-47810476D01*
X165615771Y-47810476D02*
X165663390Y-47715238D01*
X165663390Y-47715238D02*
X165663390Y-47524762D01*
X165663390Y-47524762D02*
X165711009Y-47429524D01*
X165711009Y-47429524D02*
X165758628Y-47381905D01*
X165758628Y-47381905D02*
X165853866Y-47334286D01*
X165853866Y-47334286D02*
X166044342Y-47334286D01*
X166044342Y-47334286D02*
X166139580Y-47381905D01*
X166139580Y-47381905D02*
X166187200Y-47429524D01*
X166187200Y-47429524D02*
X166234819Y-47524762D01*
X166234819Y-47524762D02*
X166234819Y-47715238D01*
X166234819Y-47715238D02*
X166187200Y-47810476D01*
X166187200Y-47810476D02*
X166139580Y-47858095D01*
X166139580Y-47858095D02*
X166044342Y-47905714D01*
X166044342Y-47905714D02*
X165853866Y-47905714D01*
X165853866Y-47905714D02*
X165758628Y-47858095D01*
X165758628Y-47858095D02*
X165711009Y-47810476D01*
X165711009Y-47810476D02*
X165663390Y-47715238D01*
X165234819Y-83577142D02*
X164758628Y-83243809D01*
X165234819Y-83005714D02*
X164234819Y-83005714D01*
X164234819Y-83005714D02*
X164234819Y-83386666D01*
X164234819Y-83386666D02*
X164282438Y-83481904D01*
X164282438Y-83481904D02*
X164330057Y-83529523D01*
X164330057Y-83529523D02*
X164425295Y-83577142D01*
X164425295Y-83577142D02*
X164568152Y-83577142D01*
X164568152Y-83577142D02*
X164663390Y-83529523D01*
X164663390Y-83529523D02*
X164711009Y-83481904D01*
X164711009Y-83481904D02*
X164758628Y-83386666D01*
X164758628Y-83386666D02*
X164758628Y-83005714D01*
X165234819Y-84529523D02*
X165234819Y-83958095D01*
X165234819Y-84243809D02*
X164234819Y-84243809D01*
X164234819Y-84243809D02*
X164377676Y-84148571D01*
X164377676Y-84148571D02*
X164472914Y-84053333D01*
X164472914Y-84053333D02*
X164520533Y-83958095D01*
X164330057Y-84910476D02*
X164282438Y-84958095D01*
X164282438Y-84958095D02*
X164234819Y-85053333D01*
X164234819Y-85053333D02*
X164234819Y-85291428D01*
X164234819Y-85291428D02*
X164282438Y-85386666D01*
X164282438Y-85386666D02*
X164330057Y-85434285D01*
X164330057Y-85434285D02*
X164425295Y-85481904D01*
X164425295Y-85481904D02*
X164520533Y-85481904D01*
X164520533Y-85481904D02*
X164663390Y-85434285D01*
X164663390Y-85434285D02*
X165234819Y-84862857D01*
X165234819Y-84862857D02*
X165234819Y-85481904D01*
X151154817Y-79604464D02*
X150154817Y-79604464D01*
X150154817Y-79604464D02*
X150154817Y-79842559D01*
X150154817Y-79842559D02*
X150202436Y-79985416D01*
X150202436Y-79985416D02*
X150297674Y-80080654D01*
X150297674Y-80080654D02*
X150392912Y-80128273D01*
X150392912Y-80128273D02*
X150583388Y-80175892D01*
X150583388Y-80175892D02*
X150726245Y-80175892D01*
X150726245Y-80175892D02*
X150916721Y-80128273D01*
X150916721Y-80128273D02*
X151011959Y-80080654D01*
X151011959Y-80080654D02*
X151107198Y-79985416D01*
X151107198Y-79985416D02*
X151154817Y-79842559D01*
X151154817Y-79842559D02*
X151154817Y-79604464D01*
X151154817Y-81128273D02*
X151154817Y-80556845D01*
X151154817Y-80842559D02*
X150154817Y-80842559D01*
X150154817Y-80842559D02*
X150297674Y-80747321D01*
X150297674Y-80747321D02*
X150392912Y-80652083D01*
X150392912Y-80652083D02*
X150440531Y-80556845D01*
X150583388Y-81699702D02*
X150535769Y-81604464D01*
X150535769Y-81604464D02*
X150488150Y-81556845D01*
X150488150Y-81556845D02*
X150392912Y-81509226D01*
X150392912Y-81509226D02*
X150345293Y-81509226D01*
X150345293Y-81509226D02*
X150250055Y-81556845D01*
X150250055Y-81556845D02*
X150202436Y-81604464D01*
X150202436Y-81604464D02*
X150154817Y-81699702D01*
X150154817Y-81699702D02*
X150154817Y-81890178D01*
X150154817Y-81890178D02*
X150202436Y-81985416D01*
X150202436Y-81985416D02*
X150250055Y-82033035D01*
X150250055Y-82033035D02*
X150345293Y-82080654D01*
X150345293Y-82080654D02*
X150392912Y-82080654D01*
X150392912Y-82080654D02*
X150488150Y-82033035D01*
X150488150Y-82033035D02*
X150535769Y-81985416D01*
X150535769Y-81985416D02*
X150583388Y-81890178D01*
X150583388Y-81890178D02*
X150583388Y-81699702D01*
X150583388Y-81699702D02*
X150631007Y-81604464D01*
X150631007Y-81604464D02*
X150678626Y-81556845D01*
X150678626Y-81556845D02*
X150773864Y-81509226D01*
X150773864Y-81509226D02*
X150964340Y-81509226D01*
X150964340Y-81509226D02*
X151059578Y-81556845D01*
X151059578Y-81556845D02*
X151107198Y-81604464D01*
X151107198Y-81604464D02*
X151154817Y-81699702D01*
X151154817Y-81699702D02*
X151154817Y-81890178D01*
X151154817Y-81890178D02*
X151107198Y-81985416D01*
X151107198Y-81985416D02*
X151059578Y-82033035D01*
X151059578Y-82033035D02*
X150964340Y-82080654D01*
X150964340Y-82080654D02*
X150773864Y-82080654D01*
X150773864Y-82080654D02*
X150678626Y-82033035D01*
X150678626Y-82033035D02*
X150631007Y-81985416D01*
X150631007Y-81985416D02*
X150583388Y-81890178D01*
X108645711Y-35641069D02*
X108645711Y-34641069D01*
X108645711Y-34641069D02*
X108312378Y-35355354D01*
X108312378Y-35355354D02*
X107979045Y-34641069D01*
X107979045Y-34641069D02*
X107979045Y-35641069D01*
X107598092Y-34641069D02*
X106931426Y-35641069D01*
X106931426Y-34641069D02*
X107598092Y-35641069D01*
X106121902Y-34974402D02*
X106121902Y-35641069D01*
X106359997Y-34593450D02*
X106598092Y-35307735D01*
X106598092Y-35307735D02*
X105979045Y-35307735D01*
X158954819Y-102810714D02*
X157954819Y-102810714D01*
X157954819Y-102810714D02*
X157954819Y-103048809D01*
X157954819Y-103048809D02*
X158002438Y-103191666D01*
X158002438Y-103191666D02*
X158097676Y-103286904D01*
X158097676Y-103286904D02*
X158192914Y-103334523D01*
X158192914Y-103334523D02*
X158383390Y-103382142D01*
X158383390Y-103382142D02*
X158526247Y-103382142D01*
X158526247Y-103382142D02*
X158716723Y-103334523D01*
X158716723Y-103334523D02*
X158811961Y-103286904D01*
X158811961Y-103286904D02*
X158907200Y-103191666D01*
X158907200Y-103191666D02*
X158954819Y-103048809D01*
X158954819Y-103048809D02*
X158954819Y-102810714D01*
X158050057Y-103763095D02*
X158002438Y-103810714D01*
X158002438Y-103810714D02*
X157954819Y-103905952D01*
X157954819Y-103905952D02*
X157954819Y-104144047D01*
X157954819Y-104144047D02*
X158002438Y-104239285D01*
X158002438Y-104239285D02*
X158050057Y-104286904D01*
X158050057Y-104286904D02*
X158145295Y-104334523D01*
X158145295Y-104334523D02*
X158240533Y-104334523D01*
X158240533Y-104334523D02*
X158383390Y-104286904D01*
X158383390Y-104286904D02*
X158954819Y-103715476D01*
X158954819Y-103715476D02*
X158954819Y-104334523D01*
X158954819Y-104810714D02*
X158954819Y-105001190D01*
X158954819Y-105001190D02*
X158907200Y-105096428D01*
X158907200Y-105096428D02*
X158859580Y-105144047D01*
X158859580Y-105144047D02*
X158716723Y-105239285D01*
X158716723Y-105239285D02*
X158526247Y-105286904D01*
X158526247Y-105286904D02*
X158145295Y-105286904D01*
X158145295Y-105286904D02*
X158050057Y-105239285D01*
X158050057Y-105239285D02*
X158002438Y-105191666D01*
X158002438Y-105191666D02*
X157954819Y-105096428D01*
X157954819Y-105096428D02*
X157954819Y-104905952D01*
X157954819Y-104905952D02*
X158002438Y-104810714D01*
X158002438Y-104810714D02*
X158050057Y-104763095D01*
X158050057Y-104763095D02*
X158145295Y-104715476D01*
X158145295Y-104715476D02*
X158383390Y-104715476D01*
X158383390Y-104715476D02*
X158478628Y-104763095D01*
X158478628Y-104763095D02*
X158526247Y-104810714D01*
X158526247Y-104810714D02*
X158573866Y-104905952D01*
X158573866Y-104905952D02*
X158573866Y-105096428D01*
X158573866Y-105096428D02*
X158526247Y-105191666D01*
X158526247Y-105191666D02*
X158478628Y-105239285D01*
X158478628Y-105239285D02*
X158383390Y-105286904D01*
X55904817Y-63411905D02*
X54904817Y-63411905D01*
X54904817Y-63411905D02*
X54904817Y-63650000D01*
X54904817Y-63650000D02*
X54952436Y-63792857D01*
X54952436Y-63792857D02*
X55047674Y-63888095D01*
X55047674Y-63888095D02*
X55142912Y-63935714D01*
X55142912Y-63935714D02*
X55333388Y-63983333D01*
X55333388Y-63983333D02*
X55476245Y-63983333D01*
X55476245Y-63983333D02*
X55666721Y-63935714D01*
X55666721Y-63935714D02*
X55761959Y-63888095D01*
X55761959Y-63888095D02*
X55857198Y-63792857D01*
X55857198Y-63792857D02*
X55904817Y-63650000D01*
X55904817Y-63650000D02*
X55904817Y-63411905D01*
X54904817Y-64316667D02*
X54904817Y-64983333D01*
X54904817Y-64983333D02*
X55904817Y-64554762D01*
X71021902Y-99934819D02*
X71021902Y-98934819D01*
X71021902Y-98934819D02*
X70688569Y-99649104D01*
X70688569Y-99649104D02*
X70355236Y-98934819D01*
X70355236Y-98934819D02*
X70355236Y-99934819D01*
X69974283Y-98934819D02*
X69307617Y-99934819D01*
X69307617Y-98934819D02*
X69974283Y-99934819D01*
X68974283Y-99030057D02*
X68926664Y-98982438D01*
X68926664Y-98982438D02*
X68831426Y-98934819D01*
X68831426Y-98934819D02*
X68593331Y-98934819D01*
X68593331Y-98934819D02*
X68498093Y-98982438D01*
X68498093Y-98982438D02*
X68450474Y-99030057D01*
X68450474Y-99030057D02*
X68402855Y-99125295D01*
X68402855Y-99125295D02*
X68402855Y-99220533D01*
X68402855Y-99220533D02*
X68450474Y-99363390D01*
X68450474Y-99363390D02*
X69021902Y-99934819D01*
X69021902Y-99934819D02*
X68402855Y-99934819D01*
X67783807Y-98934819D02*
X67688569Y-98934819D01*
X67688569Y-98934819D02*
X67593331Y-98982438D01*
X67593331Y-98982438D02*
X67545712Y-99030057D01*
X67545712Y-99030057D02*
X67498093Y-99125295D01*
X67498093Y-99125295D02*
X67450474Y-99315771D01*
X67450474Y-99315771D02*
X67450474Y-99553866D01*
X67450474Y-99553866D02*
X67498093Y-99744342D01*
X67498093Y-99744342D02*
X67545712Y-99839580D01*
X67545712Y-99839580D02*
X67593331Y-99887200D01*
X67593331Y-99887200D02*
X67688569Y-99934819D01*
X67688569Y-99934819D02*
X67783807Y-99934819D01*
X67783807Y-99934819D02*
X67879045Y-99887200D01*
X67879045Y-99887200D02*
X67926664Y-99839580D01*
X67926664Y-99839580D02*
X67974283Y-99744342D01*
X67974283Y-99744342D02*
X68021902Y-99553866D01*
X68021902Y-99553866D02*
X68021902Y-99315771D01*
X68021902Y-99315771D02*
X67974283Y-99125295D01*
X67974283Y-99125295D02*
X67926664Y-99030057D01*
X67926664Y-99030057D02*
X67879045Y-98982438D01*
X67879045Y-98982438D02*
X67783807Y-98934819D01*
X113054817Y-113705714D02*
X112054817Y-113705714D01*
X112054817Y-113705714D02*
X112054817Y-113943809D01*
X112054817Y-113943809D02*
X112102436Y-114086666D01*
X112102436Y-114086666D02*
X112197674Y-114181904D01*
X112197674Y-114181904D02*
X112292912Y-114229523D01*
X112292912Y-114229523D02*
X112483388Y-114277142D01*
X112483388Y-114277142D02*
X112626245Y-114277142D01*
X112626245Y-114277142D02*
X112816721Y-114229523D01*
X112816721Y-114229523D02*
X112911959Y-114181904D01*
X112911959Y-114181904D02*
X113007198Y-114086666D01*
X113007198Y-114086666D02*
X113054817Y-113943809D01*
X113054817Y-113943809D02*
X113054817Y-113705714D01*
X112150055Y-114658095D02*
X112102436Y-114705714D01*
X112102436Y-114705714D02*
X112054817Y-114800952D01*
X112054817Y-114800952D02*
X112054817Y-115039047D01*
X112054817Y-115039047D02*
X112102436Y-115134285D01*
X112102436Y-115134285D02*
X112150055Y-115181904D01*
X112150055Y-115181904D02*
X112245293Y-115229523D01*
X112245293Y-115229523D02*
X112340531Y-115229523D01*
X112340531Y-115229523D02*
X112483388Y-115181904D01*
X112483388Y-115181904D02*
X113054817Y-114610476D01*
X113054817Y-114610476D02*
X113054817Y-115229523D01*
X112054817Y-116134285D02*
X112054817Y-115658095D01*
X112054817Y-115658095D02*
X112531007Y-115610476D01*
X112531007Y-115610476D02*
X112483388Y-115658095D01*
X112483388Y-115658095D02*
X112435769Y-115753333D01*
X112435769Y-115753333D02*
X112435769Y-115991428D01*
X112435769Y-115991428D02*
X112483388Y-116086666D01*
X112483388Y-116086666D02*
X112531007Y-116134285D01*
X112531007Y-116134285D02*
X112626245Y-116181904D01*
X112626245Y-116181904D02*
X112864340Y-116181904D01*
X112864340Y-116181904D02*
X112959578Y-116134285D01*
X112959578Y-116134285D02*
X113007198Y-116086666D01*
X113007198Y-116086666D02*
X113054817Y-115991428D01*
X113054817Y-115991428D02*
X113054817Y-115753333D01*
X113054817Y-115753333D02*
X113007198Y-115658095D01*
X113007198Y-115658095D02*
X112959578Y-115610476D01*
X150759122Y-120799973D02*
X151017941Y-119834048D01*
X151017941Y-119834048D02*
X150511095Y-120437722D01*
X150511095Y-120437722D02*
X150373990Y-119661502D01*
X150373990Y-119661502D02*
X150115171Y-120627427D01*
X150006019Y-119562904D02*
X149103249Y-120356284D01*
X149362068Y-119390358D02*
X149747200Y-120528830D01*
X149015444Y-119396078D02*
X148981772Y-119337757D01*
X148981772Y-119337757D02*
X148902104Y-119267111D01*
X148902104Y-119267111D02*
X148672121Y-119205487D01*
X148672121Y-119205487D02*
X148567804Y-119226834D01*
X148567804Y-119226834D02*
X148509482Y-119260506D01*
X148509482Y-119260506D02*
X148438837Y-119340174D01*
X148438837Y-119340174D02*
X148414187Y-119432167D01*
X148414187Y-119432167D02*
X148423209Y-119582481D01*
X148423209Y-119582481D02*
X148827270Y-120282335D01*
X148827270Y-120282335D02*
X148229316Y-120122114D01*
X148166160Y-119069915D02*
X147522210Y-118897369D01*
X147522210Y-118897369D02*
X147677359Y-119974217D01*
X109121902Y-54691069D02*
X109121902Y-53691069D01*
X109121902Y-53691069D02*
X108788569Y-54405354D01*
X108788569Y-54405354D02*
X108455236Y-53691069D01*
X108455236Y-53691069D02*
X108455236Y-54691069D01*
X108074283Y-53691069D02*
X107407617Y-54691069D01*
X107407617Y-53691069D02*
X108074283Y-54691069D01*
X106502855Y-54691069D02*
X107074283Y-54691069D01*
X106788569Y-54691069D02*
X106788569Y-53691069D01*
X106788569Y-53691069D02*
X106883807Y-53833926D01*
X106883807Y-53833926D02*
X106979045Y-53929164D01*
X106979045Y-53929164D02*
X107074283Y-53976783D01*
X105883807Y-53691069D02*
X105788569Y-53691069D01*
X105788569Y-53691069D02*
X105693331Y-53738688D01*
X105693331Y-53738688D02*
X105645712Y-53786307D01*
X105645712Y-53786307D02*
X105598093Y-53881545D01*
X105598093Y-53881545D02*
X105550474Y-54072021D01*
X105550474Y-54072021D02*
X105550474Y-54310116D01*
X105550474Y-54310116D02*
X105598093Y-54500592D01*
X105598093Y-54500592D02*
X105645712Y-54595830D01*
X105645712Y-54595830D02*
X105693331Y-54643450D01*
X105693331Y-54643450D02*
X105788569Y-54691069D01*
X105788569Y-54691069D02*
X105883807Y-54691069D01*
X105883807Y-54691069D02*
X105979045Y-54643450D01*
X105979045Y-54643450D02*
X106026664Y-54595830D01*
X106026664Y-54595830D02*
X106074283Y-54500592D01*
X106074283Y-54500592D02*
X106121902Y-54310116D01*
X106121902Y-54310116D02*
X106121902Y-54072021D01*
X106121902Y-54072021D02*
X106074283Y-53881545D01*
X106074283Y-53881545D02*
X106026664Y-53786307D01*
X106026664Y-53786307D02*
X105979045Y-53738688D01*
X105979045Y-53738688D02*
X105883807Y-53691069D01*
X113054817Y-74841964D02*
X112054817Y-74841964D01*
X112054817Y-74841964D02*
X112054817Y-75080059D01*
X112054817Y-75080059D02*
X112102436Y-75222916D01*
X112102436Y-75222916D02*
X112197674Y-75318154D01*
X112197674Y-75318154D02*
X112292912Y-75365773D01*
X112292912Y-75365773D02*
X112483388Y-75413392D01*
X112483388Y-75413392D02*
X112626245Y-75413392D01*
X112626245Y-75413392D02*
X112816721Y-75365773D01*
X112816721Y-75365773D02*
X112911959Y-75318154D01*
X112911959Y-75318154D02*
X113007198Y-75222916D01*
X113007198Y-75222916D02*
X113054817Y-75080059D01*
X113054817Y-75080059D02*
X113054817Y-74841964D01*
X113054817Y-76365773D02*
X113054817Y-75794345D01*
X113054817Y-76080059D02*
X112054817Y-76080059D01*
X112054817Y-76080059D02*
X112197674Y-75984821D01*
X112197674Y-75984821D02*
X112292912Y-75889583D01*
X112292912Y-75889583D02*
X112340531Y-75794345D01*
X112054817Y-77222916D02*
X112054817Y-77032440D01*
X112054817Y-77032440D02*
X112102436Y-76937202D01*
X112102436Y-76937202D02*
X112150055Y-76889583D01*
X112150055Y-76889583D02*
X112292912Y-76794345D01*
X112292912Y-76794345D02*
X112483388Y-76746726D01*
X112483388Y-76746726D02*
X112864340Y-76746726D01*
X112864340Y-76746726D02*
X112959578Y-76794345D01*
X112959578Y-76794345D02*
X113007198Y-76841964D01*
X113007198Y-76841964D02*
X113054817Y-76937202D01*
X113054817Y-76937202D02*
X113054817Y-77127678D01*
X113054817Y-77127678D02*
X113007198Y-77222916D01*
X113007198Y-77222916D02*
X112959578Y-77270535D01*
X112959578Y-77270535D02*
X112864340Y-77318154D01*
X112864340Y-77318154D02*
X112626245Y-77318154D01*
X112626245Y-77318154D02*
X112531007Y-77270535D01*
X112531007Y-77270535D02*
X112483388Y-77222916D01*
X112483388Y-77222916D02*
X112435769Y-77127678D01*
X112435769Y-77127678D02*
X112435769Y-76937202D01*
X112435769Y-76937202D02*
X112483388Y-76841964D01*
X112483388Y-76841964D02*
X112531007Y-76794345D01*
X112531007Y-76794345D02*
X112626245Y-76746726D01*
X172034819Y-70758095D02*
X172844342Y-70758095D01*
X172844342Y-70758095D02*
X172939580Y-70805714D01*
X172939580Y-70805714D02*
X172987200Y-70853333D01*
X172987200Y-70853333D02*
X173034819Y-70948571D01*
X173034819Y-70948571D02*
X173034819Y-71139047D01*
X173034819Y-71139047D02*
X172987200Y-71234285D01*
X172987200Y-71234285D02*
X172939580Y-71281904D01*
X172939580Y-71281904D02*
X172844342Y-71329523D01*
X172844342Y-71329523D02*
X172034819Y-71329523D01*
X172130057Y-71758095D02*
X172082438Y-71805714D01*
X172082438Y-71805714D02*
X172034819Y-71900952D01*
X172034819Y-71900952D02*
X172034819Y-72139047D01*
X172034819Y-72139047D02*
X172082438Y-72234285D01*
X172082438Y-72234285D02*
X172130057Y-72281904D01*
X172130057Y-72281904D02*
X172225295Y-72329523D01*
X172225295Y-72329523D02*
X172320533Y-72329523D01*
X172320533Y-72329523D02*
X172463390Y-72281904D01*
X172463390Y-72281904D02*
X173034819Y-71710476D01*
X173034819Y-71710476D02*
X173034819Y-72329523D01*
X128171902Y-114222319D02*
X128171902Y-113222319D01*
X128171902Y-113222319D02*
X127838569Y-113936604D01*
X127838569Y-113936604D02*
X127505236Y-113222319D01*
X127505236Y-113222319D02*
X127505236Y-114222319D01*
X127124283Y-113222319D02*
X126457617Y-114222319D01*
X126457617Y-113222319D02*
X127124283Y-114222319D01*
X126124283Y-113317557D02*
X126076664Y-113269938D01*
X126076664Y-113269938D02*
X125981426Y-113222319D01*
X125981426Y-113222319D02*
X125743331Y-113222319D01*
X125743331Y-113222319D02*
X125648093Y-113269938D01*
X125648093Y-113269938D02*
X125600474Y-113317557D01*
X125600474Y-113317557D02*
X125552855Y-113412795D01*
X125552855Y-113412795D02*
X125552855Y-113508033D01*
X125552855Y-113508033D02*
X125600474Y-113650890D01*
X125600474Y-113650890D02*
X126171902Y-114222319D01*
X126171902Y-114222319D02*
X125552855Y-114222319D01*
X124695712Y-113222319D02*
X124886188Y-113222319D01*
X124886188Y-113222319D02*
X124981426Y-113269938D01*
X124981426Y-113269938D02*
X125029045Y-113317557D01*
X125029045Y-113317557D02*
X125124283Y-113460414D01*
X125124283Y-113460414D02*
X125171902Y-113650890D01*
X125171902Y-113650890D02*
X125171902Y-114031842D01*
X125171902Y-114031842D02*
X125124283Y-114127080D01*
X125124283Y-114127080D02*
X125076664Y-114174700D01*
X125076664Y-114174700D02*
X124981426Y-114222319D01*
X124981426Y-114222319D02*
X124790950Y-114222319D01*
X124790950Y-114222319D02*
X124695712Y-114174700D01*
X124695712Y-114174700D02*
X124648093Y-114127080D01*
X124648093Y-114127080D02*
X124600474Y-114031842D01*
X124600474Y-114031842D02*
X124600474Y-113793747D01*
X124600474Y-113793747D02*
X124648093Y-113698509D01*
X124648093Y-113698509D02*
X124695712Y-113650890D01*
X124695712Y-113650890D02*
X124790950Y-113603271D01*
X124790950Y-113603271D02*
X124981426Y-113603271D01*
X124981426Y-113603271D02*
X125076664Y-113650890D01*
X125076664Y-113650890D02*
X125124283Y-113698509D01*
X125124283Y-113698509D02*
X125171902Y-113793747D01*
X113054817Y-37218155D02*
X112054817Y-37218155D01*
X112054817Y-37218155D02*
X112054817Y-37456250D01*
X112054817Y-37456250D02*
X112102436Y-37599107D01*
X112102436Y-37599107D02*
X112197674Y-37694345D01*
X112197674Y-37694345D02*
X112292912Y-37741964D01*
X112292912Y-37741964D02*
X112483388Y-37789583D01*
X112483388Y-37789583D02*
X112626245Y-37789583D01*
X112626245Y-37789583D02*
X112816721Y-37741964D01*
X112816721Y-37741964D02*
X112911959Y-37694345D01*
X112911959Y-37694345D02*
X113007198Y-37599107D01*
X113007198Y-37599107D02*
X113054817Y-37456250D01*
X113054817Y-37456250D02*
X113054817Y-37218155D01*
X112388150Y-38646726D02*
X113054817Y-38646726D01*
X112007198Y-38408631D02*
X112721483Y-38170536D01*
X112721483Y-38170536D02*
X112721483Y-38789583D01*
X167972857Y-93074819D02*
X168306190Y-92598628D01*
X168544285Y-93074819D02*
X168544285Y-92074819D01*
X168544285Y-92074819D02*
X168163333Y-92074819D01*
X168163333Y-92074819D02*
X168068095Y-92122438D01*
X168068095Y-92122438D02*
X168020476Y-92170057D01*
X168020476Y-92170057D02*
X167972857Y-92265295D01*
X167972857Y-92265295D02*
X167972857Y-92408152D01*
X167972857Y-92408152D02*
X168020476Y-92503390D01*
X168020476Y-92503390D02*
X168068095Y-92551009D01*
X168068095Y-92551009D02*
X168163333Y-92598628D01*
X168163333Y-92598628D02*
X168544285Y-92598628D01*
X167020476Y-93074819D02*
X167591904Y-93074819D01*
X167306190Y-93074819D02*
X167306190Y-92074819D01*
X167306190Y-92074819D02*
X167401428Y-92217676D01*
X167401428Y-92217676D02*
X167496666Y-92312914D01*
X167496666Y-92312914D02*
X167591904Y-92360533D01*
X166068095Y-93074819D02*
X166639523Y-93074819D01*
X166353809Y-93074819D02*
X166353809Y-92074819D01*
X166353809Y-92074819D02*
X166449047Y-92217676D01*
X166449047Y-92217676D02*
X166544285Y-92312914D01*
X166544285Y-92312914D02*
X166639523Y-92360533D01*
X147221902Y-78503569D02*
X147221902Y-77503569D01*
X147221902Y-77503569D02*
X146888569Y-78217854D01*
X146888569Y-78217854D02*
X146555236Y-77503569D01*
X146555236Y-77503569D02*
X146555236Y-78503569D01*
X146174283Y-77503569D02*
X145507617Y-78503569D01*
X145507617Y-77503569D02*
X146174283Y-78503569D01*
X144602855Y-78503569D02*
X145174283Y-78503569D01*
X144888569Y-78503569D02*
X144888569Y-77503569D01*
X144888569Y-77503569D02*
X144983807Y-77646426D01*
X144983807Y-77646426D02*
X145079045Y-77741664D01*
X145079045Y-77741664D02*
X145174283Y-77789283D01*
X144031426Y-77932140D02*
X144126664Y-77884521D01*
X144126664Y-77884521D02*
X144174283Y-77836902D01*
X144174283Y-77836902D02*
X144221902Y-77741664D01*
X144221902Y-77741664D02*
X144221902Y-77694045D01*
X144221902Y-77694045D02*
X144174283Y-77598807D01*
X144174283Y-77598807D02*
X144126664Y-77551188D01*
X144126664Y-77551188D02*
X144031426Y-77503569D01*
X144031426Y-77503569D02*
X143840950Y-77503569D01*
X143840950Y-77503569D02*
X143745712Y-77551188D01*
X143745712Y-77551188D02*
X143698093Y-77598807D01*
X143698093Y-77598807D02*
X143650474Y-77694045D01*
X143650474Y-77694045D02*
X143650474Y-77741664D01*
X143650474Y-77741664D02*
X143698093Y-77836902D01*
X143698093Y-77836902D02*
X143745712Y-77884521D01*
X143745712Y-77884521D02*
X143840950Y-77932140D01*
X143840950Y-77932140D02*
X144031426Y-77932140D01*
X144031426Y-77932140D02*
X144126664Y-77979759D01*
X144126664Y-77979759D02*
X144174283Y-78027378D01*
X144174283Y-78027378D02*
X144221902Y-78122616D01*
X144221902Y-78122616D02*
X144221902Y-78313092D01*
X144221902Y-78313092D02*
X144174283Y-78408330D01*
X144174283Y-78408330D02*
X144126664Y-78455950D01*
X144126664Y-78455950D02*
X144031426Y-78503569D01*
X144031426Y-78503569D02*
X143840950Y-78503569D01*
X143840950Y-78503569D02*
X143745712Y-78455950D01*
X143745712Y-78455950D02*
X143698093Y-78408330D01*
X143698093Y-78408330D02*
X143650474Y-78313092D01*
X143650474Y-78313092D02*
X143650474Y-78122616D01*
X143650474Y-78122616D02*
X143698093Y-78027378D01*
X143698093Y-78027378D02*
X143745712Y-77979759D01*
X143745712Y-77979759D02*
X143840950Y-77932140D01*
X167446666Y-100374819D02*
X167779999Y-99898628D01*
X168018094Y-100374819D02*
X168018094Y-99374819D01*
X168018094Y-99374819D02*
X167637142Y-99374819D01*
X167637142Y-99374819D02*
X167541904Y-99422438D01*
X167541904Y-99422438D02*
X167494285Y-99470057D01*
X167494285Y-99470057D02*
X167446666Y-99565295D01*
X167446666Y-99565295D02*
X167446666Y-99708152D01*
X167446666Y-99708152D02*
X167494285Y-99803390D01*
X167494285Y-99803390D02*
X167541904Y-99851009D01*
X167541904Y-99851009D02*
X167637142Y-99898628D01*
X167637142Y-99898628D02*
X168018094Y-99898628D01*
X166970475Y-100374819D02*
X166779999Y-100374819D01*
X166779999Y-100374819D02*
X166684761Y-100327200D01*
X166684761Y-100327200D02*
X166637142Y-100279580D01*
X166637142Y-100279580D02*
X166541904Y-100136723D01*
X166541904Y-100136723D02*
X166494285Y-99946247D01*
X166494285Y-99946247D02*
X166494285Y-99565295D01*
X166494285Y-99565295D02*
X166541904Y-99470057D01*
X166541904Y-99470057D02*
X166589523Y-99422438D01*
X166589523Y-99422438D02*
X166684761Y-99374819D01*
X166684761Y-99374819D02*
X166875237Y-99374819D01*
X166875237Y-99374819D02*
X166970475Y-99422438D01*
X166970475Y-99422438D02*
X167018094Y-99470057D01*
X167018094Y-99470057D02*
X167065713Y-99565295D01*
X167065713Y-99565295D02*
X167065713Y-99803390D01*
X167065713Y-99803390D02*
X167018094Y-99898628D01*
X167018094Y-99898628D02*
X166970475Y-99946247D01*
X166970475Y-99946247D02*
X166875237Y-99993866D01*
X166875237Y-99993866D02*
X166684761Y-99993866D01*
X166684761Y-99993866D02*
X166589523Y-99946247D01*
X166589523Y-99946247D02*
X166541904Y-99898628D01*
X166541904Y-99898628D02*
X166494285Y-99803390D01*
X147221902Y-59453569D02*
X147221902Y-58453569D01*
X147221902Y-58453569D02*
X146888569Y-59167854D01*
X146888569Y-59167854D02*
X146555236Y-58453569D01*
X146555236Y-58453569D02*
X146555236Y-59453569D01*
X146174283Y-58453569D02*
X145507617Y-59453569D01*
X145507617Y-58453569D02*
X146174283Y-59453569D01*
X144602855Y-59453569D02*
X145174283Y-59453569D01*
X144888569Y-59453569D02*
X144888569Y-58453569D01*
X144888569Y-58453569D02*
X144983807Y-58596426D01*
X144983807Y-58596426D02*
X145079045Y-58691664D01*
X145079045Y-58691664D02*
X145174283Y-58739283D01*
X144221902Y-58548807D02*
X144174283Y-58501188D01*
X144174283Y-58501188D02*
X144079045Y-58453569D01*
X144079045Y-58453569D02*
X143840950Y-58453569D01*
X143840950Y-58453569D02*
X143745712Y-58501188D01*
X143745712Y-58501188D02*
X143698093Y-58548807D01*
X143698093Y-58548807D02*
X143650474Y-58644045D01*
X143650474Y-58644045D02*
X143650474Y-58739283D01*
X143650474Y-58739283D02*
X143698093Y-58882140D01*
X143698093Y-58882140D02*
X144269521Y-59453569D01*
X144269521Y-59453569D02*
X143650474Y-59453569D01*
X165046666Y-55329580D02*
X165094285Y-55377200D01*
X165094285Y-55377200D02*
X165237142Y-55424819D01*
X165237142Y-55424819D02*
X165332380Y-55424819D01*
X165332380Y-55424819D02*
X165475237Y-55377200D01*
X165475237Y-55377200D02*
X165570475Y-55281961D01*
X165570475Y-55281961D02*
X165618094Y-55186723D01*
X165618094Y-55186723D02*
X165665713Y-54996247D01*
X165665713Y-54996247D02*
X165665713Y-54853390D01*
X165665713Y-54853390D02*
X165618094Y-54662914D01*
X165618094Y-54662914D02*
X165570475Y-54567676D01*
X165570475Y-54567676D02*
X165475237Y-54472438D01*
X165475237Y-54472438D02*
X165332380Y-54424819D01*
X165332380Y-54424819D02*
X165237142Y-54424819D01*
X165237142Y-54424819D02*
X165094285Y-54472438D01*
X165094285Y-54472438D02*
X165046666Y-54520057D01*
X164094285Y-55424819D02*
X164665713Y-55424819D01*
X164379999Y-55424819D02*
X164379999Y-54424819D01*
X164379999Y-54424819D02*
X164475237Y-54567676D01*
X164475237Y-54567676D02*
X164570475Y-54662914D01*
X164570475Y-54662914D02*
X164665713Y-54710533D01*
X162046666Y-81709580D02*
X162094285Y-81757200D01*
X162094285Y-81757200D02*
X162237142Y-81804819D01*
X162237142Y-81804819D02*
X162332380Y-81804819D01*
X162332380Y-81804819D02*
X162475237Y-81757200D01*
X162475237Y-81757200D02*
X162570475Y-81661961D01*
X162570475Y-81661961D02*
X162618094Y-81566723D01*
X162618094Y-81566723D02*
X162665713Y-81376247D01*
X162665713Y-81376247D02*
X162665713Y-81233390D01*
X162665713Y-81233390D02*
X162618094Y-81042914D01*
X162618094Y-81042914D02*
X162570475Y-80947676D01*
X162570475Y-80947676D02*
X162475237Y-80852438D01*
X162475237Y-80852438D02*
X162332380Y-80804819D01*
X162332380Y-80804819D02*
X162237142Y-80804819D01*
X162237142Y-80804819D02*
X162094285Y-80852438D01*
X162094285Y-80852438D02*
X162046666Y-80900057D01*
X161713332Y-80804819D02*
X161046666Y-80804819D01*
X161046666Y-80804819D02*
X161475237Y-81804819D01*
X172676187Y-132070898D02*
X173176187Y-131204872D01*
X173176187Y-131204872D02*
X172530369Y-131656795D01*
X172530369Y-131656795D02*
X172598837Y-130871539D01*
X172598837Y-130871539D02*
X172098837Y-131737564D01*
X172268923Y-130681063D02*
X171191572Y-131213755D01*
X171691572Y-130347730D02*
X171768923Y-131547088D01*
X171355278Y-130263541D02*
X171337848Y-130198493D01*
X171337848Y-130198493D02*
X171279179Y-130109634D01*
X171279179Y-130109634D02*
X171072983Y-129990587D01*
X171072983Y-129990587D02*
X170966695Y-129984207D01*
X170966695Y-129984207D02*
X170901646Y-130001637D01*
X170901646Y-130001637D02*
X170812787Y-130060306D01*
X170812787Y-130060306D02*
X170765168Y-130142784D01*
X170765168Y-130142784D02*
X170734979Y-130290312D01*
X170734979Y-130290312D02*
X170944137Y-131070898D01*
X170944137Y-131070898D02*
X170408026Y-130761374D01*
X170198868Y-129980788D02*
X170305156Y-129987168D01*
X170305156Y-129987168D02*
X170370205Y-129969738D01*
X170370205Y-129969738D02*
X170459063Y-129911069D01*
X170459063Y-129911069D02*
X170482873Y-129869830D01*
X170482873Y-129869830D02*
X170489253Y-129763541D01*
X170489253Y-129763541D02*
X170471823Y-129698493D01*
X170471823Y-129698493D02*
X170413154Y-129609634D01*
X170413154Y-129609634D02*
X170248197Y-129514396D01*
X170248197Y-129514396D02*
X170141909Y-129508016D01*
X170141909Y-129508016D02*
X170076860Y-129525446D01*
X170076860Y-129525446D02*
X169988001Y-129584115D01*
X169988001Y-129584115D02*
X169964192Y-129625355D01*
X169964192Y-129625355D02*
X169957812Y-129731643D01*
X169957812Y-129731643D02*
X169975242Y-129796692D01*
X169975242Y-129796692D02*
X170033911Y-129885550D01*
X170033911Y-129885550D02*
X170198868Y-129980788D01*
X170198868Y-129980788D02*
X170257537Y-130069646D01*
X170257537Y-130069646D02*
X170274967Y-130134695D01*
X170274967Y-130134695D02*
X170268587Y-130240983D01*
X170268587Y-130240983D02*
X170173349Y-130405941D01*
X170173349Y-130405941D02*
X170084491Y-130464610D01*
X170084491Y-130464610D02*
X170019442Y-130482039D01*
X170019442Y-130482039D02*
X169913154Y-130475660D01*
X169913154Y-130475660D02*
X169748197Y-130380422D01*
X169748197Y-130380422D02*
X169689528Y-130291563D01*
X169689528Y-130291563D02*
X169672098Y-130226514D01*
X169672098Y-130226514D02*
X169678478Y-130120226D01*
X169678478Y-130120226D02*
X169773716Y-129955269D01*
X169773716Y-129955269D02*
X169862574Y-129896600D01*
X169862574Y-129896600D02*
X169927623Y-129879170D01*
X169927623Y-129879170D02*
X170033911Y-129885550D01*
X157946666Y-64549580D02*
X157994285Y-64597200D01*
X157994285Y-64597200D02*
X158137142Y-64644819D01*
X158137142Y-64644819D02*
X158232380Y-64644819D01*
X158232380Y-64644819D02*
X158375237Y-64597200D01*
X158375237Y-64597200D02*
X158470475Y-64501961D01*
X158470475Y-64501961D02*
X158518094Y-64406723D01*
X158518094Y-64406723D02*
X158565713Y-64216247D01*
X158565713Y-64216247D02*
X158565713Y-64073390D01*
X158565713Y-64073390D02*
X158518094Y-63882914D01*
X158518094Y-63882914D02*
X158470475Y-63787676D01*
X158470475Y-63787676D02*
X158375237Y-63692438D01*
X158375237Y-63692438D02*
X158232380Y-63644819D01*
X158232380Y-63644819D02*
X158137142Y-63644819D01*
X158137142Y-63644819D02*
X157994285Y-63692438D01*
X157994285Y-63692438D02*
X157946666Y-63740057D01*
X157041904Y-63644819D02*
X157518094Y-63644819D01*
X157518094Y-63644819D02*
X157565713Y-64121009D01*
X157565713Y-64121009D02*
X157518094Y-64073390D01*
X157518094Y-64073390D02*
X157422856Y-64025771D01*
X157422856Y-64025771D02*
X157184761Y-64025771D01*
X157184761Y-64025771D02*
X157089523Y-64073390D01*
X157089523Y-64073390D02*
X157041904Y-64121009D01*
X157041904Y-64121009D02*
X156994285Y-64216247D01*
X156994285Y-64216247D02*
X156994285Y-64454342D01*
X156994285Y-64454342D02*
X157041904Y-64549580D01*
X157041904Y-64549580D02*
X157089523Y-64597200D01*
X157089523Y-64597200D02*
X157184761Y-64644819D01*
X157184761Y-64644819D02*
X157422856Y-64644819D01*
X157422856Y-64644819D02*
X157518094Y-64597200D01*
X157518094Y-64597200D02*
X157565713Y-64549580D01*
X132104817Y-115323214D02*
X131104817Y-115323214D01*
X131104817Y-115323214D02*
X131104817Y-115561309D01*
X131104817Y-115561309D02*
X131152436Y-115704166D01*
X131152436Y-115704166D02*
X131247674Y-115799404D01*
X131247674Y-115799404D02*
X131342912Y-115847023D01*
X131342912Y-115847023D02*
X131533388Y-115894642D01*
X131533388Y-115894642D02*
X131676245Y-115894642D01*
X131676245Y-115894642D02*
X131866721Y-115847023D01*
X131866721Y-115847023D02*
X131961959Y-115799404D01*
X131961959Y-115799404D02*
X132057198Y-115704166D01*
X132057198Y-115704166D02*
X132104817Y-115561309D01*
X132104817Y-115561309D02*
X132104817Y-115323214D01*
X131200055Y-116275595D02*
X131152436Y-116323214D01*
X131152436Y-116323214D02*
X131104817Y-116418452D01*
X131104817Y-116418452D02*
X131104817Y-116656547D01*
X131104817Y-116656547D02*
X131152436Y-116751785D01*
X131152436Y-116751785D02*
X131200055Y-116799404D01*
X131200055Y-116799404D02*
X131295293Y-116847023D01*
X131295293Y-116847023D02*
X131390531Y-116847023D01*
X131390531Y-116847023D02*
X131533388Y-116799404D01*
X131533388Y-116799404D02*
X132104817Y-116227976D01*
X132104817Y-116227976D02*
X132104817Y-116847023D01*
X131104817Y-117704166D02*
X131104817Y-117513690D01*
X131104817Y-117513690D02*
X131152436Y-117418452D01*
X131152436Y-117418452D02*
X131200055Y-117370833D01*
X131200055Y-117370833D02*
X131342912Y-117275595D01*
X131342912Y-117275595D02*
X131533388Y-117227976D01*
X131533388Y-117227976D02*
X131914340Y-117227976D01*
X131914340Y-117227976D02*
X132009578Y-117275595D01*
X132009578Y-117275595D02*
X132057198Y-117323214D01*
X132057198Y-117323214D02*
X132104817Y-117418452D01*
X132104817Y-117418452D02*
X132104817Y-117608928D01*
X132104817Y-117608928D02*
X132057198Y-117704166D01*
X132057198Y-117704166D02*
X132009578Y-117751785D01*
X132009578Y-117751785D02*
X131914340Y-117799404D01*
X131914340Y-117799404D02*
X131676245Y-117799404D01*
X131676245Y-117799404D02*
X131581007Y-117751785D01*
X131581007Y-117751785D02*
X131533388Y-117704166D01*
X131533388Y-117704166D02*
X131485769Y-117608928D01*
X131485769Y-117608928D02*
X131485769Y-117418452D01*
X131485769Y-117418452D02*
X131533388Y-117323214D01*
X131533388Y-117323214D02*
X131581007Y-117275595D01*
X131581007Y-117275595D02*
X131676245Y-117227976D01*
X109121902Y-111841069D02*
X109121902Y-110841069D01*
X109121902Y-110841069D02*
X108788569Y-111555354D01*
X108788569Y-111555354D02*
X108455236Y-110841069D01*
X108455236Y-110841069D02*
X108455236Y-111841069D01*
X108074283Y-110841069D02*
X107407617Y-111841069D01*
X107407617Y-110841069D02*
X108074283Y-111841069D01*
X107074283Y-110936307D02*
X107026664Y-110888688D01*
X107026664Y-110888688D02*
X106931426Y-110841069D01*
X106931426Y-110841069D02*
X106693331Y-110841069D01*
X106693331Y-110841069D02*
X106598093Y-110888688D01*
X106598093Y-110888688D02*
X106550474Y-110936307D01*
X106550474Y-110936307D02*
X106502855Y-111031545D01*
X106502855Y-111031545D02*
X106502855Y-111126783D01*
X106502855Y-111126783D02*
X106550474Y-111269640D01*
X106550474Y-111269640D02*
X107121902Y-111841069D01*
X107121902Y-111841069D02*
X106502855Y-111841069D01*
X105598093Y-110841069D02*
X106074283Y-110841069D01*
X106074283Y-110841069D02*
X106121902Y-111317259D01*
X106121902Y-111317259D02*
X106074283Y-111269640D01*
X106074283Y-111269640D02*
X105979045Y-111222021D01*
X105979045Y-111222021D02*
X105740950Y-111222021D01*
X105740950Y-111222021D02*
X105645712Y-111269640D01*
X105645712Y-111269640D02*
X105598093Y-111317259D01*
X105598093Y-111317259D02*
X105550474Y-111412497D01*
X105550474Y-111412497D02*
X105550474Y-111650592D01*
X105550474Y-111650592D02*
X105598093Y-111745830D01*
X105598093Y-111745830D02*
X105645712Y-111793450D01*
X105645712Y-111793450D02*
X105740950Y-111841069D01*
X105740950Y-111841069D02*
X105979045Y-111841069D01*
X105979045Y-111841069D02*
X106074283Y-111793450D01*
X106074283Y-111793450D02*
X106121902Y-111745830D01*
X94004817Y-96273214D02*
X93004817Y-96273214D01*
X93004817Y-96273214D02*
X93004817Y-96511309D01*
X93004817Y-96511309D02*
X93052436Y-96654166D01*
X93052436Y-96654166D02*
X93147674Y-96749404D01*
X93147674Y-96749404D02*
X93242912Y-96797023D01*
X93242912Y-96797023D02*
X93433388Y-96844642D01*
X93433388Y-96844642D02*
X93576245Y-96844642D01*
X93576245Y-96844642D02*
X93766721Y-96797023D01*
X93766721Y-96797023D02*
X93861959Y-96749404D01*
X93861959Y-96749404D02*
X93957198Y-96654166D01*
X93957198Y-96654166D02*
X94004817Y-96511309D01*
X94004817Y-96511309D02*
X94004817Y-96273214D01*
X93100055Y-97225595D02*
X93052436Y-97273214D01*
X93052436Y-97273214D02*
X93004817Y-97368452D01*
X93004817Y-97368452D02*
X93004817Y-97606547D01*
X93004817Y-97606547D02*
X93052436Y-97701785D01*
X93052436Y-97701785D02*
X93100055Y-97749404D01*
X93100055Y-97749404D02*
X93195293Y-97797023D01*
X93195293Y-97797023D02*
X93290531Y-97797023D01*
X93290531Y-97797023D02*
X93433388Y-97749404D01*
X93433388Y-97749404D02*
X94004817Y-97177976D01*
X94004817Y-97177976D02*
X94004817Y-97797023D01*
X94004817Y-98749404D02*
X94004817Y-98177976D01*
X94004817Y-98463690D02*
X93004817Y-98463690D01*
X93004817Y-98463690D02*
X93147674Y-98368452D01*
X93147674Y-98368452D02*
X93242912Y-98273214D01*
X93242912Y-98273214D02*
X93290531Y-98177976D01*
X146745711Y-40403569D02*
X146745711Y-39403569D01*
X146745711Y-39403569D02*
X146412378Y-40117854D01*
X146412378Y-40117854D02*
X146079045Y-39403569D01*
X146079045Y-39403569D02*
X146079045Y-40403569D01*
X145698092Y-39403569D02*
X145031426Y-40403569D01*
X145031426Y-39403569D02*
X145698092Y-40403569D01*
X144221902Y-39403569D02*
X144412378Y-39403569D01*
X144412378Y-39403569D02*
X144507616Y-39451188D01*
X144507616Y-39451188D02*
X144555235Y-39498807D01*
X144555235Y-39498807D02*
X144650473Y-39641664D01*
X144650473Y-39641664D02*
X144698092Y-39832140D01*
X144698092Y-39832140D02*
X144698092Y-40213092D01*
X144698092Y-40213092D02*
X144650473Y-40308330D01*
X144650473Y-40308330D02*
X144602854Y-40355950D01*
X144602854Y-40355950D02*
X144507616Y-40403569D01*
X144507616Y-40403569D02*
X144317140Y-40403569D01*
X144317140Y-40403569D02*
X144221902Y-40355950D01*
X144221902Y-40355950D02*
X144174283Y-40308330D01*
X144174283Y-40308330D02*
X144126664Y-40213092D01*
X144126664Y-40213092D02*
X144126664Y-39974997D01*
X144126664Y-39974997D02*
X144174283Y-39879759D01*
X144174283Y-39879759D02*
X144221902Y-39832140D01*
X144221902Y-39832140D02*
X144317140Y-39784521D01*
X144317140Y-39784521D02*
X144507616Y-39784521D01*
X144507616Y-39784521D02*
X144602854Y-39832140D01*
X144602854Y-39832140D02*
X144650473Y-39879759D01*
X144650473Y-39879759D02*
X144698092Y-39974997D01*
X162234819Y-47858095D02*
X163044342Y-47858095D01*
X163044342Y-47858095D02*
X163139580Y-47905714D01*
X163139580Y-47905714D02*
X163187200Y-47953333D01*
X163187200Y-47953333D02*
X163234819Y-48048571D01*
X163234819Y-48048571D02*
X163234819Y-48239047D01*
X163234819Y-48239047D02*
X163187200Y-48334285D01*
X163187200Y-48334285D02*
X163139580Y-48381904D01*
X163139580Y-48381904D02*
X163044342Y-48429523D01*
X163044342Y-48429523D02*
X162234819Y-48429523D01*
X163234819Y-49429523D02*
X163234819Y-48858095D01*
X163234819Y-49143809D02*
X162234819Y-49143809D01*
X162234819Y-49143809D02*
X162377676Y-49048571D01*
X162377676Y-49048571D02*
X162472914Y-48953333D01*
X162472914Y-48953333D02*
X162520533Y-48858095D01*
X132104817Y-96273214D02*
X131104817Y-96273214D01*
X131104817Y-96273214D02*
X131104817Y-96511309D01*
X131104817Y-96511309D02*
X131152436Y-96654166D01*
X131152436Y-96654166D02*
X131247674Y-96749404D01*
X131247674Y-96749404D02*
X131342912Y-96797023D01*
X131342912Y-96797023D02*
X131533388Y-96844642D01*
X131533388Y-96844642D02*
X131676245Y-96844642D01*
X131676245Y-96844642D02*
X131866721Y-96797023D01*
X131866721Y-96797023D02*
X131961959Y-96749404D01*
X131961959Y-96749404D02*
X132057198Y-96654166D01*
X132057198Y-96654166D02*
X132104817Y-96511309D01*
X132104817Y-96511309D02*
X132104817Y-96273214D01*
X131200055Y-97225595D02*
X131152436Y-97273214D01*
X131152436Y-97273214D02*
X131104817Y-97368452D01*
X131104817Y-97368452D02*
X131104817Y-97606547D01*
X131104817Y-97606547D02*
X131152436Y-97701785D01*
X131152436Y-97701785D02*
X131200055Y-97749404D01*
X131200055Y-97749404D02*
X131295293Y-97797023D01*
X131295293Y-97797023D02*
X131390531Y-97797023D01*
X131390531Y-97797023D02*
X131533388Y-97749404D01*
X131533388Y-97749404D02*
X132104817Y-97177976D01*
X132104817Y-97177976D02*
X132104817Y-97797023D01*
X131104817Y-98130357D02*
X131104817Y-98749404D01*
X131104817Y-98749404D02*
X131485769Y-98416071D01*
X131485769Y-98416071D02*
X131485769Y-98558928D01*
X131485769Y-98558928D02*
X131533388Y-98654166D01*
X131533388Y-98654166D02*
X131581007Y-98701785D01*
X131581007Y-98701785D02*
X131676245Y-98749404D01*
X131676245Y-98749404D02*
X131914340Y-98749404D01*
X131914340Y-98749404D02*
X132009578Y-98701785D01*
X132009578Y-98701785D02*
X132057198Y-98654166D01*
X132057198Y-98654166D02*
X132104817Y-98558928D01*
X132104817Y-98558928D02*
X132104817Y-98273214D01*
X132104817Y-98273214D02*
X132057198Y-98177976D01*
X132057198Y-98177976D02*
X132009578Y-98130357D01*
X74954817Y-63411905D02*
X73954817Y-63411905D01*
X73954817Y-63411905D02*
X73954817Y-63650000D01*
X73954817Y-63650000D02*
X74002436Y-63792857D01*
X74002436Y-63792857D02*
X74097674Y-63888095D01*
X74097674Y-63888095D02*
X74192912Y-63935714D01*
X74192912Y-63935714D02*
X74383388Y-63983333D01*
X74383388Y-63983333D02*
X74526245Y-63983333D01*
X74526245Y-63983333D02*
X74716721Y-63935714D01*
X74716721Y-63935714D02*
X74811959Y-63888095D01*
X74811959Y-63888095D02*
X74907198Y-63792857D01*
X74907198Y-63792857D02*
X74954817Y-63650000D01*
X74954817Y-63650000D02*
X74954817Y-63411905D01*
X74383388Y-64554762D02*
X74335769Y-64459524D01*
X74335769Y-64459524D02*
X74288150Y-64411905D01*
X74288150Y-64411905D02*
X74192912Y-64364286D01*
X74192912Y-64364286D02*
X74145293Y-64364286D01*
X74145293Y-64364286D02*
X74050055Y-64411905D01*
X74050055Y-64411905D02*
X74002436Y-64459524D01*
X74002436Y-64459524D02*
X73954817Y-64554762D01*
X73954817Y-64554762D02*
X73954817Y-64745238D01*
X73954817Y-64745238D02*
X74002436Y-64840476D01*
X74002436Y-64840476D02*
X74050055Y-64888095D01*
X74050055Y-64888095D02*
X74145293Y-64935714D01*
X74145293Y-64935714D02*
X74192912Y-64935714D01*
X74192912Y-64935714D02*
X74288150Y-64888095D01*
X74288150Y-64888095D02*
X74335769Y-64840476D01*
X74335769Y-64840476D02*
X74383388Y-64745238D01*
X74383388Y-64745238D02*
X74383388Y-64554762D01*
X74383388Y-64554762D02*
X74431007Y-64459524D01*
X74431007Y-64459524D02*
X74478626Y-64411905D01*
X74478626Y-64411905D02*
X74573864Y-64364286D01*
X74573864Y-64364286D02*
X74764340Y-64364286D01*
X74764340Y-64364286D02*
X74859578Y-64411905D01*
X74859578Y-64411905D02*
X74907198Y-64459524D01*
X74907198Y-64459524D02*
X74954817Y-64554762D01*
X74954817Y-64554762D02*
X74954817Y-64745238D01*
X74954817Y-64745238D02*
X74907198Y-64840476D01*
X74907198Y-64840476D02*
X74859578Y-64888095D01*
X74859578Y-64888095D02*
X74764340Y-64935714D01*
X74764340Y-64935714D02*
X74573864Y-64935714D01*
X74573864Y-64935714D02*
X74478626Y-64888095D01*
X74478626Y-64888095D02*
X74431007Y-64840476D01*
X74431007Y-64840476D02*
X74383388Y-64745238D01*
X128171902Y-95172319D02*
X128171902Y-94172319D01*
X128171902Y-94172319D02*
X127838569Y-94886604D01*
X127838569Y-94886604D02*
X127505236Y-94172319D01*
X127505236Y-94172319D02*
X127505236Y-95172319D01*
X127124283Y-94172319D02*
X126457617Y-95172319D01*
X126457617Y-94172319D02*
X127124283Y-95172319D01*
X126124283Y-94267557D02*
X126076664Y-94219938D01*
X126076664Y-94219938D02*
X125981426Y-94172319D01*
X125981426Y-94172319D02*
X125743331Y-94172319D01*
X125743331Y-94172319D02*
X125648093Y-94219938D01*
X125648093Y-94219938D02*
X125600474Y-94267557D01*
X125600474Y-94267557D02*
X125552855Y-94362795D01*
X125552855Y-94362795D02*
X125552855Y-94458033D01*
X125552855Y-94458033D02*
X125600474Y-94600890D01*
X125600474Y-94600890D02*
X126171902Y-95172319D01*
X126171902Y-95172319D02*
X125552855Y-95172319D01*
X125219521Y-94172319D02*
X124600474Y-94172319D01*
X124600474Y-94172319D02*
X124933807Y-94553271D01*
X124933807Y-94553271D02*
X124790950Y-94553271D01*
X124790950Y-94553271D02*
X124695712Y-94600890D01*
X124695712Y-94600890D02*
X124648093Y-94648509D01*
X124648093Y-94648509D02*
X124600474Y-94743747D01*
X124600474Y-94743747D02*
X124600474Y-94981842D01*
X124600474Y-94981842D02*
X124648093Y-95077080D01*
X124648093Y-95077080D02*
X124695712Y-95124700D01*
X124695712Y-95124700D02*
X124790950Y-95172319D01*
X124790950Y-95172319D02*
X125076664Y-95172319D01*
X125076664Y-95172319D02*
X125171902Y-95124700D01*
X125171902Y-95124700D02*
X125219521Y-95077080D01*
X175531743Y-134990758D02*
X174665718Y-134490758D01*
X174665718Y-134490758D02*
X174546670Y-134696954D01*
X174546670Y-134696954D02*
X174516481Y-134844482D01*
X174516481Y-134844482D02*
X174551341Y-134974579D01*
X174551341Y-134974579D02*
X174610010Y-135063438D01*
X174610010Y-135063438D02*
X174751157Y-135199915D01*
X174751157Y-135199915D02*
X174874875Y-135271344D01*
X174874875Y-135271344D02*
X175063642Y-135325342D01*
X175063642Y-135325342D02*
X175169930Y-135331722D01*
X175169930Y-135331722D02*
X175300028Y-135296863D01*
X175300028Y-135296863D02*
X175412696Y-135196954D01*
X175412696Y-135196954D02*
X175531743Y-134990758D01*
X174272006Y-135363163D02*
X174206957Y-135380593D01*
X174206957Y-135380593D02*
X174118099Y-135439262D01*
X174118099Y-135439262D02*
X173999051Y-135645458D01*
X173999051Y-135645458D02*
X173992671Y-135751746D01*
X173992671Y-135751746D02*
X174010101Y-135816795D01*
X174010101Y-135816795D02*
X174068770Y-135905654D01*
X174068770Y-135905654D02*
X174151249Y-135953273D01*
X174151249Y-135953273D02*
X174298776Y-135983462D01*
X174298776Y-135983462D02*
X175079362Y-135774305D01*
X175079362Y-135774305D02*
X174769838Y-136310415D01*
X173989252Y-136519573D02*
X173995632Y-136413285D01*
X173995632Y-136413285D02*
X173978202Y-136348236D01*
X173978202Y-136348236D02*
X173919533Y-136259378D01*
X173919533Y-136259378D02*
X173878294Y-136235568D01*
X173878294Y-136235568D02*
X173772006Y-136229188D01*
X173772006Y-136229188D02*
X173706957Y-136246618D01*
X173706957Y-136246618D02*
X173618099Y-136305287D01*
X173618099Y-136305287D02*
X173522861Y-136470244D01*
X173522861Y-136470244D02*
X173516481Y-136576533D01*
X173516481Y-136576533D02*
X173533911Y-136641581D01*
X173533911Y-136641581D02*
X173592580Y-136730440D01*
X173592580Y-136730440D02*
X173633819Y-136754249D01*
X173633819Y-136754249D02*
X173740107Y-136760629D01*
X173740107Y-136760629D02*
X173805156Y-136743199D01*
X173805156Y-136743199D02*
X173894014Y-136684530D01*
X173894014Y-136684530D02*
X173989252Y-136519573D01*
X173989252Y-136519573D02*
X174078111Y-136460904D01*
X174078111Y-136460904D02*
X174143160Y-136443474D01*
X174143160Y-136443474D02*
X174249448Y-136449854D01*
X174249448Y-136449854D02*
X174414405Y-136545092D01*
X174414405Y-136545092D02*
X174473074Y-136633950D01*
X174473074Y-136633950D02*
X174490504Y-136698999D01*
X174490504Y-136698999D02*
X174484124Y-136805287D01*
X174484124Y-136805287D02*
X174388886Y-136970244D01*
X174388886Y-136970244D02*
X174300028Y-137028913D01*
X174300028Y-137028913D02*
X174234979Y-137046343D01*
X174234979Y-137046343D02*
X174128691Y-137039964D01*
X174128691Y-137039964D02*
X173963734Y-136944725D01*
X173963734Y-136944725D02*
X173905064Y-136855867D01*
X173905064Y-136855867D02*
X173887635Y-136790818D01*
X173887635Y-136790818D02*
X173894014Y-136684530D01*
X70545711Y-61834819D02*
X70545711Y-60834819D01*
X70545711Y-60834819D02*
X70212378Y-61549104D01*
X70212378Y-61549104D02*
X69879045Y-60834819D01*
X69879045Y-60834819D02*
X69879045Y-61834819D01*
X69498092Y-60834819D02*
X68831426Y-61834819D01*
X68831426Y-60834819D02*
X69498092Y-61834819D01*
X68307616Y-61263390D02*
X68402854Y-61215771D01*
X68402854Y-61215771D02*
X68450473Y-61168152D01*
X68450473Y-61168152D02*
X68498092Y-61072914D01*
X68498092Y-61072914D02*
X68498092Y-61025295D01*
X68498092Y-61025295D02*
X68450473Y-60930057D01*
X68450473Y-60930057D02*
X68402854Y-60882438D01*
X68402854Y-60882438D02*
X68307616Y-60834819D01*
X68307616Y-60834819D02*
X68117140Y-60834819D01*
X68117140Y-60834819D02*
X68021902Y-60882438D01*
X68021902Y-60882438D02*
X67974283Y-60930057D01*
X67974283Y-60930057D02*
X67926664Y-61025295D01*
X67926664Y-61025295D02*
X67926664Y-61072914D01*
X67926664Y-61072914D02*
X67974283Y-61168152D01*
X67974283Y-61168152D02*
X68021902Y-61215771D01*
X68021902Y-61215771D02*
X68117140Y-61263390D01*
X68117140Y-61263390D02*
X68307616Y-61263390D01*
X68307616Y-61263390D02*
X68402854Y-61311009D01*
X68402854Y-61311009D02*
X68450473Y-61358628D01*
X68450473Y-61358628D02*
X68498092Y-61453866D01*
X68498092Y-61453866D02*
X68498092Y-61644342D01*
X68498092Y-61644342D02*
X68450473Y-61739580D01*
X68450473Y-61739580D02*
X68402854Y-61787200D01*
X68402854Y-61787200D02*
X68307616Y-61834819D01*
X68307616Y-61834819D02*
X68117140Y-61834819D01*
X68117140Y-61834819D02*
X68021902Y-61787200D01*
X68021902Y-61787200D02*
X67974283Y-61739580D01*
X67974283Y-61739580D02*
X67926664Y-61644342D01*
X67926664Y-61644342D02*
X67926664Y-61453866D01*
X67926664Y-61453866D02*
X67974283Y-61358628D01*
X67974283Y-61358628D02*
X68021902Y-61311009D01*
X68021902Y-61311009D02*
X68117140Y-61263390D01*
X158334819Y-84603333D02*
X157858628Y-84270000D01*
X158334819Y-84031905D02*
X157334819Y-84031905D01*
X157334819Y-84031905D02*
X157334819Y-84412857D01*
X157334819Y-84412857D02*
X157382438Y-84508095D01*
X157382438Y-84508095D02*
X157430057Y-84555714D01*
X157430057Y-84555714D02*
X157525295Y-84603333D01*
X157525295Y-84603333D02*
X157668152Y-84603333D01*
X157668152Y-84603333D02*
X157763390Y-84555714D01*
X157763390Y-84555714D02*
X157811009Y-84508095D01*
X157811009Y-84508095D02*
X157858628Y-84412857D01*
X157858628Y-84412857D02*
X157858628Y-84031905D01*
X157334819Y-84936667D02*
X157334819Y-85603333D01*
X157334819Y-85603333D02*
X158334819Y-85174762D01*
X55904817Y-101035714D02*
X54904817Y-101035714D01*
X54904817Y-101035714D02*
X54904817Y-101273809D01*
X54904817Y-101273809D02*
X54952436Y-101416666D01*
X54952436Y-101416666D02*
X55047674Y-101511904D01*
X55047674Y-101511904D02*
X55142912Y-101559523D01*
X55142912Y-101559523D02*
X55333388Y-101607142D01*
X55333388Y-101607142D02*
X55476245Y-101607142D01*
X55476245Y-101607142D02*
X55666721Y-101559523D01*
X55666721Y-101559523D02*
X55761959Y-101511904D01*
X55761959Y-101511904D02*
X55857198Y-101416666D01*
X55857198Y-101416666D02*
X55904817Y-101273809D01*
X55904817Y-101273809D02*
X55904817Y-101035714D01*
X55904817Y-102559523D02*
X55904817Y-101988095D01*
X55904817Y-102273809D02*
X54904817Y-102273809D01*
X54904817Y-102273809D02*
X55047674Y-102178571D01*
X55047674Y-102178571D02*
X55142912Y-102083333D01*
X55142912Y-102083333D02*
X55190531Y-101988095D01*
X55904817Y-103035714D02*
X55904817Y-103226190D01*
X55904817Y-103226190D02*
X55857198Y-103321428D01*
X55857198Y-103321428D02*
X55809578Y-103369047D01*
X55809578Y-103369047D02*
X55666721Y-103464285D01*
X55666721Y-103464285D02*
X55476245Y-103511904D01*
X55476245Y-103511904D02*
X55095293Y-103511904D01*
X55095293Y-103511904D02*
X55000055Y-103464285D01*
X55000055Y-103464285D02*
X54952436Y-103416666D01*
X54952436Y-103416666D02*
X54904817Y-103321428D01*
X54904817Y-103321428D02*
X54904817Y-103130952D01*
X54904817Y-103130952D02*
X54952436Y-103035714D01*
X54952436Y-103035714D02*
X55000055Y-102988095D01*
X55000055Y-102988095D02*
X55095293Y-102940476D01*
X55095293Y-102940476D02*
X55333388Y-102940476D01*
X55333388Y-102940476D02*
X55428626Y-102988095D01*
X55428626Y-102988095D02*
X55476245Y-103035714D01*
X55476245Y-103035714D02*
X55523864Y-103130952D01*
X55523864Y-103130952D02*
X55523864Y-103321428D01*
X55523864Y-103321428D02*
X55476245Y-103416666D01*
X55476245Y-103416666D02*
X55428626Y-103464285D01*
X55428626Y-103464285D02*
X55333388Y-103511904D01*
X55904817Y-81985714D02*
X54904817Y-81985714D01*
X54904817Y-81985714D02*
X54904817Y-82223809D01*
X54904817Y-82223809D02*
X54952436Y-82366666D01*
X54952436Y-82366666D02*
X55047674Y-82461904D01*
X55047674Y-82461904D02*
X55142912Y-82509523D01*
X55142912Y-82509523D02*
X55333388Y-82557142D01*
X55333388Y-82557142D02*
X55476245Y-82557142D01*
X55476245Y-82557142D02*
X55666721Y-82509523D01*
X55666721Y-82509523D02*
X55761959Y-82461904D01*
X55761959Y-82461904D02*
X55857198Y-82366666D01*
X55857198Y-82366666D02*
X55904817Y-82223809D01*
X55904817Y-82223809D02*
X55904817Y-81985714D01*
X55904817Y-83509523D02*
X55904817Y-82938095D01*
X55904817Y-83223809D02*
X54904817Y-83223809D01*
X54904817Y-83223809D02*
X55047674Y-83128571D01*
X55047674Y-83128571D02*
X55142912Y-83033333D01*
X55142912Y-83033333D02*
X55190531Y-82938095D01*
X54904817Y-83842857D02*
X54904817Y-84461904D01*
X54904817Y-84461904D02*
X55285769Y-84128571D01*
X55285769Y-84128571D02*
X55285769Y-84271428D01*
X55285769Y-84271428D02*
X55333388Y-84366666D01*
X55333388Y-84366666D02*
X55381007Y-84414285D01*
X55381007Y-84414285D02*
X55476245Y-84461904D01*
X55476245Y-84461904D02*
X55714340Y-84461904D01*
X55714340Y-84461904D02*
X55809578Y-84414285D01*
X55809578Y-84414285D02*
X55857198Y-84366666D01*
X55857198Y-84366666D02*
X55904817Y-84271428D01*
X55904817Y-84271428D02*
X55904817Y-83985714D01*
X55904817Y-83985714D02*
X55857198Y-83890476D01*
X55857198Y-83890476D02*
X55809578Y-83842857D01*
X70545711Y-42784819D02*
X70545711Y-41784819D01*
X70545711Y-41784819D02*
X70212378Y-42499104D01*
X70212378Y-42499104D02*
X69879045Y-41784819D01*
X69879045Y-41784819D02*
X69879045Y-42784819D01*
X69498092Y-41784819D02*
X68831426Y-42784819D01*
X68831426Y-41784819D02*
X69498092Y-42784819D01*
X68498092Y-41880057D02*
X68450473Y-41832438D01*
X68450473Y-41832438D02*
X68355235Y-41784819D01*
X68355235Y-41784819D02*
X68117140Y-41784819D01*
X68117140Y-41784819D02*
X68021902Y-41832438D01*
X68021902Y-41832438D02*
X67974283Y-41880057D01*
X67974283Y-41880057D02*
X67926664Y-41975295D01*
X67926664Y-41975295D02*
X67926664Y-42070533D01*
X67926664Y-42070533D02*
X67974283Y-42213390D01*
X67974283Y-42213390D02*
X68545711Y-42784819D01*
X68545711Y-42784819D02*
X67926664Y-42784819D01*
X74954817Y-44361905D02*
X73954817Y-44361905D01*
X73954817Y-44361905D02*
X73954817Y-44600000D01*
X73954817Y-44600000D02*
X74002436Y-44742857D01*
X74002436Y-44742857D02*
X74097674Y-44838095D01*
X74097674Y-44838095D02*
X74192912Y-44885714D01*
X74192912Y-44885714D02*
X74383388Y-44933333D01*
X74383388Y-44933333D02*
X74526245Y-44933333D01*
X74526245Y-44933333D02*
X74716721Y-44885714D01*
X74716721Y-44885714D02*
X74811959Y-44838095D01*
X74811959Y-44838095D02*
X74907198Y-44742857D01*
X74907198Y-44742857D02*
X74954817Y-44600000D01*
X74954817Y-44600000D02*
X74954817Y-44361905D01*
X74050055Y-45314286D02*
X74002436Y-45361905D01*
X74002436Y-45361905D02*
X73954817Y-45457143D01*
X73954817Y-45457143D02*
X73954817Y-45695238D01*
X73954817Y-45695238D02*
X74002436Y-45790476D01*
X74002436Y-45790476D02*
X74050055Y-45838095D01*
X74050055Y-45838095D02*
X74145293Y-45885714D01*
X74145293Y-45885714D02*
X74240531Y-45885714D01*
X74240531Y-45885714D02*
X74383388Y-45838095D01*
X74383388Y-45838095D02*
X74954817Y-45266667D01*
X74954817Y-45266667D02*
X74954817Y-45885714D01*
X151154817Y-41980655D02*
X150154817Y-41980655D01*
X150154817Y-41980655D02*
X150154817Y-42218750D01*
X150154817Y-42218750D02*
X150202436Y-42361607D01*
X150202436Y-42361607D02*
X150297674Y-42456845D01*
X150297674Y-42456845D02*
X150392912Y-42504464D01*
X150392912Y-42504464D02*
X150583388Y-42552083D01*
X150583388Y-42552083D02*
X150726245Y-42552083D01*
X150726245Y-42552083D02*
X150916721Y-42504464D01*
X150916721Y-42504464D02*
X151011959Y-42456845D01*
X151011959Y-42456845D02*
X151107198Y-42361607D01*
X151107198Y-42361607D02*
X151154817Y-42218750D01*
X151154817Y-42218750D02*
X151154817Y-41980655D01*
X150154817Y-43409226D02*
X150154817Y-43218750D01*
X150154817Y-43218750D02*
X150202436Y-43123512D01*
X150202436Y-43123512D02*
X150250055Y-43075893D01*
X150250055Y-43075893D02*
X150392912Y-42980655D01*
X150392912Y-42980655D02*
X150583388Y-42933036D01*
X150583388Y-42933036D02*
X150964340Y-42933036D01*
X150964340Y-42933036D02*
X151059578Y-42980655D01*
X151059578Y-42980655D02*
X151107198Y-43028274D01*
X151107198Y-43028274D02*
X151154817Y-43123512D01*
X151154817Y-43123512D02*
X151154817Y-43313988D01*
X151154817Y-43313988D02*
X151107198Y-43409226D01*
X151107198Y-43409226D02*
X151059578Y-43456845D01*
X151059578Y-43456845D02*
X150964340Y-43504464D01*
X150964340Y-43504464D02*
X150726245Y-43504464D01*
X150726245Y-43504464D02*
X150631007Y-43456845D01*
X150631007Y-43456845D02*
X150583388Y-43409226D01*
X150583388Y-43409226D02*
X150535769Y-43313988D01*
X150535769Y-43313988D02*
X150535769Y-43123512D01*
X150535769Y-43123512D02*
X150583388Y-43028274D01*
X150583388Y-43028274D02*
X150631007Y-42980655D01*
X150631007Y-42980655D02*
X150726245Y-42933036D01*
X127695711Y-38022319D02*
X127695711Y-37022319D01*
X127695711Y-37022319D02*
X127362378Y-37736604D01*
X127362378Y-37736604D02*
X127029045Y-37022319D01*
X127029045Y-37022319D02*
X127029045Y-38022319D01*
X126648092Y-37022319D02*
X125981426Y-38022319D01*
X125981426Y-37022319D02*
X126648092Y-38022319D01*
X125124283Y-37022319D02*
X125600473Y-37022319D01*
X125600473Y-37022319D02*
X125648092Y-37498509D01*
X125648092Y-37498509D02*
X125600473Y-37450890D01*
X125600473Y-37450890D02*
X125505235Y-37403271D01*
X125505235Y-37403271D02*
X125267140Y-37403271D01*
X125267140Y-37403271D02*
X125171902Y-37450890D01*
X125171902Y-37450890D02*
X125124283Y-37498509D01*
X125124283Y-37498509D02*
X125076664Y-37593747D01*
X125076664Y-37593747D02*
X125076664Y-37831842D01*
X125076664Y-37831842D02*
X125124283Y-37927080D01*
X125124283Y-37927080D02*
X125171902Y-37974700D01*
X125171902Y-37974700D02*
X125267140Y-38022319D01*
X125267140Y-38022319D02*
X125505235Y-38022319D01*
X125505235Y-38022319D02*
X125600473Y-37974700D01*
X125600473Y-37974700D02*
X125648092Y-37927080D01*
X151434819Y-99905714D02*
X150434819Y-99905714D01*
X150434819Y-99905714D02*
X150434819Y-100143809D01*
X150434819Y-100143809D02*
X150482438Y-100286666D01*
X150482438Y-100286666D02*
X150577676Y-100381904D01*
X150577676Y-100381904D02*
X150672914Y-100429523D01*
X150672914Y-100429523D02*
X150863390Y-100477142D01*
X150863390Y-100477142D02*
X151006247Y-100477142D01*
X151006247Y-100477142D02*
X151196723Y-100429523D01*
X151196723Y-100429523D02*
X151291961Y-100381904D01*
X151291961Y-100381904D02*
X151387200Y-100286666D01*
X151387200Y-100286666D02*
X151434819Y-100143809D01*
X151434819Y-100143809D02*
X151434819Y-99905714D01*
X150530057Y-100858095D02*
X150482438Y-100905714D01*
X150482438Y-100905714D02*
X150434819Y-101000952D01*
X150434819Y-101000952D02*
X150434819Y-101239047D01*
X150434819Y-101239047D02*
X150482438Y-101334285D01*
X150482438Y-101334285D02*
X150530057Y-101381904D01*
X150530057Y-101381904D02*
X150625295Y-101429523D01*
X150625295Y-101429523D02*
X150720533Y-101429523D01*
X150720533Y-101429523D02*
X150863390Y-101381904D01*
X150863390Y-101381904D02*
X151434819Y-100810476D01*
X151434819Y-100810476D02*
X151434819Y-101429523D01*
X150768152Y-102286666D02*
X151434819Y-102286666D01*
X150387200Y-102048571D02*
X151101485Y-101810476D01*
X151101485Y-101810476D02*
X151101485Y-102429523D01*
X156034819Y-84577142D02*
X155558628Y-84243809D01*
X156034819Y-84005714D02*
X155034819Y-84005714D01*
X155034819Y-84005714D02*
X155034819Y-84386666D01*
X155034819Y-84386666D02*
X155082438Y-84481904D01*
X155082438Y-84481904D02*
X155130057Y-84529523D01*
X155130057Y-84529523D02*
X155225295Y-84577142D01*
X155225295Y-84577142D02*
X155368152Y-84577142D01*
X155368152Y-84577142D02*
X155463390Y-84529523D01*
X155463390Y-84529523D02*
X155511009Y-84481904D01*
X155511009Y-84481904D02*
X155558628Y-84386666D01*
X155558628Y-84386666D02*
X155558628Y-84005714D01*
X156034819Y-85529523D02*
X156034819Y-84958095D01*
X156034819Y-85243809D02*
X155034819Y-85243809D01*
X155034819Y-85243809D02*
X155177676Y-85148571D01*
X155177676Y-85148571D02*
X155272914Y-85053333D01*
X155272914Y-85053333D02*
X155320533Y-84958095D01*
X155034819Y-85862857D02*
X155034819Y-86481904D01*
X155034819Y-86481904D02*
X155415771Y-86148571D01*
X155415771Y-86148571D02*
X155415771Y-86291428D01*
X155415771Y-86291428D02*
X155463390Y-86386666D01*
X155463390Y-86386666D02*
X155511009Y-86434285D01*
X155511009Y-86434285D02*
X155606247Y-86481904D01*
X155606247Y-86481904D02*
X155844342Y-86481904D01*
X155844342Y-86481904D02*
X155939580Y-86434285D01*
X155939580Y-86434285D02*
X155987200Y-86386666D01*
X155987200Y-86386666D02*
X156034819Y-86291428D01*
X156034819Y-86291428D02*
X156034819Y-86005714D01*
X156034819Y-86005714D02*
X155987200Y-85910476D01*
X155987200Y-85910476D02*
X155939580Y-85862857D01*
D11*
%TO.C,D17*%
X128649998Y-80797500D02*
X128649998Y-76787500D01*
X130649998Y-80797500D02*
X128649998Y-80797500D01*
X130649998Y-80797500D02*
X130649998Y-76787500D01*
D10*
%TO.C,MX7*%
X50824822Y-59459780D02*
X50824822Y-59929780D01*
X50824822Y-56379780D02*
X50824822Y-56609780D01*
X50324822Y-60429780D02*
X45759998Y-60429780D01*
X49274822Y-56379780D02*
X50824822Y-56379780D01*
X41874822Y-56379780D02*
X47774822Y-56379780D01*
X39874822Y-62029780D02*
X39874822Y-62269780D01*
X39874822Y-59179780D02*
X39874822Y-58379780D01*
X50324822Y-60429780D02*
G75*
G03*
X50824822Y-59929780I-1J500001D01*
G01*
X45759998Y-60429781D02*
G75*
G03*
X43465677Y-62269780I-866J-2349331D01*
G01*
X41874822Y-56379780D02*
G75*
G03*
X39874822Y-58379780I4J-2000004D01*
G01*
D11*
%TO.C,C2*%
X171839420Y-64110000D02*
X172120580Y-64110000D01*
X171839420Y-65130000D02*
X172120580Y-65130000D01*
%TO.C,C6*%
X157500000Y-74879420D02*
X157500000Y-75160580D01*
X156480000Y-74879420D02*
X156480000Y-75160580D01*
%TO.C,D1*%
X52449998Y-47460000D02*
X52449998Y-43450000D01*
X54449998Y-47460000D02*
X52449998Y-47460000D01*
X54449998Y-47460000D02*
X54449998Y-43450000D01*
%TO.C,C12*%
X172300000Y-83890580D02*
X172300000Y-83609420D01*
X173320000Y-83890580D02*
X173320000Y-83609420D01*
D10*
%TO.C,MX3*%
X88924822Y-35647280D02*
X88924822Y-36117280D01*
X88924822Y-32567280D02*
X88924822Y-32797280D01*
X88424822Y-36617280D02*
X83859998Y-36617280D01*
X87374822Y-32567280D02*
X88924822Y-32567280D01*
X79974822Y-32567280D02*
X85874822Y-32567280D01*
X77974822Y-38217280D02*
X77974822Y-38457280D01*
X77974822Y-35367280D02*
X77974822Y-34567280D01*
X88424822Y-36617280D02*
G75*
G03*
X88924822Y-36117280I-1J500001D01*
G01*
X83859998Y-36617281D02*
G75*
G03*
X81565677Y-38457280I-866J-2349331D01*
G01*
X79974822Y-32567280D02*
G75*
G03*
X77974822Y-34567280I4J-2000004D01*
G01*
%TO.C,MX11*%
X127024822Y-54697280D02*
X127024822Y-55167280D01*
X127024822Y-51617280D02*
X127024822Y-51847280D01*
X126524822Y-55667280D02*
X121959998Y-55667280D01*
X125474822Y-51617280D02*
X127024822Y-51617280D01*
X118074822Y-51617280D02*
X123974822Y-51617280D01*
X116074822Y-57267280D02*
X116074822Y-57507280D01*
X116074822Y-54417280D02*
X116074822Y-53617280D01*
X126524822Y-55667280D02*
G75*
G03*
X127024822Y-55167280I-1J500001D01*
G01*
X121959998Y-55667281D02*
G75*
G03*
X119665677Y-57507280I-866J-2349331D01*
G01*
X118074822Y-51617280D02*
G75*
G03*
X116074822Y-53617280I4J-2000004D01*
G01*
D11*
%TO.C,R8*%
X163517258Y-98742500D02*
X163042742Y-98742500D01*
X163517258Y-97697500D02*
X163042742Y-97697500D01*
%TO.C,C11*%
X156440000Y-68890580D02*
X156440000Y-68609420D01*
X157460000Y-68890580D02*
X157460000Y-68609420D01*
%TO.C,C13*%
X169745580Y-87860000D02*
X169464420Y-87860000D01*
X169745580Y-86840000D02*
X169464420Y-86840000D01*
D10*
%TO.C,MX1*%
X50824822Y-40409780D02*
X50824822Y-40879780D01*
X50824822Y-37329780D02*
X50824822Y-37559780D01*
X50324822Y-41379780D02*
X45759998Y-41379780D01*
X49274822Y-37329780D02*
X50824822Y-37329780D01*
X41874822Y-37329780D02*
X47774822Y-37329780D01*
X39874822Y-42979780D02*
X39874822Y-43219780D01*
X39874822Y-40129780D02*
X39874822Y-39329780D01*
X50324822Y-41379780D02*
G75*
G03*
X50824822Y-40879780I-1J500001D01*
G01*
X45759998Y-41379781D02*
G75*
G03*
X43465677Y-43219780I-866J-2349331D01*
G01*
X41874822Y-37329780D02*
G75*
G03*
X39874822Y-39329780I4J-2000004D01*
G01*
D11*
%TO.C,D27*%
X150010901Y-125439592D02*
X151048766Y-121566229D01*
X151942753Y-125957230D02*
X150010901Y-125439592D01*
X151942753Y-125957230D02*
X152980617Y-122083867D01*
D10*
%TO.C,MX16*%
X107974822Y-71366030D02*
X107974822Y-71836030D01*
X107974822Y-68286030D02*
X107974822Y-68516030D01*
X107474822Y-72336030D02*
X102909998Y-72336030D01*
X106424822Y-68286030D02*
X107974822Y-68286030D01*
X99024822Y-68286030D02*
X104924822Y-68286030D01*
X97024822Y-73936030D02*
X97024822Y-74176030D01*
X97024822Y-71086030D02*
X97024822Y-70286030D01*
X107474822Y-72336030D02*
G75*
G03*
X107974822Y-71836030I-1J500001D01*
G01*
X102909998Y-72336031D02*
G75*
G03*
X100615677Y-74176030I-866J-2349331D01*
G01*
X99024822Y-68286030D02*
G75*
G03*
X97024822Y-70286030I4J-2000004D01*
G01*
D11*
%TO.C,D3*%
X90549998Y-42697500D02*
X90549998Y-38687500D01*
X92549998Y-42697500D02*
X90549998Y-42697500D01*
X92549998Y-42697500D02*
X92549998Y-38687500D01*
%TO.C,D15*%
X90549998Y-80797500D02*
X90549998Y-76787500D01*
X92549998Y-80797500D02*
X90549998Y-80797500D01*
X92549998Y-80797500D02*
X92549998Y-76787500D01*
D10*
%TO.C,MX14*%
X69874822Y-78509780D02*
X69874822Y-78979780D01*
X69874822Y-75429780D02*
X69874822Y-75659780D01*
X69374822Y-79479780D02*
X64809998Y-79479780D01*
X68324822Y-75429780D02*
X69874822Y-75429780D01*
X60924822Y-75429780D02*
X66824822Y-75429780D01*
X58924822Y-81079780D02*
X58924822Y-81319780D01*
X58924822Y-78229780D02*
X58924822Y-77429780D01*
X69374822Y-79479780D02*
G75*
G03*
X69874822Y-78979780I-1J500001D01*
G01*
X64809998Y-79479781D02*
G75*
G03*
X62515677Y-81319780I-866J-2349331D01*
G01*
X60924822Y-75429780D02*
G75*
G03*
X58924822Y-77429780I4J-2000004D01*
G01*
D11*
%TO.C,C3*%
X171790000Y-78804420D02*
X171790000Y-79085580D01*
X170770000Y-78804420D02*
X170770000Y-79085580D01*
%TO.C,D10*%
X109599998Y-59366250D02*
X109599998Y-55356250D01*
X111599998Y-59366250D02*
X109599998Y-59366250D01*
X111599998Y-59366250D02*
X111599998Y-55356250D01*
D10*
%TO.C,MX9*%
X88924822Y-54697280D02*
X88924822Y-55167280D01*
X88924822Y-51617280D02*
X88924822Y-51847280D01*
X88424822Y-55667280D02*
X83859998Y-55667280D01*
X87374822Y-51617280D02*
X88924822Y-51617280D01*
X79974822Y-51617280D02*
X85874822Y-51617280D01*
X77974822Y-57267280D02*
X77974822Y-57507280D01*
X77974822Y-54417280D02*
X77974822Y-53617280D01*
X88424822Y-55667280D02*
G75*
G03*
X88924822Y-55167280I-1J500001D01*
G01*
X83859998Y-55667281D02*
G75*
G03*
X81565677Y-57507280I-866J-2349331D01*
G01*
X79974822Y-51617280D02*
G75*
G03*
X77974822Y-53617280I4J-2000004D01*
G01*
D11*
%TO.C,D22*%
X109599998Y-97466250D02*
X109599998Y-93456250D01*
X111599998Y-97466250D02*
X109599998Y-97466250D01*
X111599998Y-97466250D02*
X111599998Y-93456250D01*
D10*
%TO.C,MX24*%
X146074822Y-95178530D02*
X146074822Y-95648530D01*
X146074822Y-92098530D02*
X146074822Y-92328530D01*
X145574822Y-96148530D02*
X141009998Y-96148530D01*
X144524822Y-92098530D02*
X146074822Y-92098530D01*
X137124822Y-92098530D02*
X143024822Y-92098530D01*
X135124822Y-97748530D02*
X135124822Y-97988530D01*
X135124822Y-94898530D02*
X135124822Y-94098530D01*
X145574822Y-96148530D02*
G75*
G03*
X146074822Y-95648530I-1J500001D01*
G01*
X141009998Y-96148531D02*
G75*
G03*
X138715677Y-97988530I-866J-2349331D01*
G01*
X137124822Y-92098530D02*
G75*
G03*
X135124822Y-94098530I4J-2000004D01*
G01*
D11*
%TO.C,Y1*%
X167930000Y-85720000D02*
X167930000Y-81720000D01*
X171230000Y-85720000D02*
X167930000Y-85720000D01*
%TO.C,D14*%
X71499998Y-85560000D02*
X71499998Y-81550000D01*
X73499998Y-85560000D02*
X71499998Y-85560000D01*
X73499998Y-85560000D02*
X73499998Y-81550000D01*
%TO.C,D20*%
X71499998Y-104610000D02*
X71499998Y-100600000D01*
X73499998Y-104610000D02*
X71499998Y-104610000D01*
X73499998Y-104610000D02*
X73499998Y-100600000D01*
D10*
%TO.C,MX22*%
X107974822Y-90416030D02*
X107974822Y-90886030D01*
X107974822Y-87336030D02*
X107974822Y-87566030D01*
X107474822Y-91386030D02*
X102909998Y-91386030D01*
X106424822Y-87336030D02*
X107974822Y-87336030D01*
X99024822Y-87336030D02*
X104924822Y-87336030D01*
X97024822Y-92986030D02*
X97024822Y-93226030D01*
X97024822Y-90136030D02*
X97024822Y-89336030D01*
X107474822Y-91386030D02*
G75*
G03*
X107974822Y-90886030I-1J500001D01*
G01*
X102909998Y-91386031D02*
G75*
G03*
X100615677Y-93226030I-866J-2349331D01*
G01*
X99024822Y-87336030D02*
G75*
G03*
X97024822Y-89336030I4J-2000004D01*
G01*
D11*
%TO.C,C4*%
X174290000Y-78804420D02*
X174290000Y-79085580D01*
X173270000Y-78804420D02*
X173270000Y-79085580D01*
D10*
%TO.C,MX21*%
X88924822Y-92797280D02*
X88924822Y-93267280D01*
X88924822Y-89717280D02*
X88924822Y-89947280D01*
X88424822Y-93767280D02*
X83859998Y-93767280D01*
X87374822Y-89717280D02*
X88924822Y-89717280D01*
X79974822Y-89717280D02*
X85874822Y-89717280D01*
X77974822Y-95367280D02*
X77974822Y-95607280D01*
X77974822Y-92517280D02*
X77974822Y-91717280D01*
X88424822Y-93767280D02*
G75*
G03*
X88924822Y-93267280I-1J500001D01*
G01*
X83859998Y-93767281D02*
G75*
G03*
X81565677Y-95607280I-866J-2349331D01*
G01*
X79974822Y-89717280D02*
G75*
G03*
X77974822Y-91717280I4J-2000004D01*
G01*
D11*
%TO.C,R10*%
X163042742Y-93797500D02*
X163517258Y-93797500D01*
X163042742Y-94842500D02*
X163517258Y-94842500D01*
%TO.C,D11*%
X128649998Y-61747500D02*
X128649998Y-57737500D01*
X130649998Y-61747500D02*
X128649998Y-61747500D01*
X130649998Y-61747500D02*
X130649998Y-57737500D01*
D10*
%TO.C,MX13*%
X50824822Y-78509780D02*
X50824822Y-78979780D01*
X50824822Y-75429780D02*
X50824822Y-75659780D01*
X50324822Y-79479780D02*
X45759998Y-79479780D01*
X49274822Y-75429780D02*
X50824822Y-75429780D01*
X41874822Y-75429780D02*
X47774822Y-75429780D01*
X39874822Y-81079780D02*
X39874822Y-81319780D01*
X39874822Y-78229780D02*
X39874822Y-77429780D01*
X50324822Y-79479780D02*
G75*
G03*
X50824822Y-78979780I-1J500001D01*
G01*
X45759998Y-79479781D02*
G75*
G03*
X43465677Y-81319780I-866J-2349331D01*
G01*
X41874822Y-75429780D02*
G75*
G03*
X39874822Y-77429780I4J-2000004D01*
G01*
D11*
%TO.C,D5*%
X128649998Y-42697500D02*
X128649998Y-38687500D01*
X130649998Y-42697500D02*
X128649998Y-42697500D01*
X130649998Y-42697500D02*
X130649998Y-38687500D01*
D10*
%TO.C,MX15*%
X88924822Y-73747280D02*
X88924822Y-74217280D01*
X88924822Y-70667280D02*
X88924822Y-70897280D01*
X88424822Y-74717280D02*
X83859998Y-74717280D01*
X87374822Y-70667280D02*
X88924822Y-70667280D01*
X79974822Y-70667280D02*
X85874822Y-70667280D01*
X77974822Y-76317280D02*
X77974822Y-76557280D01*
X77974822Y-73467280D02*
X77974822Y-72667280D01*
X88424822Y-74717280D02*
G75*
G03*
X88924822Y-74217280I-1J500001D01*
G01*
X83859998Y-74717281D02*
G75*
G03*
X81565677Y-76557280I-866J-2349331D01*
G01*
X79974822Y-70667280D02*
G75*
G03*
X77974822Y-72667280I4J-2000004D01*
G01*
D11*
%TO.C,D12*%
X147699998Y-64128750D02*
X147699998Y-60118750D01*
X149699998Y-64128750D02*
X147699998Y-64128750D01*
X149699998Y-64128750D02*
X149699998Y-60118750D01*
D10*
%TO.C,MX19*%
X50824822Y-97559780D02*
X50824822Y-98029780D01*
X50824822Y-94479780D02*
X50824822Y-94709780D01*
X50324822Y-98529780D02*
X45759998Y-98529780D01*
X49274822Y-94479780D02*
X50824822Y-94479780D01*
X41874822Y-94479780D02*
X47774822Y-94479780D01*
X39874822Y-100129780D02*
X39874822Y-100369780D01*
X39874822Y-97279780D02*
X39874822Y-96479780D01*
X50324822Y-98529780D02*
G75*
G03*
X50824822Y-98029780I-1J500001D01*
G01*
X45759998Y-98529781D02*
G75*
G03*
X43465677Y-100369780I-866J-2349331D01*
G01*
X41874822Y-94479780D02*
G75*
G03*
X39874822Y-96479780I4J-2000004D01*
G01*
D11*
%TO.C,D9*%
X90549998Y-61747500D02*
X90549998Y-57737500D01*
X92549998Y-61747500D02*
X90549998Y-61747500D01*
X92549998Y-61747500D02*
X92549998Y-57737500D01*
D10*
%TO.C,MX17*%
X127024822Y-73747280D02*
X127024822Y-74217280D01*
X127024822Y-70667280D02*
X127024822Y-70897280D01*
X126524822Y-74717280D02*
X121959998Y-74717280D01*
X125474822Y-70667280D02*
X127024822Y-70667280D01*
X118074822Y-70667280D02*
X123974822Y-70667280D01*
X116074822Y-76317280D02*
X116074822Y-76557280D01*
X116074822Y-73467280D02*
X116074822Y-72667280D01*
X126524822Y-74717280D02*
G75*
G03*
X127024822Y-74217280I-1J500001D01*
G01*
X121959998Y-74717281D02*
G75*
G03*
X119665677Y-76557280I-866J-2349331D01*
G01*
X118074822Y-70667280D02*
G75*
G03*
X116074822Y-72667280I4J-2000004D01*
G01*
D11*
%TO.C,C9*%
X162214420Y-57010000D02*
X162495580Y-57010000D01*
X162214420Y-58030000D02*
X162495580Y-58030000D01*
%TO.C,C8*%
X165170000Y-49935580D02*
X165170000Y-49654420D01*
X166190000Y-49935580D02*
X166190000Y-49654420D01*
%TO.C,R12*%
X165787500Y-83967258D02*
X165787500Y-83492742D01*
X166832500Y-83967258D02*
X166832500Y-83492742D01*
%TO.C,D18*%
X147699998Y-83178750D02*
X147699998Y-79168750D01*
X149699998Y-83178750D02*
X147699998Y-83178750D01*
X149699998Y-83178750D02*
X149699998Y-79168750D01*
D10*
%TO.C,MX4*%
X107974822Y-33266030D02*
X107974822Y-33736030D01*
X107974822Y-30186030D02*
X107974822Y-30416030D01*
X107474822Y-34236030D02*
X102909998Y-34236030D01*
X106424822Y-30186030D02*
X107974822Y-30186030D01*
X99024822Y-30186030D02*
X104924822Y-30186030D01*
X97024822Y-35836030D02*
X97024822Y-36076030D01*
X97024822Y-32986030D02*
X97024822Y-32186030D01*
X107474822Y-34236030D02*
G75*
G03*
X107974822Y-33736030I-1J500001D01*
G01*
X102909998Y-34236031D02*
G75*
G03*
X100615677Y-36076030I-866J-2349331D01*
G01*
X99024822Y-30186030D02*
G75*
G03*
X97024822Y-32186030I4J-2000004D01*
G01*
D11*
%TO.C,D29*%
X155500000Y-106385000D02*
X155500000Y-102375000D01*
X157500000Y-106385000D02*
X155500000Y-106385000D01*
X157500000Y-106385000D02*
X157500000Y-102375000D01*
%TO.C,D7*%
X52449998Y-66510000D02*
X52449998Y-62500000D01*
X54449998Y-66510000D02*
X52449998Y-66510000D01*
X54449998Y-66510000D02*
X54449998Y-62500000D01*
D10*
%TO.C,MX20*%
X69874822Y-97559780D02*
X69874822Y-98029780D01*
X69874822Y-94479780D02*
X69874822Y-94709780D01*
X69374822Y-98529780D02*
X64809998Y-98529780D01*
X68324822Y-94479780D02*
X69874822Y-94479780D01*
X60924822Y-94479780D02*
X66824822Y-94479780D01*
X58924822Y-100129780D02*
X58924822Y-100369780D01*
X58924822Y-97279780D02*
X58924822Y-96479780D01*
X69374822Y-98529780D02*
G75*
G03*
X69874822Y-98029780I-1J500001D01*
G01*
X64809998Y-98529781D02*
G75*
G03*
X62515677Y-100369780I-866J-2349331D01*
G01*
X60924822Y-94479780D02*
G75*
G03*
X58924822Y-96479780I4J-2000004D01*
G01*
D11*
%TO.C,D25*%
X109599998Y-116516250D02*
X109599998Y-112506250D01*
X111599998Y-116516250D02*
X109599998Y-116516250D01*
X111599998Y-116516250D02*
X111599998Y-112506250D01*
D10*
%TO.C,MX27*%
X150265833Y-118208976D02*
X150144188Y-118662961D01*
X151062996Y-115233924D02*
X151003467Y-115456087D01*
X149531816Y-119016514D02*
X145122534Y-117835051D01*
X149565811Y-114832755D02*
X151062996Y-115233924D01*
X142417959Y-112917494D02*
X148116922Y-114444526D01*
X139023780Y-117857337D02*
X138961664Y-118089159D01*
X139761415Y-115104448D02*
X139968470Y-114331707D01*
X149531816Y-119016514D02*
G75*
G03*
X150144188Y-118662961I129408J482964D01*
G01*
X145122534Y-117835051D02*
G75*
G03*
X142430162Y-119018540I-608888J-2269056D01*
G01*
X142417959Y-112917494D02*
G75*
G03*
X139968471Y-114331707I-517635J-1931856D01*
G01*
%TO.C,MX10*%
X107974822Y-52316030D02*
X107974822Y-52786030D01*
X107974822Y-49236030D02*
X107974822Y-49466030D01*
X107474822Y-53286030D02*
X102909998Y-53286030D01*
X106424822Y-49236030D02*
X107974822Y-49236030D01*
X99024822Y-49236030D02*
X104924822Y-49236030D01*
X97024822Y-54886030D02*
X97024822Y-55126030D01*
X97024822Y-52036030D02*
X97024822Y-51236030D01*
X107474822Y-53286030D02*
G75*
G03*
X107974822Y-52786030I-1J500001D01*
G01*
X102909998Y-53286031D02*
G75*
G03*
X100615677Y-55126030I-866J-2349331D01*
G01*
X99024822Y-49236030D02*
G75*
G03*
X97024822Y-51236030I4J-2000004D01*
G01*
D11*
%TO.C,D16*%
X109599998Y-78416250D02*
X109599998Y-74406250D01*
X111599998Y-78416250D02*
X109599998Y-78416250D01*
X111599998Y-78416250D02*
X111599998Y-74406250D01*
%TO.C,U2*%
X160070000Y-76630000D02*
X161020000Y-76630000D01*
X169340000Y-76630000D02*
X169340000Y-77970000D01*
X170290000Y-76630000D02*
X169340000Y-76630000D01*
X160070000Y-75680000D02*
X160070000Y-76630000D01*
X170290000Y-75680000D02*
X170290000Y-76630000D01*
X160070000Y-67360000D02*
X160070000Y-66410000D01*
X170290000Y-67360000D02*
X170290000Y-66410000D01*
X160070000Y-66410000D02*
X161020000Y-66410000D01*
X170290000Y-66410000D02*
X169340000Y-66410000D01*
D10*
%TO.C,MX26*%
X127024822Y-111847280D02*
X127024822Y-112317280D01*
X127024822Y-108767280D02*
X127024822Y-108997280D01*
X126524822Y-112817280D02*
X121959998Y-112817280D01*
X125474822Y-108767280D02*
X127024822Y-108767280D01*
X118074822Y-108767280D02*
X123974822Y-108767280D01*
X116074822Y-114417280D02*
X116074822Y-114657280D01*
X116074822Y-111567280D02*
X116074822Y-110767280D01*
X126524822Y-112817280D02*
G75*
G03*
X127024822Y-112317280I-1J500001D01*
G01*
X121959998Y-112817281D02*
G75*
G03*
X119665677Y-114657280I-866J-2349331D01*
G01*
X118074822Y-108767280D02*
G75*
G03*
X116074822Y-110767280I4J-2000004D01*
G01*
D11*
%TO.C,D4*%
X109599998Y-40316250D02*
X109599998Y-36306250D01*
X111599998Y-40316250D02*
X109599998Y-40316250D01*
X111599998Y-40316250D02*
X111599998Y-36306250D01*
%TO.C,R11*%
X166942742Y-93797500D02*
X167417258Y-93797500D01*
X166942742Y-94842500D02*
X167417258Y-94842500D01*
D10*
%TO.C,MX18*%
X146074822Y-76128530D02*
X146074822Y-76598530D01*
X146074822Y-73048530D02*
X146074822Y-73278530D01*
X145574822Y-77098530D02*
X141009998Y-77098530D01*
X144524822Y-73048530D02*
X146074822Y-73048530D01*
X137124822Y-73048530D02*
X143024822Y-73048530D01*
X135124822Y-78698530D02*
X135124822Y-78938530D01*
X135124822Y-75848530D02*
X135124822Y-75048530D01*
X145574822Y-77098530D02*
G75*
G03*
X146074822Y-76598530I-1J500001D01*
G01*
X141009998Y-77098531D02*
G75*
G03*
X138715677Y-78938530I-866J-2349331D01*
G01*
X137124822Y-73048530D02*
G75*
G03*
X135124822Y-75048530I4J-2000004D01*
G01*
D11*
%TO.C,R9*%
X167417258Y-98742500D02*
X166942742Y-98742500D01*
X167417258Y-97697500D02*
X166942742Y-97697500D01*
D10*
%TO.C,MX12*%
X146074822Y-57078530D02*
X146074822Y-57548530D01*
X146074822Y-53998530D02*
X146074822Y-54228530D01*
X145574822Y-58048530D02*
X141009998Y-58048530D01*
X144524822Y-53998530D02*
X146074822Y-53998530D01*
X137124822Y-53998530D02*
X143024822Y-53998530D01*
X135124822Y-59648530D02*
X135124822Y-59888530D01*
X135124822Y-56798530D02*
X135124822Y-55998530D01*
X145574822Y-58048530D02*
G75*
G03*
X146074822Y-57548530I-1J500001D01*
G01*
X141009998Y-58048531D02*
G75*
G03*
X138715677Y-59888530I-866J-2349331D01*
G01*
X137124822Y-53998530D02*
G75*
G03*
X135124822Y-55998530I4J-2000004D01*
G01*
D11*
%TO.C,C1*%
X162214420Y-54910000D02*
X162495580Y-54910000D01*
X162214420Y-55930000D02*
X162495580Y-55930000D01*
%TO.C,C7*%
X161739420Y-79410000D02*
X162020580Y-79410000D01*
X161739420Y-80430000D02*
X162020580Y-80430000D01*
D10*
%TO.C,MX28*%
X172870306Y-129440513D02*
X172635306Y-129847545D01*
X174410306Y-126773155D02*
X174295306Y-126972341D01*
X171952293Y-130030558D02*
X167999040Y-127748146D01*
X173067967Y-125998155D02*
X174410306Y-126773155D01*
X166659379Y-122298155D02*
X171768929Y-125248155D01*
X162102328Y-126191199D02*
X161982328Y-126399045D01*
X163527328Y-123723026D02*
X163927328Y-123030206D01*
X171952294Y-130030557D02*
G75*
G03*
X172635305Y-129847545I249999J433013D01*
G01*
X167999039Y-127748147D02*
G75*
G03*
X165092099Y-128194472I-1175415J-2034147D01*
G01*
X166659379Y-122298156D02*
G75*
G03*
X163927328Y-123030206I-999999J-1732055D01*
G01*
D11*
%TO.C,C5*%
X157920580Y-66130000D02*
X157639420Y-66130000D01*
X157920580Y-65110000D02*
X157639420Y-65110000D01*
%TO.C,D26*%
X128649998Y-118897500D02*
X128649998Y-114887500D01*
X130649998Y-118897500D02*
X128649998Y-118897500D01*
X130649998Y-118897500D02*
X130649998Y-114887500D01*
D10*
%TO.C,MX25*%
X107974822Y-109466030D02*
X107974822Y-109936030D01*
X107974822Y-106386030D02*
X107974822Y-106616030D01*
X107474822Y-110436030D02*
X102909998Y-110436030D01*
X106424822Y-106386030D02*
X107974822Y-106386030D01*
X99024822Y-106386030D02*
X104924822Y-106386030D01*
X97024822Y-112036030D02*
X97024822Y-112276030D01*
X97024822Y-109186030D02*
X97024822Y-108386030D01*
X107474822Y-110436030D02*
G75*
G03*
X107974822Y-109936030I-1J500001D01*
G01*
X102909998Y-110436031D02*
G75*
G03*
X100615677Y-112276030I-866J-2349331D01*
G01*
X99024822Y-106386030D02*
G75*
G03*
X97024822Y-108386030I4J-2000004D01*
G01*
D11*
%TO.C,D21*%
X90549998Y-99847500D02*
X90549998Y-95837500D01*
X92549998Y-99847500D02*
X90549998Y-99847500D01*
X92549998Y-99847500D02*
X92549998Y-95837500D01*
D10*
%TO.C,MX6*%
X146074822Y-38028530D02*
X146074822Y-38498530D01*
X146074822Y-34948530D02*
X146074822Y-35178530D01*
X145574822Y-38998530D02*
X141009998Y-38998530D01*
X144524822Y-34948530D02*
X146074822Y-34948530D01*
X137124822Y-34948530D02*
X143024822Y-34948530D01*
X135124822Y-40598530D02*
X135124822Y-40838530D01*
X135124822Y-37748530D02*
X135124822Y-36948530D01*
X145574822Y-38998530D02*
G75*
G03*
X146074822Y-38498530I-1J500001D01*
G01*
X141009998Y-38998531D02*
G75*
G03*
X138715677Y-40838530I-866J-2349331D01*
G01*
X137124822Y-34948530D02*
G75*
G03*
X135124822Y-36948530I4J-2000004D01*
G01*
D11*
%TO.C,U1*%
X160920000Y-51740000D02*
X160920000Y-52540000D01*
X160920000Y-51740000D02*
X160920000Y-50940000D01*
X164040000Y-51740000D02*
X164040000Y-53540000D01*
X164040000Y-51740000D02*
X164040000Y-50940000D01*
%TO.C,D23*%
X128649998Y-99847500D02*
X128649998Y-95837500D01*
X130649998Y-99847500D02*
X128649998Y-99847500D01*
X130649998Y-99847500D02*
X130649998Y-95837500D01*
%TO.C,D8*%
X71499998Y-66510000D02*
X71499998Y-62500000D01*
X73499998Y-66510000D02*
X71499998Y-66510000D01*
X73499998Y-66510000D02*
X73499998Y-62500000D01*
D10*
%TO.C,MX23*%
X127024822Y-92797280D02*
X127024822Y-93267280D01*
X127024822Y-89717280D02*
X127024822Y-89947280D01*
X126524822Y-93767280D02*
X121959998Y-93767280D01*
X125474822Y-89717280D02*
X127024822Y-89717280D01*
X118074822Y-89717280D02*
X123974822Y-89717280D01*
X116074822Y-95367280D02*
X116074822Y-95607280D01*
X116074822Y-92517280D02*
X116074822Y-91717280D01*
X126524822Y-93767280D02*
G75*
G03*
X127024822Y-93267280I-1J500001D01*
G01*
X121959998Y-93767281D02*
G75*
G03*
X119665677Y-95607280I-866J-2349331D01*
G01*
X118074822Y-89717280D02*
G75*
G03*
X116074822Y-91717280I4J-2000004D01*
G01*
D11*
%TO.C,D28*%
X170752640Y-136358771D02*
X172757640Y-132886009D01*
X172484690Y-137358771D02*
X170752640Y-136358771D01*
X172484690Y-137358771D02*
X174489690Y-133886009D01*
D10*
%TO.C,MX8*%
X69874822Y-59459780D02*
X69874822Y-59929780D01*
X69874822Y-56379780D02*
X69874822Y-56609780D01*
X69374822Y-60429780D02*
X64809998Y-60429780D01*
X68324822Y-56379780D02*
X69874822Y-56379780D01*
X60924822Y-56379780D02*
X66824822Y-56379780D01*
X58924822Y-62029780D02*
X58924822Y-62269780D01*
X58924822Y-59179780D02*
X58924822Y-58379780D01*
X69374822Y-60429780D02*
G75*
G03*
X69874822Y-59929780I-1J500001D01*
G01*
X64809998Y-60429781D02*
G75*
G03*
X62515677Y-62269780I-866J-2349331D01*
G01*
X60924822Y-56379780D02*
G75*
G03*
X58924822Y-58379780I4J-2000004D01*
G01*
D11*
%TO.C,R7*%
X158402500Y-81882742D02*
X158402500Y-82357258D01*
X157357500Y-81882742D02*
X157357500Y-82357258D01*
%TO.C,D19*%
X52449998Y-104610000D02*
X52449998Y-100600000D01*
X54449998Y-104610000D02*
X52449998Y-104610000D01*
X54449998Y-104610000D02*
X54449998Y-100600000D01*
%TO.C,D13*%
X52449998Y-85560000D02*
X52449998Y-81550000D01*
X54449998Y-85560000D02*
X52449998Y-85560000D01*
X54449998Y-85560000D02*
X54449998Y-81550000D01*
D10*
%TO.C,MX2*%
X69874822Y-40409780D02*
X69874822Y-40879780D01*
X69874822Y-37329780D02*
X69874822Y-37559780D01*
X69374822Y-41379780D02*
X64809998Y-41379780D01*
X68324822Y-37329780D02*
X69874822Y-37329780D01*
X60924822Y-37329780D02*
X66824822Y-37329780D01*
X58924822Y-42979780D02*
X58924822Y-43219780D01*
X58924822Y-40129780D02*
X58924822Y-39329780D01*
X69374822Y-41379780D02*
G75*
G03*
X69874822Y-40879780I-1J500001D01*
G01*
X64809998Y-41379781D02*
G75*
G03*
X62515677Y-43219780I-866J-2349331D01*
G01*
X60924822Y-37329780D02*
G75*
G03*
X58924822Y-39329780I4J-2000004D01*
G01*
D11*
%TO.C,D2*%
X71499998Y-47460000D02*
X71499998Y-43450000D01*
X73499998Y-47460000D02*
X71499998Y-47460000D01*
X73499998Y-47460000D02*
X73499998Y-43450000D01*
%TO.C,D6*%
X147699998Y-45078750D02*
X147699998Y-41068750D01*
X149699998Y-45078750D02*
X147699998Y-45078750D01*
X149699998Y-45078750D02*
X149699998Y-41068750D01*
D10*
%TO.C,MX5*%
X127024822Y-35647280D02*
X127024822Y-36117280D01*
X127024822Y-32567280D02*
X127024822Y-32797280D01*
X126524822Y-36617280D02*
X121959998Y-36617280D01*
X125474822Y-32567280D02*
X127024822Y-32567280D01*
X118074822Y-32567280D02*
X123974822Y-32567280D01*
X116074822Y-38217280D02*
X116074822Y-38457280D01*
X116074822Y-35367280D02*
X116074822Y-34567280D01*
X126524822Y-36617280D02*
G75*
G03*
X127024822Y-36117280I-1J500001D01*
G01*
X121959998Y-36617281D02*
G75*
G03*
X119665677Y-38457280I-866J-2349331D01*
G01*
X118074822Y-32567280D02*
G75*
G03*
X116074822Y-34567280I4J-2000004D01*
G01*
D11*
%TO.C,D24*%
X147699998Y-102228750D02*
X147699998Y-98218750D01*
X149699998Y-102228750D02*
X147699998Y-102228750D01*
X149699998Y-102228750D02*
X149699998Y-98218750D01*
%TO.C,R13*%
X155057500Y-82357258D02*
X155057500Y-81882742D01*
X156102500Y-82357258D02*
X156102500Y-81882742D01*
%TD*%
M02*
