%TF.GenerationSoftware,KiCad,Pcbnew,8.0.4*%
%TF.CreationDate,2024-08-15T14:36:39+02:00*%
%TF.ProjectId,pcb-left,7063622d-6c65-4667-942e-6b696361645f,rev?*%
%TF.SameCoordinates,Original*%
%TF.FileFunction,Legend,Bot*%
%TF.FilePolarity,Positive*%
%FSLAX46Y46*%
G04 Gerber Fmt 4.6, Leading zero omitted, Abs format (unit mm)*
G04 Created by KiCad (PCBNEW 8.0.4) date 2024-08-15 14:36:39*
%MOMM*%
%LPD*%
G01*
G04 APERTURE LIST*
%ADD10C,0.150000*%
%ADD11C,0.100000*%
%ADD12C,0.120000*%
G04 APERTURE END LIST*
D10*
X119929818Y-80341964D02*
X118929818Y-80341964D01*
X118929818Y-80341964D02*
X118929818Y-80580059D01*
X118929818Y-80580059D02*
X118977437Y-80722916D01*
X118977437Y-80722916D02*
X119072675Y-80818154D01*
X119072675Y-80818154D02*
X119167913Y-80865773D01*
X119167913Y-80865773D02*
X119358389Y-80913392D01*
X119358389Y-80913392D02*
X119501246Y-80913392D01*
X119501246Y-80913392D02*
X119691722Y-80865773D01*
X119691722Y-80865773D02*
X119786960Y-80818154D01*
X119786960Y-80818154D02*
X119882199Y-80722916D01*
X119882199Y-80722916D02*
X119929818Y-80580059D01*
X119929818Y-80580059D02*
X119929818Y-80341964D01*
X119929818Y-81865773D02*
X119929818Y-81294345D01*
X119929818Y-81580059D02*
X118929818Y-81580059D01*
X118929818Y-81580059D02*
X119072675Y-81484821D01*
X119072675Y-81484821D02*
X119167913Y-81389583D01*
X119167913Y-81389583D02*
X119215532Y-81294345D01*
X118929818Y-82199107D02*
X118929818Y-82865773D01*
X118929818Y-82865773D02*
X119929818Y-82437202D01*
X43635713Y-62998569D02*
X43635713Y-61998569D01*
X43635713Y-61998569D02*
X43302380Y-62712854D01*
X43302380Y-62712854D02*
X42969047Y-61998569D01*
X42969047Y-61998569D02*
X42969047Y-62998569D01*
X42588094Y-61998569D02*
X41921428Y-62998569D01*
X41921428Y-61998569D02*
X42588094Y-62998569D01*
X41635713Y-61998569D02*
X40969047Y-61998569D01*
X40969047Y-61998569D02*
X41397618Y-62998569D01*
X154051190Y-44897378D02*
X154051190Y-45373569D01*
X154384523Y-44373569D02*
X154051190Y-44897378D01*
X154051190Y-44897378D02*
X153717857Y-44373569D01*
X152860714Y-45373569D02*
X153432142Y-45373569D01*
X153146428Y-45373569D02*
X153146428Y-44373569D01*
X153146428Y-44373569D02*
X153241666Y-44516426D01*
X153241666Y-44516426D02*
X153336904Y-44611664D01*
X153336904Y-44611664D02*
X153432142Y-44659283D01*
X43729818Y-47480655D02*
X42729818Y-47480655D01*
X42729818Y-47480655D02*
X42729818Y-47718750D01*
X42729818Y-47718750D02*
X42777437Y-47861607D01*
X42777437Y-47861607D02*
X42872675Y-47956845D01*
X42872675Y-47956845D02*
X42967913Y-48004464D01*
X42967913Y-48004464D02*
X43158389Y-48052083D01*
X43158389Y-48052083D02*
X43301246Y-48052083D01*
X43301246Y-48052083D02*
X43491722Y-48004464D01*
X43491722Y-48004464D02*
X43586960Y-47956845D01*
X43586960Y-47956845D02*
X43682199Y-47861607D01*
X43682199Y-47861607D02*
X43729818Y-47718750D01*
X43729818Y-47718750D02*
X43729818Y-47480655D01*
X43729818Y-49004464D02*
X43729818Y-48433036D01*
X43729818Y-48718750D02*
X42729818Y-48718750D01*
X42729818Y-48718750D02*
X42872675Y-48623512D01*
X42872675Y-48623512D02*
X42967913Y-48528274D01*
X42967913Y-48528274D02*
X43015532Y-48433036D01*
X161404580Y-51052083D02*
X161452200Y-51004464D01*
X161452200Y-51004464D02*
X161499819Y-50861607D01*
X161499819Y-50861607D02*
X161499819Y-50766369D01*
X161499819Y-50766369D02*
X161452200Y-50623512D01*
X161452200Y-50623512D02*
X161356961Y-50528274D01*
X161356961Y-50528274D02*
X161261723Y-50480655D01*
X161261723Y-50480655D02*
X161071247Y-50433036D01*
X161071247Y-50433036D02*
X160928390Y-50433036D01*
X160928390Y-50433036D02*
X160737914Y-50480655D01*
X160737914Y-50480655D02*
X160642676Y-50528274D01*
X160642676Y-50528274D02*
X160547438Y-50623512D01*
X160547438Y-50623512D02*
X160499819Y-50766369D01*
X160499819Y-50766369D02*
X160499819Y-50861607D01*
X160499819Y-50861607D02*
X160547438Y-51004464D01*
X160547438Y-51004464D02*
X160595057Y-51052083D01*
X160499819Y-51385417D02*
X160499819Y-52004464D01*
X160499819Y-52004464D02*
X160880771Y-51671131D01*
X160880771Y-51671131D02*
X160880771Y-51813988D01*
X160880771Y-51813988D02*
X160928390Y-51909226D01*
X160928390Y-51909226D02*
X160976009Y-51956845D01*
X160976009Y-51956845D02*
X161071247Y-52004464D01*
X161071247Y-52004464D02*
X161309342Y-52004464D01*
X161309342Y-52004464D02*
X161404580Y-51956845D01*
X161404580Y-51956845D02*
X161452200Y-51909226D01*
X161452200Y-51909226D02*
X161499819Y-51813988D01*
X161499819Y-51813988D02*
X161499819Y-51528274D01*
X161499819Y-51528274D02*
X161452200Y-51433036D01*
X161452200Y-51433036D02*
X161404580Y-51385417D01*
X81735713Y-39186069D02*
X81735713Y-38186069D01*
X81735713Y-38186069D02*
X81402380Y-38900354D01*
X81402380Y-38900354D02*
X81069047Y-38186069D01*
X81069047Y-38186069D02*
X81069047Y-39186069D01*
X80688094Y-38186069D02*
X80021428Y-39186069D01*
X80021428Y-38186069D02*
X80688094Y-39186069D01*
X79735713Y-38186069D02*
X79116666Y-38186069D01*
X79116666Y-38186069D02*
X79449999Y-38567021D01*
X79449999Y-38567021D02*
X79307142Y-38567021D01*
X79307142Y-38567021D02*
X79211904Y-38614640D01*
X79211904Y-38614640D02*
X79164285Y-38662259D01*
X79164285Y-38662259D02*
X79116666Y-38757497D01*
X79116666Y-38757497D02*
X79116666Y-38995592D01*
X79116666Y-38995592D02*
X79164285Y-39090830D01*
X79164285Y-39090830D02*
X79211904Y-39138450D01*
X79211904Y-39138450D02*
X79307142Y-39186069D01*
X79307142Y-39186069D02*
X79592856Y-39186069D01*
X79592856Y-39186069D02*
X79688094Y-39138450D01*
X79688094Y-39138450D02*
X79735713Y-39090830D01*
X120311904Y-58236069D02*
X120311904Y-57236069D01*
X120311904Y-57236069D02*
X119978571Y-57950354D01*
X119978571Y-57950354D02*
X119645238Y-57236069D01*
X119645238Y-57236069D02*
X119645238Y-58236069D01*
X119264285Y-57236069D02*
X118597619Y-58236069D01*
X118597619Y-57236069D02*
X119264285Y-58236069D01*
X117692857Y-58236069D02*
X118264285Y-58236069D01*
X117978571Y-58236069D02*
X117978571Y-57236069D01*
X117978571Y-57236069D02*
X118073809Y-57378926D01*
X118073809Y-57378926D02*
X118169047Y-57474164D01*
X118169047Y-57474164D02*
X118264285Y-57521783D01*
X116740476Y-58236069D02*
X117311904Y-58236069D01*
X117026190Y-58236069D02*
X117026190Y-57236069D01*
X117026190Y-57236069D02*
X117121428Y-57378926D01*
X117121428Y-57378926D02*
X117216666Y-57474164D01*
X117216666Y-57474164D02*
X117311904Y-57521783D01*
X163329819Y-74552083D02*
X162853628Y-74218750D01*
X163329819Y-73980655D02*
X162329819Y-73980655D01*
X162329819Y-73980655D02*
X162329819Y-74361607D01*
X162329819Y-74361607D02*
X162377438Y-74456845D01*
X162377438Y-74456845D02*
X162425057Y-74504464D01*
X162425057Y-74504464D02*
X162520295Y-74552083D01*
X162520295Y-74552083D02*
X162663152Y-74552083D01*
X162663152Y-74552083D02*
X162758390Y-74504464D01*
X162758390Y-74504464D02*
X162806009Y-74456845D01*
X162806009Y-74456845D02*
X162853628Y-74361607D01*
X162853628Y-74361607D02*
X162853628Y-73980655D01*
X162758390Y-75123512D02*
X162710771Y-75028274D01*
X162710771Y-75028274D02*
X162663152Y-74980655D01*
X162663152Y-74980655D02*
X162567914Y-74933036D01*
X162567914Y-74933036D02*
X162520295Y-74933036D01*
X162520295Y-74933036D02*
X162425057Y-74980655D01*
X162425057Y-74980655D02*
X162377438Y-75028274D01*
X162377438Y-75028274D02*
X162329819Y-75123512D01*
X162329819Y-75123512D02*
X162329819Y-75313988D01*
X162329819Y-75313988D02*
X162377438Y-75409226D01*
X162377438Y-75409226D02*
X162425057Y-75456845D01*
X162425057Y-75456845D02*
X162520295Y-75504464D01*
X162520295Y-75504464D02*
X162567914Y-75504464D01*
X162567914Y-75504464D02*
X162663152Y-75456845D01*
X162663152Y-75456845D02*
X162710771Y-75409226D01*
X162710771Y-75409226D02*
X162758390Y-75313988D01*
X162758390Y-75313988D02*
X162758390Y-75123512D01*
X162758390Y-75123512D02*
X162806009Y-75028274D01*
X162806009Y-75028274D02*
X162853628Y-74980655D01*
X162853628Y-74980655D02*
X162948866Y-74933036D01*
X162948866Y-74933036D02*
X163139342Y-74933036D01*
X163139342Y-74933036D02*
X163234580Y-74980655D01*
X163234580Y-74980655D02*
X163282200Y-75028274D01*
X163282200Y-75028274D02*
X163329819Y-75123512D01*
X163329819Y-75123512D02*
X163329819Y-75313988D01*
X163329819Y-75313988D02*
X163282200Y-75409226D01*
X163282200Y-75409226D02*
X163234580Y-75456845D01*
X163234580Y-75456845D02*
X163139342Y-75504464D01*
X163139342Y-75504464D02*
X162948866Y-75504464D01*
X162948866Y-75504464D02*
X162853628Y-75456845D01*
X162853628Y-75456845D02*
X162806009Y-75409226D01*
X162806009Y-75409226D02*
X162758390Y-75313988D01*
X43635713Y-43948569D02*
X43635713Y-42948569D01*
X43635713Y-42948569D02*
X43302380Y-43662854D01*
X43302380Y-43662854D02*
X42969047Y-42948569D01*
X42969047Y-42948569D02*
X42969047Y-43948569D01*
X42588094Y-42948569D02*
X41921428Y-43948569D01*
X41921428Y-42948569D02*
X42588094Y-43948569D01*
X41016666Y-43948569D02*
X41588094Y-43948569D01*
X41302380Y-43948569D02*
X41302380Y-42948569D01*
X41302380Y-42948569D02*
X41397618Y-43091426D01*
X41397618Y-43091426D02*
X41492856Y-43186664D01*
X41492856Y-43186664D02*
X41588094Y-43234283D01*
X119929818Y-118441964D02*
X118929818Y-118441964D01*
X118929818Y-118441964D02*
X118929818Y-118680059D01*
X118929818Y-118680059D02*
X118977437Y-118822916D01*
X118977437Y-118822916D02*
X119072675Y-118918154D01*
X119072675Y-118918154D02*
X119167913Y-118965773D01*
X119167913Y-118965773D02*
X119358389Y-119013392D01*
X119358389Y-119013392D02*
X119501246Y-119013392D01*
X119501246Y-119013392D02*
X119691722Y-118965773D01*
X119691722Y-118965773D02*
X119786960Y-118918154D01*
X119786960Y-118918154D02*
X119882199Y-118822916D01*
X119882199Y-118822916D02*
X119929818Y-118680059D01*
X119929818Y-118680059D02*
X119929818Y-118441964D01*
X119025056Y-119394345D02*
X118977437Y-119441964D01*
X118977437Y-119441964D02*
X118929818Y-119537202D01*
X118929818Y-119537202D02*
X118929818Y-119775297D01*
X118929818Y-119775297D02*
X118977437Y-119870535D01*
X118977437Y-119870535D02*
X119025056Y-119918154D01*
X119025056Y-119918154D02*
X119120294Y-119965773D01*
X119120294Y-119965773D02*
X119215532Y-119965773D01*
X119215532Y-119965773D02*
X119358389Y-119918154D01*
X119358389Y-119918154D02*
X119929818Y-119346726D01*
X119929818Y-119346726D02*
X119929818Y-119965773D01*
X118929818Y-120299107D02*
X118929818Y-120965773D01*
X118929818Y-120965773D02*
X119929818Y-120537202D01*
X101261904Y-74904819D02*
X101261904Y-73904819D01*
X101261904Y-73904819D02*
X100928571Y-74619104D01*
X100928571Y-74619104D02*
X100595238Y-73904819D01*
X100595238Y-73904819D02*
X100595238Y-74904819D01*
X100214285Y-73904819D02*
X99547619Y-74904819D01*
X99547619Y-73904819D02*
X100214285Y-74904819D01*
X98642857Y-74904819D02*
X99214285Y-74904819D01*
X98928571Y-74904819D02*
X98928571Y-73904819D01*
X98928571Y-73904819D02*
X99023809Y-74047676D01*
X99023809Y-74047676D02*
X99119047Y-74142914D01*
X99119047Y-74142914D02*
X99214285Y-74190533D01*
X97785714Y-73904819D02*
X97976190Y-73904819D01*
X97976190Y-73904819D02*
X98071428Y-73952438D01*
X98071428Y-73952438D02*
X98119047Y-74000057D01*
X98119047Y-74000057D02*
X98214285Y-74142914D01*
X98214285Y-74142914D02*
X98261904Y-74333390D01*
X98261904Y-74333390D02*
X98261904Y-74714342D01*
X98261904Y-74714342D02*
X98214285Y-74809580D01*
X98214285Y-74809580D02*
X98166666Y-74857200D01*
X98166666Y-74857200D02*
X98071428Y-74904819D01*
X98071428Y-74904819D02*
X97880952Y-74904819D01*
X97880952Y-74904819D02*
X97785714Y-74857200D01*
X97785714Y-74857200D02*
X97738095Y-74809580D01*
X97738095Y-74809580D02*
X97690476Y-74714342D01*
X97690476Y-74714342D02*
X97690476Y-74476247D01*
X97690476Y-74476247D02*
X97738095Y-74381009D01*
X97738095Y-74381009D02*
X97785714Y-74333390D01*
X97785714Y-74333390D02*
X97880952Y-74285771D01*
X97880952Y-74285771D02*
X98071428Y-74285771D01*
X98071428Y-74285771D02*
X98166666Y-74333390D01*
X98166666Y-74333390D02*
X98214285Y-74381009D01*
X98214285Y-74381009D02*
X98261904Y-74476247D01*
X81829818Y-42718155D02*
X80829818Y-42718155D01*
X80829818Y-42718155D02*
X80829818Y-42956250D01*
X80829818Y-42956250D02*
X80877437Y-43099107D01*
X80877437Y-43099107D02*
X80972675Y-43194345D01*
X80972675Y-43194345D02*
X81067913Y-43241964D01*
X81067913Y-43241964D02*
X81258389Y-43289583D01*
X81258389Y-43289583D02*
X81401246Y-43289583D01*
X81401246Y-43289583D02*
X81591722Y-43241964D01*
X81591722Y-43241964D02*
X81686960Y-43194345D01*
X81686960Y-43194345D02*
X81782199Y-43099107D01*
X81782199Y-43099107D02*
X81829818Y-42956250D01*
X81829818Y-42956250D02*
X81829818Y-42718155D01*
X80829818Y-43622917D02*
X80829818Y-44241964D01*
X80829818Y-44241964D02*
X81210770Y-43908631D01*
X81210770Y-43908631D02*
X81210770Y-44051488D01*
X81210770Y-44051488D02*
X81258389Y-44146726D01*
X81258389Y-44146726D02*
X81306008Y-44194345D01*
X81306008Y-44194345D02*
X81401246Y-44241964D01*
X81401246Y-44241964D02*
X81639341Y-44241964D01*
X81639341Y-44241964D02*
X81734579Y-44194345D01*
X81734579Y-44194345D02*
X81782199Y-44146726D01*
X81782199Y-44146726D02*
X81829818Y-44051488D01*
X81829818Y-44051488D02*
X81829818Y-43765774D01*
X81829818Y-43765774D02*
X81782199Y-43670536D01*
X81782199Y-43670536D02*
X81734579Y-43622917D01*
X81829818Y-80341964D02*
X80829818Y-80341964D01*
X80829818Y-80341964D02*
X80829818Y-80580059D01*
X80829818Y-80580059D02*
X80877437Y-80722916D01*
X80877437Y-80722916D02*
X80972675Y-80818154D01*
X80972675Y-80818154D02*
X81067913Y-80865773D01*
X81067913Y-80865773D02*
X81258389Y-80913392D01*
X81258389Y-80913392D02*
X81401246Y-80913392D01*
X81401246Y-80913392D02*
X81591722Y-80865773D01*
X81591722Y-80865773D02*
X81686960Y-80818154D01*
X81686960Y-80818154D02*
X81782199Y-80722916D01*
X81782199Y-80722916D02*
X81829818Y-80580059D01*
X81829818Y-80580059D02*
X81829818Y-80341964D01*
X81829818Y-81865773D02*
X81829818Y-81294345D01*
X81829818Y-81580059D02*
X80829818Y-81580059D01*
X80829818Y-81580059D02*
X80972675Y-81484821D01*
X80972675Y-81484821D02*
X81067913Y-81389583D01*
X81067913Y-81389583D02*
X81115532Y-81294345D01*
X80829818Y-82770535D02*
X80829818Y-82294345D01*
X80829818Y-82294345D02*
X81306008Y-82246726D01*
X81306008Y-82246726D02*
X81258389Y-82294345D01*
X81258389Y-82294345D02*
X81210770Y-82389583D01*
X81210770Y-82389583D02*
X81210770Y-82627678D01*
X81210770Y-82627678D02*
X81258389Y-82722916D01*
X81258389Y-82722916D02*
X81306008Y-82770535D01*
X81306008Y-82770535D02*
X81401246Y-82818154D01*
X81401246Y-82818154D02*
X81639341Y-82818154D01*
X81639341Y-82818154D02*
X81734579Y-82770535D01*
X81734579Y-82770535D02*
X81782199Y-82722916D01*
X81782199Y-82722916D02*
X81829818Y-82627678D01*
X81829818Y-82627678D02*
X81829818Y-82389583D01*
X81829818Y-82389583D02*
X81782199Y-82294345D01*
X81782199Y-82294345D02*
X81734579Y-82246726D01*
X148629819Y-58656845D02*
X149439342Y-58656845D01*
X149439342Y-58656845D02*
X149534580Y-58704464D01*
X149534580Y-58704464D02*
X149582200Y-58752083D01*
X149582200Y-58752083D02*
X149629819Y-58847321D01*
X149629819Y-58847321D02*
X149629819Y-59037797D01*
X149629819Y-59037797D02*
X149582200Y-59133035D01*
X149582200Y-59133035D02*
X149534580Y-59180654D01*
X149534580Y-59180654D02*
X149439342Y-59228273D01*
X149439342Y-59228273D02*
X148629819Y-59228273D01*
X148725057Y-59656845D02*
X148677438Y-59704464D01*
X148677438Y-59704464D02*
X148629819Y-59799702D01*
X148629819Y-59799702D02*
X148629819Y-60037797D01*
X148629819Y-60037797D02*
X148677438Y-60133035D01*
X148677438Y-60133035D02*
X148725057Y-60180654D01*
X148725057Y-60180654D02*
X148820295Y-60228273D01*
X148820295Y-60228273D02*
X148915533Y-60228273D01*
X148915533Y-60228273D02*
X149058390Y-60180654D01*
X149058390Y-60180654D02*
X149629819Y-59609226D01*
X149629819Y-59609226D02*
X149629819Y-60228273D01*
X168841666Y-103448330D02*
X168889285Y-103495950D01*
X168889285Y-103495950D02*
X169032142Y-103543569D01*
X169032142Y-103543569D02*
X169127380Y-103543569D01*
X169127380Y-103543569D02*
X169270237Y-103495950D01*
X169270237Y-103495950D02*
X169365475Y-103400711D01*
X169365475Y-103400711D02*
X169413094Y-103305473D01*
X169413094Y-103305473D02*
X169460713Y-103114997D01*
X169460713Y-103114997D02*
X169460713Y-102972140D01*
X169460713Y-102972140D02*
X169413094Y-102781664D01*
X169413094Y-102781664D02*
X169365475Y-102686426D01*
X169365475Y-102686426D02*
X169270237Y-102591188D01*
X169270237Y-102591188D02*
X169127380Y-102543569D01*
X169127380Y-102543569D02*
X169032142Y-102543569D01*
X169032142Y-102543569D02*
X168889285Y-102591188D01*
X168889285Y-102591188D02*
X168841666Y-102638807D01*
X168270237Y-102972140D02*
X168365475Y-102924521D01*
X168365475Y-102924521D02*
X168413094Y-102876902D01*
X168413094Y-102876902D02*
X168460713Y-102781664D01*
X168460713Y-102781664D02*
X168460713Y-102734045D01*
X168460713Y-102734045D02*
X168413094Y-102638807D01*
X168413094Y-102638807D02*
X168365475Y-102591188D01*
X168365475Y-102591188D02*
X168270237Y-102543569D01*
X168270237Y-102543569D02*
X168079761Y-102543569D01*
X168079761Y-102543569D02*
X167984523Y-102591188D01*
X167984523Y-102591188D02*
X167936904Y-102638807D01*
X167936904Y-102638807D02*
X167889285Y-102734045D01*
X167889285Y-102734045D02*
X167889285Y-102781664D01*
X167889285Y-102781664D02*
X167936904Y-102876902D01*
X167936904Y-102876902D02*
X167984523Y-102924521D01*
X167984523Y-102924521D02*
X168079761Y-102972140D01*
X168079761Y-102972140D02*
X168270237Y-102972140D01*
X168270237Y-102972140D02*
X168365475Y-103019759D01*
X168365475Y-103019759D02*
X168413094Y-103067378D01*
X168413094Y-103067378D02*
X168460713Y-103162616D01*
X168460713Y-103162616D02*
X168460713Y-103353092D01*
X168460713Y-103353092D02*
X168413094Y-103448330D01*
X168413094Y-103448330D02*
X168365475Y-103495950D01*
X168365475Y-103495950D02*
X168270237Y-103543569D01*
X168270237Y-103543569D02*
X168079761Y-103543569D01*
X168079761Y-103543569D02*
X167984523Y-103495950D01*
X167984523Y-103495950D02*
X167936904Y-103448330D01*
X167936904Y-103448330D02*
X167889285Y-103353092D01*
X167889285Y-103353092D02*
X167889285Y-103162616D01*
X167889285Y-103162616D02*
X167936904Y-103067378D01*
X167936904Y-103067378D02*
X167984523Y-103019759D01*
X167984523Y-103019759D02*
X168079761Y-102972140D01*
X63161904Y-82048569D02*
X63161904Y-81048569D01*
X63161904Y-81048569D02*
X62828571Y-81762854D01*
X62828571Y-81762854D02*
X62495238Y-81048569D01*
X62495238Y-81048569D02*
X62495238Y-82048569D01*
X62114285Y-81048569D02*
X61447619Y-82048569D01*
X61447619Y-81048569D02*
X62114285Y-82048569D01*
X60542857Y-82048569D02*
X61114285Y-82048569D01*
X60828571Y-82048569D02*
X60828571Y-81048569D01*
X60828571Y-81048569D02*
X60923809Y-81191426D01*
X60923809Y-81191426D02*
X61019047Y-81286664D01*
X61019047Y-81286664D02*
X61114285Y-81334283D01*
X59685714Y-81381902D02*
X59685714Y-82048569D01*
X59923809Y-81000950D02*
X60161904Y-81715235D01*
X60161904Y-81715235D02*
X59542857Y-81715235D01*
X158729819Y-74552083D02*
X158253628Y-74218750D01*
X158729819Y-73980655D02*
X157729819Y-73980655D01*
X157729819Y-73980655D02*
X157729819Y-74361607D01*
X157729819Y-74361607D02*
X157777438Y-74456845D01*
X157777438Y-74456845D02*
X157825057Y-74504464D01*
X157825057Y-74504464D02*
X157920295Y-74552083D01*
X157920295Y-74552083D02*
X158063152Y-74552083D01*
X158063152Y-74552083D02*
X158158390Y-74504464D01*
X158158390Y-74504464D02*
X158206009Y-74456845D01*
X158206009Y-74456845D02*
X158253628Y-74361607D01*
X158253628Y-74361607D02*
X158253628Y-73980655D01*
X157729819Y-74885417D02*
X157729819Y-75504464D01*
X157729819Y-75504464D02*
X158110771Y-75171131D01*
X158110771Y-75171131D02*
X158110771Y-75313988D01*
X158110771Y-75313988D02*
X158158390Y-75409226D01*
X158158390Y-75409226D02*
X158206009Y-75456845D01*
X158206009Y-75456845D02*
X158301247Y-75504464D01*
X158301247Y-75504464D02*
X158539342Y-75504464D01*
X158539342Y-75504464D02*
X158634580Y-75456845D01*
X158634580Y-75456845D02*
X158682200Y-75409226D01*
X158682200Y-75409226D02*
X158729819Y-75313988D01*
X158729819Y-75313988D02*
X158729819Y-75028274D01*
X158729819Y-75028274D02*
X158682200Y-74933036D01*
X158682200Y-74933036D02*
X158634580Y-74885417D01*
X100879818Y-58910714D02*
X99879818Y-58910714D01*
X99879818Y-58910714D02*
X99879818Y-59148809D01*
X99879818Y-59148809D02*
X99927437Y-59291666D01*
X99927437Y-59291666D02*
X100022675Y-59386904D01*
X100022675Y-59386904D02*
X100117913Y-59434523D01*
X100117913Y-59434523D02*
X100308389Y-59482142D01*
X100308389Y-59482142D02*
X100451246Y-59482142D01*
X100451246Y-59482142D02*
X100641722Y-59434523D01*
X100641722Y-59434523D02*
X100736960Y-59386904D01*
X100736960Y-59386904D02*
X100832199Y-59291666D01*
X100832199Y-59291666D02*
X100879818Y-59148809D01*
X100879818Y-59148809D02*
X100879818Y-58910714D01*
X100879818Y-60434523D02*
X100879818Y-59863095D01*
X100879818Y-60148809D02*
X99879818Y-60148809D01*
X99879818Y-60148809D02*
X100022675Y-60053571D01*
X100022675Y-60053571D02*
X100117913Y-59958333D01*
X100117913Y-59958333D02*
X100165532Y-59863095D01*
X99879818Y-61053571D02*
X99879818Y-61148809D01*
X99879818Y-61148809D02*
X99927437Y-61244047D01*
X99927437Y-61244047D02*
X99975056Y-61291666D01*
X99975056Y-61291666D02*
X100070294Y-61339285D01*
X100070294Y-61339285D02*
X100260770Y-61386904D01*
X100260770Y-61386904D02*
X100498865Y-61386904D01*
X100498865Y-61386904D02*
X100689341Y-61339285D01*
X100689341Y-61339285D02*
X100784579Y-61291666D01*
X100784579Y-61291666D02*
X100832199Y-61244047D01*
X100832199Y-61244047D02*
X100879818Y-61148809D01*
X100879818Y-61148809D02*
X100879818Y-61053571D01*
X100879818Y-61053571D02*
X100832199Y-60958333D01*
X100832199Y-60958333D02*
X100784579Y-60910714D01*
X100784579Y-60910714D02*
X100689341Y-60863095D01*
X100689341Y-60863095D02*
X100498865Y-60815476D01*
X100498865Y-60815476D02*
X100260770Y-60815476D01*
X100260770Y-60815476D02*
X100070294Y-60863095D01*
X100070294Y-60863095D02*
X99975056Y-60910714D01*
X99975056Y-60910714D02*
X99927437Y-60958333D01*
X99927437Y-60958333D02*
X99879818Y-61053571D01*
X81735713Y-58236069D02*
X81735713Y-57236069D01*
X81735713Y-57236069D02*
X81402380Y-57950354D01*
X81402380Y-57950354D02*
X81069047Y-57236069D01*
X81069047Y-57236069D02*
X81069047Y-58236069D01*
X80688094Y-57236069D02*
X80021428Y-58236069D01*
X80021428Y-57236069D02*
X80688094Y-58236069D01*
X79592856Y-58236069D02*
X79402380Y-58236069D01*
X79402380Y-58236069D02*
X79307142Y-58188450D01*
X79307142Y-58188450D02*
X79259523Y-58140830D01*
X79259523Y-58140830D02*
X79164285Y-57997973D01*
X79164285Y-57997973D02*
X79116666Y-57807497D01*
X79116666Y-57807497D02*
X79116666Y-57426545D01*
X79116666Y-57426545D02*
X79164285Y-57331307D01*
X79164285Y-57331307D02*
X79211904Y-57283688D01*
X79211904Y-57283688D02*
X79307142Y-57236069D01*
X79307142Y-57236069D02*
X79497618Y-57236069D01*
X79497618Y-57236069D02*
X79592856Y-57283688D01*
X79592856Y-57283688D02*
X79640475Y-57331307D01*
X79640475Y-57331307D02*
X79688094Y-57426545D01*
X79688094Y-57426545D02*
X79688094Y-57664640D01*
X79688094Y-57664640D02*
X79640475Y-57759878D01*
X79640475Y-57759878D02*
X79592856Y-57807497D01*
X79592856Y-57807497D02*
X79497618Y-57855116D01*
X79497618Y-57855116D02*
X79307142Y-57855116D01*
X79307142Y-57855116D02*
X79211904Y-57807497D01*
X79211904Y-57807497D02*
X79164285Y-57759878D01*
X79164285Y-57759878D02*
X79116666Y-57664640D01*
X100879818Y-97010714D02*
X99879818Y-97010714D01*
X99879818Y-97010714D02*
X99879818Y-97248809D01*
X99879818Y-97248809D02*
X99927437Y-97391666D01*
X99927437Y-97391666D02*
X100022675Y-97486904D01*
X100022675Y-97486904D02*
X100117913Y-97534523D01*
X100117913Y-97534523D02*
X100308389Y-97582142D01*
X100308389Y-97582142D02*
X100451246Y-97582142D01*
X100451246Y-97582142D02*
X100641722Y-97534523D01*
X100641722Y-97534523D02*
X100736960Y-97486904D01*
X100736960Y-97486904D02*
X100832199Y-97391666D01*
X100832199Y-97391666D02*
X100879818Y-97248809D01*
X100879818Y-97248809D02*
X100879818Y-97010714D01*
X99975056Y-97963095D02*
X99927437Y-98010714D01*
X99927437Y-98010714D02*
X99879818Y-98105952D01*
X99879818Y-98105952D02*
X99879818Y-98344047D01*
X99879818Y-98344047D02*
X99927437Y-98439285D01*
X99927437Y-98439285D02*
X99975056Y-98486904D01*
X99975056Y-98486904D02*
X100070294Y-98534523D01*
X100070294Y-98534523D02*
X100165532Y-98534523D01*
X100165532Y-98534523D02*
X100308389Y-98486904D01*
X100308389Y-98486904D02*
X100879818Y-97915476D01*
X100879818Y-97915476D02*
X100879818Y-98534523D01*
X99975056Y-98915476D02*
X99927437Y-98963095D01*
X99927437Y-98963095D02*
X99879818Y-99058333D01*
X99879818Y-99058333D02*
X99879818Y-99296428D01*
X99879818Y-99296428D02*
X99927437Y-99391666D01*
X99927437Y-99391666D02*
X99975056Y-99439285D01*
X99975056Y-99439285D02*
X100070294Y-99486904D01*
X100070294Y-99486904D02*
X100165532Y-99486904D01*
X100165532Y-99486904D02*
X100308389Y-99439285D01*
X100308389Y-99439285D02*
X100879818Y-98867857D01*
X100879818Y-98867857D02*
X100879818Y-99486904D01*
X147408333Y-84043569D02*
X147408333Y-84757854D01*
X147408333Y-84757854D02*
X147455952Y-84900711D01*
X147455952Y-84900711D02*
X147551190Y-84995950D01*
X147551190Y-84995950D02*
X147694047Y-85043569D01*
X147694047Y-85043569D02*
X147789285Y-85043569D01*
X146979761Y-84138807D02*
X146932142Y-84091188D01*
X146932142Y-84091188D02*
X146836904Y-84043569D01*
X146836904Y-84043569D02*
X146598809Y-84043569D01*
X146598809Y-84043569D02*
X146503571Y-84091188D01*
X146503571Y-84091188D02*
X146455952Y-84138807D01*
X146455952Y-84138807D02*
X146408333Y-84234045D01*
X146408333Y-84234045D02*
X146408333Y-84329283D01*
X146408333Y-84329283D02*
X146455952Y-84472140D01*
X146455952Y-84472140D02*
X147027380Y-85043569D01*
X147027380Y-85043569D02*
X146408333Y-85043569D01*
X161229819Y-46475892D02*
X160753628Y-46142559D01*
X161229819Y-45904464D02*
X160229819Y-45904464D01*
X160229819Y-45904464D02*
X160229819Y-46285416D01*
X160229819Y-46285416D02*
X160277438Y-46380654D01*
X160277438Y-46380654D02*
X160325057Y-46428273D01*
X160325057Y-46428273D02*
X160420295Y-46475892D01*
X160420295Y-46475892D02*
X160563152Y-46475892D01*
X160563152Y-46475892D02*
X160658390Y-46428273D01*
X160658390Y-46428273D02*
X160706009Y-46380654D01*
X160706009Y-46380654D02*
X160753628Y-46285416D01*
X160753628Y-46285416D02*
X160753628Y-45904464D01*
X161229819Y-47428273D02*
X161229819Y-46856845D01*
X161229819Y-47142559D02*
X160229819Y-47142559D01*
X160229819Y-47142559D02*
X160372676Y-47047321D01*
X160372676Y-47047321D02*
X160467914Y-46952083D01*
X160467914Y-46952083D02*
X160515533Y-46856845D01*
X160229819Y-48047321D02*
X160229819Y-48142559D01*
X160229819Y-48142559D02*
X160277438Y-48237797D01*
X160277438Y-48237797D02*
X160325057Y-48285416D01*
X160325057Y-48285416D02*
X160420295Y-48333035D01*
X160420295Y-48333035D02*
X160610771Y-48380654D01*
X160610771Y-48380654D02*
X160848866Y-48380654D01*
X160848866Y-48380654D02*
X161039342Y-48333035D01*
X161039342Y-48333035D02*
X161134580Y-48285416D01*
X161134580Y-48285416D02*
X161182200Y-48237797D01*
X161182200Y-48237797D02*
X161229819Y-48142559D01*
X161229819Y-48142559D02*
X161229819Y-48047321D01*
X161229819Y-48047321D02*
X161182200Y-47952083D01*
X161182200Y-47952083D02*
X161134580Y-47904464D01*
X161134580Y-47904464D02*
X161039342Y-47856845D01*
X161039342Y-47856845D02*
X160848866Y-47809226D01*
X160848866Y-47809226D02*
X160610771Y-47809226D01*
X160610771Y-47809226D02*
X160420295Y-47856845D01*
X160420295Y-47856845D02*
X160325057Y-47904464D01*
X160325057Y-47904464D02*
X160277438Y-47952083D01*
X160277438Y-47952083D02*
X160229819Y-48047321D01*
X139361904Y-98717319D02*
X139361904Y-97717319D01*
X139361904Y-97717319D02*
X139028571Y-98431604D01*
X139028571Y-98431604D02*
X138695238Y-97717319D01*
X138695238Y-97717319D02*
X138695238Y-98717319D01*
X138314285Y-97717319D02*
X137647619Y-98717319D01*
X137647619Y-97717319D02*
X138314285Y-98717319D01*
X137314285Y-97812557D02*
X137266666Y-97764938D01*
X137266666Y-97764938D02*
X137171428Y-97717319D01*
X137171428Y-97717319D02*
X136933333Y-97717319D01*
X136933333Y-97717319D02*
X136838095Y-97764938D01*
X136838095Y-97764938D02*
X136790476Y-97812557D01*
X136790476Y-97812557D02*
X136742857Y-97907795D01*
X136742857Y-97907795D02*
X136742857Y-98003033D01*
X136742857Y-98003033D02*
X136790476Y-98145890D01*
X136790476Y-98145890D02*
X137361904Y-98717319D01*
X137361904Y-98717319D02*
X136742857Y-98717319D01*
X135885714Y-98050652D02*
X135885714Y-98717319D01*
X136123809Y-97669700D02*
X136361904Y-98383985D01*
X136361904Y-98383985D02*
X135742857Y-98383985D01*
X169129819Y-65052083D02*
X168653628Y-64718750D01*
X169129819Y-64480655D02*
X168129819Y-64480655D01*
X168129819Y-64480655D02*
X168129819Y-64861607D01*
X168129819Y-64861607D02*
X168177438Y-64956845D01*
X168177438Y-64956845D02*
X168225057Y-65004464D01*
X168225057Y-65004464D02*
X168320295Y-65052083D01*
X168320295Y-65052083D02*
X168463152Y-65052083D01*
X168463152Y-65052083D02*
X168558390Y-65004464D01*
X168558390Y-65004464D02*
X168606009Y-64956845D01*
X168606009Y-64956845D02*
X168653628Y-64861607D01*
X168653628Y-64861607D02*
X168653628Y-64480655D01*
X168225057Y-65433036D02*
X168177438Y-65480655D01*
X168177438Y-65480655D02*
X168129819Y-65575893D01*
X168129819Y-65575893D02*
X168129819Y-65813988D01*
X168129819Y-65813988D02*
X168177438Y-65909226D01*
X168177438Y-65909226D02*
X168225057Y-65956845D01*
X168225057Y-65956845D02*
X168320295Y-66004464D01*
X168320295Y-66004464D02*
X168415533Y-66004464D01*
X168415533Y-66004464D02*
X168558390Y-65956845D01*
X168558390Y-65956845D02*
X169129819Y-65385417D01*
X169129819Y-65385417D02*
X169129819Y-66004464D01*
X62779818Y-85104464D02*
X61779818Y-85104464D01*
X61779818Y-85104464D02*
X61779818Y-85342559D01*
X61779818Y-85342559D02*
X61827437Y-85485416D01*
X61827437Y-85485416D02*
X61922675Y-85580654D01*
X61922675Y-85580654D02*
X62017913Y-85628273D01*
X62017913Y-85628273D02*
X62208389Y-85675892D01*
X62208389Y-85675892D02*
X62351246Y-85675892D01*
X62351246Y-85675892D02*
X62541722Y-85628273D01*
X62541722Y-85628273D02*
X62636960Y-85580654D01*
X62636960Y-85580654D02*
X62732199Y-85485416D01*
X62732199Y-85485416D02*
X62779818Y-85342559D01*
X62779818Y-85342559D02*
X62779818Y-85104464D01*
X62779818Y-86628273D02*
X62779818Y-86056845D01*
X62779818Y-86342559D02*
X61779818Y-86342559D01*
X61779818Y-86342559D02*
X61922675Y-86247321D01*
X61922675Y-86247321D02*
X62017913Y-86152083D01*
X62017913Y-86152083D02*
X62065532Y-86056845D01*
X62113151Y-87485416D02*
X62779818Y-87485416D01*
X61732199Y-87247321D02*
X62446484Y-87009226D01*
X62446484Y-87009226D02*
X62446484Y-87628273D01*
X62779818Y-104154464D02*
X61779818Y-104154464D01*
X61779818Y-104154464D02*
X61779818Y-104392559D01*
X61779818Y-104392559D02*
X61827437Y-104535416D01*
X61827437Y-104535416D02*
X61922675Y-104630654D01*
X61922675Y-104630654D02*
X62017913Y-104678273D01*
X62017913Y-104678273D02*
X62208389Y-104725892D01*
X62208389Y-104725892D02*
X62351246Y-104725892D01*
X62351246Y-104725892D02*
X62541722Y-104678273D01*
X62541722Y-104678273D02*
X62636960Y-104630654D01*
X62636960Y-104630654D02*
X62732199Y-104535416D01*
X62732199Y-104535416D02*
X62779818Y-104392559D01*
X62779818Y-104392559D02*
X62779818Y-104154464D01*
X61875056Y-105106845D02*
X61827437Y-105154464D01*
X61827437Y-105154464D02*
X61779818Y-105249702D01*
X61779818Y-105249702D02*
X61779818Y-105487797D01*
X61779818Y-105487797D02*
X61827437Y-105583035D01*
X61827437Y-105583035D02*
X61875056Y-105630654D01*
X61875056Y-105630654D02*
X61970294Y-105678273D01*
X61970294Y-105678273D02*
X62065532Y-105678273D01*
X62065532Y-105678273D02*
X62208389Y-105630654D01*
X62208389Y-105630654D02*
X62779818Y-105059226D01*
X62779818Y-105059226D02*
X62779818Y-105678273D01*
X61779818Y-106297321D02*
X61779818Y-106392559D01*
X61779818Y-106392559D02*
X61827437Y-106487797D01*
X61827437Y-106487797D02*
X61875056Y-106535416D01*
X61875056Y-106535416D02*
X61970294Y-106583035D01*
X61970294Y-106583035D02*
X62160770Y-106630654D01*
X62160770Y-106630654D02*
X62398865Y-106630654D01*
X62398865Y-106630654D02*
X62589341Y-106583035D01*
X62589341Y-106583035D02*
X62684579Y-106535416D01*
X62684579Y-106535416D02*
X62732199Y-106487797D01*
X62732199Y-106487797D02*
X62779818Y-106392559D01*
X62779818Y-106392559D02*
X62779818Y-106297321D01*
X62779818Y-106297321D02*
X62732199Y-106202083D01*
X62732199Y-106202083D02*
X62684579Y-106154464D01*
X62684579Y-106154464D02*
X62589341Y-106106845D01*
X62589341Y-106106845D02*
X62398865Y-106059226D01*
X62398865Y-106059226D02*
X62160770Y-106059226D01*
X62160770Y-106059226D02*
X61970294Y-106106845D01*
X61970294Y-106106845D02*
X61875056Y-106154464D01*
X61875056Y-106154464D02*
X61827437Y-106202083D01*
X61827437Y-106202083D02*
X61779818Y-106297321D01*
X101261904Y-93954819D02*
X101261904Y-92954819D01*
X101261904Y-92954819D02*
X100928571Y-93669104D01*
X100928571Y-93669104D02*
X100595238Y-92954819D01*
X100595238Y-92954819D02*
X100595238Y-93954819D01*
X100214285Y-92954819D02*
X99547619Y-93954819D01*
X99547619Y-92954819D02*
X100214285Y-93954819D01*
X99214285Y-93050057D02*
X99166666Y-93002438D01*
X99166666Y-93002438D02*
X99071428Y-92954819D01*
X99071428Y-92954819D02*
X98833333Y-92954819D01*
X98833333Y-92954819D02*
X98738095Y-93002438D01*
X98738095Y-93002438D02*
X98690476Y-93050057D01*
X98690476Y-93050057D02*
X98642857Y-93145295D01*
X98642857Y-93145295D02*
X98642857Y-93240533D01*
X98642857Y-93240533D02*
X98690476Y-93383390D01*
X98690476Y-93383390D02*
X99261904Y-93954819D01*
X99261904Y-93954819D02*
X98642857Y-93954819D01*
X98261904Y-93050057D02*
X98214285Y-93002438D01*
X98214285Y-93002438D02*
X98119047Y-92954819D01*
X98119047Y-92954819D02*
X97880952Y-92954819D01*
X97880952Y-92954819D02*
X97785714Y-93002438D01*
X97785714Y-93002438D02*
X97738095Y-93050057D01*
X97738095Y-93050057D02*
X97690476Y-93145295D01*
X97690476Y-93145295D02*
X97690476Y-93240533D01*
X97690476Y-93240533D02*
X97738095Y-93383390D01*
X97738095Y-93383390D02*
X98309523Y-93954819D01*
X98309523Y-93954819D02*
X97690476Y-93954819D01*
X82211904Y-96336069D02*
X82211904Y-95336069D01*
X82211904Y-95336069D02*
X81878571Y-96050354D01*
X81878571Y-96050354D02*
X81545238Y-95336069D01*
X81545238Y-95336069D02*
X81545238Y-96336069D01*
X81164285Y-95336069D02*
X80497619Y-96336069D01*
X80497619Y-95336069D02*
X81164285Y-96336069D01*
X80164285Y-95431307D02*
X80116666Y-95383688D01*
X80116666Y-95383688D02*
X80021428Y-95336069D01*
X80021428Y-95336069D02*
X79783333Y-95336069D01*
X79783333Y-95336069D02*
X79688095Y-95383688D01*
X79688095Y-95383688D02*
X79640476Y-95431307D01*
X79640476Y-95431307D02*
X79592857Y-95526545D01*
X79592857Y-95526545D02*
X79592857Y-95621783D01*
X79592857Y-95621783D02*
X79640476Y-95764640D01*
X79640476Y-95764640D02*
X80211904Y-96336069D01*
X80211904Y-96336069D02*
X79592857Y-96336069D01*
X78640476Y-96336069D02*
X79211904Y-96336069D01*
X78926190Y-96336069D02*
X78926190Y-95336069D01*
X78926190Y-95336069D02*
X79021428Y-95478926D01*
X79021428Y-95478926D02*
X79116666Y-95574164D01*
X79116666Y-95574164D02*
X79211904Y-95621783D01*
X119929818Y-61291964D02*
X118929818Y-61291964D01*
X118929818Y-61291964D02*
X118929818Y-61530059D01*
X118929818Y-61530059D02*
X118977437Y-61672916D01*
X118977437Y-61672916D02*
X119072675Y-61768154D01*
X119072675Y-61768154D02*
X119167913Y-61815773D01*
X119167913Y-61815773D02*
X119358389Y-61863392D01*
X119358389Y-61863392D02*
X119501246Y-61863392D01*
X119501246Y-61863392D02*
X119691722Y-61815773D01*
X119691722Y-61815773D02*
X119786960Y-61768154D01*
X119786960Y-61768154D02*
X119882199Y-61672916D01*
X119882199Y-61672916D02*
X119929818Y-61530059D01*
X119929818Y-61530059D02*
X119929818Y-61291964D01*
X119929818Y-62815773D02*
X119929818Y-62244345D01*
X119929818Y-62530059D02*
X118929818Y-62530059D01*
X118929818Y-62530059D02*
X119072675Y-62434821D01*
X119072675Y-62434821D02*
X119167913Y-62339583D01*
X119167913Y-62339583D02*
X119215532Y-62244345D01*
X119929818Y-63768154D02*
X119929818Y-63196726D01*
X119929818Y-63482440D02*
X118929818Y-63482440D01*
X118929818Y-63482440D02*
X119072675Y-63387202D01*
X119072675Y-63387202D02*
X119167913Y-63291964D01*
X119167913Y-63291964D02*
X119215532Y-63196726D01*
X168116666Y-56378330D02*
X168164285Y-56425950D01*
X168164285Y-56425950D02*
X168307142Y-56473569D01*
X168307142Y-56473569D02*
X168402380Y-56473569D01*
X168402380Y-56473569D02*
X168545237Y-56425950D01*
X168545237Y-56425950D02*
X168640475Y-56330711D01*
X168640475Y-56330711D02*
X168688094Y-56235473D01*
X168688094Y-56235473D02*
X168735713Y-56044997D01*
X168735713Y-56044997D02*
X168735713Y-55902140D01*
X168735713Y-55902140D02*
X168688094Y-55711664D01*
X168688094Y-55711664D02*
X168640475Y-55616426D01*
X168640475Y-55616426D02*
X168545237Y-55521188D01*
X168545237Y-55521188D02*
X168402380Y-55473569D01*
X168402380Y-55473569D02*
X168307142Y-55473569D01*
X168307142Y-55473569D02*
X168164285Y-55521188D01*
X168164285Y-55521188D02*
X168116666Y-55568807D01*
X167783332Y-55473569D02*
X167116666Y-55473569D01*
X167116666Y-55473569D02*
X167545237Y-56473569D01*
X44111904Y-82048569D02*
X44111904Y-81048569D01*
X44111904Y-81048569D02*
X43778571Y-81762854D01*
X43778571Y-81762854D02*
X43445238Y-81048569D01*
X43445238Y-81048569D02*
X43445238Y-82048569D01*
X43064285Y-81048569D02*
X42397619Y-82048569D01*
X42397619Y-81048569D02*
X43064285Y-82048569D01*
X41492857Y-82048569D02*
X42064285Y-82048569D01*
X41778571Y-82048569D02*
X41778571Y-81048569D01*
X41778571Y-81048569D02*
X41873809Y-81191426D01*
X41873809Y-81191426D02*
X41969047Y-81286664D01*
X41969047Y-81286664D02*
X42064285Y-81334283D01*
X41159523Y-81048569D02*
X40540476Y-81048569D01*
X40540476Y-81048569D02*
X40873809Y-81429521D01*
X40873809Y-81429521D02*
X40730952Y-81429521D01*
X40730952Y-81429521D02*
X40635714Y-81477140D01*
X40635714Y-81477140D02*
X40588095Y-81524759D01*
X40588095Y-81524759D02*
X40540476Y-81619997D01*
X40540476Y-81619997D02*
X40540476Y-81858092D01*
X40540476Y-81858092D02*
X40588095Y-81953330D01*
X40588095Y-81953330D02*
X40635714Y-82000950D01*
X40635714Y-82000950D02*
X40730952Y-82048569D01*
X40730952Y-82048569D02*
X41016666Y-82048569D01*
X41016666Y-82048569D02*
X41111904Y-82000950D01*
X41111904Y-82000950D02*
X41159523Y-81953330D01*
X119929818Y-42718155D02*
X118929818Y-42718155D01*
X118929818Y-42718155D02*
X118929818Y-42956250D01*
X118929818Y-42956250D02*
X118977437Y-43099107D01*
X118977437Y-43099107D02*
X119072675Y-43194345D01*
X119072675Y-43194345D02*
X119167913Y-43241964D01*
X119167913Y-43241964D02*
X119358389Y-43289583D01*
X119358389Y-43289583D02*
X119501246Y-43289583D01*
X119501246Y-43289583D02*
X119691722Y-43241964D01*
X119691722Y-43241964D02*
X119786960Y-43194345D01*
X119786960Y-43194345D02*
X119882199Y-43099107D01*
X119882199Y-43099107D02*
X119929818Y-42956250D01*
X119929818Y-42956250D02*
X119929818Y-42718155D01*
X118929818Y-44194345D02*
X118929818Y-43718155D01*
X118929818Y-43718155D02*
X119406008Y-43670536D01*
X119406008Y-43670536D02*
X119358389Y-43718155D01*
X119358389Y-43718155D02*
X119310770Y-43813393D01*
X119310770Y-43813393D02*
X119310770Y-44051488D01*
X119310770Y-44051488D02*
X119358389Y-44146726D01*
X119358389Y-44146726D02*
X119406008Y-44194345D01*
X119406008Y-44194345D02*
X119501246Y-44241964D01*
X119501246Y-44241964D02*
X119739341Y-44241964D01*
X119739341Y-44241964D02*
X119834579Y-44194345D01*
X119834579Y-44194345D02*
X119882199Y-44146726D01*
X119882199Y-44146726D02*
X119929818Y-44051488D01*
X119929818Y-44051488D02*
X119929818Y-43813393D01*
X119929818Y-43813393D02*
X119882199Y-43718155D01*
X119882199Y-43718155D02*
X119834579Y-43670536D01*
X82211904Y-77286069D02*
X82211904Y-76286069D01*
X82211904Y-76286069D02*
X81878571Y-77000354D01*
X81878571Y-77000354D02*
X81545238Y-76286069D01*
X81545238Y-76286069D02*
X81545238Y-77286069D01*
X81164285Y-76286069D02*
X80497619Y-77286069D01*
X80497619Y-76286069D02*
X81164285Y-77286069D01*
X79592857Y-77286069D02*
X80164285Y-77286069D01*
X79878571Y-77286069D02*
X79878571Y-76286069D01*
X79878571Y-76286069D02*
X79973809Y-76428926D01*
X79973809Y-76428926D02*
X80069047Y-76524164D01*
X80069047Y-76524164D02*
X80164285Y-76571783D01*
X78688095Y-76286069D02*
X79164285Y-76286069D01*
X79164285Y-76286069D02*
X79211904Y-76762259D01*
X79211904Y-76762259D02*
X79164285Y-76714640D01*
X79164285Y-76714640D02*
X79069047Y-76667021D01*
X79069047Y-76667021D02*
X78830952Y-76667021D01*
X78830952Y-76667021D02*
X78735714Y-76714640D01*
X78735714Y-76714640D02*
X78688095Y-76762259D01*
X78688095Y-76762259D02*
X78640476Y-76857497D01*
X78640476Y-76857497D02*
X78640476Y-77095592D01*
X78640476Y-77095592D02*
X78688095Y-77190830D01*
X78688095Y-77190830D02*
X78735714Y-77238450D01*
X78735714Y-77238450D02*
X78830952Y-77286069D01*
X78830952Y-77286069D02*
X79069047Y-77286069D01*
X79069047Y-77286069D02*
X79164285Y-77238450D01*
X79164285Y-77238450D02*
X79211904Y-77190830D01*
X138979818Y-63673214D02*
X137979818Y-63673214D01*
X137979818Y-63673214D02*
X137979818Y-63911309D01*
X137979818Y-63911309D02*
X138027437Y-64054166D01*
X138027437Y-64054166D02*
X138122675Y-64149404D01*
X138122675Y-64149404D02*
X138217913Y-64197023D01*
X138217913Y-64197023D02*
X138408389Y-64244642D01*
X138408389Y-64244642D02*
X138551246Y-64244642D01*
X138551246Y-64244642D02*
X138741722Y-64197023D01*
X138741722Y-64197023D02*
X138836960Y-64149404D01*
X138836960Y-64149404D02*
X138932199Y-64054166D01*
X138932199Y-64054166D02*
X138979818Y-63911309D01*
X138979818Y-63911309D02*
X138979818Y-63673214D01*
X138979818Y-65197023D02*
X138979818Y-64625595D01*
X138979818Y-64911309D02*
X137979818Y-64911309D01*
X137979818Y-64911309D02*
X138122675Y-64816071D01*
X138122675Y-64816071D02*
X138217913Y-64720833D01*
X138217913Y-64720833D02*
X138265532Y-64625595D01*
X138075056Y-65577976D02*
X138027437Y-65625595D01*
X138027437Y-65625595D02*
X137979818Y-65720833D01*
X137979818Y-65720833D02*
X137979818Y-65958928D01*
X137979818Y-65958928D02*
X138027437Y-66054166D01*
X138027437Y-66054166D02*
X138075056Y-66101785D01*
X138075056Y-66101785D02*
X138170294Y-66149404D01*
X138170294Y-66149404D02*
X138265532Y-66149404D01*
X138265532Y-66149404D02*
X138408389Y-66101785D01*
X138408389Y-66101785D02*
X138979818Y-65530357D01*
X138979818Y-65530357D02*
X138979818Y-66149404D01*
X44111904Y-101098569D02*
X44111904Y-100098569D01*
X44111904Y-100098569D02*
X43778571Y-100812854D01*
X43778571Y-100812854D02*
X43445238Y-100098569D01*
X43445238Y-100098569D02*
X43445238Y-101098569D01*
X43064285Y-100098569D02*
X42397619Y-101098569D01*
X42397619Y-100098569D02*
X43064285Y-101098569D01*
X41492857Y-101098569D02*
X42064285Y-101098569D01*
X41778571Y-101098569D02*
X41778571Y-100098569D01*
X41778571Y-100098569D02*
X41873809Y-100241426D01*
X41873809Y-100241426D02*
X41969047Y-100336664D01*
X41969047Y-100336664D02*
X42064285Y-100384283D01*
X41016666Y-101098569D02*
X40826190Y-101098569D01*
X40826190Y-101098569D02*
X40730952Y-101050950D01*
X40730952Y-101050950D02*
X40683333Y-101003330D01*
X40683333Y-101003330D02*
X40588095Y-100860473D01*
X40588095Y-100860473D02*
X40540476Y-100669997D01*
X40540476Y-100669997D02*
X40540476Y-100289045D01*
X40540476Y-100289045D02*
X40588095Y-100193807D01*
X40588095Y-100193807D02*
X40635714Y-100146188D01*
X40635714Y-100146188D02*
X40730952Y-100098569D01*
X40730952Y-100098569D02*
X40921428Y-100098569D01*
X40921428Y-100098569D02*
X41016666Y-100146188D01*
X41016666Y-100146188D02*
X41064285Y-100193807D01*
X41064285Y-100193807D02*
X41111904Y-100289045D01*
X41111904Y-100289045D02*
X41111904Y-100527140D01*
X41111904Y-100527140D02*
X41064285Y-100622378D01*
X41064285Y-100622378D02*
X41016666Y-100669997D01*
X41016666Y-100669997D02*
X40921428Y-100717616D01*
X40921428Y-100717616D02*
X40730952Y-100717616D01*
X40730952Y-100717616D02*
X40635714Y-100669997D01*
X40635714Y-100669997D02*
X40588095Y-100622378D01*
X40588095Y-100622378D02*
X40540476Y-100527140D01*
X81829818Y-61768155D02*
X80829818Y-61768155D01*
X80829818Y-61768155D02*
X80829818Y-62006250D01*
X80829818Y-62006250D02*
X80877437Y-62149107D01*
X80877437Y-62149107D02*
X80972675Y-62244345D01*
X80972675Y-62244345D02*
X81067913Y-62291964D01*
X81067913Y-62291964D02*
X81258389Y-62339583D01*
X81258389Y-62339583D02*
X81401246Y-62339583D01*
X81401246Y-62339583D02*
X81591722Y-62291964D01*
X81591722Y-62291964D02*
X81686960Y-62244345D01*
X81686960Y-62244345D02*
X81782199Y-62149107D01*
X81782199Y-62149107D02*
X81829818Y-62006250D01*
X81829818Y-62006250D02*
X81829818Y-61768155D01*
X81829818Y-62815774D02*
X81829818Y-63006250D01*
X81829818Y-63006250D02*
X81782199Y-63101488D01*
X81782199Y-63101488D02*
X81734579Y-63149107D01*
X81734579Y-63149107D02*
X81591722Y-63244345D01*
X81591722Y-63244345D02*
X81401246Y-63291964D01*
X81401246Y-63291964D02*
X81020294Y-63291964D01*
X81020294Y-63291964D02*
X80925056Y-63244345D01*
X80925056Y-63244345D02*
X80877437Y-63196726D01*
X80877437Y-63196726D02*
X80829818Y-63101488D01*
X80829818Y-63101488D02*
X80829818Y-62911012D01*
X80829818Y-62911012D02*
X80877437Y-62815774D01*
X80877437Y-62815774D02*
X80925056Y-62768155D01*
X80925056Y-62768155D02*
X81020294Y-62720536D01*
X81020294Y-62720536D02*
X81258389Y-62720536D01*
X81258389Y-62720536D02*
X81353627Y-62768155D01*
X81353627Y-62768155D02*
X81401246Y-62815774D01*
X81401246Y-62815774D02*
X81448865Y-62911012D01*
X81448865Y-62911012D02*
X81448865Y-63101488D01*
X81448865Y-63101488D02*
X81401246Y-63196726D01*
X81401246Y-63196726D02*
X81353627Y-63244345D01*
X81353627Y-63244345D02*
X81258389Y-63291964D01*
X120311904Y-77286069D02*
X120311904Y-76286069D01*
X120311904Y-76286069D02*
X119978571Y-77000354D01*
X119978571Y-77000354D02*
X119645238Y-76286069D01*
X119645238Y-76286069D02*
X119645238Y-77286069D01*
X119264285Y-76286069D02*
X118597619Y-77286069D01*
X118597619Y-76286069D02*
X119264285Y-77286069D01*
X117692857Y-77286069D02*
X118264285Y-77286069D01*
X117978571Y-77286069D02*
X117978571Y-76286069D01*
X117978571Y-76286069D02*
X118073809Y-76428926D01*
X118073809Y-76428926D02*
X118169047Y-76524164D01*
X118169047Y-76524164D02*
X118264285Y-76571783D01*
X117359523Y-76286069D02*
X116692857Y-76286069D01*
X116692857Y-76286069D02*
X117121428Y-77286069D01*
X145608333Y-40943569D02*
X145608333Y-41657854D01*
X145608333Y-41657854D02*
X145655952Y-41800711D01*
X145655952Y-41800711D02*
X145751190Y-41895950D01*
X145751190Y-41895950D02*
X145894047Y-41943569D01*
X145894047Y-41943569D02*
X145989285Y-41943569D01*
X144608333Y-41943569D02*
X145179761Y-41943569D01*
X144894047Y-41943569D02*
X144894047Y-40943569D01*
X144894047Y-40943569D02*
X144989285Y-41086426D01*
X144989285Y-41086426D02*
X145084523Y-41181664D01*
X145084523Y-41181664D02*
X145179761Y-41229283D01*
X156329819Y-74552083D02*
X155853628Y-74218750D01*
X156329819Y-73980655D02*
X155329819Y-73980655D01*
X155329819Y-73980655D02*
X155329819Y-74361607D01*
X155329819Y-74361607D02*
X155377438Y-74456845D01*
X155377438Y-74456845D02*
X155425057Y-74504464D01*
X155425057Y-74504464D02*
X155520295Y-74552083D01*
X155520295Y-74552083D02*
X155663152Y-74552083D01*
X155663152Y-74552083D02*
X155758390Y-74504464D01*
X155758390Y-74504464D02*
X155806009Y-74456845D01*
X155806009Y-74456845D02*
X155853628Y-74361607D01*
X155853628Y-74361607D02*
X155853628Y-73980655D01*
X155329819Y-75456845D02*
X155329819Y-74980655D01*
X155329819Y-74980655D02*
X155806009Y-74933036D01*
X155806009Y-74933036D02*
X155758390Y-74980655D01*
X155758390Y-74980655D02*
X155710771Y-75075893D01*
X155710771Y-75075893D02*
X155710771Y-75313988D01*
X155710771Y-75313988D02*
X155758390Y-75409226D01*
X155758390Y-75409226D02*
X155806009Y-75456845D01*
X155806009Y-75456845D02*
X155901247Y-75504464D01*
X155901247Y-75504464D02*
X156139342Y-75504464D01*
X156139342Y-75504464D02*
X156234580Y-75456845D01*
X156234580Y-75456845D02*
X156282200Y-75409226D01*
X156282200Y-75409226D02*
X156329819Y-75313988D01*
X156329819Y-75313988D02*
X156329819Y-75075893D01*
X156329819Y-75075893D02*
X156282200Y-74980655D01*
X156282200Y-74980655D02*
X156234580Y-74933036D01*
X149404580Y-47275892D02*
X149452200Y-47228273D01*
X149452200Y-47228273D02*
X149499819Y-47085416D01*
X149499819Y-47085416D02*
X149499819Y-46990178D01*
X149499819Y-46990178D02*
X149452200Y-46847321D01*
X149452200Y-46847321D02*
X149356961Y-46752083D01*
X149356961Y-46752083D02*
X149261723Y-46704464D01*
X149261723Y-46704464D02*
X149071247Y-46656845D01*
X149071247Y-46656845D02*
X148928390Y-46656845D01*
X148928390Y-46656845D02*
X148737914Y-46704464D01*
X148737914Y-46704464D02*
X148642676Y-46752083D01*
X148642676Y-46752083D02*
X148547438Y-46847321D01*
X148547438Y-46847321D02*
X148499819Y-46990178D01*
X148499819Y-46990178D02*
X148499819Y-47085416D01*
X148499819Y-47085416D02*
X148547438Y-47228273D01*
X148547438Y-47228273D02*
X148595057Y-47275892D01*
X149499819Y-48228273D02*
X149499819Y-47656845D01*
X149499819Y-47942559D02*
X148499819Y-47942559D01*
X148499819Y-47942559D02*
X148642676Y-47847321D01*
X148642676Y-47847321D02*
X148737914Y-47752083D01*
X148737914Y-47752083D02*
X148785533Y-47656845D01*
X148595057Y-48609226D02*
X148547438Y-48656845D01*
X148547438Y-48656845D02*
X148499819Y-48752083D01*
X148499819Y-48752083D02*
X148499819Y-48990178D01*
X148499819Y-48990178D02*
X148547438Y-49085416D01*
X148547438Y-49085416D02*
X148595057Y-49133035D01*
X148595057Y-49133035D02*
X148690295Y-49180654D01*
X148690295Y-49180654D02*
X148785533Y-49180654D01*
X148785533Y-49180654D02*
X148928390Y-49133035D01*
X148928390Y-49133035D02*
X149499819Y-48561607D01*
X149499819Y-48561607D02*
X149499819Y-49180654D01*
X138979818Y-82723214D02*
X137979818Y-82723214D01*
X137979818Y-82723214D02*
X137979818Y-82961309D01*
X137979818Y-82961309D02*
X138027437Y-83104166D01*
X138027437Y-83104166D02*
X138122675Y-83199404D01*
X138122675Y-83199404D02*
X138217913Y-83247023D01*
X138217913Y-83247023D02*
X138408389Y-83294642D01*
X138408389Y-83294642D02*
X138551246Y-83294642D01*
X138551246Y-83294642D02*
X138741722Y-83247023D01*
X138741722Y-83247023D02*
X138836960Y-83199404D01*
X138836960Y-83199404D02*
X138932199Y-83104166D01*
X138932199Y-83104166D02*
X138979818Y-82961309D01*
X138979818Y-82961309D02*
X138979818Y-82723214D01*
X138979818Y-84247023D02*
X138979818Y-83675595D01*
X138979818Y-83961309D02*
X137979818Y-83961309D01*
X137979818Y-83961309D02*
X138122675Y-83866071D01*
X138122675Y-83866071D02*
X138217913Y-83770833D01*
X138217913Y-83770833D02*
X138265532Y-83675595D01*
X138408389Y-84818452D02*
X138360770Y-84723214D01*
X138360770Y-84723214D02*
X138313151Y-84675595D01*
X138313151Y-84675595D02*
X138217913Y-84627976D01*
X138217913Y-84627976D02*
X138170294Y-84627976D01*
X138170294Y-84627976D02*
X138075056Y-84675595D01*
X138075056Y-84675595D02*
X138027437Y-84723214D01*
X138027437Y-84723214D02*
X137979818Y-84818452D01*
X137979818Y-84818452D02*
X137979818Y-85008928D01*
X137979818Y-85008928D02*
X138027437Y-85104166D01*
X138027437Y-85104166D02*
X138075056Y-85151785D01*
X138075056Y-85151785D02*
X138170294Y-85199404D01*
X138170294Y-85199404D02*
X138217913Y-85199404D01*
X138217913Y-85199404D02*
X138313151Y-85151785D01*
X138313151Y-85151785D02*
X138360770Y-85104166D01*
X138360770Y-85104166D02*
X138408389Y-85008928D01*
X138408389Y-85008928D02*
X138408389Y-84818452D01*
X138408389Y-84818452D02*
X138456008Y-84723214D01*
X138456008Y-84723214D02*
X138503627Y-84675595D01*
X138503627Y-84675595D02*
X138598865Y-84627976D01*
X138598865Y-84627976D02*
X138789341Y-84627976D01*
X138789341Y-84627976D02*
X138884579Y-84675595D01*
X138884579Y-84675595D02*
X138932199Y-84723214D01*
X138932199Y-84723214D02*
X138979818Y-84818452D01*
X138979818Y-84818452D02*
X138979818Y-85008928D01*
X138979818Y-85008928D02*
X138932199Y-85104166D01*
X138932199Y-85104166D02*
X138884579Y-85151785D01*
X138884579Y-85151785D02*
X138789341Y-85199404D01*
X138789341Y-85199404D02*
X138598865Y-85199404D01*
X138598865Y-85199404D02*
X138503627Y-85151785D01*
X138503627Y-85151785D02*
X138456008Y-85104166D01*
X138456008Y-85104166D02*
X138408389Y-85008928D01*
X150741666Y-66648330D02*
X150789285Y-66695950D01*
X150789285Y-66695950D02*
X150932142Y-66743569D01*
X150932142Y-66743569D02*
X151027380Y-66743569D01*
X151027380Y-66743569D02*
X151170237Y-66695950D01*
X151170237Y-66695950D02*
X151265475Y-66600711D01*
X151265475Y-66600711D02*
X151313094Y-66505473D01*
X151313094Y-66505473D02*
X151360713Y-66314997D01*
X151360713Y-66314997D02*
X151360713Y-66172140D01*
X151360713Y-66172140D02*
X151313094Y-65981664D01*
X151313094Y-65981664D02*
X151265475Y-65886426D01*
X151265475Y-65886426D02*
X151170237Y-65791188D01*
X151170237Y-65791188D02*
X151027380Y-65743569D01*
X151027380Y-65743569D02*
X150932142Y-65743569D01*
X150932142Y-65743569D02*
X150789285Y-65791188D01*
X150789285Y-65791188D02*
X150741666Y-65838807D01*
X149884523Y-65743569D02*
X150074999Y-65743569D01*
X150074999Y-65743569D02*
X150170237Y-65791188D01*
X150170237Y-65791188D02*
X150217856Y-65838807D01*
X150217856Y-65838807D02*
X150313094Y-65981664D01*
X150313094Y-65981664D02*
X150360713Y-66172140D01*
X150360713Y-66172140D02*
X150360713Y-66553092D01*
X150360713Y-66553092D02*
X150313094Y-66648330D01*
X150313094Y-66648330D02*
X150265475Y-66695950D01*
X150265475Y-66695950D02*
X150170237Y-66743569D01*
X150170237Y-66743569D02*
X149979761Y-66743569D01*
X149979761Y-66743569D02*
X149884523Y-66695950D01*
X149884523Y-66695950D02*
X149836904Y-66648330D01*
X149836904Y-66648330D02*
X149789285Y-66553092D01*
X149789285Y-66553092D02*
X149789285Y-66314997D01*
X149789285Y-66314997D02*
X149836904Y-66219759D01*
X149836904Y-66219759D02*
X149884523Y-66172140D01*
X149884523Y-66172140D02*
X149979761Y-66124521D01*
X149979761Y-66124521D02*
X150170237Y-66124521D01*
X150170237Y-66124521D02*
X150265475Y-66172140D01*
X150265475Y-66172140D02*
X150313094Y-66219759D01*
X150313094Y-66219759D02*
X150360713Y-66314997D01*
X164232200Y-109035417D02*
X164279819Y-109178274D01*
X164279819Y-109178274D02*
X164279819Y-109416369D01*
X164279819Y-109416369D02*
X164232200Y-109511607D01*
X164232200Y-109511607D02*
X164184580Y-109559226D01*
X164184580Y-109559226D02*
X164089342Y-109606845D01*
X164089342Y-109606845D02*
X163994104Y-109606845D01*
X163994104Y-109606845D02*
X163898866Y-109559226D01*
X163898866Y-109559226D02*
X163851247Y-109511607D01*
X163851247Y-109511607D02*
X163803628Y-109416369D01*
X163803628Y-109416369D02*
X163756009Y-109225893D01*
X163756009Y-109225893D02*
X163708390Y-109130655D01*
X163708390Y-109130655D02*
X163660771Y-109083036D01*
X163660771Y-109083036D02*
X163565533Y-109035417D01*
X163565533Y-109035417D02*
X163470295Y-109035417D01*
X163470295Y-109035417D02*
X163375057Y-109083036D01*
X163375057Y-109083036D02*
X163327438Y-109130655D01*
X163327438Y-109130655D02*
X163279819Y-109225893D01*
X163279819Y-109225893D02*
X163279819Y-109463988D01*
X163279819Y-109463988D02*
X163327438Y-109606845D01*
X163279819Y-109940179D02*
X164279819Y-110178274D01*
X164279819Y-110178274D02*
X163565533Y-110368750D01*
X163565533Y-110368750D02*
X164279819Y-110559226D01*
X164279819Y-110559226D02*
X163279819Y-110797322D01*
X164279819Y-111702083D02*
X164279819Y-111130655D01*
X164279819Y-111416369D02*
X163279819Y-111416369D01*
X163279819Y-111416369D02*
X163422676Y-111321131D01*
X163422676Y-111321131D02*
X163517914Y-111225893D01*
X163517914Y-111225893D02*
X163565533Y-111130655D01*
X100785713Y-36804819D02*
X100785713Y-35804819D01*
X100785713Y-35804819D02*
X100452380Y-36519104D01*
X100452380Y-36519104D02*
X100119047Y-35804819D01*
X100119047Y-35804819D02*
X100119047Y-36804819D01*
X99738094Y-35804819D02*
X99071428Y-36804819D01*
X99071428Y-35804819D02*
X99738094Y-36804819D01*
X98261904Y-36138152D02*
X98261904Y-36804819D01*
X98499999Y-35757200D02*
X98738094Y-36471485D01*
X98738094Y-36471485D02*
X98119047Y-36471485D01*
X43729818Y-66530655D02*
X42729818Y-66530655D01*
X42729818Y-66530655D02*
X42729818Y-66768750D01*
X42729818Y-66768750D02*
X42777437Y-66911607D01*
X42777437Y-66911607D02*
X42872675Y-67006845D01*
X42872675Y-67006845D02*
X42967913Y-67054464D01*
X42967913Y-67054464D02*
X43158389Y-67102083D01*
X43158389Y-67102083D02*
X43301246Y-67102083D01*
X43301246Y-67102083D02*
X43491722Y-67054464D01*
X43491722Y-67054464D02*
X43586960Y-67006845D01*
X43586960Y-67006845D02*
X43682199Y-66911607D01*
X43682199Y-66911607D02*
X43729818Y-66768750D01*
X43729818Y-66768750D02*
X43729818Y-66530655D01*
X42729818Y-67435417D02*
X42729818Y-68102083D01*
X42729818Y-68102083D02*
X43729818Y-67673512D01*
X163276372Y-130375016D02*
X162410347Y-129875016D01*
X162410347Y-129875016D02*
X162291299Y-130081212D01*
X162291299Y-130081212D02*
X162261110Y-130228740D01*
X162261110Y-130228740D02*
X162295970Y-130358837D01*
X162295970Y-130358837D02*
X162354639Y-130447696D01*
X162354639Y-130447696D02*
X162495786Y-130584173D01*
X162495786Y-130584173D02*
X162619504Y-130655602D01*
X162619504Y-130655602D02*
X162808271Y-130709600D01*
X162808271Y-130709600D02*
X162914559Y-130715980D01*
X162914559Y-130715980D02*
X163044657Y-130681121D01*
X163044657Y-130681121D02*
X163157325Y-130581212D01*
X163157325Y-130581212D02*
X163276372Y-130375016D01*
X162016635Y-130747421D02*
X161951586Y-130764851D01*
X161951586Y-130764851D02*
X161862728Y-130823520D01*
X161862728Y-130823520D02*
X161743680Y-131029716D01*
X161743680Y-131029716D02*
X161737300Y-131136004D01*
X161737300Y-131136004D02*
X161754730Y-131201053D01*
X161754730Y-131201053D02*
X161813399Y-131289912D01*
X161813399Y-131289912D02*
X161895878Y-131337531D01*
X161895878Y-131337531D02*
X162043405Y-131367720D01*
X162043405Y-131367720D02*
X162823991Y-131158563D01*
X162823991Y-131158563D02*
X162514467Y-131694673D01*
X162276372Y-132107067D02*
X162181134Y-132272024D01*
X162181134Y-132272024D02*
X162092276Y-132330693D01*
X162092276Y-132330693D02*
X162027227Y-132348123D01*
X162027227Y-132348123D02*
X161855890Y-132359173D01*
X161855890Y-132359173D02*
X161667123Y-132305174D01*
X161667123Y-132305174D02*
X161337209Y-132114698D01*
X161337209Y-132114698D02*
X161278540Y-132025839D01*
X161278540Y-132025839D02*
X161261110Y-131960791D01*
X161261110Y-131960791D02*
X161267490Y-131854502D01*
X161267490Y-131854502D02*
X161362728Y-131689545D01*
X161362728Y-131689545D02*
X161451586Y-131630876D01*
X161451586Y-131630876D02*
X161516635Y-131613446D01*
X161516635Y-131613446D02*
X161622923Y-131619826D01*
X161622923Y-131619826D02*
X161829120Y-131738874D01*
X161829120Y-131738874D02*
X161887789Y-131827732D01*
X161887789Y-131827732D02*
X161905218Y-131892781D01*
X161905218Y-131892781D02*
X161898839Y-131999069D01*
X161898839Y-131999069D02*
X161803601Y-132164026D01*
X161803601Y-132164026D02*
X161714742Y-132222695D01*
X161714742Y-132222695D02*
X161649693Y-132240125D01*
X161649693Y-132240125D02*
X161543405Y-132233745D01*
X163941666Y-66078330D02*
X163989285Y-66125950D01*
X163989285Y-66125950D02*
X164132142Y-66173569D01*
X164132142Y-66173569D02*
X164227380Y-66173569D01*
X164227380Y-66173569D02*
X164370237Y-66125950D01*
X164370237Y-66125950D02*
X164465475Y-66030711D01*
X164465475Y-66030711D02*
X164513094Y-65935473D01*
X164513094Y-65935473D02*
X164560713Y-65744997D01*
X164560713Y-65744997D02*
X164560713Y-65602140D01*
X164560713Y-65602140D02*
X164513094Y-65411664D01*
X164513094Y-65411664D02*
X164465475Y-65316426D01*
X164465475Y-65316426D02*
X164370237Y-65221188D01*
X164370237Y-65221188D02*
X164227380Y-65173569D01*
X164227380Y-65173569D02*
X164132142Y-65173569D01*
X164132142Y-65173569D02*
X163989285Y-65221188D01*
X163989285Y-65221188D02*
X163941666Y-65268807D01*
X163560713Y-65268807D02*
X163513094Y-65221188D01*
X163513094Y-65221188D02*
X163417856Y-65173569D01*
X163417856Y-65173569D02*
X163179761Y-65173569D01*
X163179761Y-65173569D02*
X163084523Y-65221188D01*
X163084523Y-65221188D02*
X163036904Y-65268807D01*
X163036904Y-65268807D02*
X162989285Y-65364045D01*
X162989285Y-65364045D02*
X162989285Y-65459283D01*
X162989285Y-65459283D02*
X163036904Y-65602140D01*
X163036904Y-65602140D02*
X163608332Y-66173569D01*
X163608332Y-66173569D02*
X162989285Y-66173569D01*
X63161904Y-101098569D02*
X63161904Y-100098569D01*
X63161904Y-100098569D02*
X62828571Y-100812854D01*
X62828571Y-100812854D02*
X62495238Y-100098569D01*
X62495238Y-100098569D02*
X62495238Y-101098569D01*
X62114285Y-100098569D02*
X61447619Y-101098569D01*
X61447619Y-100098569D02*
X62114285Y-101098569D01*
X61114285Y-100193807D02*
X61066666Y-100146188D01*
X61066666Y-100146188D02*
X60971428Y-100098569D01*
X60971428Y-100098569D02*
X60733333Y-100098569D01*
X60733333Y-100098569D02*
X60638095Y-100146188D01*
X60638095Y-100146188D02*
X60590476Y-100193807D01*
X60590476Y-100193807D02*
X60542857Y-100289045D01*
X60542857Y-100289045D02*
X60542857Y-100384283D01*
X60542857Y-100384283D02*
X60590476Y-100527140D01*
X60590476Y-100527140D02*
X61161904Y-101098569D01*
X61161904Y-101098569D02*
X60542857Y-101098569D01*
X59923809Y-100098569D02*
X59828571Y-100098569D01*
X59828571Y-100098569D02*
X59733333Y-100146188D01*
X59733333Y-100146188D02*
X59685714Y-100193807D01*
X59685714Y-100193807D02*
X59638095Y-100289045D01*
X59638095Y-100289045D02*
X59590476Y-100479521D01*
X59590476Y-100479521D02*
X59590476Y-100717616D01*
X59590476Y-100717616D02*
X59638095Y-100908092D01*
X59638095Y-100908092D02*
X59685714Y-101003330D01*
X59685714Y-101003330D02*
X59733333Y-101050950D01*
X59733333Y-101050950D02*
X59828571Y-101098569D01*
X59828571Y-101098569D02*
X59923809Y-101098569D01*
X59923809Y-101098569D02*
X60019047Y-101050950D01*
X60019047Y-101050950D02*
X60066666Y-101003330D01*
X60066666Y-101003330D02*
X60114285Y-100908092D01*
X60114285Y-100908092D02*
X60161904Y-100717616D01*
X60161904Y-100717616D02*
X60161904Y-100479521D01*
X60161904Y-100479521D02*
X60114285Y-100289045D01*
X60114285Y-100289045D02*
X60066666Y-100193807D01*
X60066666Y-100193807D02*
X60019047Y-100146188D01*
X60019047Y-100146188D02*
X59923809Y-100098569D01*
X81829818Y-118441964D02*
X80829818Y-118441964D01*
X80829818Y-118441964D02*
X80829818Y-118680059D01*
X80829818Y-118680059D02*
X80877437Y-118822916D01*
X80877437Y-118822916D02*
X80972675Y-118918154D01*
X80972675Y-118918154D02*
X81067913Y-118965773D01*
X81067913Y-118965773D02*
X81258389Y-119013392D01*
X81258389Y-119013392D02*
X81401246Y-119013392D01*
X81401246Y-119013392D02*
X81591722Y-118965773D01*
X81591722Y-118965773D02*
X81686960Y-118918154D01*
X81686960Y-118918154D02*
X81782199Y-118822916D01*
X81782199Y-118822916D02*
X81829818Y-118680059D01*
X81829818Y-118680059D02*
X81829818Y-118441964D01*
X80925056Y-119394345D02*
X80877437Y-119441964D01*
X80877437Y-119441964D02*
X80829818Y-119537202D01*
X80829818Y-119537202D02*
X80829818Y-119775297D01*
X80829818Y-119775297D02*
X80877437Y-119870535D01*
X80877437Y-119870535D02*
X80925056Y-119918154D01*
X80925056Y-119918154D02*
X81020294Y-119965773D01*
X81020294Y-119965773D02*
X81115532Y-119965773D01*
X81115532Y-119965773D02*
X81258389Y-119918154D01*
X81258389Y-119918154D02*
X81829818Y-119346726D01*
X81829818Y-119346726D02*
X81829818Y-119965773D01*
X80829818Y-120870535D02*
X80829818Y-120394345D01*
X80829818Y-120394345D02*
X81306008Y-120346726D01*
X81306008Y-120346726D02*
X81258389Y-120394345D01*
X81258389Y-120394345D02*
X81210770Y-120489583D01*
X81210770Y-120489583D02*
X81210770Y-120727678D01*
X81210770Y-120727678D02*
X81258389Y-120822916D01*
X81258389Y-120822916D02*
X81306008Y-120870535D01*
X81306008Y-120870535D02*
X81401246Y-120918154D01*
X81401246Y-120918154D02*
X81639341Y-120918154D01*
X81639341Y-120918154D02*
X81734579Y-120870535D01*
X81734579Y-120870535D02*
X81782199Y-120822916D01*
X81782199Y-120822916D02*
X81829818Y-120727678D01*
X81829818Y-120727678D02*
X81829818Y-120489583D01*
X81829818Y-120489583D02*
X81782199Y-120394345D01*
X81782199Y-120394345D02*
X81734579Y-120346726D01*
X120311904Y-115386069D02*
X120311904Y-114386069D01*
X120311904Y-114386069D02*
X119978571Y-115100354D01*
X119978571Y-115100354D02*
X119645238Y-114386069D01*
X119645238Y-114386069D02*
X119645238Y-115386069D01*
X119264285Y-114386069D02*
X118597619Y-115386069D01*
X118597619Y-114386069D02*
X119264285Y-115386069D01*
X118264285Y-114481307D02*
X118216666Y-114433688D01*
X118216666Y-114433688D02*
X118121428Y-114386069D01*
X118121428Y-114386069D02*
X117883333Y-114386069D01*
X117883333Y-114386069D02*
X117788095Y-114433688D01*
X117788095Y-114433688D02*
X117740476Y-114481307D01*
X117740476Y-114481307D02*
X117692857Y-114576545D01*
X117692857Y-114576545D02*
X117692857Y-114671783D01*
X117692857Y-114671783D02*
X117740476Y-114814640D01*
X117740476Y-114814640D02*
X118311904Y-115386069D01*
X118311904Y-115386069D02*
X117692857Y-115386069D01*
X117359523Y-114386069D02*
X116692857Y-114386069D01*
X116692857Y-114386069D02*
X117121428Y-115386069D01*
X101261904Y-55854819D02*
X101261904Y-54854819D01*
X101261904Y-54854819D02*
X100928571Y-55569104D01*
X100928571Y-55569104D02*
X100595238Y-54854819D01*
X100595238Y-54854819D02*
X100595238Y-55854819D01*
X100214285Y-54854819D02*
X99547619Y-55854819D01*
X99547619Y-54854819D02*
X100214285Y-55854819D01*
X98642857Y-55854819D02*
X99214285Y-55854819D01*
X98928571Y-55854819D02*
X98928571Y-54854819D01*
X98928571Y-54854819D02*
X99023809Y-54997676D01*
X99023809Y-54997676D02*
X99119047Y-55092914D01*
X99119047Y-55092914D02*
X99214285Y-55140533D01*
X98023809Y-54854819D02*
X97928571Y-54854819D01*
X97928571Y-54854819D02*
X97833333Y-54902438D01*
X97833333Y-54902438D02*
X97785714Y-54950057D01*
X97785714Y-54950057D02*
X97738095Y-55045295D01*
X97738095Y-55045295D02*
X97690476Y-55235771D01*
X97690476Y-55235771D02*
X97690476Y-55473866D01*
X97690476Y-55473866D02*
X97738095Y-55664342D01*
X97738095Y-55664342D02*
X97785714Y-55759580D01*
X97785714Y-55759580D02*
X97833333Y-55807200D01*
X97833333Y-55807200D02*
X97928571Y-55854819D01*
X97928571Y-55854819D02*
X98023809Y-55854819D01*
X98023809Y-55854819D02*
X98119047Y-55807200D01*
X98119047Y-55807200D02*
X98166666Y-55759580D01*
X98166666Y-55759580D02*
X98214285Y-55664342D01*
X98214285Y-55664342D02*
X98261904Y-55473866D01*
X98261904Y-55473866D02*
X98261904Y-55235771D01*
X98261904Y-55235771D02*
X98214285Y-55045295D01*
X98214285Y-55045295D02*
X98166666Y-54950057D01*
X98166666Y-54950057D02*
X98119047Y-54902438D01*
X98119047Y-54902438D02*
X98023809Y-54854819D01*
X167734580Y-59875892D02*
X167782200Y-59828273D01*
X167782200Y-59828273D02*
X167829819Y-59685416D01*
X167829819Y-59685416D02*
X167829819Y-59590178D01*
X167829819Y-59590178D02*
X167782200Y-59447321D01*
X167782200Y-59447321D02*
X167686961Y-59352083D01*
X167686961Y-59352083D02*
X167591723Y-59304464D01*
X167591723Y-59304464D02*
X167401247Y-59256845D01*
X167401247Y-59256845D02*
X167258390Y-59256845D01*
X167258390Y-59256845D02*
X167067914Y-59304464D01*
X167067914Y-59304464D02*
X166972676Y-59352083D01*
X166972676Y-59352083D02*
X166877438Y-59447321D01*
X166877438Y-59447321D02*
X166829819Y-59590178D01*
X166829819Y-59590178D02*
X166829819Y-59685416D01*
X166829819Y-59685416D02*
X166877438Y-59828273D01*
X166877438Y-59828273D02*
X166925057Y-59875892D01*
X167829819Y-60828273D02*
X167829819Y-60256845D01*
X167829819Y-60542559D02*
X166829819Y-60542559D01*
X166829819Y-60542559D02*
X166972676Y-60447321D01*
X166972676Y-60447321D02*
X167067914Y-60352083D01*
X167067914Y-60352083D02*
X167115533Y-60256845D01*
X167829819Y-61780654D02*
X167829819Y-61209226D01*
X167829819Y-61494940D02*
X166829819Y-61494940D01*
X166829819Y-61494940D02*
X166972676Y-61399702D01*
X166972676Y-61399702D02*
X167067914Y-61304464D01*
X167067914Y-61304464D02*
X167115533Y-61209226D01*
X100879818Y-77960714D02*
X99879818Y-77960714D01*
X99879818Y-77960714D02*
X99879818Y-78198809D01*
X99879818Y-78198809D02*
X99927437Y-78341666D01*
X99927437Y-78341666D02*
X100022675Y-78436904D01*
X100022675Y-78436904D02*
X100117913Y-78484523D01*
X100117913Y-78484523D02*
X100308389Y-78532142D01*
X100308389Y-78532142D02*
X100451246Y-78532142D01*
X100451246Y-78532142D02*
X100641722Y-78484523D01*
X100641722Y-78484523D02*
X100736960Y-78436904D01*
X100736960Y-78436904D02*
X100832199Y-78341666D01*
X100832199Y-78341666D02*
X100879818Y-78198809D01*
X100879818Y-78198809D02*
X100879818Y-77960714D01*
X100879818Y-79484523D02*
X100879818Y-78913095D01*
X100879818Y-79198809D02*
X99879818Y-79198809D01*
X99879818Y-79198809D02*
X100022675Y-79103571D01*
X100022675Y-79103571D02*
X100117913Y-79008333D01*
X100117913Y-79008333D02*
X100165532Y-78913095D01*
X99879818Y-80341666D02*
X99879818Y-80151190D01*
X99879818Y-80151190D02*
X99927437Y-80055952D01*
X99927437Y-80055952D02*
X99975056Y-80008333D01*
X99975056Y-80008333D02*
X100117913Y-79913095D01*
X100117913Y-79913095D02*
X100308389Y-79865476D01*
X100308389Y-79865476D02*
X100689341Y-79865476D01*
X100689341Y-79865476D02*
X100784579Y-79913095D01*
X100784579Y-79913095D02*
X100832199Y-79960714D01*
X100832199Y-79960714D02*
X100879818Y-80055952D01*
X100879818Y-80055952D02*
X100879818Y-80246428D01*
X100879818Y-80246428D02*
X100832199Y-80341666D01*
X100832199Y-80341666D02*
X100784579Y-80389285D01*
X100784579Y-80389285D02*
X100689341Y-80436904D01*
X100689341Y-80436904D02*
X100451246Y-80436904D01*
X100451246Y-80436904D02*
X100356008Y-80389285D01*
X100356008Y-80389285D02*
X100308389Y-80341666D01*
X100308389Y-80341666D02*
X100260770Y-80246428D01*
X100260770Y-80246428D02*
X100260770Y-80055952D01*
X100260770Y-80055952D02*
X100308389Y-79960714D01*
X100308389Y-79960714D02*
X100356008Y-79913095D01*
X100356008Y-79913095D02*
X100451246Y-79865476D01*
X101261904Y-113004819D02*
X101261904Y-112004819D01*
X101261904Y-112004819D02*
X100928571Y-112719104D01*
X100928571Y-112719104D02*
X100595238Y-112004819D01*
X100595238Y-112004819D02*
X100595238Y-113004819D01*
X100214285Y-112004819D02*
X99547619Y-113004819D01*
X99547619Y-112004819D02*
X100214285Y-113004819D01*
X99214285Y-112100057D02*
X99166666Y-112052438D01*
X99166666Y-112052438D02*
X99071428Y-112004819D01*
X99071428Y-112004819D02*
X98833333Y-112004819D01*
X98833333Y-112004819D02*
X98738095Y-112052438D01*
X98738095Y-112052438D02*
X98690476Y-112100057D01*
X98690476Y-112100057D02*
X98642857Y-112195295D01*
X98642857Y-112195295D02*
X98642857Y-112290533D01*
X98642857Y-112290533D02*
X98690476Y-112433390D01*
X98690476Y-112433390D02*
X99261904Y-113004819D01*
X99261904Y-113004819D02*
X98642857Y-113004819D01*
X97785714Y-112004819D02*
X97976190Y-112004819D01*
X97976190Y-112004819D02*
X98071428Y-112052438D01*
X98071428Y-112052438D02*
X98119047Y-112100057D01*
X98119047Y-112100057D02*
X98214285Y-112242914D01*
X98214285Y-112242914D02*
X98261904Y-112433390D01*
X98261904Y-112433390D02*
X98261904Y-112814342D01*
X98261904Y-112814342D02*
X98214285Y-112909580D01*
X98214285Y-112909580D02*
X98166666Y-112957200D01*
X98166666Y-112957200D02*
X98071428Y-113004819D01*
X98071428Y-113004819D02*
X97880952Y-113004819D01*
X97880952Y-113004819D02*
X97785714Y-112957200D01*
X97785714Y-112957200D02*
X97738095Y-112909580D01*
X97738095Y-112909580D02*
X97690476Y-112814342D01*
X97690476Y-112814342D02*
X97690476Y-112576247D01*
X97690476Y-112576247D02*
X97738095Y-112481009D01*
X97738095Y-112481009D02*
X97785714Y-112433390D01*
X97785714Y-112433390D02*
X97880952Y-112385771D01*
X97880952Y-112385771D02*
X98071428Y-112385771D01*
X98071428Y-112385771D02*
X98166666Y-112433390D01*
X98166666Y-112433390D02*
X98214285Y-112481009D01*
X98214285Y-112481009D02*
X98261904Y-112576247D01*
X100879818Y-40336905D02*
X99879818Y-40336905D01*
X99879818Y-40336905D02*
X99879818Y-40575000D01*
X99879818Y-40575000D02*
X99927437Y-40717857D01*
X99927437Y-40717857D02*
X100022675Y-40813095D01*
X100022675Y-40813095D02*
X100117913Y-40860714D01*
X100117913Y-40860714D02*
X100308389Y-40908333D01*
X100308389Y-40908333D02*
X100451246Y-40908333D01*
X100451246Y-40908333D02*
X100641722Y-40860714D01*
X100641722Y-40860714D02*
X100736960Y-40813095D01*
X100736960Y-40813095D02*
X100832199Y-40717857D01*
X100832199Y-40717857D02*
X100879818Y-40575000D01*
X100879818Y-40575000D02*
X100879818Y-40336905D01*
X100213151Y-41765476D02*
X100879818Y-41765476D01*
X99832199Y-41527381D02*
X100546484Y-41289286D01*
X100546484Y-41289286D02*
X100546484Y-41908333D01*
X139361904Y-79667319D02*
X139361904Y-78667319D01*
X139361904Y-78667319D02*
X139028571Y-79381604D01*
X139028571Y-79381604D02*
X138695238Y-78667319D01*
X138695238Y-78667319D02*
X138695238Y-79667319D01*
X138314285Y-78667319D02*
X137647619Y-79667319D01*
X137647619Y-78667319D02*
X138314285Y-79667319D01*
X136742857Y-79667319D02*
X137314285Y-79667319D01*
X137028571Y-79667319D02*
X137028571Y-78667319D01*
X137028571Y-78667319D02*
X137123809Y-78810176D01*
X137123809Y-78810176D02*
X137219047Y-78905414D01*
X137219047Y-78905414D02*
X137314285Y-78953033D01*
X136171428Y-79095890D02*
X136266666Y-79048271D01*
X136266666Y-79048271D02*
X136314285Y-79000652D01*
X136314285Y-79000652D02*
X136361904Y-78905414D01*
X136361904Y-78905414D02*
X136361904Y-78857795D01*
X136361904Y-78857795D02*
X136314285Y-78762557D01*
X136314285Y-78762557D02*
X136266666Y-78714938D01*
X136266666Y-78714938D02*
X136171428Y-78667319D01*
X136171428Y-78667319D02*
X135980952Y-78667319D01*
X135980952Y-78667319D02*
X135885714Y-78714938D01*
X135885714Y-78714938D02*
X135838095Y-78762557D01*
X135838095Y-78762557D02*
X135790476Y-78857795D01*
X135790476Y-78857795D02*
X135790476Y-78905414D01*
X135790476Y-78905414D02*
X135838095Y-79000652D01*
X135838095Y-79000652D02*
X135885714Y-79048271D01*
X135885714Y-79048271D02*
X135980952Y-79095890D01*
X135980952Y-79095890D02*
X136171428Y-79095890D01*
X136171428Y-79095890D02*
X136266666Y-79143509D01*
X136266666Y-79143509D02*
X136314285Y-79191128D01*
X136314285Y-79191128D02*
X136361904Y-79286366D01*
X136361904Y-79286366D02*
X136361904Y-79476842D01*
X136361904Y-79476842D02*
X136314285Y-79572080D01*
X136314285Y-79572080D02*
X136266666Y-79619700D01*
X136266666Y-79619700D02*
X136171428Y-79667319D01*
X136171428Y-79667319D02*
X135980952Y-79667319D01*
X135980952Y-79667319D02*
X135885714Y-79619700D01*
X135885714Y-79619700D02*
X135838095Y-79572080D01*
X135838095Y-79572080D02*
X135790476Y-79476842D01*
X135790476Y-79476842D02*
X135790476Y-79286366D01*
X135790476Y-79286366D02*
X135838095Y-79191128D01*
X135838095Y-79191128D02*
X135885714Y-79143509D01*
X135885714Y-79143509D02*
X135980952Y-79095890D01*
X139361904Y-60617319D02*
X139361904Y-59617319D01*
X139361904Y-59617319D02*
X139028571Y-60331604D01*
X139028571Y-60331604D02*
X138695238Y-59617319D01*
X138695238Y-59617319D02*
X138695238Y-60617319D01*
X138314285Y-59617319D02*
X137647619Y-60617319D01*
X137647619Y-59617319D02*
X138314285Y-60617319D01*
X136742857Y-60617319D02*
X137314285Y-60617319D01*
X137028571Y-60617319D02*
X137028571Y-59617319D01*
X137028571Y-59617319D02*
X137123809Y-59760176D01*
X137123809Y-59760176D02*
X137219047Y-59855414D01*
X137219047Y-59855414D02*
X137314285Y-59903033D01*
X136361904Y-59712557D02*
X136314285Y-59664938D01*
X136314285Y-59664938D02*
X136219047Y-59617319D01*
X136219047Y-59617319D02*
X135980952Y-59617319D01*
X135980952Y-59617319D02*
X135885714Y-59664938D01*
X135885714Y-59664938D02*
X135838095Y-59712557D01*
X135838095Y-59712557D02*
X135790476Y-59807795D01*
X135790476Y-59807795D02*
X135790476Y-59903033D01*
X135790476Y-59903033D02*
X135838095Y-60045890D01*
X135838095Y-60045890D02*
X136409523Y-60617319D01*
X136409523Y-60617319D02*
X135790476Y-60617319D01*
X152434580Y-51652083D02*
X152482200Y-51604464D01*
X152482200Y-51604464D02*
X152529819Y-51461607D01*
X152529819Y-51461607D02*
X152529819Y-51366369D01*
X152529819Y-51366369D02*
X152482200Y-51223512D01*
X152482200Y-51223512D02*
X152386961Y-51128274D01*
X152386961Y-51128274D02*
X152291723Y-51080655D01*
X152291723Y-51080655D02*
X152101247Y-51033036D01*
X152101247Y-51033036D02*
X151958390Y-51033036D01*
X151958390Y-51033036D02*
X151767914Y-51080655D01*
X151767914Y-51080655D02*
X151672676Y-51128274D01*
X151672676Y-51128274D02*
X151577438Y-51223512D01*
X151577438Y-51223512D02*
X151529819Y-51366369D01*
X151529819Y-51366369D02*
X151529819Y-51461607D01*
X151529819Y-51461607D02*
X151577438Y-51604464D01*
X151577438Y-51604464D02*
X151625057Y-51652083D01*
X151863152Y-52509226D02*
X152529819Y-52509226D01*
X151482200Y-52271131D02*
X152196485Y-52033036D01*
X152196485Y-52033036D02*
X152196485Y-52652083D01*
X163841666Y-68578330D02*
X163889285Y-68625950D01*
X163889285Y-68625950D02*
X164032142Y-68673569D01*
X164032142Y-68673569D02*
X164127380Y-68673569D01*
X164127380Y-68673569D02*
X164270237Y-68625950D01*
X164270237Y-68625950D02*
X164365475Y-68530711D01*
X164365475Y-68530711D02*
X164413094Y-68435473D01*
X164413094Y-68435473D02*
X164460713Y-68244997D01*
X164460713Y-68244997D02*
X164460713Y-68102140D01*
X164460713Y-68102140D02*
X164413094Y-67911664D01*
X164413094Y-67911664D02*
X164365475Y-67816426D01*
X164365475Y-67816426D02*
X164270237Y-67721188D01*
X164270237Y-67721188D02*
X164127380Y-67673569D01*
X164127380Y-67673569D02*
X164032142Y-67673569D01*
X164032142Y-67673569D02*
X163889285Y-67721188D01*
X163889285Y-67721188D02*
X163841666Y-67768807D01*
X162889285Y-68673569D02*
X163460713Y-68673569D01*
X163174999Y-68673569D02*
X163174999Y-67673569D01*
X163174999Y-67673569D02*
X163270237Y-67816426D01*
X163270237Y-67816426D02*
X163365475Y-67911664D01*
X163365475Y-67911664D02*
X163460713Y-67959283D01*
X145141666Y-54178330D02*
X145189285Y-54225950D01*
X145189285Y-54225950D02*
X145332142Y-54273569D01*
X145332142Y-54273569D02*
X145427380Y-54273569D01*
X145427380Y-54273569D02*
X145570237Y-54225950D01*
X145570237Y-54225950D02*
X145665475Y-54130711D01*
X145665475Y-54130711D02*
X145713094Y-54035473D01*
X145713094Y-54035473D02*
X145760713Y-53844997D01*
X145760713Y-53844997D02*
X145760713Y-53702140D01*
X145760713Y-53702140D02*
X145713094Y-53511664D01*
X145713094Y-53511664D02*
X145665475Y-53416426D01*
X145665475Y-53416426D02*
X145570237Y-53321188D01*
X145570237Y-53321188D02*
X145427380Y-53273569D01*
X145427380Y-53273569D02*
X145332142Y-53273569D01*
X145332142Y-53273569D02*
X145189285Y-53321188D01*
X145189285Y-53321188D02*
X145141666Y-53368807D01*
X144236904Y-53273569D02*
X144713094Y-53273569D01*
X144713094Y-53273569D02*
X144760713Y-53749759D01*
X144760713Y-53749759D02*
X144713094Y-53702140D01*
X144713094Y-53702140D02*
X144617856Y-53654521D01*
X144617856Y-53654521D02*
X144379761Y-53654521D01*
X144379761Y-53654521D02*
X144284523Y-53702140D01*
X144284523Y-53702140D02*
X144236904Y-53749759D01*
X144236904Y-53749759D02*
X144189285Y-53844997D01*
X144189285Y-53844997D02*
X144189285Y-54083092D01*
X144189285Y-54083092D02*
X144236904Y-54178330D01*
X144236904Y-54178330D02*
X144284523Y-54225950D01*
X144284523Y-54225950D02*
X144379761Y-54273569D01*
X144379761Y-54273569D02*
X144617856Y-54273569D01*
X144617856Y-54273569D02*
X144713094Y-54225950D01*
X144713094Y-54225950D02*
X144760713Y-54178330D01*
X142899124Y-121963723D02*
X143157943Y-120997798D01*
X143157943Y-120997798D02*
X142651097Y-121601472D01*
X142651097Y-121601472D02*
X142513992Y-120825252D01*
X142513992Y-120825252D02*
X142255173Y-121791177D01*
X142146021Y-120726654D02*
X141243251Y-121520034D01*
X141502070Y-120554108D02*
X141887202Y-121692580D01*
X141155446Y-120559828D02*
X141121774Y-120501507D01*
X141121774Y-120501507D02*
X141042106Y-120430861D01*
X141042106Y-120430861D02*
X140812123Y-120369237D01*
X140812123Y-120369237D02*
X140707806Y-120390584D01*
X140707806Y-120390584D02*
X140649484Y-120424256D01*
X140649484Y-120424256D02*
X140578839Y-120503924D01*
X140578839Y-120503924D02*
X140554189Y-120595917D01*
X140554189Y-120595917D02*
X140563211Y-120746231D01*
X140563211Y-120746231D02*
X140967272Y-121446085D01*
X140967272Y-121446085D02*
X140369318Y-121285864D01*
X139965257Y-120586010D02*
X140069575Y-120564663D01*
X140069575Y-120564663D02*
X140127896Y-120530991D01*
X140127896Y-120530991D02*
X140198542Y-120451323D01*
X140198542Y-120451323D02*
X140210867Y-120405326D01*
X140210867Y-120405326D02*
X140189520Y-120301009D01*
X140189520Y-120301009D02*
X140155848Y-120242688D01*
X140155848Y-120242688D02*
X140076180Y-120172042D01*
X140076180Y-120172042D02*
X139892194Y-120122743D01*
X139892194Y-120122743D02*
X139787876Y-120144090D01*
X139787876Y-120144090D02*
X139729555Y-120177762D01*
X139729555Y-120177762D02*
X139658909Y-120257430D01*
X139658909Y-120257430D02*
X139646584Y-120303426D01*
X139646584Y-120303426D02*
X139667931Y-120407744D01*
X139667931Y-120407744D02*
X139701603Y-120466065D01*
X139701603Y-120466065D02*
X139781271Y-120536711D01*
X139781271Y-120536711D02*
X139965257Y-120586010D01*
X139965257Y-120586010D02*
X140044925Y-120656656D01*
X140044925Y-120656656D02*
X140078597Y-120714977D01*
X140078597Y-120714977D02*
X140099944Y-120819295D01*
X140099944Y-120819295D02*
X140050645Y-121003280D01*
X140050645Y-121003280D02*
X139980000Y-121082949D01*
X139980000Y-121082949D02*
X139921678Y-121116620D01*
X139921678Y-121116620D02*
X139817361Y-121137967D01*
X139817361Y-121137967D02*
X139633375Y-121088669D01*
X139633375Y-121088669D02*
X139553707Y-121018023D01*
X139553707Y-121018023D02*
X139520035Y-120959702D01*
X139520035Y-120959702D02*
X139498688Y-120855384D01*
X139498688Y-120855384D02*
X139547987Y-120671398D01*
X139547987Y-120671398D02*
X139618633Y-120591730D01*
X139618633Y-120591730D02*
X139676954Y-120558058D01*
X139676954Y-120558058D02*
X139781271Y-120536711D01*
X164364580Y-41375892D02*
X164412200Y-41328273D01*
X164412200Y-41328273D02*
X164459819Y-41185416D01*
X164459819Y-41185416D02*
X164459819Y-41090178D01*
X164459819Y-41090178D02*
X164412200Y-40947321D01*
X164412200Y-40947321D02*
X164316961Y-40852083D01*
X164316961Y-40852083D02*
X164221723Y-40804464D01*
X164221723Y-40804464D02*
X164031247Y-40756845D01*
X164031247Y-40756845D02*
X163888390Y-40756845D01*
X163888390Y-40756845D02*
X163697914Y-40804464D01*
X163697914Y-40804464D02*
X163602676Y-40852083D01*
X163602676Y-40852083D02*
X163507438Y-40947321D01*
X163507438Y-40947321D02*
X163459819Y-41090178D01*
X163459819Y-41090178D02*
X163459819Y-41185416D01*
X163459819Y-41185416D02*
X163507438Y-41328273D01*
X163507438Y-41328273D02*
X163555057Y-41375892D01*
X164459819Y-42328273D02*
X164459819Y-41756845D01*
X164459819Y-42042559D02*
X163459819Y-42042559D01*
X163459819Y-42042559D02*
X163602676Y-41947321D01*
X163602676Y-41947321D02*
X163697914Y-41852083D01*
X163697914Y-41852083D02*
X163745533Y-41756845D01*
X163459819Y-42661607D02*
X163459819Y-43280654D01*
X163459819Y-43280654D02*
X163840771Y-42947321D01*
X163840771Y-42947321D02*
X163840771Y-43090178D01*
X163840771Y-43090178D02*
X163888390Y-43185416D01*
X163888390Y-43185416D02*
X163936009Y-43233035D01*
X163936009Y-43233035D02*
X164031247Y-43280654D01*
X164031247Y-43280654D02*
X164269342Y-43280654D01*
X164269342Y-43280654D02*
X164364580Y-43233035D01*
X164364580Y-43233035D02*
X164412200Y-43185416D01*
X164412200Y-43185416D02*
X164459819Y-43090178D01*
X164459819Y-43090178D02*
X164459819Y-42804464D01*
X164459819Y-42804464D02*
X164412200Y-42709226D01*
X164412200Y-42709226D02*
X164364580Y-42661607D01*
X161389285Y-109873569D02*
X161389285Y-108873569D01*
X161389285Y-108873569D02*
X161151190Y-108873569D01*
X161151190Y-108873569D02*
X161008333Y-108921188D01*
X161008333Y-108921188D02*
X160913095Y-109016426D01*
X160913095Y-109016426D02*
X160865476Y-109111664D01*
X160865476Y-109111664D02*
X160817857Y-109302140D01*
X160817857Y-109302140D02*
X160817857Y-109444997D01*
X160817857Y-109444997D02*
X160865476Y-109635473D01*
X160865476Y-109635473D02*
X160913095Y-109730711D01*
X160913095Y-109730711D02*
X161008333Y-109825950D01*
X161008333Y-109825950D02*
X161151190Y-109873569D01*
X161151190Y-109873569D02*
X161389285Y-109873569D01*
X160484523Y-108873569D02*
X159865476Y-108873569D01*
X159865476Y-108873569D02*
X160198809Y-109254521D01*
X160198809Y-109254521D02*
X160055952Y-109254521D01*
X160055952Y-109254521D02*
X159960714Y-109302140D01*
X159960714Y-109302140D02*
X159913095Y-109349759D01*
X159913095Y-109349759D02*
X159865476Y-109444997D01*
X159865476Y-109444997D02*
X159865476Y-109683092D01*
X159865476Y-109683092D02*
X159913095Y-109778330D01*
X159913095Y-109778330D02*
X159960714Y-109825950D01*
X159960714Y-109825950D02*
X160055952Y-109873569D01*
X160055952Y-109873569D02*
X160341666Y-109873569D01*
X160341666Y-109873569D02*
X160436904Y-109825950D01*
X160436904Y-109825950D02*
X160484523Y-109778330D01*
X159246428Y-108873569D02*
X159151190Y-108873569D01*
X159151190Y-108873569D02*
X159055952Y-108921188D01*
X159055952Y-108921188D02*
X159008333Y-108968807D01*
X159008333Y-108968807D02*
X158960714Y-109064045D01*
X158960714Y-109064045D02*
X158913095Y-109254521D01*
X158913095Y-109254521D02*
X158913095Y-109492616D01*
X158913095Y-109492616D02*
X158960714Y-109683092D01*
X158960714Y-109683092D02*
X159008333Y-109778330D01*
X159008333Y-109778330D02*
X159055952Y-109825950D01*
X159055952Y-109825950D02*
X159151190Y-109873569D01*
X159151190Y-109873569D02*
X159246428Y-109873569D01*
X159246428Y-109873569D02*
X159341666Y-109825950D01*
X159341666Y-109825950D02*
X159389285Y-109778330D01*
X159389285Y-109778330D02*
X159436904Y-109683092D01*
X159436904Y-109683092D02*
X159484523Y-109492616D01*
X159484523Y-109492616D02*
X159484523Y-109254521D01*
X159484523Y-109254521D02*
X159436904Y-109064045D01*
X159436904Y-109064045D02*
X159389285Y-108968807D01*
X159389285Y-108968807D02*
X159341666Y-108921188D01*
X159341666Y-108921188D02*
X159246428Y-108873569D01*
X163817857Y-71078330D02*
X163865476Y-71125950D01*
X163865476Y-71125950D02*
X164008333Y-71173569D01*
X164008333Y-71173569D02*
X164103571Y-71173569D01*
X164103571Y-71173569D02*
X164246428Y-71125950D01*
X164246428Y-71125950D02*
X164341666Y-71030711D01*
X164341666Y-71030711D02*
X164389285Y-70935473D01*
X164389285Y-70935473D02*
X164436904Y-70744997D01*
X164436904Y-70744997D02*
X164436904Y-70602140D01*
X164436904Y-70602140D02*
X164389285Y-70411664D01*
X164389285Y-70411664D02*
X164341666Y-70316426D01*
X164341666Y-70316426D02*
X164246428Y-70221188D01*
X164246428Y-70221188D02*
X164103571Y-70173569D01*
X164103571Y-70173569D02*
X164008333Y-70173569D01*
X164008333Y-70173569D02*
X163865476Y-70221188D01*
X163865476Y-70221188D02*
X163817857Y-70268807D01*
X162865476Y-71173569D02*
X163436904Y-71173569D01*
X163151190Y-71173569D02*
X163151190Y-70173569D01*
X163151190Y-70173569D02*
X163246428Y-70316426D01*
X163246428Y-70316426D02*
X163341666Y-70411664D01*
X163341666Y-70411664D02*
X163436904Y-70459283D01*
X162246428Y-70173569D02*
X162151190Y-70173569D01*
X162151190Y-70173569D02*
X162055952Y-70221188D01*
X162055952Y-70221188D02*
X162008333Y-70268807D01*
X162008333Y-70268807D02*
X161960714Y-70364045D01*
X161960714Y-70364045D02*
X161913095Y-70554521D01*
X161913095Y-70554521D02*
X161913095Y-70792616D01*
X161913095Y-70792616D02*
X161960714Y-70983092D01*
X161960714Y-70983092D02*
X162008333Y-71078330D01*
X162008333Y-71078330D02*
X162055952Y-71125950D01*
X162055952Y-71125950D02*
X162151190Y-71173569D01*
X162151190Y-71173569D02*
X162246428Y-71173569D01*
X162246428Y-71173569D02*
X162341666Y-71125950D01*
X162341666Y-71125950D02*
X162389285Y-71078330D01*
X162389285Y-71078330D02*
X162436904Y-70983092D01*
X162436904Y-70983092D02*
X162484523Y-70792616D01*
X162484523Y-70792616D02*
X162484523Y-70554521D01*
X162484523Y-70554521D02*
X162436904Y-70364045D01*
X162436904Y-70364045D02*
X162389285Y-70268807D01*
X162389285Y-70268807D02*
X162341666Y-70221188D01*
X162341666Y-70221188D02*
X162246428Y-70173569D01*
X100879818Y-116060714D02*
X99879818Y-116060714D01*
X99879818Y-116060714D02*
X99879818Y-116298809D01*
X99879818Y-116298809D02*
X99927437Y-116441666D01*
X99927437Y-116441666D02*
X100022675Y-116536904D01*
X100022675Y-116536904D02*
X100117913Y-116584523D01*
X100117913Y-116584523D02*
X100308389Y-116632142D01*
X100308389Y-116632142D02*
X100451246Y-116632142D01*
X100451246Y-116632142D02*
X100641722Y-116584523D01*
X100641722Y-116584523D02*
X100736960Y-116536904D01*
X100736960Y-116536904D02*
X100832199Y-116441666D01*
X100832199Y-116441666D02*
X100879818Y-116298809D01*
X100879818Y-116298809D02*
X100879818Y-116060714D01*
X99975056Y-117013095D02*
X99927437Y-117060714D01*
X99927437Y-117060714D02*
X99879818Y-117155952D01*
X99879818Y-117155952D02*
X99879818Y-117394047D01*
X99879818Y-117394047D02*
X99927437Y-117489285D01*
X99927437Y-117489285D02*
X99975056Y-117536904D01*
X99975056Y-117536904D02*
X100070294Y-117584523D01*
X100070294Y-117584523D02*
X100165532Y-117584523D01*
X100165532Y-117584523D02*
X100308389Y-117536904D01*
X100308389Y-117536904D02*
X100879818Y-116965476D01*
X100879818Y-116965476D02*
X100879818Y-117584523D01*
X99879818Y-118441666D02*
X99879818Y-118251190D01*
X99879818Y-118251190D02*
X99927437Y-118155952D01*
X99927437Y-118155952D02*
X99975056Y-118108333D01*
X99975056Y-118108333D02*
X100117913Y-118013095D01*
X100117913Y-118013095D02*
X100308389Y-117965476D01*
X100308389Y-117965476D02*
X100689341Y-117965476D01*
X100689341Y-117965476D02*
X100784579Y-118013095D01*
X100784579Y-118013095D02*
X100832199Y-118060714D01*
X100832199Y-118060714D02*
X100879818Y-118155952D01*
X100879818Y-118155952D02*
X100879818Y-118346428D01*
X100879818Y-118346428D02*
X100832199Y-118441666D01*
X100832199Y-118441666D02*
X100784579Y-118489285D01*
X100784579Y-118489285D02*
X100689341Y-118536904D01*
X100689341Y-118536904D02*
X100451246Y-118536904D01*
X100451246Y-118536904D02*
X100356008Y-118489285D01*
X100356008Y-118489285D02*
X100308389Y-118441666D01*
X100308389Y-118441666D02*
X100260770Y-118346428D01*
X100260770Y-118346428D02*
X100260770Y-118155952D01*
X100260770Y-118155952D02*
X100308389Y-118060714D01*
X100308389Y-118060714D02*
X100356008Y-118013095D01*
X100356008Y-118013095D02*
X100451246Y-117965476D01*
X82211904Y-115386069D02*
X82211904Y-114386069D01*
X82211904Y-114386069D02*
X81878571Y-115100354D01*
X81878571Y-115100354D02*
X81545238Y-114386069D01*
X81545238Y-114386069D02*
X81545238Y-115386069D01*
X81164285Y-114386069D02*
X80497619Y-115386069D01*
X80497619Y-114386069D02*
X81164285Y-115386069D01*
X80164285Y-114481307D02*
X80116666Y-114433688D01*
X80116666Y-114433688D02*
X80021428Y-114386069D01*
X80021428Y-114386069D02*
X79783333Y-114386069D01*
X79783333Y-114386069D02*
X79688095Y-114433688D01*
X79688095Y-114433688D02*
X79640476Y-114481307D01*
X79640476Y-114481307D02*
X79592857Y-114576545D01*
X79592857Y-114576545D02*
X79592857Y-114671783D01*
X79592857Y-114671783D02*
X79640476Y-114814640D01*
X79640476Y-114814640D02*
X80211904Y-115386069D01*
X80211904Y-115386069D02*
X79592857Y-115386069D01*
X78688095Y-114386069D02*
X79164285Y-114386069D01*
X79164285Y-114386069D02*
X79211904Y-114862259D01*
X79211904Y-114862259D02*
X79164285Y-114814640D01*
X79164285Y-114814640D02*
X79069047Y-114767021D01*
X79069047Y-114767021D02*
X78830952Y-114767021D01*
X78830952Y-114767021D02*
X78735714Y-114814640D01*
X78735714Y-114814640D02*
X78688095Y-114862259D01*
X78688095Y-114862259D02*
X78640476Y-114957497D01*
X78640476Y-114957497D02*
X78640476Y-115195592D01*
X78640476Y-115195592D02*
X78688095Y-115290830D01*
X78688095Y-115290830D02*
X78735714Y-115338450D01*
X78735714Y-115338450D02*
X78830952Y-115386069D01*
X78830952Y-115386069D02*
X79069047Y-115386069D01*
X79069047Y-115386069D02*
X79164285Y-115338450D01*
X79164285Y-115338450D02*
X79211904Y-115290830D01*
X142641666Y-49973569D02*
X142974999Y-49497378D01*
X143213094Y-49973569D02*
X143213094Y-48973569D01*
X143213094Y-48973569D02*
X142832142Y-48973569D01*
X142832142Y-48973569D02*
X142736904Y-49021188D01*
X142736904Y-49021188D02*
X142689285Y-49068807D01*
X142689285Y-49068807D02*
X142641666Y-49164045D01*
X142641666Y-49164045D02*
X142641666Y-49306902D01*
X142641666Y-49306902D02*
X142689285Y-49402140D01*
X142689285Y-49402140D02*
X142736904Y-49449759D01*
X142736904Y-49449759D02*
X142832142Y-49497378D01*
X142832142Y-49497378D02*
X143213094Y-49497378D01*
X141689285Y-49973569D02*
X142260713Y-49973569D01*
X141974999Y-49973569D02*
X141974999Y-48973569D01*
X141974999Y-48973569D02*
X142070237Y-49116426D01*
X142070237Y-49116426D02*
X142165475Y-49211664D01*
X142165475Y-49211664D02*
X142260713Y-49259283D01*
X81829818Y-99391964D02*
X80829818Y-99391964D01*
X80829818Y-99391964D02*
X80829818Y-99630059D01*
X80829818Y-99630059D02*
X80877437Y-99772916D01*
X80877437Y-99772916D02*
X80972675Y-99868154D01*
X80972675Y-99868154D02*
X81067913Y-99915773D01*
X81067913Y-99915773D02*
X81258389Y-99963392D01*
X81258389Y-99963392D02*
X81401246Y-99963392D01*
X81401246Y-99963392D02*
X81591722Y-99915773D01*
X81591722Y-99915773D02*
X81686960Y-99868154D01*
X81686960Y-99868154D02*
X81782199Y-99772916D01*
X81782199Y-99772916D02*
X81829818Y-99630059D01*
X81829818Y-99630059D02*
X81829818Y-99391964D01*
X80925056Y-100344345D02*
X80877437Y-100391964D01*
X80877437Y-100391964D02*
X80829818Y-100487202D01*
X80829818Y-100487202D02*
X80829818Y-100725297D01*
X80829818Y-100725297D02*
X80877437Y-100820535D01*
X80877437Y-100820535D02*
X80925056Y-100868154D01*
X80925056Y-100868154D02*
X81020294Y-100915773D01*
X81020294Y-100915773D02*
X81115532Y-100915773D01*
X81115532Y-100915773D02*
X81258389Y-100868154D01*
X81258389Y-100868154D02*
X81829818Y-100296726D01*
X81829818Y-100296726D02*
X81829818Y-100915773D01*
X81829818Y-101868154D02*
X81829818Y-101296726D01*
X81829818Y-101582440D02*
X80829818Y-101582440D01*
X80829818Y-101582440D02*
X80972675Y-101487202D01*
X80972675Y-101487202D02*
X81067913Y-101391964D01*
X81067913Y-101391964D02*
X81115532Y-101296726D01*
X138885713Y-41567319D02*
X138885713Y-40567319D01*
X138885713Y-40567319D02*
X138552380Y-41281604D01*
X138552380Y-41281604D02*
X138219047Y-40567319D01*
X138219047Y-40567319D02*
X138219047Y-41567319D01*
X137838094Y-40567319D02*
X137171428Y-41567319D01*
X137171428Y-40567319D02*
X137838094Y-41567319D01*
X136361904Y-40567319D02*
X136552380Y-40567319D01*
X136552380Y-40567319D02*
X136647618Y-40614938D01*
X136647618Y-40614938D02*
X136695237Y-40662557D01*
X136695237Y-40662557D02*
X136790475Y-40805414D01*
X136790475Y-40805414D02*
X136838094Y-40995890D01*
X136838094Y-40995890D02*
X136838094Y-41376842D01*
X136838094Y-41376842D02*
X136790475Y-41472080D01*
X136790475Y-41472080D02*
X136742856Y-41519700D01*
X136742856Y-41519700D02*
X136647618Y-41567319D01*
X136647618Y-41567319D02*
X136457142Y-41567319D01*
X136457142Y-41567319D02*
X136361904Y-41519700D01*
X136361904Y-41519700D02*
X136314285Y-41472080D01*
X136314285Y-41472080D02*
X136266666Y-41376842D01*
X136266666Y-41376842D02*
X136266666Y-41138747D01*
X136266666Y-41138747D02*
X136314285Y-41043509D01*
X136314285Y-41043509D02*
X136361904Y-40995890D01*
X136361904Y-40995890D02*
X136457142Y-40948271D01*
X136457142Y-40948271D02*
X136647618Y-40948271D01*
X136647618Y-40948271D02*
X136742856Y-40995890D01*
X136742856Y-40995890D02*
X136790475Y-41043509D01*
X136790475Y-41043509D02*
X136838094Y-41138747D01*
X119929818Y-99391964D02*
X118929818Y-99391964D01*
X118929818Y-99391964D02*
X118929818Y-99630059D01*
X118929818Y-99630059D02*
X118977437Y-99772916D01*
X118977437Y-99772916D02*
X119072675Y-99868154D01*
X119072675Y-99868154D02*
X119167913Y-99915773D01*
X119167913Y-99915773D02*
X119358389Y-99963392D01*
X119358389Y-99963392D02*
X119501246Y-99963392D01*
X119501246Y-99963392D02*
X119691722Y-99915773D01*
X119691722Y-99915773D02*
X119786960Y-99868154D01*
X119786960Y-99868154D02*
X119882199Y-99772916D01*
X119882199Y-99772916D02*
X119929818Y-99630059D01*
X119929818Y-99630059D02*
X119929818Y-99391964D01*
X119025056Y-100344345D02*
X118977437Y-100391964D01*
X118977437Y-100391964D02*
X118929818Y-100487202D01*
X118929818Y-100487202D02*
X118929818Y-100725297D01*
X118929818Y-100725297D02*
X118977437Y-100820535D01*
X118977437Y-100820535D02*
X119025056Y-100868154D01*
X119025056Y-100868154D02*
X119120294Y-100915773D01*
X119120294Y-100915773D02*
X119215532Y-100915773D01*
X119215532Y-100915773D02*
X119358389Y-100868154D01*
X119358389Y-100868154D02*
X119929818Y-100296726D01*
X119929818Y-100296726D02*
X119929818Y-100915773D01*
X118929818Y-101249107D02*
X118929818Y-101868154D01*
X118929818Y-101868154D02*
X119310770Y-101534821D01*
X119310770Y-101534821D02*
X119310770Y-101677678D01*
X119310770Y-101677678D02*
X119358389Y-101772916D01*
X119358389Y-101772916D02*
X119406008Y-101820535D01*
X119406008Y-101820535D02*
X119501246Y-101868154D01*
X119501246Y-101868154D02*
X119739341Y-101868154D01*
X119739341Y-101868154D02*
X119834579Y-101820535D01*
X119834579Y-101820535D02*
X119882199Y-101772916D01*
X119882199Y-101772916D02*
X119929818Y-101677678D01*
X119929818Y-101677678D02*
X119929818Y-101391964D01*
X119929818Y-101391964D02*
X119882199Y-101296726D01*
X119882199Y-101296726D02*
X119834579Y-101249107D01*
X62779818Y-66530655D02*
X61779818Y-66530655D01*
X61779818Y-66530655D02*
X61779818Y-66768750D01*
X61779818Y-66768750D02*
X61827437Y-66911607D01*
X61827437Y-66911607D02*
X61922675Y-67006845D01*
X61922675Y-67006845D02*
X62017913Y-67054464D01*
X62017913Y-67054464D02*
X62208389Y-67102083D01*
X62208389Y-67102083D02*
X62351246Y-67102083D01*
X62351246Y-67102083D02*
X62541722Y-67054464D01*
X62541722Y-67054464D02*
X62636960Y-67006845D01*
X62636960Y-67006845D02*
X62732199Y-66911607D01*
X62732199Y-66911607D02*
X62779818Y-66768750D01*
X62779818Y-66768750D02*
X62779818Y-66530655D01*
X62208389Y-67673512D02*
X62160770Y-67578274D01*
X62160770Y-67578274D02*
X62113151Y-67530655D01*
X62113151Y-67530655D02*
X62017913Y-67483036D01*
X62017913Y-67483036D02*
X61970294Y-67483036D01*
X61970294Y-67483036D02*
X61875056Y-67530655D01*
X61875056Y-67530655D02*
X61827437Y-67578274D01*
X61827437Y-67578274D02*
X61779818Y-67673512D01*
X61779818Y-67673512D02*
X61779818Y-67863988D01*
X61779818Y-67863988D02*
X61827437Y-67959226D01*
X61827437Y-67959226D02*
X61875056Y-68006845D01*
X61875056Y-68006845D02*
X61970294Y-68054464D01*
X61970294Y-68054464D02*
X62017913Y-68054464D01*
X62017913Y-68054464D02*
X62113151Y-68006845D01*
X62113151Y-68006845D02*
X62160770Y-67959226D01*
X62160770Y-67959226D02*
X62208389Y-67863988D01*
X62208389Y-67863988D02*
X62208389Y-67673512D01*
X62208389Y-67673512D02*
X62256008Y-67578274D01*
X62256008Y-67578274D02*
X62303627Y-67530655D01*
X62303627Y-67530655D02*
X62398865Y-67483036D01*
X62398865Y-67483036D02*
X62589341Y-67483036D01*
X62589341Y-67483036D02*
X62684579Y-67530655D01*
X62684579Y-67530655D02*
X62732199Y-67578274D01*
X62732199Y-67578274D02*
X62779818Y-67673512D01*
X62779818Y-67673512D02*
X62779818Y-67863988D01*
X62779818Y-67863988D02*
X62732199Y-67959226D01*
X62732199Y-67959226D02*
X62684579Y-68006845D01*
X62684579Y-68006845D02*
X62589341Y-68054464D01*
X62589341Y-68054464D02*
X62398865Y-68054464D01*
X62398865Y-68054464D02*
X62303627Y-68006845D01*
X62303627Y-68006845D02*
X62256008Y-67959226D01*
X62256008Y-67959226D02*
X62208389Y-67863988D01*
X120311904Y-96336069D02*
X120311904Y-95336069D01*
X120311904Y-95336069D02*
X119978571Y-96050354D01*
X119978571Y-96050354D02*
X119645238Y-95336069D01*
X119645238Y-95336069D02*
X119645238Y-96336069D01*
X119264285Y-95336069D02*
X118597619Y-96336069D01*
X118597619Y-95336069D02*
X119264285Y-96336069D01*
X118264285Y-95431307D02*
X118216666Y-95383688D01*
X118216666Y-95383688D02*
X118121428Y-95336069D01*
X118121428Y-95336069D02*
X117883333Y-95336069D01*
X117883333Y-95336069D02*
X117788095Y-95383688D01*
X117788095Y-95383688D02*
X117740476Y-95431307D01*
X117740476Y-95431307D02*
X117692857Y-95526545D01*
X117692857Y-95526545D02*
X117692857Y-95621783D01*
X117692857Y-95621783D02*
X117740476Y-95764640D01*
X117740476Y-95764640D02*
X118311904Y-96336069D01*
X118311904Y-96336069D02*
X117692857Y-96336069D01*
X117359523Y-95336069D02*
X116740476Y-95336069D01*
X116740476Y-95336069D02*
X117073809Y-95717021D01*
X117073809Y-95717021D02*
X116930952Y-95717021D01*
X116930952Y-95717021D02*
X116835714Y-95764640D01*
X116835714Y-95764640D02*
X116788095Y-95812259D01*
X116788095Y-95812259D02*
X116740476Y-95907497D01*
X116740476Y-95907497D02*
X116740476Y-96145592D01*
X116740476Y-96145592D02*
X116788095Y-96240830D01*
X116788095Y-96240830D02*
X116835714Y-96288450D01*
X116835714Y-96288450D02*
X116930952Y-96336069D01*
X116930952Y-96336069D02*
X117216666Y-96336069D01*
X117216666Y-96336069D02*
X117311904Y-96288450D01*
X117311904Y-96288450D02*
X117359523Y-96240830D01*
X141739133Y-124816599D02*
X140773207Y-124557780D01*
X140773207Y-124557780D02*
X140711584Y-124787763D01*
X140711584Y-124787763D02*
X140720606Y-124938077D01*
X140720606Y-124938077D02*
X140787950Y-125054719D01*
X140787950Y-125054719D02*
X140867618Y-125125365D01*
X140867618Y-125125365D02*
X141039279Y-125220660D01*
X141039279Y-125220660D02*
X141177268Y-125257635D01*
X141177268Y-125257635D02*
X141373579Y-125260937D01*
X141373579Y-125260937D02*
X141477897Y-125239590D01*
X141477897Y-125239590D02*
X141594539Y-125172246D01*
X141594539Y-125172246D02*
X141677510Y-125046582D01*
X141677510Y-125046582D02*
X141739133Y-124816599D01*
X140618706Y-125502359D02*
X140560385Y-125536031D01*
X140560385Y-125536031D02*
X140489739Y-125615699D01*
X140489739Y-125615699D02*
X140428115Y-125845681D01*
X140428115Y-125845681D02*
X140449462Y-125949999D01*
X140449462Y-125949999D02*
X140483134Y-126008320D01*
X140483134Y-126008320D02*
X140562802Y-126078966D01*
X140562802Y-126078966D02*
X140654795Y-126103616D01*
X140654795Y-126103616D02*
X140805109Y-126094593D01*
X140805109Y-126094593D02*
X141504964Y-125690532D01*
X141504964Y-125690532D02*
X141344742Y-126288486D01*
X140644888Y-126692547D02*
X140623541Y-126588230D01*
X140623541Y-126588230D02*
X140589869Y-126529909D01*
X140589869Y-126529909D02*
X140510201Y-126459263D01*
X140510201Y-126459263D02*
X140464205Y-126446938D01*
X140464205Y-126446938D02*
X140359887Y-126468285D01*
X140359887Y-126468285D02*
X140301566Y-126501957D01*
X140301566Y-126501957D02*
X140230920Y-126581625D01*
X140230920Y-126581625D02*
X140181621Y-126765611D01*
X140181621Y-126765611D02*
X140202968Y-126869928D01*
X140202968Y-126869928D02*
X140236640Y-126928250D01*
X140236640Y-126928250D02*
X140316308Y-126998896D01*
X140316308Y-126998896D02*
X140362304Y-127011220D01*
X140362304Y-127011220D02*
X140466622Y-126989873D01*
X140466622Y-126989873D02*
X140524943Y-126956201D01*
X140524943Y-126956201D02*
X140595589Y-126876533D01*
X140595589Y-126876533D02*
X140644888Y-126692547D01*
X140644888Y-126692547D02*
X140715534Y-126612879D01*
X140715534Y-126612879D02*
X140773855Y-126579207D01*
X140773855Y-126579207D02*
X140878173Y-126557860D01*
X140878173Y-126557860D02*
X141062159Y-126607159D01*
X141062159Y-126607159D02*
X141141827Y-126677805D01*
X141141827Y-126677805D02*
X141175499Y-126736126D01*
X141175499Y-126736126D02*
X141196846Y-126840444D01*
X141196846Y-126840444D02*
X141147547Y-127024430D01*
X141147547Y-127024430D02*
X141076901Y-127104098D01*
X141076901Y-127104098D02*
X141018580Y-127137770D01*
X141018580Y-127137770D02*
X140914262Y-127159117D01*
X140914262Y-127159117D02*
X140730276Y-127109818D01*
X140730276Y-127109818D02*
X140650608Y-127039172D01*
X140650608Y-127039172D02*
X140616936Y-126980851D01*
X140616936Y-126980851D02*
X140595589Y-126876533D01*
X164429819Y-75356845D02*
X165239342Y-75356845D01*
X165239342Y-75356845D02*
X165334580Y-75404464D01*
X165334580Y-75404464D02*
X165382200Y-75452083D01*
X165382200Y-75452083D02*
X165429819Y-75547321D01*
X165429819Y-75547321D02*
X165429819Y-75737797D01*
X165429819Y-75737797D02*
X165382200Y-75833035D01*
X165382200Y-75833035D02*
X165334580Y-75880654D01*
X165334580Y-75880654D02*
X165239342Y-75928273D01*
X165239342Y-75928273D02*
X164429819Y-75928273D01*
X165429819Y-76928273D02*
X165429819Y-76356845D01*
X165429819Y-76642559D02*
X164429819Y-76642559D01*
X164429819Y-76642559D02*
X164572676Y-76547321D01*
X164572676Y-76547321D02*
X164667914Y-76452083D01*
X164667914Y-76452083D02*
X164715533Y-76356845D01*
X62685713Y-62998569D02*
X62685713Y-61998569D01*
X62685713Y-61998569D02*
X62352380Y-62712854D01*
X62352380Y-62712854D02*
X62019047Y-61998569D01*
X62019047Y-61998569D02*
X62019047Y-62998569D01*
X61638094Y-61998569D02*
X60971428Y-62998569D01*
X60971428Y-61998569D02*
X61638094Y-62998569D01*
X60447618Y-62427140D02*
X60542856Y-62379521D01*
X60542856Y-62379521D02*
X60590475Y-62331902D01*
X60590475Y-62331902D02*
X60638094Y-62236664D01*
X60638094Y-62236664D02*
X60638094Y-62189045D01*
X60638094Y-62189045D02*
X60590475Y-62093807D01*
X60590475Y-62093807D02*
X60542856Y-62046188D01*
X60542856Y-62046188D02*
X60447618Y-61998569D01*
X60447618Y-61998569D02*
X60257142Y-61998569D01*
X60257142Y-61998569D02*
X60161904Y-62046188D01*
X60161904Y-62046188D02*
X60114285Y-62093807D01*
X60114285Y-62093807D02*
X60066666Y-62189045D01*
X60066666Y-62189045D02*
X60066666Y-62236664D01*
X60066666Y-62236664D02*
X60114285Y-62331902D01*
X60114285Y-62331902D02*
X60161904Y-62379521D01*
X60161904Y-62379521D02*
X60257142Y-62427140D01*
X60257142Y-62427140D02*
X60447618Y-62427140D01*
X60447618Y-62427140D02*
X60542856Y-62474759D01*
X60542856Y-62474759D02*
X60590475Y-62522378D01*
X60590475Y-62522378D02*
X60638094Y-62617616D01*
X60638094Y-62617616D02*
X60638094Y-62808092D01*
X60638094Y-62808092D02*
X60590475Y-62903330D01*
X60590475Y-62903330D02*
X60542856Y-62950950D01*
X60542856Y-62950950D02*
X60447618Y-62998569D01*
X60447618Y-62998569D02*
X60257142Y-62998569D01*
X60257142Y-62998569D02*
X60161904Y-62950950D01*
X60161904Y-62950950D02*
X60114285Y-62903330D01*
X60114285Y-62903330D02*
X60066666Y-62808092D01*
X60066666Y-62808092D02*
X60066666Y-62617616D01*
X60066666Y-62617616D02*
X60114285Y-62522378D01*
X60114285Y-62522378D02*
X60161904Y-62474759D01*
X60161904Y-62474759D02*
X60257142Y-62427140D01*
X167129819Y-46752083D02*
X166653628Y-46418750D01*
X167129819Y-46180655D02*
X166129819Y-46180655D01*
X166129819Y-46180655D02*
X166129819Y-46561607D01*
X166129819Y-46561607D02*
X166177438Y-46656845D01*
X166177438Y-46656845D02*
X166225057Y-46704464D01*
X166225057Y-46704464D02*
X166320295Y-46752083D01*
X166320295Y-46752083D02*
X166463152Y-46752083D01*
X166463152Y-46752083D02*
X166558390Y-46704464D01*
X166558390Y-46704464D02*
X166606009Y-46656845D01*
X166606009Y-46656845D02*
X166653628Y-46561607D01*
X166653628Y-46561607D02*
X166653628Y-46180655D01*
X166129819Y-47085417D02*
X166129819Y-47752083D01*
X166129819Y-47752083D02*
X167129819Y-47323512D01*
X43729818Y-104154464D02*
X42729818Y-104154464D01*
X42729818Y-104154464D02*
X42729818Y-104392559D01*
X42729818Y-104392559D02*
X42777437Y-104535416D01*
X42777437Y-104535416D02*
X42872675Y-104630654D01*
X42872675Y-104630654D02*
X42967913Y-104678273D01*
X42967913Y-104678273D02*
X43158389Y-104725892D01*
X43158389Y-104725892D02*
X43301246Y-104725892D01*
X43301246Y-104725892D02*
X43491722Y-104678273D01*
X43491722Y-104678273D02*
X43586960Y-104630654D01*
X43586960Y-104630654D02*
X43682199Y-104535416D01*
X43682199Y-104535416D02*
X43729818Y-104392559D01*
X43729818Y-104392559D02*
X43729818Y-104154464D01*
X43729818Y-105678273D02*
X43729818Y-105106845D01*
X43729818Y-105392559D02*
X42729818Y-105392559D01*
X42729818Y-105392559D02*
X42872675Y-105297321D01*
X42872675Y-105297321D02*
X42967913Y-105202083D01*
X42967913Y-105202083D02*
X43015532Y-105106845D01*
X43729818Y-106154464D02*
X43729818Y-106344940D01*
X43729818Y-106344940D02*
X43682199Y-106440178D01*
X43682199Y-106440178D02*
X43634579Y-106487797D01*
X43634579Y-106487797D02*
X43491722Y-106583035D01*
X43491722Y-106583035D02*
X43301246Y-106630654D01*
X43301246Y-106630654D02*
X42920294Y-106630654D01*
X42920294Y-106630654D02*
X42825056Y-106583035D01*
X42825056Y-106583035D02*
X42777437Y-106535416D01*
X42777437Y-106535416D02*
X42729818Y-106440178D01*
X42729818Y-106440178D02*
X42729818Y-106249702D01*
X42729818Y-106249702D02*
X42777437Y-106154464D01*
X42777437Y-106154464D02*
X42825056Y-106106845D01*
X42825056Y-106106845D02*
X42920294Y-106059226D01*
X42920294Y-106059226D02*
X43158389Y-106059226D01*
X43158389Y-106059226D02*
X43253627Y-106106845D01*
X43253627Y-106106845D02*
X43301246Y-106154464D01*
X43301246Y-106154464D02*
X43348865Y-106249702D01*
X43348865Y-106249702D02*
X43348865Y-106440178D01*
X43348865Y-106440178D02*
X43301246Y-106535416D01*
X43301246Y-106535416D02*
X43253627Y-106583035D01*
X43253627Y-106583035D02*
X43158389Y-106630654D01*
X165135216Y-127919577D02*
X165635216Y-127053551D01*
X165635216Y-127053551D02*
X164989398Y-127505474D01*
X164989398Y-127505474D02*
X165057866Y-126720218D01*
X165057866Y-126720218D02*
X164557866Y-127586243D01*
X164727952Y-126529742D02*
X163650601Y-127062434D01*
X164150601Y-126196409D02*
X164227952Y-127395767D01*
X163814307Y-126112220D02*
X163796877Y-126047172D01*
X163796877Y-126047172D02*
X163738208Y-125958313D01*
X163738208Y-125958313D02*
X163532012Y-125839266D01*
X163532012Y-125839266D02*
X163425724Y-125832886D01*
X163425724Y-125832886D02*
X163360675Y-125850316D01*
X163360675Y-125850316D02*
X163271816Y-125908985D01*
X163271816Y-125908985D02*
X163224197Y-125991463D01*
X163224197Y-125991463D02*
X163194008Y-126138991D01*
X163194008Y-126138991D02*
X163403166Y-126919577D01*
X163403166Y-126919577D02*
X162867055Y-126610053D01*
X162454661Y-126371958D02*
X162289704Y-126276720D01*
X162289704Y-126276720D02*
X162231035Y-126187861D01*
X162231035Y-126187861D02*
X162213605Y-126122812D01*
X162213605Y-126122812D02*
X162202555Y-125951475D01*
X162202555Y-125951475D02*
X162256554Y-125762709D01*
X162256554Y-125762709D02*
X162447030Y-125432794D01*
X162447030Y-125432794D02*
X162535889Y-125374125D01*
X162535889Y-125374125D02*
X162600938Y-125356695D01*
X162600938Y-125356695D02*
X162707226Y-125363075D01*
X162707226Y-125363075D02*
X162872183Y-125458313D01*
X162872183Y-125458313D02*
X162930852Y-125547172D01*
X162930852Y-125547172D02*
X162948282Y-125612220D01*
X162948282Y-125612220D02*
X162941902Y-125718509D01*
X162941902Y-125718509D02*
X162822854Y-125924705D01*
X162822854Y-125924705D02*
X162733996Y-125983374D01*
X162733996Y-125983374D02*
X162668947Y-126000804D01*
X162668947Y-126000804D02*
X162562659Y-125994424D01*
X162562659Y-125994424D02*
X162397702Y-125899186D01*
X162397702Y-125899186D02*
X162339033Y-125810328D01*
X162339033Y-125810328D02*
X162321603Y-125745279D01*
X162321603Y-125745279D02*
X162327983Y-125638991D01*
X149008333Y-81653569D02*
X149008333Y-82367854D01*
X149008333Y-82367854D02*
X149055952Y-82510711D01*
X149055952Y-82510711D02*
X149151190Y-82605950D01*
X149151190Y-82605950D02*
X149294047Y-82653569D01*
X149294047Y-82653569D02*
X149389285Y-82653569D01*
X148627380Y-81653569D02*
X148008333Y-81653569D01*
X148008333Y-81653569D02*
X148341666Y-82034521D01*
X148341666Y-82034521D02*
X148198809Y-82034521D01*
X148198809Y-82034521D02*
X148103571Y-82082140D01*
X148103571Y-82082140D02*
X148055952Y-82129759D01*
X148055952Y-82129759D02*
X148008333Y-82224997D01*
X148008333Y-82224997D02*
X148008333Y-82463092D01*
X148008333Y-82463092D02*
X148055952Y-82558330D01*
X148055952Y-82558330D02*
X148103571Y-82605950D01*
X148103571Y-82605950D02*
X148198809Y-82653569D01*
X148198809Y-82653569D02*
X148484523Y-82653569D01*
X148484523Y-82653569D02*
X148579761Y-82605950D01*
X148579761Y-82605950D02*
X148627380Y-82558330D01*
X43729818Y-85104464D02*
X42729818Y-85104464D01*
X42729818Y-85104464D02*
X42729818Y-85342559D01*
X42729818Y-85342559D02*
X42777437Y-85485416D01*
X42777437Y-85485416D02*
X42872675Y-85580654D01*
X42872675Y-85580654D02*
X42967913Y-85628273D01*
X42967913Y-85628273D02*
X43158389Y-85675892D01*
X43158389Y-85675892D02*
X43301246Y-85675892D01*
X43301246Y-85675892D02*
X43491722Y-85628273D01*
X43491722Y-85628273D02*
X43586960Y-85580654D01*
X43586960Y-85580654D02*
X43682199Y-85485416D01*
X43682199Y-85485416D02*
X43729818Y-85342559D01*
X43729818Y-85342559D02*
X43729818Y-85104464D01*
X43729818Y-86628273D02*
X43729818Y-86056845D01*
X43729818Y-86342559D02*
X42729818Y-86342559D01*
X42729818Y-86342559D02*
X42872675Y-86247321D01*
X42872675Y-86247321D02*
X42967913Y-86152083D01*
X42967913Y-86152083D02*
X43015532Y-86056845D01*
X42729818Y-86961607D02*
X42729818Y-87580654D01*
X42729818Y-87580654D02*
X43110770Y-87247321D01*
X43110770Y-87247321D02*
X43110770Y-87390178D01*
X43110770Y-87390178D02*
X43158389Y-87485416D01*
X43158389Y-87485416D02*
X43206008Y-87533035D01*
X43206008Y-87533035D02*
X43301246Y-87580654D01*
X43301246Y-87580654D02*
X43539341Y-87580654D01*
X43539341Y-87580654D02*
X43634579Y-87533035D01*
X43634579Y-87533035D02*
X43682199Y-87485416D01*
X43682199Y-87485416D02*
X43729818Y-87390178D01*
X43729818Y-87390178D02*
X43729818Y-87104464D01*
X43729818Y-87104464D02*
X43682199Y-87009226D01*
X43682199Y-87009226D02*
X43634579Y-86961607D01*
X158564580Y-47275892D02*
X158612200Y-47228273D01*
X158612200Y-47228273D02*
X158659819Y-47085416D01*
X158659819Y-47085416D02*
X158659819Y-46990178D01*
X158659819Y-46990178D02*
X158612200Y-46847321D01*
X158612200Y-46847321D02*
X158516961Y-46752083D01*
X158516961Y-46752083D02*
X158421723Y-46704464D01*
X158421723Y-46704464D02*
X158231247Y-46656845D01*
X158231247Y-46656845D02*
X158088390Y-46656845D01*
X158088390Y-46656845D02*
X157897914Y-46704464D01*
X157897914Y-46704464D02*
X157802676Y-46752083D01*
X157802676Y-46752083D02*
X157707438Y-46847321D01*
X157707438Y-46847321D02*
X157659819Y-46990178D01*
X157659819Y-46990178D02*
X157659819Y-47085416D01*
X157659819Y-47085416D02*
X157707438Y-47228273D01*
X157707438Y-47228273D02*
X157755057Y-47275892D01*
X158659819Y-48228273D02*
X158659819Y-47656845D01*
X158659819Y-47942559D02*
X157659819Y-47942559D01*
X157659819Y-47942559D02*
X157802676Y-47847321D01*
X157802676Y-47847321D02*
X157897914Y-47752083D01*
X157897914Y-47752083D02*
X157945533Y-47656845D01*
X157993152Y-49085416D02*
X158659819Y-49085416D01*
X157612200Y-48847321D02*
X158326485Y-48609226D01*
X158326485Y-48609226D02*
X158326485Y-49228273D01*
X62685713Y-43948569D02*
X62685713Y-42948569D01*
X62685713Y-42948569D02*
X62352380Y-43662854D01*
X62352380Y-43662854D02*
X62019047Y-42948569D01*
X62019047Y-42948569D02*
X62019047Y-43948569D01*
X61638094Y-42948569D02*
X60971428Y-43948569D01*
X60971428Y-42948569D02*
X61638094Y-43948569D01*
X60638094Y-43043807D02*
X60590475Y-42996188D01*
X60590475Y-42996188D02*
X60495237Y-42948569D01*
X60495237Y-42948569D02*
X60257142Y-42948569D01*
X60257142Y-42948569D02*
X60161904Y-42996188D01*
X60161904Y-42996188D02*
X60114285Y-43043807D01*
X60114285Y-43043807D02*
X60066666Y-43139045D01*
X60066666Y-43139045D02*
X60066666Y-43234283D01*
X60066666Y-43234283D02*
X60114285Y-43377140D01*
X60114285Y-43377140D02*
X60685713Y-43948569D01*
X60685713Y-43948569D02*
X60066666Y-43948569D01*
X62779818Y-47480655D02*
X61779818Y-47480655D01*
X61779818Y-47480655D02*
X61779818Y-47718750D01*
X61779818Y-47718750D02*
X61827437Y-47861607D01*
X61827437Y-47861607D02*
X61922675Y-47956845D01*
X61922675Y-47956845D02*
X62017913Y-48004464D01*
X62017913Y-48004464D02*
X62208389Y-48052083D01*
X62208389Y-48052083D02*
X62351246Y-48052083D01*
X62351246Y-48052083D02*
X62541722Y-48004464D01*
X62541722Y-48004464D02*
X62636960Y-47956845D01*
X62636960Y-47956845D02*
X62732199Y-47861607D01*
X62732199Y-47861607D02*
X62779818Y-47718750D01*
X62779818Y-47718750D02*
X62779818Y-47480655D01*
X61875056Y-48433036D02*
X61827437Y-48480655D01*
X61827437Y-48480655D02*
X61779818Y-48575893D01*
X61779818Y-48575893D02*
X61779818Y-48813988D01*
X61779818Y-48813988D02*
X61827437Y-48909226D01*
X61827437Y-48909226D02*
X61875056Y-48956845D01*
X61875056Y-48956845D02*
X61970294Y-49004464D01*
X61970294Y-49004464D02*
X62065532Y-49004464D01*
X62065532Y-49004464D02*
X62208389Y-48956845D01*
X62208389Y-48956845D02*
X62779818Y-48385417D01*
X62779818Y-48385417D02*
X62779818Y-49004464D01*
X167441666Y-80778330D02*
X167489285Y-80825950D01*
X167489285Y-80825950D02*
X167632142Y-80873569D01*
X167632142Y-80873569D02*
X167727380Y-80873569D01*
X167727380Y-80873569D02*
X167870237Y-80825950D01*
X167870237Y-80825950D02*
X167965475Y-80730711D01*
X167965475Y-80730711D02*
X168013094Y-80635473D01*
X168013094Y-80635473D02*
X168060713Y-80444997D01*
X168060713Y-80444997D02*
X168060713Y-80302140D01*
X168060713Y-80302140D02*
X168013094Y-80111664D01*
X168013094Y-80111664D02*
X167965475Y-80016426D01*
X167965475Y-80016426D02*
X167870237Y-79921188D01*
X167870237Y-79921188D02*
X167727380Y-79873569D01*
X167727380Y-79873569D02*
X167632142Y-79873569D01*
X167632142Y-79873569D02*
X167489285Y-79921188D01*
X167489285Y-79921188D02*
X167441666Y-79968807D01*
X166965475Y-80873569D02*
X166774999Y-80873569D01*
X166774999Y-80873569D02*
X166679761Y-80825950D01*
X166679761Y-80825950D02*
X166632142Y-80778330D01*
X166632142Y-80778330D02*
X166536904Y-80635473D01*
X166536904Y-80635473D02*
X166489285Y-80444997D01*
X166489285Y-80444997D02*
X166489285Y-80064045D01*
X166489285Y-80064045D02*
X166536904Y-79968807D01*
X166536904Y-79968807D02*
X166584523Y-79921188D01*
X166584523Y-79921188D02*
X166679761Y-79873569D01*
X166679761Y-79873569D02*
X166870237Y-79873569D01*
X166870237Y-79873569D02*
X166965475Y-79921188D01*
X166965475Y-79921188D02*
X167013094Y-79968807D01*
X167013094Y-79968807D02*
X167060713Y-80064045D01*
X167060713Y-80064045D02*
X167060713Y-80302140D01*
X167060713Y-80302140D02*
X167013094Y-80397378D01*
X167013094Y-80397378D02*
X166965475Y-80444997D01*
X166965475Y-80444997D02*
X166870237Y-80492616D01*
X166870237Y-80492616D02*
X166679761Y-80492616D01*
X166679761Y-80492616D02*
X166584523Y-80444997D01*
X166584523Y-80444997D02*
X166536904Y-80397378D01*
X166536904Y-80397378D02*
X166489285Y-80302140D01*
X138979818Y-45099405D02*
X137979818Y-45099405D01*
X137979818Y-45099405D02*
X137979818Y-45337500D01*
X137979818Y-45337500D02*
X138027437Y-45480357D01*
X138027437Y-45480357D02*
X138122675Y-45575595D01*
X138122675Y-45575595D02*
X138217913Y-45623214D01*
X138217913Y-45623214D02*
X138408389Y-45670833D01*
X138408389Y-45670833D02*
X138551246Y-45670833D01*
X138551246Y-45670833D02*
X138741722Y-45623214D01*
X138741722Y-45623214D02*
X138836960Y-45575595D01*
X138836960Y-45575595D02*
X138932199Y-45480357D01*
X138932199Y-45480357D02*
X138979818Y-45337500D01*
X138979818Y-45337500D02*
X138979818Y-45099405D01*
X137979818Y-46527976D02*
X137979818Y-46337500D01*
X137979818Y-46337500D02*
X138027437Y-46242262D01*
X138027437Y-46242262D02*
X138075056Y-46194643D01*
X138075056Y-46194643D02*
X138217913Y-46099405D01*
X138217913Y-46099405D02*
X138408389Y-46051786D01*
X138408389Y-46051786D02*
X138789341Y-46051786D01*
X138789341Y-46051786D02*
X138884579Y-46099405D01*
X138884579Y-46099405D02*
X138932199Y-46147024D01*
X138932199Y-46147024D02*
X138979818Y-46242262D01*
X138979818Y-46242262D02*
X138979818Y-46432738D01*
X138979818Y-46432738D02*
X138932199Y-46527976D01*
X138932199Y-46527976D02*
X138884579Y-46575595D01*
X138884579Y-46575595D02*
X138789341Y-46623214D01*
X138789341Y-46623214D02*
X138551246Y-46623214D01*
X138551246Y-46623214D02*
X138456008Y-46575595D01*
X138456008Y-46575595D02*
X138408389Y-46527976D01*
X138408389Y-46527976D02*
X138360770Y-46432738D01*
X138360770Y-46432738D02*
X138360770Y-46242262D01*
X138360770Y-46242262D02*
X138408389Y-46147024D01*
X138408389Y-46147024D02*
X138456008Y-46099405D01*
X138456008Y-46099405D02*
X138551246Y-46051786D01*
X119835713Y-39186069D02*
X119835713Y-38186069D01*
X119835713Y-38186069D02*
X119502380Y-38900354D01*
X119502380Y-38900354D02*
X119169047Y-38186069D01*
X119169047Y-38186069D02*
X119169047Y-39186069D01*
X118788094Y-38186069D02*
X118121428Y-39186069D01*
X118121428Y-38186069D02*
X118788094Y-39186069D01*
X117264285Y-38186069D02*
X117740475Y-38186069D01*
X117740475Y-38186069D02*
X117788094Y-38662259D01*
X117788094Y-38662259D02*
X117740475Y-38614640D01*
X117740475Y-38614640D02*
X117645237Y-38567021D01*
X117645237Y-38567021D02*
X117407142Y-38567021D01*
X117407142Y-38567021D02*
X117311904Y-38614640D01*
X117311904Y-38614640D02*
X117264285Y-38662259D01*
X117264285Y-38662259D02*
X117216666Y-38757497D01*
X117216666Y-38757497D02*
X117216666Y-38995592D01*
X117216666Y-38995592D02*
X117264285Y-39090830D01*
X117264285Y-39090830D02*
X117311904Y-39138450D01*
X117311904Y-39138450D02*
X117407142Y-39186069D01*
X117407142Y-39186069D02*
X117645237Y-39186069D01*
X117645237Y-39186069D02*
X117740475Y-39138450D01*
X117740475Y-39138450D02*
X117788094Y-39090830D01*
X138979818Y-101773214D02*
X137979818Y-101773214D01*
X137979818Y-101773214D02*
X137979818Y-102011309D01*
X137979818Y-102011309D02*
X138027437Y-102154166D01*
X138027437Y-102154166D02*
X138122675Y-102249404D01*
X138122675Y-102249404D02*
X138217913Y-102297023D01*
X138217913Y-102297023D02*
X138408389Y-102344642D01*
X138408389Y-102344642D02*
X138551246Y-102344642D01*
X138551246Y-102344642D02*
X138741722Y-102297023D01*
X138741722Y-102297023D02*
X138836960Y-102249404D01*
X138836960Y-102249404D02*
X138932199Y-102154166D01*
X138932199Y-102154166D02*
X138979818Y-102011309D01*
X138979818Y-102011309D02*
X138979818Y-101773214D01*
X138075056Y-102725595D02*
X138027437Y-102773214D01*
X138027437Y-102773214D02*
X137979818Y-102868452D01*
X137979818Y-102868452D02*
X137979818Y-103106547D01*
X137979818Y-103106547D02*
X138027437Y-103201785D01*
X138027437Y-103201785D02*
X138075056Y-103249404D01*
X138075056Y-103249404D02*
X138170294Y-103297023D01*
X138170294Y-103297023D02*
X138265532Y-103297023D01*
X138265532Y-103297023D02*
X138408389Y-103249404D01*
X138408389Y-103249404D02*
X138979818Y-102677976D01*
X138979818Y-102677976D02*
X138979818Y-103297023D01*
X138313151Y-104154166D02*
X138979818Y-104154166D01*
X137932199Y-103916071D02*
X138646484Y-103677976D01*
X138646484Y-103677976D02*
X138646484Y-104297023D01*
X161029819Y-74552083D02*
X160553628Y-74218750D01*
X161029819Y-73980655D02*
X160029819Y-73980655D01*
X160029819Y-73980655D02*
X160029819Y-74361607D01*
X160029819Y-74361607D02*
X160077438Y-74456845D01*
X160077438Y-74456845D02*
X160125057Y-74504464D01*
X160125057Y-74504464D02*
X160220295Y-74552083D01*
X160220295Y-74552083D02*
X160363152Y-74552083D01*
X160363152Y-74552083D02*
X160458390Y-74504464D01*
X160458390Y-74504464D02*
X160506009Y-74456845D01*
X160506009Y-74456845D02*
X160553628Y-74361607D01*
X160553628Y-74361607D02*
X160553628Y-73980655D01*
X161029819Y-75028274D02*
X161029819Y-75218750D01*
X161029819Y-75218750D02*
X160982200Y-75313988D01*
X160982200Y-75313988D02*
X160934580Y-75361607D01*
X160934580Y-75361607D02*
X160791723Y-75456845D01*
X160791723Y-75456845D02*
X160601247Y-75504464D01*
X160601247Y-75504464D02*
X160220295Y-75504464D01*
X160220295Y-75504464D02*
X160125057Y-75456845D01*
X160125057Y-75456845D02*
X160077438Y-75409226D01*
X160077438Y-75409226D02*
X160029819Y-75313988D01*
X160029819Y-75313988D02*
X160029819Y-75123512D01*
X160029819Y-75123512D02*
X160077438Y-75028274D01*
X160077438Y-75028274D02*
X160125057Y-74980655D01*
X160125057Y-74980655D02*
X160220295Y-74933036D01*
X160220295Y-74933036D02*
X160458390Y-74933036D01*
X160458390Y-74933036D02*
X160553628Y-74980655D01*
X160553628Y-74980655D02*
X160601247Y-75028274D01*
X160601247Y-75028274D02*
X160648866Y-75123512D01*
X160648866Y-75123512D02*
X160648866Y-75313988D01*
X160648866Y-75313988D02*
X160601247Y-75409226D01*
X160601247Y-75409226D02*
X160553628Y-75456845D01*
X160553628Y-75456845D02*
X160458390Y-75504464D01*
D11*
%TO.C,D31*%
X159025000Y-43500000D02*
X161000000Y-43500000D01*
X161000000Y-42000000D02*
X159025000Y-42000000D01*
X161000000Y-43500000D02*
X161000000Y-42000000D01*
D12*
%TO.C,D17*%
X116474999Y-79906250D02*
X116474999Y-83916250D01*
X116474999Y-83916250D02*
X118474999Y-83916250D01*
X118474999Y-79906250D02*
X118474999Y-83916250D01*
D10*
%TO.C,MX7*%
X32014824Y-59543530D02*
X32014824Y-60343530D01*
X32014824Y-63433530D02*
X32014824Y-63193530D01*
X37900000Y-61593530D02*
X42464824Y-61593530D01*
X39914824Y-57543530D02*
X34014824Y-57543530D01*
X42964824Y-57543530D02*
X41414824Y-57543530D01*
X42964824Y-57773530D02*
X42964824Y-57543530D01*
X42964824Y-61093530D02*
X42964824Y-60623530D01*
X32014824Y-59543530D02*
G75*
G02*
X34014824Y-57543530I2000005J-5D01*
G01*
X35605678Y-63433530D02*
G75*
G02*
X37900000Y-61593530I2293456J-509332D01*
G01*
X42964824Y-61093530D02*
G75*
G02*
X42464824Y-61593530I-500001J1D01*
G01*
D12*
%TO.C,Y1*%
X155225000Y-45918750D02*
X151925000Y-45918750D01*
X155225000Y-49918750D02*
X155225000Y-45918750D01*
%TO.C,D1*%
X40274999Y-46568750D02*
X40274999Y-50578750D01*
X40274999Y-50578750D02*
X42274999Y-50578750D01*
X42274999Y-46568750D02*
X42274999Y-50578750D01*
%TO.C,C3*%
X161965000Y-51359330D02*
X161965000Y-51078170D01*
X162985000Y-51359330D02*
X162985000Y-51078170D01*
D10*
%TO.C,MX3*%
X70114824Y-35731030D02*
X70114824Y-36531030D01*
X70114824Y-39621030D02*
X70114824Y-39381030D01*
X76000000Y-37781030D02*
X80564824Y-37781030D01*
X78014824Y-33731030D02*
X72114824Y-33731030D01*
X81064824Y-33731030D02*
X79514824Y-33731030D01*
X81064824Y-33961030D02*
X81064824Y-33731030D01*
X81064824Y-37281030D02*
X81064824Y-36811030D01*
X70114824Y-35731030D02*
G75*
G02*
X72114824Y-33731030I2000005J-5D01*
G01*
X73705678Y-39621030D02*
G75*
G02*
X76000000Y-37781030I2293456J-509332D01*
G01*
X81064824Y-37281030D02*
G75*
G02*
X80564824Y-37781030I-500001J1D01*
G01*
%TO.C,MX11*%
X108214824Y-54781030D02*
X108214824Y-55581030D01*
X108214824Y-58671030D02*
X108214824Y-58431030D01*
X114100000Y-56831030D02*
X118664824Y-56831030D01*
X116114824Y-52781030D02*
X110214824Y-52781030D01*
X119164824Y-52781030D02*
X117614824Y-52781030D01*
X119164824Y-53011030D02*
X119164824Y-52781030D01*
X119164824Y-56331030D02*
X119164824Y-55861030D01*
X108214824Y-54781030D02*
G75*
G02*
X110214824Y-52781030I2000005J-5D01*
G01*
X111805678Y-58671030D02*
G75*
G02*
X114100000Y-56831030I2293456J-509332D01*
G01*
X119164824Y-56331030D02*
G75*
G02*
X118664824Y-56831030I-500001J1D01*
G01*
D12*
%TO.C,R8*%
X162352500Y-77181492D02*
X162352500Y-77656008D01*
X163397500Y-77181492D02*
X163397500Y-77656008D01*
D10*
%TO.C,MX1*%
X32014824Y-40493530D02*
X32014824Y-41293530D01*
X32014824Y-44383530D02*
X32014824Y-44143530D01*
X37900000Y-42543530D02*
X42464824Y-42543530D01*
X39914824Y-38493530D02*
X34014824Y-38493530D01*
X42964824Y-38493530D02*
X41414824Y-38493530D01*
X42964824Y-38723530D02*
X42964824Y-38493530D01*
X42964824Y-42043530D02*
X42964824Y-41573530D01*
X32014824Y-40493530D02*
G75*
G02*
X34014824Y-38493530I2000005J-5D01*
G01*
X35605678Y-44383530D02*
G75*
G02*
X37900000Y-42543530I2293456J-509332D01*
G01*
X42964824Y-42043530D02*
G75*
G02*
X42464824Y-42543530I-500001J1D01*
G01*
D12*
%TO.C,D27*%
X116474999Y-118006250D02*
X116474999Y-122016250D01*
X116474999Y-122016250D02*
X118474999Y-122016250D01*
X118474999Y-118006250D02*
X118474999Y-122016250D01*
D10*
%TO.C,MX16*%
X89164824Y-71449780D02*
X89164824Y-72249780D01*
X89164824Y-75339780D02*
X89164824Y-75099780D01*
X95050000Y-73499780D02*
X99614824Y-73499780D01*
X97064824Y-69449780D02*
X91164824Y-69449780D01*
X100114824Y-69449780D02*
X98564824Y-69449780D01*
X100114824Y-69679780D02*
X100114824Y-69449780D01*
X100114824Y-72999780D02*
X100114824Y-72529780D01*
X89164824Y-71449780D02*
G75*
G02*
X91164824Y-69449780I2000005J-5D01*
G01*
X92755678Y-75339780D02*
G75*
G02*
X95050000Y-73499780I2293456J-509332D01*
G01*
X100114824Y-72999780D02*
G75*
G02*
X99614824Y-73499780I-500001J1D01*
G01*
D12*
%TO.C,D3*%
X78374999Y-41806250D02*
X78374999Y-45816250D01*
X78374999Y-45816250D02*
X80374999Y-45816250D01*
X80374999Y-41806250D02*
X80374999Y-45816250D01*
%TO.C,D15*%
X78374999Y-79906250D02*
X78374999Y-83916250D01*
X78374999Y-83916250D02*
X80374999Y-83916250D01*
X80374999Y-79906250D02*
X80374999Y-83916250D01*
%TO.C,U2*%
X151465000Y-54308750D02*
X151465000Y-55258750D01*
X151465000Y-64528750D02*
X151465000Y-63578750D01*
X152415000Y-54308750D02*
X151465000Y-54308750D01*
X152415000Y-64528750D02*
X151465000Y-64528750D01*
X160735000Y-54308750D02*
X161685000Y-54308750D01*
X160735000Y-64528750D02*
X161685000Y-64528750D01*
X161685000Y-54308750D02*
X161685000Y-55258750D01*
X161685000Y-64528750D02*
X161685000Y-63578750D01*
X152415000Y-53693750D02*
X151945000Y-54033750D01*
X151945000Y-53353750D01*
X152415000Y-53693750D01*
G36*
X152415000Y-53693750D02*
G01*
X151945000Y-54033750D01*
X151945000Y-53353750D01*
X152415000Y-53693750D01*
G37*
%TO.C,C8*%
X168534420Y-104008750D02*
X168815580Y-104008750D01*
X168534420Y-105028750D02*
X168815580Y-105028750D01*
D10*
%TO.C,MX14*%
X51064824Y-78593530D02*
X51064824Y-79393530D01*
X51064824Y-82483530D02*
X51064824Y-82243530D01*
X56950000Y-80643530D02*
X61514824Y-80643530D01*
X58964824Y-76593530D02*
X53064824Y-76593530D01*
X62014824Y-76593530D02*
X60464824Y-76593530D01*
X62014824Y-76823530D02*
X62014824Y-76593530D01*
X62014824Y-80143530D02*
X62014824Y-79673530D01*
X51064824Y-78593530D02*
G75*
G02*
X53064824Y-76593530I2000005J-5D01*
G01*
X54655678Y-82483530D02*
G75*
G02*
X56950000Y-80643530I2293456J-509332D01*
G01*
X62014824Y-80143530D02*
G75*
G02*
X61514824Y-80643530I-500001J1D01*
G01*
D12*
%TO.C,R3*%
X157752500Y-77181492D02*
X157752500Y-77656008D01*
X158797500Y-77181492D02*
X158797500Y-77656008D01*
%TO.C,D10*%
X97424999Y-58475000D02*
X97424999Y-62485000D01*
X97424999Y-62485000D02*
X99424999Y-62485000D01*
X99424999Y-58475000D02*
X99424999Y-62485000D01*
D10*
%TO.C,MX9*%
X70114824Y-54781030D02*
X70114824Y-55581030D01*
X70114824Y-58671030D02*
X70114824Y-58431030D01*
X76000000Y-56831030D02*
X80564824Y-56831030D01*
X78014824Y-52781030D02*
X72114824Y-52781030D01*
X81064824Y-52781030D02*
X79514824Y-52781030D01*
X81064824Y-53011030D02*
X81064824Y-52781030D01*
X81064824Y-56331030D02*
X81064824Y-55861030D01*
X70114824Y-54781030D02*
G75*
G02*
X72114824Y-52781030I2000005J-5D01*
G01*
X73705678Y-58671030D02*
G75*
G02*
X76000000Y-56831030I2293456J-509332D01*
G01*
X81064824Y-56331030D02*
G75*
G02*
X80564824Y-56831030I-500001J1D01*
G01*
D12*
%TO.C,D22*%
X97424999Y-96575000D02*
X97424999Y-100585000D01*
X97424999Y-100585000D02*
X99424999Y-100585000D01*
X99424999Y-96575000D02*
X99424999Y-100585000D01*
%TO.C,J2*%
X145745000Y-88188750D02*
X148405000Y-88188750D01*
X145745000Y-95868750D02*
X145745000Y-88188750D01*
X145745000Y-95868750D02*
X148405000Y-95868750D01*
X147075000Y-85588750D02*
X148405000Y-85588750D01*
X148405000Y-85588750D02*
X148405000Y-86918750D01*
X148405000Y-95868750D02*
X148405000Y-88188750D01*
%TO.C,R10*%
X161952500Y-46881492D02*
X161952500Y-47356008D01*
X162997500Y-46881492D02*
X162997500Y-47356008D01*
D10*
%TO.C,MX24*%
X127264824Y-95262280D02*
X127264824Y-96062280D01*
X127264824Y-99152280D02*
X127264824Y-98912280D01*
X133150000Y-97312280D02*
X137714824Y-97312280D01*
X135164824Y-93262280D02*
X129264824Y-93262280D01*
X138214824Y-93262280D02*
X136664824Y-93262280D01*
X138214824Y-93492280D02*
X138214824Y-93262280D01*
X138214824Y-96812280D02*
X138214824Y-96342280D01*
X127264824Y-95262280D02*
G75*
G02*
X129264824Y-93262280I2000005J-5D01*
G01*
X130855678Y-99152280D02*
G75*
G02*
X133150000Y-97312280I2293456J-509332D01*
G01*
X138214824Y-96812280D02*
G75*
G02*
X137714824Y-97312280I-500001J1D01*
G01*
D12*
%TO.C,R2*%
X168152500Y-62856008D02*
X168152500Y-62381492D01*
X169197500Y-62856008D02*
X169197500Y-62381492D01*
%TO.C,D14*%
X59324999Y-84668750D02*
X59324999Y-88678750D01*
X59324999Y-88678750D02*
X61324999Y-88678750D01*
X61324999Y-84668750D02*
X61324999Y-88678750D01*
%TO.C,D20*%
X59324999Y-103718750D02*
X59324999Y-107728750D01*
X59324999Y-107728750D02*
X61324999Y-107728750D01*
X61324999Y-103718750D02*
X61324999Y-107728750D01*
D10*
%TO.C,MX22*%
X89164824Y-90499780D02*
X89164824Y-91299780D01*
X89164824Y-94389780D02*
X89164824Y-94149780D01*
X95050000Y-92549780D02*
X99614824Y-92549780D01*
X97064824Y-88499780D02*
X91164824Y-88499780D01*
X100114824Y-88499780D02*
X98564824Y-88499780D01*
X100114824Y-88729780D02*
X100114824Y-88499780D01*
X100114824Y-92049780D02*
X100114824Y-91579780D01*
X89164824Y-90499780D02*
G75*
G02*
X91164824Y-88499780I2000005J-5D01*
G01*
X92755678Y-94389780D02*
G75*
G02*
X95050000Y-92549780I2293456J-509332D01*
G01*
X100114824Y-92049780D02*
G75*
G02*
X99614824Y-92549780I-500001J1D01*
G01*
%TO.C,MX21*%
X70114824Y-92881030D02*
X70114824Y-93681030D01*
X70114824Y-96771030D02*
X70114824Y-96531030D01*
X76000000Y-94931030D02*
X80564824Y-94931030D01*
X78014824Y-90881030D02*
X72114824Y-90881030D01*
X81064824Y-90881030D02*
X79514824Y-90881030D01*
X81064824Y-91111030D02*
X81064824Y-90881030D01*
X81064824Y-94431030D02*
X81064824Y-93961030D01*
X70114824Y-92881030D02*
G75*
G02*
X72114824Y-90881030I2000005J-5D01*
G01*
X73705678Y-96771030D02*
G75*
G02*
X76000000Y-94931030I2293456J-509332D01*
G01*
X81064824Y-94431030D02*
G75*
G02*
X80564824Y-94931030I-500001J1D01*
G01*
D12*
%TO.C,D11*%
X116474999Y-60856250D02*
X116474999Y-64866250D01*
X116474999Y-64866250D02*
X118474999Y-64866250D01*
X118474999Y-60856250D02*
X118474999Y-64866250D01*
%TO.C,C7*%
X168090580Y-57108750D02*
X167809420Y-57108750D01*
X168090580Y-58128750D02*
X167809420Y-58128750D01*
D10*
%TO.C,MX13*%
X32014824Y-78593530D02*
X32014824Y-79393530D01*
X32014824Y-82483530D02*
X32014824Y-82243530D01*
X37900000Y-80643530D02*
X42464824Y-80643530D01*
X39914824Y-76593530D02*
X34014824Y-76593530D01*
X42964824Y-76593530D02*
X41414824Y-76593530D01*
X42964824Y-76823530D02*
X42964824Y-76593530D01*
X42964824Y-80143530D02*
X42964824Y-79673530D01*
X32014824Y-78593530D02*
G75*
G02*
X34014824Y-76593530I2000005J-5D01*
G01*
X35605678Y-82483530D02*
G75*
G02*
X37900000Y-80643530I2293456J-509332D01*
G01*
X42964824Y-80143530D02*
G75*
G02*
X42464824Y-80643530I-500001J1D01*
G01*
D12*
%TO.C,D5*%
X116474999Y-41806250D02*
X116474999Y-45816250D01*
X116474999Y-45816250D02*
X118474999Y-45816250D01*
X118474999Y-41806250D02*
X118474999Y-45816250D01*
D10*
%TO.C,MX15*%
X70114824Y-73831030D02*
X70114824Y-74631030D01*
X70114824Y-77721030D02*
X70114824Y-77481030D01*
X76000000Y-75881030D02*
X80564824Y-75881030D01*
X78014824Y-71831030D02*
X72114824Y-71831030D01*
X81064824Y-71831030D02*
X79514824Y-71831030D01*
X81064824Y-72061030D02*
X81064824Y-71831030D01*
X81064824Y-75381030D02*
X81064824Y-74911030D01*
X70114824Y-73831030D02*
G75*
G02*
X72114824Y-71831030I2000005J-5D01*
G01*
X73705678Y-77721030D02*
G75*
G02*
X76000000Y-75881030I2293456J-509332D01*
G01*
X81064824Y-75381030D02*
G75*
G02*
X80564824Y-75881030I-500001J1D01*
G01*
D12*
%TO.C,D12*%
X135524999Y-63237500D02*
X135524999Y-67247500D01*
X135524999Y-67247500D02*
X137524999Y-67247500D01*
X137524999Y-63237500D02*
X137524999Y-67247500D01*
D10*
%TO.C,MX19*%
X32014824Y-97643530D02*
X32014824Y-98443530D01*
X32014824Y-101533530D02*
X32014824Y-101293530D01*
X37900000Y-99693530D02*
X42464824Y-99693530D01*
X39914824Y-95643530D02*
X34014824Y-95643530D01*
X42964824Y-95643530D02*
X41414824Y-95643530D01*
X42964824Y-95873530D02*
X42964824Y-95643530D01*
X42964824Y-99193530D02*
X42964824Y-98723530D01*
X32014824Y-97643530D02*
G75*
G02*
X34014824Y-95643530I2000005J-5D01*
G01*
X35605678Y-101533530D02*
G75*
G02*
X37900000Y-99693530I2293456J-509332D01*
G01*
X42964824Y-99193530D02*
G75*
G02*
X42464824Y-99693530I-500001J1D01*
G01*
D12*
%TO.C,D9*%
X78374999Y-60856250D02*
X78374999Y-64866250D01*
X78374999Y-64866250D02*
X80374999Y-64866250D01*
X80374999Y-60856250D02*
X80374999Y-64866250D01*
D10*
%TO.C,MX17*%
X108214824Y-73831030D02*
X108214824Y-74631030D01*
X108214824Y-77721030D02*
X108214824Y-77481030D01*
X114100000Y-75881030D02*
X118664824Y-75881030D01*
X116114824Y-71831030D02*
X110214824Y-71831030D01*
X119164824Y-71831030D02*
X117614824Y-71831030D01*
X119164824Y-72061030D02*
X119164824Y-71831030D01*
X119164824Y-75381030D02*
X119164824Y-74911030D01*
X108214824Y-73831030D02*
G75*
G02*
X110214824Y-71831030I2000005J-5D01*
G01*
X111805678Y-77721030D02*
G75*
G02*
X114100000Y-75881030I2293456J-509332D01*
G01*
X119164824Y-75381030D02*
G75*
G02*
X118664824Y-75881030I-500001J1D01*
G01*
D12*
%TO.C,J1*%
X143945000Y-45088750D02*
X146605000Y-45088750D01*
X143945000Y-47688750D02*
X143945000Y-45088750D01*
X143945000Y-47688750D02*
X146605000Y-47688750D01*
X145275000Y-42488750D02*
X146605000Y-42488750D01*
X146605000Y-42488750D02*
X146605000Y-43818750D01*
X146605000Y-47688750D02*
X146605000Y-45088750D01*
%TO.C,R5*%
X155352500Y-77181492D02*
X155352500Y-77656008D01*
X156397500Y-77181492D02*
X156397500Y-77656008D01*
%TO.C,C12*%
X149965000Y-48059330D02*
X149965000Y-47778170D01*
X150985000Y-48059330D02*
X150985000Y-47778170D01*
%TO.C,D18*%
X135524999Y-82287500D02*
X135524999Y-86297500D01*
X135524999Y-86297500D02*
X137524999Y-86297500D01*
X137524999Y-82287500D02*
X137524999Y-86297500D01*
%TO.C,C6*%
X150434420Y-67208750D02*
X150715580Y-67208750D01*
X150434420Y-68228750D02*
X150715580Y-68228750D01*
%TO.C,SW1*%
X164825000Y-109118750D02*
X165275000Y-108668750D01*
X164825000Y-111618750D02*
X164825000Y-109118750D01*
X164825000Y-111618750D02*
X165275000Y-112068750D01*
X168575000Y-107618750D02*
X166575000Y-107618750D01*
X168575000Y-113118750D02*
X166575000Y-113118750D01*
X170325000Y-109118750D02*
X169875000Y-108668750D01*
X170325000Y-111618750D02*
X169875000Y-112068750D01*
X170325000Y-111618750D02*
X170325000Y-109118750D01*
D10*
%TO.C,MX4*%
X89164824Y-33349780D02*
X89164824Y-34149780D01*
X89164824Y-37239780D02*
X89164824Y-36999780D01*
X95050000Y-35399780D02*
X99614824Y-35399780D01*
X97064824Y-31349780D02*
X91164824Y-31349780D01*
X100114824Y-31349780D02*
X98564824Y-31349780D01*
X100114824Y-31579780D02*
X100114824Y-31349780D01*
X100114824Y-34899780D02*
X100114824Y-34429780D01*
X89164824Y-33349780D02*
G75*
G02*
X91164824Y-31349780I2000005J-5D01*
G01*
X92755678Y-37239780D02*
G75*
G02*
X95050000Y-35399780I2293456J-509332D01*
G01*
X100114824Y-34899780D02*
G75*
G02*
X99614824Y-35399780I-500001J1D01*
G01*
D12*
%TO.C,D7*%
X40274999Y-65618750D02*
X40274999Y-69628750D01*
X40274999Y-69628750D02*
X42274999Y-69628750D01*
X42274999Y-65618750D02*
X42274999Y-69628750D01*
%TO.C,D29*%
X158497269Y-131743029D02*
X160229319Y-132743029D01*
X160502269Y-128270267D02*
X158497269Y-131743029D01*
X162234319Y-129270267D02*
X160229319Y-132743029D01*
%TO.C,C2*%
X166234420Y-65208750D02*
X166515580Y-65208750D01*
X166234420Y-66228750D02*
X166515580Y-66228750D01*
D10*
%TO.C,MX20*%
X51064824Y-97643530D02*
X51064824Y-98443530D01*
X51064824Y-101533530D02*
X51064824Y-101293530D01*
X56950000Y-99693530D02*
X61514824Y-99693530D01*
X58964824Y-95643530D02*
X53064824Y-95643530D01*
X62014824Y-95643530D02*
X60464824Y-95643530D01*
X62014824Y-95873530D02*
X62014824Y-95643530D01*
X62014824Y-99193530D02*
X62014824Y-98723530D01*
X51064824Y-97643530D02*
G75*
G02*
X53064824Y-95643530I2000005J-5D01*
G01*
X54655678Y-101533530D02*
G75*
G02*
X56950000Y-99693530I2293456J-509332D01*
G01*
X62014824Y-99193530D02*
G75*
G02*
X61514824Y-99693530I-500001J1D01*
G01*
D12*
%TO.C,D25*%
X78374999Y-118006250D02*
X78374999Y-122016250D01*
X78374999Y-122016250D02*
X80374999Y-122016250D01*
X80374999Y-118006250D02*
X80374999Y-122016250D01*
D10*
%TO.C,MX27*%
X108214824Y-111931030D02*
X108214824Y-112731030D01*
X108214824Y-115821030D02*
X108214824Y-115581030D01*
X114100000Y-113981030D02*
X118664824Y-113981030D01*
X116114824Y-109931030D02*
X110214824Y-109931030D01*
X119164824Y-109931030D02*
X117614824Y-109931030D01*
X119164824Y-110161030D02*
X119164824Y-109931030D01*
X119164824Y-113481030D02*
X119164824Y-113011030D01*
X108214824Y-111931030D02*
G75*
G02*
X110214824Y-109931030I2000005J-5D01*
G01*
X111805678Y-115821030D02*
G75*
G02*
X114100000Y-113981030I2293456J-509332D01*
G01*
X119164824Y-113481030D02*
G75*
G02*
X118664824Y-113981030I-500001J1D01*
G01*
%TO.C,MX10*%
X89164824Y-52399780D02*
X89164824Y-53199780D01*
X89164824Y-56289780D02*
X89164824Y-56049780D01*
X95050000Y-54449780D02*
X99614824Y-54449780D01*
X97064824Y-50399780D02*
X91164824Y-50399780D01*
X100114824Y-50399780D02*
X98564824Y-50399780D01*
X100114824Y-50629780D02*
X100114824Y-50399780D01*
X100114824Y-53949780D02*
X100114824Y-53479780D01*
X89164824Y-52399780D02*
G75*
G02*
X91164824Y-50399780I2000005J-5D01*
G01*
X92755678Y-56289780D02*
G75*
G02*
X95050000Y-54449780I2293456J-509332D01*
G01*
X100114824Y-53949780D02*
G75*
G02*
X99614824Y-54449780I-500001J1D01*
G01*
D12*
%TO.C,C11*%
X165465000Y-61178170D02*
X165465000Y-61459330D01*
X166485000Y-61178170D02*
X166485000Y-61459330D01*
%TO.C,D16*%
X97424999Y-77525000D02*
X97424999Y-81535000D01*
X97424999Y-81535000D02*
X99424999Y-81535000D01*
X99424999Y-77525000D02*
X99424999Y-81535000D01*
D10*
%TO.C,MX26*%
X89164824Y-109549780D02*
X89164824Y-110349780D01*
X89164824Y-113439780D02*
X89164824Y-113199780D01*
X95050000Y-111599780D02*
X99614824Y-111599780D01*
X97064824Y-107549780D02*
X91164824Y-107549780D01*
X100114824Y-107549780D02*
X98564824Y-107549780D01*
X100114824Y-107779780D02*
X100114824Y-107549780D01*
X100114824Y-111099780D02*
X100114824Y-110629780D01*
X89164824Y-109549780D02*
G75*
G02*
X91164824Y-107549780I2000005J-5D01*
G01*
X92755678Y-113439780D02*
G75*
G02*
X95050000Y-111599780I2293456J-509332D01*
G01*
X100114824Y-111099780D02*
G75*
G02*
X99614824Y-111599780I-500001J1D01*
G01*
D12*
%TO.C,D4*%
X97424999Y-39425000D02*
X97424999Y-43435000D01*
X97424999Y-43435000D02*
X99424999Y-43435000D01*
X99424999Y-39425000D02*
X99424999Y-43435000D01*
D10*
%TO.C,MX18*%
X127264824Y-76212280D02*
X127264824Y-77012280D01*
X127264824Y-80102280D02*
X127264824Y-79862280D01*
X133150000Y-78262280D02*
X137714824Y-78262280D01*
X135164824Y-74212280D02*
X129264824Y-74212280D01*
X138214824Y-74212280D02*
X136664824Y-74212280D01*
X138214824Y-74442280D02*
X138214824Y-74212280D01*
X138214824Y-77762280D02*
X138214824Y-77292280D01*
X127264824Y-76212280D02*
G75*
G02*
X129264824Y-74212280I2000005J-5D01*
G01*
X130855678Y-80102280D02*
G75*
G02*
X133150000Y-78262280I2293456J-509332D01*
G01*
X138214824Y-77762280D02*
G75*
G02*
X137714824Y-78262280I-500001J1D01*
G01*
%TO.C,MX12*%
X127264824Y-57162280D02*
X127264824Y-57962280D01*
X127264824Y-61052280D02*
X127264824Y-60812280D01*
X133150000Y-59212280D02*
X137714824Y-59212280D01*
X135164824Y-55162280D02*
X129264824Y-55162280D01*
X138214824Y-55162280D02*
X136664824Y-55162280D01*
X138214824Y-55392280D02*
X138214824Y-55162280D01*
X138214824Y-58712280D02*
X138214824Y-58242280D01*
X127264824Y-57162280D02*
G75*
G02*
X129264824Y-55162280I2000005J-5D01*
G01*
X130855678Y-61052280D02*
G75*
G02*
X133150000Y-59212280I2293456J-509332D01*
G01*
X138214824Y-58712280D02*
G75*
G02*
X137714824Y-59212280I-500001J1D01*
G01*
D12*
%TO.C,C4*%
X149965000Y-51959330D02*
X149965000Y-51678170D01*
X150985000Y-51959330D02*
X150985000Y-51678170D01*
%TO.C,C1*%
X166234420Y-67708750D02*
X166515580Y-67708750D01*
X166234420Y-68728750D02*
X166515580Y-68728750D01*
%TO.C,C5*%
X147434420Y-53308750D02*
X147715580Y-53308750D01*
X147434420Y-54328750D02*
X147715580Y-54328750D01*
D10*
%TO.C,MX28*%
X131101666Y-119252909D02*
X131163782Y-119021087D01*
X132108472Y-115495457D02*
X131901417Y-116268198D01*
X137262536Y-118998801D02*
X141671818Y-120180264D01*
X140256924Y-115608276D02*
X134557961Y-114081244D01*
X142284190Y-119826711D02*
X142405835Y-119372726D01*
X143143469Y-116619837D02*
X143202998Y-116397674D01*
X143202998Y-116397674D02*
X141705813Y-115996505D01*
X132108472Y-115495457D02*
G75*
G02*
X134557960Y-114081247I1931848J-517637D01*
G01*
X134570164Y-120182290D02*
G75*
G02*
X137262536Y-118998801I2083484J-1085567D01*
G01*
X142284190Y-119826711D02*
G75*
G02*
X141671818Y-120180265I-482964J129411D01*
G01*
D12*
%TO.C,C13*%
X162065000Y-41878170D02*
X162065000Y-42159330D01*
X163085000Y-41878170D02*
X163085000Y-42159330D01*
%TO.C,D30*%
X157815000Y-106418750D02*
X157815000Y-108418750D01*
X161825000Y-106418750D02*
X157815000Y-106418750D01*
X161825000Y-108418750D02*
X157815000Y-108418750D01*
%TO.C,C10*%
X166234420Y-70158750D02*
X166515580Y-70158750D01*
X166234420Y-71178750D02*
X166515580Y-71178750D01*
%TO.C,D26*%
X97424999Y-115625000D02*
X97424999Y-119635000D01*
X97424999Y-119635000D02*
X99424999Y-119635000D01*
X99424999Y-115625000D02*
X99424999Y-119635000D01*
D10*
%TO.C,MX25*%
X70114824Y-111931030D02*
X70114824Y-112731030D01*
X70114824Y-115821030D02*
X70114824Y-115581030D01*
X76000000Y-113981030D02*
X80564824Y-113981030D01*
X78014824Y-109931030D02*
X72114824Y-109931030D01*
X81064824Y-109931030D02*
X79514824Y-109931030D01*
X81064824Y-110161030D02*
X81064824Y-109931030D01*
X81064824Y-113481030D02*
X81064824Y-113011030D01*
X70114824Y-111931030D02*
G75*
G02*
X72114824Y-109931030I2000005J-5D01*
G01*
X73705678Y-115821030D02*
G75*
G02*
X76000000Y-113981030I2293456J-509332D01*
G01*
X81064824Y-113481030D02*
G75*
G02*
X80564824Y-113981030I-500001J1D01*
G01*
D12*
%TO.C,R1*%
X145037742Y-48996250D02*
X145512258Y-48996250D01*
X145037742Y-50041250D02*
X145512258Y-50041250D01*
%TO.C,D21*%
X78374999Y-98956250D02*
X78374999Y-102966250D01*
X78374999Y-102966250D02*
X80374999Y-102966250D01*
X80374999Y-98956250D02*
X80374999Y-102966250D01*
D10*
%TO.C,MX6*%
X127264824Y-38112280D02*
X127264824Y-38912280D01*
X127264824Y-42002280D02*
X127264824Y-41762280D01*
X133150000Y-40162280D02*
X137714824Y-40162280D01*
X135164824Y-36112280D02*
X129264824Y-36112280D01*
X138214824Y-36112280D02*
X136664824Y-36112280D01*
X138214824Y-36342280D02*
X138214824Y-36112280D01*
X138214824Y-39662280D02*
X138214824Y-39192280D01*
X127264824Y-38112280D02*
G75*
G02*
X129264824Y-36112280I2000005J-5D01*
G01*
X130855678Y-42002280D02*
G75*
G02*
X133150000Y-40162280I2293456J-509332D01*
G01*
X138214824Y-39662280D02*
G75*
G02*
X137714824Y-40162280I-500001J1D01*
G01*
D12*
%TO.C,D23*%
X116474999Y-98956250D02*
X116474999Y-102966250D01*
X116474999Y-102966250D02*
X118474999Y-102966250D01*
X118474999Y-98956250D02*
X118474999Y-102966250D01*
%TO.C,D8*%
X59324999Y-65618750D02*
X59324999Y-69628750D01*
X59324999Y-69628750D02*
X61324999Y-69628750D01*
X61324999Y-65618750D02*
X61324999Y-69628750D01*
D10*
%TO.C,MX23*%
X108214824Y-92881030D02*
X108214824Y-93681030D01*
X108214824Y-96771030D02*
X108214824Y-96531030D01*
X114100000Y-94931030D02*
X118664824Y-94931030D01*
X116114824Y-90881030D02*
X110214824Y-90881030D01*
X119164824Y-90881030D02*
X117614824Y-90881030D01*
X119164824Y-91111030D02*
X119164824Y-90881030D01*
X119164824Y-94431030D02*
X119164824Y-93961030D01*
X108214824Y-92881030D02*
G75*
G02*
X110214824Y-90881030I2000005J-5D01*
G01*
X111805678Y-96771030D02*
G75*
G02*
X114100000Y-94931030I2293456J-509332D01*
G01*
X119164824Y-94431030D02*
G75*
G02*
X118664824Y-94931030I-500001J1D01*
G01*
D12*
%TO.C,D28*%
X137476941Y-127374922D02*
X139408793Y-127892560D01*
X138514806Y-123501559D02*
X137476941Y-127374922D01*
X140446657Y-124019197D02*
X139408793Y-127892560D01*
%TO.C,U1*%
X164965000Y-73256250D02*
X164965000Y-74056250D01*
X164965000Y-74856250D02*
X164965000Y-74056250D01*
X168085000Y-73256250D02*
X168085000Y-74056250D01*
X168085000Y-74856250D02*
X168085000Y-74056250D01*
X165015000Y-72756250D02*
X164685000Y-72996250D01*
X164685000Y-72516250D01*
X165015000Y-72756250D01*
G36*
X165015000Y-72756250D02*
G01*
X164685000Y-72996250D01*
X164685000Y-72516250D01*
X165015000Y-72756250D01*
G37*
D10*
%TO.C,MX8*%
X51064824Y-59543530D02*
X51064824Y-60343530D01*
X51064824Y-63433530D02*
X51064824Y-63193530D01*
X56950000Y-61593530D02*
X61514824Y-61593530D01*
X58964824Y-57543530D02*
X53064824Y-57543530D01*
X62014824Y-57543530D02*
X60464824Y-57543530D01*
X62014824Y-57773530D02*
X62014824Y-57543530D01*
X62014824Y-61093530D02*
X62014824Y-60623530D01*
X51064824Y-59543530D02*
G75*
G02*
X53064824Y-57543530I2000005J-5D01*
G01*
X54655678Y-63433530D02*
G75*
G02*
X56950000Y-61593530I2293456J-509332D01*
G01*
X62014824Y-61093530D02*
G75*
G02*
X61514824Y-61593530I-500001J1D01*
G01*
D12*
%TO.C,R7*%
X164352500Y-47356008D02*
X164352500Y-46881492D01*
X165397500Y-47356008D02*
X165397500Y-46881492D01*
%TO.C,D19*%
X40274999Y-103718750D02*
X40274999Y-107728750D01*
X40274999Y-107728750D02*
X42274999Y-107728750D01*
X42274999Y-103718750D02*
X42274999Y-107728750D01*
D10*
%TO.C,MX29*%
X154441357Y-122247724D02*
X154561357Y-122039878D01*
X156386357Y-118878885D02*
X155986357Y-119571705D01*
X160458069Y-123596825D02*
X164411322Y-125879237D01*
X164227958Y-121096834D02*
X159118408Y-118146834D01*
X165094335Y-125696224D02*
X165329335Y-125289192D01*
X166754335Y-122821020D02*
X166869335Y-122621834D01*
X166869335Y-122621834D02*
X165526996Y-121846834D01*
X156386357Y-118878885D02*
G75*
G02*
X159118408Y-118146834I1732053J-1000007D01*
G01*
X157551128Y-124043151D02*
G75*
G02*
X160458069Y-123596826I1731525J-1587822D01*
G01*
X165094335Y-125696224D02*
G75*
G02*
X164411322Y-125879237I-433013J250001D01*
G01*
D12*
%TO.C,J3*%
X144565000Y-80003750D02*
X144565000Y-77503750D01*
X145615000Y-80003750D02*
X144565000Y-80003750D01*
X145615000Y-80993750D02*
X145615000Y-80003750D01*
X151615000Y-75533750D02*
X145735000Y-75533750D01*
X151735000Y-80003750D02*
X152785000Y-80003750D01*
X152785000Y-80003750D02*
X152785000Y-77503750D01*
%TO.C,D13*%
X40274999Y-84668750D02*
X40274999Y-88678750D01*
X40274999Y-88678750D02*
X42274999Y-88678750D01*
X42274999Y-84668750D02*
X42274999Y-88678750D01*
%TO.C,C14*%
X156265000Y-47778170D02*
X156265000Y-48059330D01*
X157285000Y-47778170D02*
X157285000Y-48059330D01*
D10*
%TO.C,MX2*%
X51064824Y-40493530D02*
X51064824Y-41293530D01*
X51064824Y-44383530D02*
X51064824Y-44143530D01*
X56950000Y-42543530D02*
X61514824Y-42543530D01*
X58964824Y-38493530D02*
X53064824Y-38493530D01*
X62014824Y-38493530D02*
X60464824Y-38493530D01*
X62014824Y-38723530D02*
X62014824Y-38493530D01*
X62014824Y-42043530D02*
X62014824Y-41573530D01*
X51064824Y-40493530D02*
G75*
G02*
X53064824Y-38493530I2000005J-5D01*
G01*
X54655678Y-44383530D02*
G75*
G02*
X56950000Y-42543530I2293456J-509332D01*
G01*
X62014824Y-42043530D02*
G75*
G02*
X61514824Y-42543530I-500001J1D01*
G01*
D12*
%TO.C,D2*%
X59324999Y-46568750D02*
X59324999Y-50578750D01*
X59324999Y-50578750D02*
X61324999Y-50578750D01*
X61324999Y-46568750D02*
X61324999Y-50578750D01*
%TO.C,C9*%
X167440580Y-78008750D02*
X167159420Y-78008750D01*
X167440580Y-79028750D02*
X167159420Y-79028750D01*
%TO.C,D6*%
X135524999Y-44187500D02*
X135524999Y-48197500D01*
X135524999Y-48197500D02*
X137524999Y-48197500D01*
X137524999Y-44187500D02*
X137524999Y-48197500D01*
D10*
%TO.C,MX5*%
X108214824Y-35731030D02*
X108214824Y-36531030D01*
X108214824Y-39621030D02*
X108214824Y-39381030D01*
X114100000Y-37781030D02*
X118664824Y-37781030D01*
X116114824Y-33731030D02*
X110214824Y-33731030D01*
X119164824Y-33731030D02*
X117614824Y-33731030D01*
X119164824Y-33961030D02*
X119164824Y-33731030D01*
X119164824Y-37281030D02*
X119164824Y-36811030D01*
X108214824Y-35731030D02*
G75*
G02*
X110214824Y-33731030I2000005J-5D01*
G01*
X111805678Y-39621030D02*
G75*
G02*
X114100000Y-37781030I2293456J-509332D01*
G01*
X119164824Y-37281030D02*
G75*
G02*
X118664824Y-37781030I-500001J1D01*
G01*
D12*
%TO.C,D24*%
X135524999Y-101337500D02*
X135524999Y-105347500D01*
X135524999Y-105347500D02*
X137524999Y-105347500D01*
X137524999Y-101337500D02*
X137524999Y-105347500D01*
%TO.C,R9*%
X160052500Y-77656008D02*
X160052500Y-77181492D01*
X161097500Y-77656008D02*
X161097500Y-77181492D01*
%TD*%
M02*
